<svg width="32" height="32" viewBox="0 0 32 32" fill="none" xmlns="http://www.w3.org/2000/svg">
<g clip-path="url(#clip0_397_10244)">
<path d="M0.800029 13.4L4.20003 13.2C4.10003 13.4 4.00003 13.7 4.00003 14C4.00003 15.1 4.90003 16 6.00003 16C7.10003 16 8.00003 15.1 8.00003 14C8.00003 13.6 7.90003 13.2 7.70003 12.9L10.8 12.7C11.5 15.8 13.5 18 16.1 18C18.7 18 20.7 15.8 21.4 12.7L24.5 12.9C24.1 13.2 24 13.6 24 14C24 15.1 24.9 16 26 16C27.1 16 28 15.1 28 14C28 13.7 27.9 13.4 27.8 13.1L31.2 13.3C32.3 13.1 32.3 11.7 31.2 11.4L21.4 8.8C21.3 8 21.1 7.3 20.8 6.7L24.6 6.2C25.2 6 25.2 4.9 24.6 4.7L19 4C18.4 3.5 17.7 3.1 17 3L16.6 0.300003C16.5 -0.199997 15.8 -0.199997 15.6 0.300003L15.2 3C14.5 3.2 13.8 3.5 13.2 4L7.50003 4.8C6.80003 5 6.90003 6 7.50003 6.2L11.3 6.7C11 7.3 10.8 8.1 10.7 8.8L0.900029 11.4C-0.299971 11.7 -0.299971 13.2 0.800029 13.4ZM16 5C17.2 5 18.3 6.1 19 7.6L16 8L13 7.6C13.7 6.1 14.8 5 16 5ZM12.6 9.6L16 11L19.4 9.6C19.4 9.9 19.5 10.2 19.5 10.5C19.5 13.5 17.9 16 16 16C14.1 16 12.5 13.5 12.5 10.5C12.5 10.2 12.5 9.9 12.6 9.6ZM16 19V22H2.93516e-05V32H13H16H18H23H32V19H16ZM13 30H2.00003V24H8.00003V26L9.00003 25.5L10 26V24H16V25H13V30ZM21 30H15V27H17V28L18 27.5L19 28V27H21V30ZM30 30H23V25H19H18V22V21H24V23L25 22.5L26 23V21H30V30Z" fill="#A29F9E"/>
</g>
<defs>
<clipPath id="clip0_397_10244">
<rect width="32" height="32" fill="white"/>
</clipPath>
</defs>
</svg>
