<svg width="16" height="16" viewBox="0 0 16 16" fill="none" xmlns="http://www.w3.org/2000/svg">
<path d="M0 3V13C0 13.6 0.4 14 1 14H15C15.6 14 16 13.6 16 13V3C16 2.4 15.6 2 15 2H1C0.4 2 0 2.4 0 3ZM5 10.4L3.5 9.6L2 10.4L2.3 8.7L1 7.4L2.7 7.1L3.5 5.5L4.3 7.1L6 7.4L4.8 8.7L5 10.4ZM7.1 11.9C6.6 12 6.1 11.6 6 11C5.9 10.5 6.3 10 6.9 9.9C7.4 9.8 7.9 10.2 8 10.8C8.1 11.4 7.7 11.9 7.1 11.9ZM6.9 6C6.4 5.9 6 5.4 6.1 4.9C6.2 4.3 6.7 3.9 7.2 4C7.7 4.1 8.1 4.6 8 5.1C8 5.7 7.5 6.1 6.9 6ZM10.2 9.9C9.9 10.4 9.3 10.6 8.8 10.3C8.3 10 8.1 9.4 8.4 8.9C8.7 8.4 9.3 8.2 9.8 8.5C10.3 8.8 10.4 9.4 10.2 9.9ZM9.8 7.5C9.3 7.7 8.7 7.5 8.5 7.1C8.2 6.6 8.4 6 8.9 5.7C9.4 5.5 10 5.7 10.2 6.1C10.5 6.7 10.3 7.3 9.8 7.5Z" fill="#A29F9E"/>
</svg>
