<svg width="16" height="16" viewBox="0 0 16 16" fill="none" xmlns="http://www.w3.org/2000/svg">
<g clip-path="url(#clip0_3_476)">
<path d="M11.2 4.4V4.6C10.3 5.1 9.2 5.5 7.9 5.5C6.7 5.5 5.59999 5.2 4.59999 4.6V4.4C5.7 4.1 6.8 4 7.9 4C9.1 4 10.2 4.1 11.2 4.4ZM8.1 6.5C8 6.5 7.9 6.5 7.8 6.5C7.8 6.5 7.7 6.5 7.5 6.5C7 6.5 6.1 6.5 5.3 6C5 5.9 4.79999 5.8 4.49999 5.7C4.49999 5.8 4.49999 5.9 4.49999 5.9C4.49999 7.8 6.1 9.4 8 9.4C9.89999 9.4 11.5 7.8 11.5 5.9C11.5 5.8 11.5 5.7 11.5 5.6C11 5.9 10.5 6.1 10 6.2C9.3 6.5 8.5 6.5 8.1 6.5ZM3.9 3.5C5.1 3.2 6.5 3 7.9 3C9.4 3 10.8 3.2 12 3.6C12.2 3.5 12.3 3.4 12.3 3.3C12.5 3.1 12 3 11.8 2.3C11.7 1.6 11.7 1.4 11.1 1.3C10.5 1.2 9.5 1.2 8.7 0.5C8.39999 0.1 8.1 0 8 0H7.9C7.8 0 7.6 0.1 7.1 0.6C6.29999 1.2 5.4 1.3 4.8 1.3C4.2 1.4 4.19999 1.6 4.09999 2.3C3.99999 2.9 3.39999 3.1 3.59999 3.3C3.59999 3.3 3.7 3.4 3.9 3.5ZM15 16H8.7L9.7 13.9L9.8 13.8L9.7 13.7L9 12.8L9.7 12.1L9.8 12L9.7 11.9L9.1 11.3L10.8 10.1C10.8 10.1 10.6 10 12.9 10.9C15.2 11.8 15 13.9 15 14C15 14.1 15 16 15 16ZM14 13H11V14H14V13ZM8.1 12.8L9 11.9L8.39999 11.3L7.9 10.8L7.5 11.2L6.8 11.9L7.6 12.7L6.8 13.8L7.8 15.8L8 15.5L9 13.8L8.1 12.8ZM6.1 13.8L6.2 13.7L6.9 12.8L6.2 12.1L6.1 12L6.2 11.9L6.8 11.3L5.2 10.2C5.2 10.2 5.39999 10.1 3.09999 11C0.799995 11.8 0.999995 13.9 0.999995 14C0.999995 14.1 0.999995 16 0.999995 16H7.1L6.1 13.9V13.8Z" fill="#A29F9E"/>
</g>
<defs>
<clipPath id="clip0_3_476">
<rect width="16" height="16" fill="white"/>
</clipPath>
</defs>
</svg>
