<svg width="32" height="32" viewBox="0 0 32 32" fill="none" xmlns="http://www.w3.org/2000/svg">
<g clip-path="url(#clip0_397_10254)">
<path d="M30 30.8L27.7 19.9V19.8C27.2 18.2 25.6 17.1 23.9 17.1H19C20.9 15.8 22.1 13.3 22.1 11.1V8.19999L22.9 6.59999L24.8 4.69999C24.9 4.49999 25 4.09999 25 3.79999C24.9 3.49999 24.7 3.19999 24.4 3.09999L16.4 0.0999939C16.2 -6.10203e-06 15.9 -6.10203e-06 15.7 0.0999939L7.70003 3.09999C7.30003 3.19999 7.10003 3.49999 7.00003 3.79999C7.00003 4.09999 7.10003 4.49999 7.30003 4.69999L9.20003 6.59999L10 8.19999V11C10 13.2 11.2 15.7 13.1 17H8.20003C6.50003 17 5.00003 18.1 4.40003 19.7L2.00003 30.8C1.90003 31.3 2.20003 31.9 2.80003 32C3.30003 32.1 3.90003 31.8 4.00003 31.2L6.30003 20.3C6.60003 19.5 7.30003 19 8.20003 19H9.40003L13.6 28C13.6 28.3 13.7 28.6 13.9 28.7L15.1 31.4C15.3 31.8 15.6 32 16 32C16.4 32 16.7 31.8 16.9 31.4L18.1 28.7C18.3 28.5 18.4 28.3 18.4 28L22.6 19H23.8C24.6 19 25.4 19.5 25.7 20.3L28 31.2C28.1 31.7 28.5 32 29 32C29.1 32 29.1 32 29.2 32C29.7 31.9 30.1 31.3 30 30.8ZM11.7 7.19999L11.6 6.99999H20.4L20.3 7.19999L16 8.49999L11.7 7.19999ZM16 2.09999L22.2 4.39999L21.6 4.99999H16H10.4L9.80003 4.39999L16 2.09999ZM12 11V9.29999L15.7 10.4C15.9 10.5 16.1 10.5 16.3 10.4L20 9.29999V11C20 13.3 18.2 16 16 16C13.8 16 12 13.3 12 11ZM14 19L15.1 20.5C15.1 20.6 15 20.7 15 20.8L14.2 24.7L11.6 19H14ZM15.6 27.7L16 25.8L16.4 27.7L16 28.6L15.6 27.7ZM17.8 24.7L17 20.8C17 20.7 16.9 20.6 16.9 20.5L18 19H20.4L17.8 24.7ZM10 24.1L9.00003 31.1C8.90003 31.6 8.50003 32 8.00003 32H7.90003C7.40003 31.9 7.00003 31.4 7.10003 30.9L8.10003 23.9C8.20003 23.4 8.70003 23 9.20003 23.1C9.70003 23.1 10.1 23.6 10 24.1ZM24 23.9L25 30.9C25.1 31.4 24.7 32 24.2 32H24.1C23.6 32 23.2 31.6 23.1 31.1L22.1 24.1C22 23.6 22.4 23 22.9 23C23.4 22.9 23.9 23.3 24 23.9ZM16 4.99999C15.4 4.99999 15 4.59999 15 3.99999C15 3.39999 15.4 2.99999 16 2.99999C16.6 2.99999 17 3.39999 17 3.99999C17 4.59999 16.6 4.99999 16 4.99999Z" fill="#A29F9E"/>
</g>
<defs>
<clipPath id="clip0_397_10254">
<rect width="32" height="32" fill="white"/>
</clipPath>
</defs>
</svg>
