<svg width="16" height="16" viewBox="0 0 16 16" fill="none" xmlns="http://www.w3.org/2000/svg">
<path d="M2.1 12.7C2.9 12.5 3.7 12.3 4.6 12.1C4.9 13 5.2 13.9 5.6 14.7C4.3 14.4 3.1 13.7 2.1 12.7ZM5 8C5 9.1 5.2 10.1 5.4 11.1C5.9 11 6.5 11 7 11C7.5 11 8.1 11 8.6 11.1C8.8 10.1 9 9.1 9 8H5ZM7 4C6.5 4 5.9 4 5.4 3.9C5.2 4.9 5 5.9 5 7H9C9 5.9 8.8 4.9 8.6 3.9C8.1 4 7.5 4 7 4ZM9.4 12.2C9.1 13.2 8.7 14.1 8.3 15C10 14.8 11.5 14.1 12.6 13C11.6 12.6 10.5 12.3 9.4 12.2ZM10 7H15C14.9 5.4 14.3 4 13.4 2.8C12.3 3.3 11 3.6 9.7 3.8C9.8 4.8 10 5.9 10 7ZM5.6 12.1C6 13.1 6.4 14.1 6.9 15C7 15 7 15 7.1 15C7.6 14.1 8 13.2 8.3 12.1C7.9 12 7.5 12 7 12C6.5 12 6.1 12 5.6 12.1ZM8.3 0C8.7 0.8 9.1 1.8 9.4 2.8C10.6 2.6 11.6 2.4 12.6 2C11.4 0.9 9.9 0.2 8.3 0ZM10 8C10 9.1 9.8 10.2 9.6 11.2C10.9 11.4 12.2 11.7 13.3 12.2C14.3 11 14.9 9.6 15 8H10ZM4 8H0C0.1 9.5 0.6 10.8 1.4 11.9C2.3 11.6 3.3 11.3 4.3 11.2C4.2 10.2 4 9.1 4 8ZM2.1 2.3C2.9 2.5 3.7 2.7 4.6 2.9C4.9 2 5.2 1.1 5.6 0.3C4.3 0.6 3.1 1.3 2.1 2.3ZM8.4 2.9C8 1.9 7.6 0.9 7.1 0C7 0 7 0 6.9 0C6.4 0.9 6 1.9 5.6 2.9C6.1 3 6.5 3 7 3C7.5 3 7.9 3 8.4 2.9ZM4 7C4 5.9 4.2 4.8 4.4 3.8C3.4 3.6 2.4 3.4 1.5 3.1C0.6 4.2 0.1 5.5 0 7H4Z" fill="#A29F9E"/>
</svg>
