<svg width="16" height="16" viewBox="0 0 16 16" fill="none" xmlns="http://www.w3.org/2000/svg">
<g clip-path="url(#clip0_3_636)">
<path d="M8 0C3.6 0 0 3.6 0 8C0 12.4 3.6 16 8 16C12.4 16 16 12.4 16 8C16 3.6 12.4 0 8 0ZM10.8 2.7L11.8 3.4L13 3L12.6 4.2L13.3 5.2H12.1L11.4 6.2L11 5L9.8 4.6L10.8 3.9V2.7ZM2.3 9.8L2.1 8.5L1 8L2.1 7.5L2.3 6.3L3.2 7.2L4.4 7L3.8 8L4.4 9.1L3.1 8.9L2.3 9.8ZM5.2 13.3L4.2 12.6L3 13L3.4 11.8L2.7 10.8H3.9L4.6 9.8L5 11L6.2 11.4L5.2 12.1V13.3ZM5 5L4.6 6.2L3.9 5.2H2.7L3.4 4.2L3.1 3.1L4.3 3.5L5.3 2.8V4L6.3 4.7L5 5ZM8.5 13.9L8 15L7.5 13.9L6.3 13.7L7.2 12.8L7 11.6L8 12.2L9.1 11.6L8.9 12.8L9.8 13.7L8.5 13.9ZM8.9 3.1L9.1 4.3L8 3.8L6.9 4.3L7.1 3.1L6.2 2.3L7.4 2.1L8 1L8.5 2.1L9.7 2.3L8.9 3.1ZM12.9 12.9L11.7 12.5L10.7 13.2V12L9.7 11.3L11 11L11.4 9.8L12.1 10.8H13.3L12.6 11.8L12.9 12.9ZM13.7 9.8L12.8 8.9L11.6 9.1L12.2 8L11.6 6.9L12.8 7.1L13.7 6.2L13.9 7.4L15 8L13.9 8.5L13.7 9.8Z" fill="#A29F9E"/>
</g>
<defs>
<clipPath id="clip0_3_636">
<rect width="16" height="16" fill="white"/>
</clipPath>
</defs>
</svg>
