<svg width="12" height="12" viewBox="0 0 12 12" fill="none" xmlns="http://www.w3.org/2000/svg">
<g clip-path="url(#clip0_26_727)">
<path d="M5.993 1C8.754 1 11 3.244 11 6.002C11 8.758 8.754 11 5.993 11C3.24 11 1 8.758 1 6.002C1 3.244 3.24 1 5.993 1ZM5.993 0C2.686 0 0 2.687 0 6.002C0 9.307 2.686 12 5.993 12C9.307 12 12 9.307 12 6.002C12 2.687 9.307 0 5.993 0ZM5.999 4C6.551 4 7 3.551 7 3C7 2.447 6.551 2 5.999 2C5.448 2 5 2.448 5 3C5 3.551 5.448 4 5.999 4ZM7.01 5H5V10.011L7 10L7.01 5Z" fill="#5A5857"/>
</g>
<defs>
<clipPath id="clip0_26_727">
<rect width="12" height="12" fill="white"/>
</clipPath>
</defs>
</svg>
