<svg width="16" height="16" viewBox="0 0 16 16" fill="none" xmlns="http://www.w3.org/2000/svg">
<g clip-path="url(#clip0_3_249)">
<path d="M7.5 8H0.5C0.2 8 0 8.2 0 8.5V13.5C0 13.8 0.2 14 0.5 14H1.5C1.5 14.8 2.2 15.5 3 15.5C3.8 15.5 4.5 14.8 4.5 14H7.5C7.8 14 8 13.8 8 13.5V8.5C8 8.2 7.8 8 7.5 8ZM3 14.5C2.7 14.5 2.5 14.3 2.5 14C2.5 13.7 2.7 13.5 3 13.5C3.3 13.5 3.5 13.7 3.5 14C3.5 14.3 3.3 14.5 3 14.5ZM13.7 10.7L12.3 9.3C12.1 9.1 11.9 9 11.6 9H9.5C9.2 9 9 9.2 9 9.5V13.5C9 13.8 9.2 14 9.5 14C9.5 14.8 10.2 15.5 11 15.5C11.8 15.5 12.5 14.8 12.5 14H13.5C13.8 14 14 13.8 14 13.5V11.4C14 11.1 13.9 10.9 13.7 10.7ZM11 14.5C10.7 14.5 10.5 14.3 10.5 14C10.5 13.7 10.7 13.5 11 13.5C11.3 13.5 11.5 13.7 11.5 14C11.5 14.3 11.3 14.5 11 14.5ZM13 12H12L11.3 11.3C11.1 11.1 10.9 11 10.6 11H10V10H11.6L13 11.4V12ZM15.9 2.3C15.7 2.6 15.3 3.1 14.7 3.5C14.2 3.8 13.7 4.1 12.9 4.5C12.8 4.5 12.6 4.6 12.4 4.7L12.3 6C12.4 6 12.4 6 12.5 6C12.6 6 12.6 6.1 12.6 6.2L12.7 6.4C12.7 6.5 12.7 6.5 12.7 6.6C12.7 6.7 12.7 6.7 12.6 6.8L12.3 7V7.2C12.4 7.2 12.4 7.2 12.5 7.2C12.6 7.2 12.6 7.2 12.7 7.3L12.8 7.5C12.8 7.6 12.8 7.6 12.8 7.7C12.8 7.8 12.8 7.8 12.7 7.9L12.4 8.1C12.1 8 11.9 8 11.6 8H10.8L10.6 6.8V6.7L10.1 5.7C9.2 6.1 8.3 6.4 7.6 6.7C7.5 6.7 7.5 6.7 7.4 6.8L7.3 7H5.4C5.4 7 5.4 7 5.4 6.9C5.4 6.8 5.3 6.7 5.4 6.6C5.4 6.5 5.4 6.5 5.5 6.4L5.4 6.3C5.4 6.2 5.4 6.2 5.4 6.2L4.2 5C4.2 4.9 4.1 4.8 4.2 4.7C4.2 4.6 4.2 4.6 4.3 4.6L4.5 4.5C4.6 4.5 4.7 4.4 4.8 4.5C4.9 4.5 4.9 4.5 4.9 4.5L6.7 5.4C6.8 5.4 6.8 5.3 6.9 5.3C7.6 4.8 8.4 4.4 9.2 4L8.8 3.1V3L6.8 0.7C6.8 0.6 6.7 0.5 6.8 0.4C6.8 0.3 6.8 0.3 6.9 0.2L7.5 0C7.6 0 7.7 0 7.8 0H7.9L8.9 0.8L9.3 0.6C9.4 0.6 9.4 0.6 9.5 0.6C9.6 0.6 9.6 0.6 9.7 0.7L9.8 1C9.8 1.1 9.8 1.1 9.8 1.2C9.8 1.3 9.8 1.3 9.7 1.4L9.9 1.5L10.3 1.3C10.4 1.3 10.4 1.3 10.5 1.3C10.6 1.3 10.6 1.3 10.7 1.4L10.9 1.7C10.9 1.8 10.9 1.8 10.9 1.9C10.9 2 10.8 2.1 10.7 2.1L11.7 2.8C11.9 2.7 12 2.6 12.2 2.6C12.8 2.3 13.4 2 14 1.8C14.6 1.6 15.3 1.5 15.7 1.7C15.8 1.7 15.9 1.8 16 1.9V2C16 2.1 16 2.2 15.9 2.3Z" fill="#A29F9E"/>
</g>
<defs>
<clipPath id="clip0_3_249">
<rect width="16" height="16" fill="white"/>
</clipPath>
</defs>
</svg>
