<svg width="16" height="16" viewBox="0 0 16 16" fill="none" xmlns="http://www.w3.org/2000/svg">
<path d="M10.3 1.6L9.5 0.2C12.1 0.8 14 3.2 14 6C14 6.5 13.9 7.1 13.8 7.6L13 6.1V6C13 4.1 11.9 2.5 10.3 1.6ZM3 6.1C3 4.1 4.1 2.5 5.6 1.6L6.5 0.2C3.9 0.8 2 3.2 2 6C2 6.5 2.1 7.1 2.2 7.6L3 6.1ZM5.7 8.9L7.5 7.9C7.7 7.9 7.8 8 8 8C8.2 8 8.3 7.9 8.5 7.9L10.4 9.1L9.4 10.8L14.1 10.6L11.9 6.4L10.9 8.1L9 7.1C9 7 9 7 9 7C9 6.6 8.8 6.3 8.5 6.2V4H10.5L8 0L5.5 4H7.5V6.2C7.2 6.3 7 6.6 7 6.9L5.2 7.9L4.2 6.2L2 10.4L6.7 10.6L5.7 8.9ZM8.4 11.4H8H7.6H6.6L4.5 11.3L8 16L11.5 11.3L9.4 11.4H8.4Z" fill="#A29F9E"/>
</svg>
