<svg width="16" height="16" viewBox="0 0 16 16" fill="none" xmlns="http://www.w3.org/2000/svg">
<path d="M8.59998 6.19999L7.99998 4.99999L7.39998 6.19999C7.19998 6.59999 6.79998 6.89999 6.29998 6.99999L1.99998 7.59999V11.5C1.99998 11.7 2.19998 12 2.39998 12L7.89998 13H7.99998H8.09998L13.6 12.1C13.8 12.1 14 11.9 14 11.6V7.59999L9.69998 6.99999C9.19998 6.89999 8.79998 6.59999 8.59998 6.19999ZM13 11.2L7.99998 12V7.09999C8.39998 7.59999 8.89998 7.89999 9.59998 7.99999L13 8.49999V11.2ZM6.09998 5.99999L0.599976 6.79999C0.199976 6.89999 -0.100024 6.49999 0.0999759 6.09999L1.49998 3.19999C1.59998 3.09999 1.69998 2.99999 1.89998 2.99999L7.49998 2.19999C7.89998 2.09999 8.19998 2.59999 7.99998 2.89999L6.49998 5.79999C6.39998 5.89999 6.29998 5.99999 6.09998 5.99999ZM15.4 6.79999L9.89998 5.99999C9.69998 5.99999 9.59998 5.89999 9.49998 5.79999L8.09998 2.89999C7.89998 2.49999 8.19998 2.09999 8.59998 2.19999L14.1 2.99999C14.3 2.99999 14.4 3.09999 14.5 3.29999L15.9 6.19999C16.1 6.49999 15.8 6.89999 15.4 6.79999Z" fill="#A29F9E"/>
</svg>
