<svg width="16" height="16" viewBox="0 0 16 16" fill="none" xmlns="http://www.w3.org/2000/svg">
<g clip-path="url(#clip0_3_187)">
<path d="M15.7 2.59999L8.2 0.0999939C8 -6.10203e-06 8 -6.10203e-06 7.9 0.0999939L0.4 2.59999C0.2 2.59999 0 2.79999 0 2.99999V4.49999C0 4.79999 0.2 4.99999 0.5 4.99999H1V15.5C1 15.8 1.2 16 1.5 16H14.5C14.8 16 15 15.8 15 15.5V4.99999H15.5C15.8 4.99999 16 4.79999 16 4.49999V2.99999C16 2.79999 15.9 2.59999 15.7 2.59999ZM6 3.99999H10V4.99999H6V3.99999ZM2 3.99999H5V4.99999H2V3.99999ZM2 5.99999H7V9.99999H2V5.99999ZM8 15H2V11H8V15ZM14 15H9V11H14V15ZM14 4.99999H11V3.99999H14V4.99999Z" fill="#A29F9E"/>
</g>
<defs>
<clipPath id="clip0_3_187">
<rect width="16" height="16" fill="white"/>
</clipPath>
</defs>
</svg>
