<svg width="16" height="16" viewBox="0 0 16 16" fill="none" xmlns="http://www.w3.org/2000/svg">
<path d="M13.95 15.28C14.07 15.53 13.97 15.83 13.73 15.95C13.66 15.99 13.58 16 13.51 16C13.33 16 13.15 15.9 13.06 15.72L12.7 14.99H3.32L2.96 15.71C2.87 15.88 2.7 15.99 2.51 15.99C2.43 15.99 2.36 15.97 2.29 15.94C2.04 15.82 1.94 15.52 2.07 15.27L3.28 12.84C3.57 12.93 3.87 12.99 4.17 12.99H4.32L3.82 13.99H12.19L11.69 12.99H11.84C12.15 12.99 12.44 12.93 12.73 12.84L13.94 15.27L13.95 15.28ZM10.64 7L12.31 2H3.69L5.36 7H10.64ZM12.87 1C12.52 0.4 11.88 0 11.15 0H4.85C4.12 0 3.47 0.4 3.13 1H12.87ZM13.83 9.85C13.92 11.01 13 12 11.84 12H4.16C3 12 2.08 11.01 2.17 9.85L2.8 2.49L4.64 8H11.36L13.2 2.49L13.84 9.85H13.83ZM7 10C7 9.45 6.55 9 6 9C5.45 9 5 9.45 5 10C5 10.55 5.45 11 6 11C6.55 11 7 10.55 7 10ZM11 10C11 9.45 10.55 9 10 9C9.45 9 9 9.45 9 10C9 10.55 9.45 11 10 11C10.55 11 11 10.55 11 10Z" fill="#A29F9E"/>
</svg>
