<svg width="32" height="32" viewBox="0 0 32 32" fill="none" xmlns="http://www.w3.org/2000/svg">
<g clip-path="url(#clip0_397_10234)">
<path d="M32 10.2C32 9 31.1 8 30 8V2C30 0.9 29.1 0 28 0H4C2.9 0 2 0.9 2 2V8C0.9 8 0 9 0 10.2V14.9C0 15.5 0.2 16 0.5 16.4C0.2 16.8 0 17.4 0 18V25V28H1V30C1 31.1 1.9 32 3 32H6C7.1 32 8 31.1 8 30V28H24V30C24 31.1 24.9 32 26 32H29C30.1 32 31 31.1 31 30V28H32V25V18C32 17.4 31.8 16.8 31.5 16.3C31.8 15.9 32 15.4 32 14.8V10.2ZM28.8 15L27.8 10H27.9H29.9C29.9 10 29.9 10.1 29.9 10.2V14.9C29.9 15 29.9 15.1 29.9 15.1H28.9L28.8 15ZM6.8 6H25L26.2 12.2C23.5 12.5 18.1 13 16 13C13.8 13 8.4 12.5 5.7 12.2L6.8 6ZM4 2H28V8H27.5L27.1 5.7C26.9 4.7 26.1 4 25.1 4H6.8C5.8 4 5 4.7 4.8 5.7L4.4 8H4V2ZM2 10.2C2 10.1 2 10 2 10H4H4.1L3.2 15H3H2.1C2 15 2 14.9 2 14.8V10.2ZM2 20H3C3.5 20 3.9 20.4 4.1 21L4.7 23H2V20ZM6 30H3V28H6V30ZM2 26V25H30V26H2ZM21 23H11V19H21V23ZM30 23H27.3L27.9 21C28.1 20.4 28.5 20 29 20H30V23ZM29 30H26V28H29V30ZM29 18C27.6 18 26.4 19 26 20.4L25.2 23H23V19C23 17.9 22.1 17 21 17H11C9.9 17 9 17.9 9 19V23H6.8L6 20.4C5.6 19 4.4 18 3 18H2C2 17.4 2.4 17 3 17H3.2H3.3C4.2 16.9 5 16.3 5.1 15.4L5.3 14.2C8 14.4 13.7 15 16 15C18.3 15 24 14.4 26.6 14.2L26.8 15.4C27 16.3 27.7 17 28.6 17H28.7H29C29.6 17 30 17.4 30 18H29Z" fill="#A29F9E"/>
</g>
<defs>
<clipPath id="clip0_397_10234">
<rect width="32" height="32" fill="white"/>
</clipPath>
</defs>
</svg>
