<svg width="16" height="16" viewBox="0 0 16 16" fill="none" xmlns="http://www.w3.org/2000/svg">
<path d="M16 10V9H7V8H16V7H7V6H16V5H7V4H16C16 3.4 15.6 3 15 3H1C0.4 3 0 3.4 0 4V10H16ZM5.5 4C5.8 4 6 4.2 6 4.5C6 4.8 5.8 5 5.5 5C5.2 5 5 4.8 5 4.5C5 4.2 5.2 4 5.5 4ZM5.5 6C5.8 6 6 6.2 6 6.5C6 6.8 5.8 7 5.5 7C5.2 7 5 6.8 5 6.5C5 6.2 5.2 6 5.5 6ZM5.5 8C5.8 8 6 8.2 6 8.5C6 8.8 5.8 9 5.5 9C5.2 9 5 8.8 5 8.5C5 8.2 5.2 8 5.5 8ZM3.5 4C3.8 4 4 4.2 4 4.5C4 4.8 3.8 5 3.5 5C3.2 5 3 4.8 3 4.5C3 4.2 3.2 4 3.5 4ZM3.5 6C3.8 6 4 6.2 4 6.5C4 6.8 3.8 7 3.5 7C3.2 7 3 6.8 3 6.5C3 6.2 3.2 6 3.5 6ZM3.5 8C3.8 8 4 8.2 4 8.5C4 8.8 3.8 9 3.5 9C3.2 9 3 8.8 3 8.5C3 8.2 3.2 8 3.5 8ZM1.5 4C1.8 4 2 4.2 2 4.5C2 4.8 1.8 5 1.5 5C1.2 5 1 4.8 1 4.5C1 4.2 1.2 4 1.5 4ZM1.5 6C1.8 6 2 6.2 2 6.5C2 6.8 1.8 7 1.5 7C1.2 7 1 6.8 1 6.5C1 6.2 1.2 6 1.5 6ZM1.5 8C1.8 8 2 8.2 2 8.5C2 8.8 1.8 9 1.5 9C1.2 9 1 8.8 1 8.5C1 8.2 1.2 8 1.5 8ZM0 13H16C16 13.6 15.6 14 15 14H1C0.4 14 0 13.6 0 13ZM0 12V11H16V12H0Z" fill="#A29F9E"/>
</svg>
