<svg width="99" height="64" viewBox="0 0 99 64" fill="none" xmlns="http://www.w3.org/2000/svg">
<path d="M34.0497 17.6155C38.861 9.40025 47.6585 3.8941 57.7261 3.8941C67.7884 3.8941 76.5859 9.40025 81.3972 17.6155H85.4661C80.1218 8.20578 69.7059 1.81128 57.7261 1.81128C45.741 1.81128 35.3215 8.20578 29.979 17.6155H34.0497Z" fill="#D70110"/>
<path d="M29.8328 20.2651C22.8684 20.2651 19.9892 23.563 19.9892 27.8747C19.9892 32.1951 22.5517 35.4919 29.8328 35.4919H29.8586C36.816 35.4919 39.6997 32.1951 39.6997 27.8747C39.6997 23.5595 37.1362 20.2651 29.8586 20.2651H29.8328ZM87.1504 20.2651C80.1894 20.2651 77.3093 23.563 77.3093 27.8747C77.3093 32.1951 79.8745 35.4919 87.1504 35.4919H87.1787C94.1397 35.4919 97.0198 32.1951 97.0198 27.8747C97.0198 23.5595 94.4581 20.2651 87.1787 20.2651H87.1504ZM11.2664 20.7084C4.30722 20.7084 1.81958 23.7565 1.81958 27.8747C1.81958 31.9999 3.98882 35.0461 11.2664 35.0461H18.1132V31.9229H11.318C7.92808 31.9229 7.3573 30.1792 7.3573 27.8747C7.3573 25.5754 7.95353 23.8341 11.5035 23.8341H18.1132V20.7084H11.2664ZM46.8454 20.7084C44.6623 20.7084 41.5757 21.8964 41.5757 25.0066C41.5757 28.1168 44.6623 29.2842 46.8454 29.2842H49.6877C51.0862 29.2842 51.4451 29.7283 51.4451 30.6062C51.4451 31.4875 51.0862 31.9229 49.6877 31.9229H42.1812V35.0461H51.9888C54.1772 35.0461 57.2586 33.8572 57.2586 30.7453C57.2586 27.6369 54.1772 26.4728 51.9888 26.4728H48.7626C47.3605 26.4728 47 26.0356 47 25.1561C47 24.2765 47.3605 23.8341 48.7626 23.8341H56.4159V20.7084H46.8454ZM68.5865 20.7084C61.6273 20.7084 59.1397 23.7565 59.1397 27.8747C59.1397 31.9999 61.3089 35.0461 68.5865 35.0461H75.4333V31.9229H68.6406C65.2455 31.9229 64.6774 30.1792 64.6774 27.8747C64.6774 25.5754 65.2754 23.8341 68.8236 23.8341H75.4333V20.7084H68.5865ZM29.4927 23.4682H30.1988C33.5869 23.4682 34.1594 25.9009 34.1594 27.8747C34.1594 29.8537 33.7487 32.2889 30.1988 32.2889H29.4927C26.0993 32.2889 25.5294 30.1774 25.5294 27.8747C25.5294 25.5737 25.941 23.4682 29.4927 23.4682ZM86.8128 23.4682H87.5163C90.9062 23.4682 91.4821 25.9009 91.4821 27.8747C91.4821 29.8537 91.0698 32.2889 87.5163 32.2889H86.8128C83.4212 32.2889 82.847 30.1774 82.847 27.8747C82.847 25.5737 83.2628 23.4682 86.8128 23.4682ZM9.10441 38.3935C7.81848 38.3935 6.00958 39.0936 6.00958 40.9214C6.00958 42.7492 7.81848 43.4339 9.10441 43.4339H11.3051C12.1231 43.4339 12.3307 43.6923 12.3307 44.2095C12.3307 44.7284 12.1231 44.9826 11.3051 44.9826H6.36005V46.8225H12.6554C13.9378 46.8225 15.7528 46.1223 15.7528 44.2945C15.7528 42.465 13.9378 41.7847 12.6554 41.7847H10.2305C9.41076 41.7847 9.19719 41.528 9.19719 41.009C9.19719 40.4936 9.41076 40.2308 10.2305 40.2308H15.2529V38.3935H9.10441ZM32.1082 38.3935V46.8225H35.1077V38.3935H32.1082ZM38.7746 38.3935V46.8225H41.7793V44.1657H43.6063C47.2266 44.1657 48.3142 43.1425 48.3142 41.2796C48.3142 39.4167 47.3955 38.3935 43.6063 38.3935H38.7746ZM51.2544 38.3935V46.8225H54.2565V44.1657H56.0887C59.7072 44.1657 60.7915 43.1425 60.7915 41.2796C60.7915 39.4167 59.8744 38.3935 56.0887 38.3935H51.2544ZM63.6982 38.3935V46.8225H66.7002V38.3935H63.6982ZM88.3074 38.3935C84.2191 38.3935 82.7594 40.1869 82.7594 42.6093C82.7594 45.0281 84.0344 46.8225 88.3074 46.8225H92.8298V42.6093H89.8381V44.9826H88.2507C86.2629 44.9826 85.9238 43.9603 85.9238 42.6093C85.9238 41.2547 86.2804 40.2308 88.3615 40.2308H92.8298V38.3935H88.3074ZM18.9378 38.3961V46.8225H21.9811V43.4442H25.4135V46.8225H28.4439V38.3961H25.4135V41.6301H21.9811V38.3961H18.9378ZM70.496 38.3961V46.8225H73.5006V42.3826C73.5006 42.3826 74.9964 44.565 75.6807 45.6346C76.2524 46.5265 76.9819 46.8225 78.4173 46.8225H79.9171V38.3961H76.9279V43.318C76.9279 43.318 75.2079 40.6773 74.4515 39.4758C73.9853 38.7317 73.3678 38.3961 72.0009 38.3961H70.496ZM41.7793 40.0711H43.5109C44.7388 40.0711 45.1498 40.4229 45.1498 41.2797C45.1498 42.1381 44.7793 42.4882 43.5109 42.4882H41.7793V40.0711ZM54.2565 40.0711H55.9933C57.2194 40.0711 57.6271 40.4229 57.6271 41.2797C57.6271 42.1381 57.2599 42.4882 55.9933 42.4882H54.2565V40.0711Z" fill="#00508E"/>
<path d="M41.1171 1.81226C29.132 1.81226 18.7126 8.20657 13.3718 17.6163H17.4407C22.2502 9.40103 31.0495 3.89438 41.1171 3.89438C51.1794 3.89438 59.9762 9.40103 64.7857 17.6163H68.8623C63.5181 8.20657 53.0987 1.81226 41.1171 1.81226ZM15.49 49.6134C21.2213 57.2287 30.5604 62.1885 41.1171 62.1885C51.6685 62.1885 61.0094 57.2287 66.739 49.6134H62.5825C57.5337 56.0114 49.7932 60.1116 41.1171 60.1116C32.4374 60.1116 24.697 56.0114 19.6465 49.6134H15.49Z" fill="#00508E"/>
<path d="M79.1911 49.6143C74.1388 56.0123 66.4038 60.1111 57.7259 60.1111C49.0428 60.1111 41.3078 56.0123 36.2537 49.6143H32.0986C37.8317 57.2296 47.1657 62.1887 57.7259 62.1887C68.2773 62.1887 77.6184 57.2296 83.3479 49.6143H79.1911Z" fill="#D70110"/>
</svg>
