<svg width="221" height="32" viewBox="0 0 221 32" fill="none" xmlns="http://www.w3.org/2000/svg">
<g clip-path="url(#clip0_249_1539)">
<path d="M0.419678 29.2165H27.0956L25.5625 31.3629H0.419678V29.2165Z" fill="#D40511"/>
<path d="M220.42 31.3629H187.765L189.451 29.2165H220.573V31.3629H220.42Z" fill="#D40511"/>
<path d="M0.419678 25.2303H30.1618L28.4754 27.3766H0.419678V25.2303Z" fill="#D40511"/>
<path d="M0.419678 21.2441H33.228L31.5416 23.3904H0.419678V21.2441Z" fill="#D40511"/>
<path d="M220.42 27.3766H190.831L192.518 25.2303H220.573V27.3766H220.42Z" fill="#D40511"/>
<path d="M195.43 21.2441H220.42V23.3904H193.744L195.43 21.2441Z" fill="#D40511"/>
<path d="M29.2417 31.3626L43.3462 12.5055C43.3462 12.5055 58.9838 12.5055 60.8236 12.5055C62.8166 12.5055 62.8166 13.272 61.7434 14.4985C60.8236 15.725 59.1372 18.0246 58.2173 19.2511C57.7574 20.0177 56.8375 21.0909 59.7504 21.0909C62.9699 21.0909 83.2068 21.0909 83.2068 21.0909C81.3671 23.8504 74.9281 31.5159 63.5831 31.5159C54.3845 31.3626 29.2417 31.3626 29.2417 31.3626Z" fill="#D40511"/>
<path d="M110.036 21.2441L102.371 31.5159H82.2871L89.9526 21.2441H110.036Z" fill="#D40511"/>
<path d="M139.318 21.2441L131.653 31.5159H111.416L119.082 21.2441H139.318Z" fill="#D40511"/>
<path d="M145.911 21.2441C145.911 21.2441 144.378 23.2371 143.765 24.157C141.159 27.5298 143.458 31.5159 151.737 31.5159C161.242 31.5159 184.239 31.5159 184.239 31.5159L191.904 21.2441H145.911Z" fill="#D40511"/>
<path d="M39.2074 0.853994L32.1552 10.2059C32.1552 10.2059 68.4897 10.2059 70.4827 10.2059C72.4757 10.2059 72.4757 10.9725 71.4026 12.1989C70.4827 13.4254 68.7963 15.7251 67.8764 16.9516C67.4165 17.5648 66.4966 18.7913 69.4095 18.7913C72.629 18.7913 85.0472 18.7913 85.0472 18.7913C85.0472 18.7913 87.6534 15.4185 89.6465 12.5056C92.5593 8.67281 89.9531 0.700684 79.6813 0.700684C70.4827 0.853994 39.2074 0.853994 39.2074 0.853994Z" fill="#D40511"/>
<path d="M141.005 18.7914H91.6392L105.13 0.854143H125.367L117.702 11.1259H126.747L134.413 0.854143H154.65L141.005 18.7914Z" fill="#D40511"/>
<path d="M182.552 0.854143L169.061 18.7914H147.597L161.089 0.854143H182.552Z" fill="#D40511"/>
</g>
<defs>
<clipPath id="clip0_249_1539">
<rect width="220" height="30.662" fill="white" transform="translate(0.419678 0.854004)"/>
</clipPath>
</defs>
</svg>
