<svg width="141" height="64" viewBox="0 0 141 64" fill="none" xmlns="http://www.w3.org/2000/svg">
<g clip-path="url(#clip0_249_1338)">
<path d="M91.6639 46.0975C89.0548 46.7881 85.6559 47.1299 82.7011 47.1299C75.1164 47.1299 70.094 43.0935 70.094 35.7059C70.094 28.714 74.7719 24.1849 81.6183 24.1849C83.1444 24.1849 84.7686 24.3791 85.7544 24.8734V14.7241H91.6639V46.0975ZM85.7544 30.0925C84.8183 29.6495 83.5877 29.4031 82.108 29.4031C78.5156 29.4031 76.1016 31.6201 76.1016 35.5098C76.1016 39.6965 78.711 42.0611 82.8974 42.0611C83.6365 42.0611 84.7686 42.0105 85.7544 41.8148V30.0925ZM140.157 46.0975C137.545 46.7881 134.147 47.1299 131.192 47.1299C123.609 47.1299 118.584 43.0935 118.584 35.7059C118.584 28.714 123.264 24.1849 130.11 24.1849C131.637 24.1849 133.262 24.3791 134.247 24.8734V14.7241H140.156V46.0975H140.157ZM134.247 30.0925C133.31 29.6495 132.079 29.4031 130.602 29.4031C127.007 29.4031 124.594 31.6201 124.594 35.5098C124.594 39.6965 127.204 42.0611 131.39 42.0611C132.128 42.0611 133.261 42.0105 134.247 41.8148V30.0925ZM100.957 30.044C101.941 29.6492 103.318 29.5028 104.5 29.5028C108.145 29.5028 110.657 31.6198 110.657 35.4104C110.657 39.882 107.875 41.9042 104.155 41.9564V47.1268C104.253 47.1268 104.352 47.1302 104.452 47.1302C112.084 47.1302 116.666 42.8475 116.666 35.2144C116.666 28.2707 111.791 24.1849 104.6 24.1849C100.957 24.1849 97.3602 25.0222 94.9971 26.0061V55.5061H100.957V30.044Z" fill="#414042"/>
<path d="M38.0206 28.5954C37.7761 28.738 37.3927 28.7268 37.1541 28.5792L35.7492 27.7441C35.6349 27.6733 35.5299 27.5599 35.4506 27.4235C35.446 27.4157 35.4413 27.4077 35.4367 27.3996C35.3469 27.2532 35.2959 27.0988 35.2906 26.9572L35.2549 25.3193C35.2444 25.0434 35.4264 24.7069 35.6718 24.5637L52.561 14.7245L28.8608 1.80734C28.5998 1.66257 28.2556 1.59267 27.9111 1.59205C27.5662 1.59142 27.2214 1.66319 26.9601 1.80734L3.25958 14.7248L29.8103 30.1811C30.0563 30.3156 30.2433 30.635 30.2433 30.9233V53.4712C30.2433 53.7542 30.0408 54.0795 29.7929 54.2118L28.364 55.0053C28.2454 55.0684 28.0944 55.1023 27.9366 55.1023C27.9275 55.1023 27.9182 55.1023 27.9092 55.1023C27.7377 55.1063 27.5783 55.0724 27.4534 55.0053L26.02 54.2115C25.7764 54.082 25.5772 53.7551 25.5772 53.4712L25.5776 33.3708C25.5648 33.2236 25.457 33.044 25.339 32.9763L1.94727 19.3595V46.0307C1.94696 46.6275 2.36793 47.3639 2.88365 47.6655L26.9747 61.8735C27.2322 62.0245 27.5715 62.0997 27.9105 62.0985C28.2497 62.0975 28.589 62.0267 28.8459 61.8738L52.9407 47.6655C53.4545 47.3607 53.8743 46.6285 53.8736 46.0307V19.3598L38.0206 28.5954Z" fill="url(#paint0_linear_249_1338)"/>
</g>
<defs>
<linearGradient id="paint0_linear_249_1338" x1="2.1963" y1="52.9392" x2="28.486" y2="30.8796" gradientUnits="userSpaceOnUse">
<stop stop-color="#A90034"/>
<stop offset="0.2717" stop-color="#BB0033"/>
<stop offset="0.7226" stop-color="#D30032"/>
<stop offset="1" stop-color="#DC0032"/>
</linearGradient>
<clipPath id="clip0_249_1338">
<rect width="139.474" height="64" fill="white" transform="translate(0.682861)"/>
</clipPath>
</defs>
</svg>
