<svg width="141" height="65" viewBox="0 0 141 65" fill="none" xmlns="http://www.w3.org/2000/svg">
<g clip-path="url(#clip0_249_1498)">
<path d="M113.21 15.0371L118.828 21.2286L124.236 15.0371H135.786L124.499 27.7296L135.94 40.5258H123.925L118.36 34.2852L112.846 40.5258H101.244L112.585 27.7824L101.244 15.0371H113.21Z" fill="#FF5900"/>
<path d="M101.244 15.037V23.6489H88.3984V31.5515H101.244V40.5257H78.9583V0.375H101.244V9.32462H88.3984V15.037H101.244Z" fill="#FF5900"/>
<path d="M69.5578 0.375V16.8065H69.454C67.3713 14.4144 64.7717 13.5825 61.7551 13.5825C55.5749 13.5825 50.919 17.7856 49.2853 23.3395C47.4195 17.2197 42.6127 13.4674 35.4854 13.4674C29.6976 13.4674 25.1266 16.0651 22.742 20.2985V15.037H10.7777V9.32462H23.8343V0.375H0.113281V40.5257H10.7777V23.6489H21.4083C21.0913 24.8884 20.9215 26.2165 20.9215 27.6182C20.9215 35.9924 27.3206 41.8708 35.4854 41.8708C42.3523 41.8708 46.8781 38.6467 49.2702 32.7702H40.13C38.8944 34.5379 37.9568 35.0605 35.4854 35.0605C32.6198 35.0605 30.1485 32.5608 30.1485 29.5971H48.7589C49.5664 36.249 54.7486 41.9858 61.8589 41.9858C64.9264 41.9858 67.7354 40.4766 69.4521 37.9298H69.5559V40.5295H78.9564V0.375H69.5578ZM30.4466 23.7678C31.0389 21.2172 33.0179 19.5514 35.4873 19.5514C38.2058 19.5514 40.0829 21.1663 40.5771 23.7678C40.7846 23.7678 30.4466 23.7678 30.4466 23.7678ZM63.8511 34.4134C60.3855 34.4134 58.2311 31.1837 58.2311 27.8125C58.2311 24.2092 60.1044 20.7437 63.8511 20.7437C67.7354 20.7437 69.2823 24.2092 69.2823 27.8125C69.2823 31.2289 67.643 34.4134 63.8511 34.4134Z" fill="#2A007C"/>
<path d="M78.9602 60.6018V46.2134H86.91V47.2868H80.2713V52.5917H86.6289V53.6651H80.2713V59.5246H87.2062V60.5999L78.9602 60.6018Z" fill="#2A007C"/>
<path d="M88.155 60.602L92.0318 55.4348L88.355 50.5469H89.8453L92.8468 54.5406L95.7879 50.5469H97.2782L93.5429 55.4348L97.4367 60.602H95.9275L92.7072 56.3272L89.6473 60.602H88.155Z" fill="#2A007C"/>
<path d="M99.9589 64.3749H98.7459V53.5482C98.7459 52.554 98.7459 51.5429 98.6855 50.5468H99.8797L99.9193 52.0579C100.672 50.8637 101.666 50.3091 103.158 50.3091C106.258 50.3091 107.588 52.871 107.588 55.5725C107.588 58.2777 106.258 60.8396 103.158 60.8396C101.766 60.8396 100.674 60.3038 99.9589 59.1493V64.3749ZM106.298 55.5725C106.298 53.4275 105.402 51.3203 103.019 51.3203C100.774 51.3203 99.9589 53.169 99.9589 55.5725C99.9589 57.9778 100.774 59.8247 103.019 59.8247C105.403 59.8247 106.298 57.7193 106.298 55.5725Z" fill="#2A007C"/>
<path d="M113.821 51.4787C111.814 51.4787 111.116 53.169 111.116 54.9159V60.6019H109.903V53.5048C109.903 52.5314 109.884 51.541 109.844 50.5468H111.04L111.118 51.9975C111.714 50.8467 112.71 50.3091 114.04 50.3091C114.219 50.3091 114.417 50.3279 114.596 50.3487V51.5617C114.317 51.5183 114.098 51.4787 113.821 51.4787Z" fill="#2A007C"/>
<path d="M116.081 55.7913C116.081 58.0551 117.153 59.9228 119.358 59.9228C121.065 59.9228 121.861 58.7909 122.16 57.6589H123.312C122.775 59.7643 121.482 60.8396 119.198 60.8396C116.138 60.8396 114.785 58.5739 114.785 55.7536C114.785 52.8729 116.196 50.3091 119.356 50.3091C122.556 50.3091 123.41 53.1087 123.41 55.7913H116.081ZM116.119 54.8782H122.12C122.12 52.9106 121.188 51.2222 119.279 51.2222C117.551 51.2203 116.357 52.5314 116.119 54.8782Z" fill="#2A007C"/>
<path d="M128.143 60.8396C126.078 60.8396 124.529 59.8643 124.529 57.6589H125.742C125.742 59.1682 126.734 59.9228 128.206 59.9228C129.577 59.9228 130.649 59.2663 130.649 57.9193C130.649 56.7063 129.398 56.3874 128.087 56.0101C126.498 55.5536 124.768 55.0556 124.768 53.1087C124.768 50.9448 126.576 50.3091 128.266 50.3091C130.211 50.3091 131.664 51.0618 131.722 53.1483H130.509C130.451 51.9579 129.596 51.2825 128.304 51.2825C127.291 51.2825 126.059 51.6787 126.059 52.9898C126.059 54.184 127.291 54.5217 128.602 54.8782C130.194 55.314 131.941 55.7913 131.941 57.7401C131.939 60.0039 130.192 60.8396 128.143 60.8396Z" fill="#2A007C"/>
<path d="M136.55 60.8396C134.482 60.8396 132.933 59.8643 132.933 57.6589H134.146C134.146 59.1682 135.139 59.9228 136.612 59.9228C137.984 59.9228 139.055 59.2663 139.055 57.9193C139.055 56.7063 137.802 56.3874 136.491 56.0101C134.903 55.5536 133.175 55.0556 133.175 53.1087C133.175 50.9448 134.982 50.3091 136.672 50.3091C138.617 50.3091 140.07 51.0618 140.129 53.1483H138.915C138.857 51.9579 138.002 51.2825 136.71 51.2825C135.697 51.2825 134.465 51.6787 134.465 52.9898C134.465 54.184 135.697 54.5217 137.01 54.8782C138.6 55.314 140.349 55.7913 140.349 57.7401C140.345 60.0039 138.597 60.8396 136.55 60.8396Z" fill="#2A007C"/>
</g>
<defs>
<clipPath id="clip0_249_1498">
<rect width="140.613" height="64" fill="white" transform="translate(0.113281 0.375)"/>
</clipPath>
</defs>
</svg>
