<svg width="241" height="64" viewBox="0 0 241 64" fill="none" xmlns="http://www.w3.org/2000/svg">
<path d="M52.4859 52.1019C52.4859 55.3643 49.7992 58.0509 46.5368 58.0509H8.92364C5.66127 58.0509 2.97461 55.3643 2.97461 52.1019V11.8021C2.97461 8.53968 5.66127 5.85303 8.92364 5.85303H46.5368C49.7992 5.85303 52.4859 8.53968 52.4859 11.8021V52.1019Z" fill="#65B2D4"/>
<path d="M35.5984 30.6087L45.3855 18.3268L31.1846 25.1394L27.7303 9.88306L24.1801 25.1394L10.0752 18.3268L19.8623 30.6087L5.75732 37.4213H21.3975L17.9432 52.7736L27.7303 40.4918L37.5174 52.7736V52.6777L34.0632 37.4213H49.7034L35.5984 30.6087Z" fill="white"/>
<path d="M125.409 40.4918H136.54C136.636 40.4918 136.732 40.3959 136.732 40.2999V38.2849C136.732 38.189 136.636 38.093 136.54 38.093H125.026H122.723C122.627 38.093 122.531 38.189 122.531 38.2849V56.4199C122.531 56.5158 122.627 56.6118 122.723 56.6118H125.026H136.54C136.636 56.6118 136.732 56.5158 136.732 56.4199V54.4049C136.732 54.3089 136.636 54.213 136.54 54.213H125.409C125.313 54.213 125.217 54.117 125.217 54.0211C125.217 54.0211 125.217 51.0465 125.217 48.4558H134.909C135.005 48.4558 135.1 48.3599 135.1 48.2639V46.2489C135.1 46.153 135.005 46.057 134.909 46.057H125.217C125.217 43.3704 125.217 42.0271 125.217 40.5878C125.217 40.5878 125.313 40.4918 125.409 40.4918Z" fill="#010101"/>
<path d="M77.9132 54.0211C77.9132 54.117 78.0092 54.213 78.1051 54.213H89.2356C89.3315 54.213 89.4275 54.3089 89.4275 54.4049V56.4199C89.4275 56.5158 89.3315 56.6118 89.2356 56.6118H75.4185C75.3225 56.6118 75.2266 56.5158 75.2266 56.4199V38.2849C75.2266 38.189 75.3225 38.093 75.4185 38.093H77.7213C77.8173 38.093 77.9132 38.189 77.9132 38.2849V54.0211Z" fill="#010101"/>
<path d="M95.2804 38.093C95.3764 38.093 95.4723 38.189 95.4723 38.2849V56.3239C95.4723 56.4199 95.3764 56.5158 95.2804 56.5158H92.9776C92.8816 56.5158 92.7856 56.4199 92.7856 56.3239V38.2849C92.7856 38.189 92.8816 38.093 92.9776 38.093H95.2804Z" fill="#010101"/>
<path d="M118.213 38.093C118.309 38.093 118.405 38.189 118.405 38.2849V56.3239C118.405 56.4199 118.309 56.5158 118.213 56.5158H115.718C115.526 56.5158 115.334 56.4199 115.239 56.228L103.34 41.2594V56.3239C103.34 56.4199 103.245 56.5158 103.149 56.5158H100.942C100.846 56.5158 100.75 56.4199 100.75 56.3239V38.2849C100.75 38.189 100.846 38.093 100.942 38.093H103.82C103.916 38.093 104.012 38.189 104.108 38.189L115.814 53.0615V38.2849C115.814 38.189 115.91 38.093 116.006 38.093H118.213Z" fill="#010101"/>
<path d="M74.459 30.3207V7.29224H80.5999L88.372 24.5636L95.9522 7.29224H101.901V30.3207H96.8158V16.9834L90.9627 30.3207H85.5894L79.7363 16.9834V30.3207H74.459Z" fill="#010101"/>
<path d="M110.057 30.3207H104.108L114.279 7.29224H121.571L131.838 30.3207H125.985L123.97 25.715H111.976L110.057 30.3207ZM122.147 21.3972L117.925 11.6101L113.799 21.3972H122.147Z" fill="#010101"/>
<path d="M134.237 30.3207V7.29224H156.21V11.8979H139.61V16.5036H153.811V21.0134H139.61V25.715H156.306V30.3207H134.237Z" fill="#010101"/>
<path d="M160.528 30.3207V7.29224H178.951C181.445 7.29224 182.789 8.73152 182.789 11.1303V18.9024C182.789 20.7255 181.253 22.2608 178.183 22.2608H177.607L182.981 30.3207H177.032L171.946 22.4527H165.805V30.3207H160.528ZM165.901 17.847H177.415V11.8979H165.901V17.847Z" fill="#010101"/>
<path d="M192.48 30.3207H190.657C188.258 30.3207 187.106 28.9774 187.106 26.9624V23.9879H192.48V25.811H203.802V21.1093H190.753C188.642 21.1093 187.202 19.67 187.202 17.751V10.8425C187.202 8.73152 188.834 7.29224 190.849 7.29224C192.864 7.29224 205.721 7.29224 205.721 7.29224C207.736 7.29224 209.079 8.82747 209.079 10.9384V13.721H203.802V11.8979H192.48V16.4077H205.433C207.352 16.4077 209.079 17.6551 209.079 20.1498V26.6745C209.079 28.8814 207.832 30.2248 205.529 30.2248C203.226 30.2248 192.48 30.3207 192.48 30.3207Z" fill="#010101"/>
<path d="M214.261 30.3207V7.29224H219.73V16.5036L230.093 7.29224H237.481L225.104 18.0389L237.961 30.3207H230.285L219.73 19.862V30.3207H214.261Z" fill="#010101"/>
</svg>
