<svg width="201" height="60" viewBox="0 0 201 60" fill="none" xmlns="http://www.w3.org/2000/svg">
<path d="M30.2041 1.68042C14.7638 1.68038 2.23657 14.2219 2.23657 29.6875C2.23656 45.1546 14.7638 57.6946 30.2041 57.6946C41.3088 57.6946 50.8898 51.1849 55.4025 41.7922C59.9153 51.1849 69.5358 57.6946 80.6406 57.6946C91.8972 57.6946 101.564 51.0393 105.997 41.4362C110.429 51.0393 120.135 57.6946 131.393 57.6946C142.769 57.6946 152.582 50.8874 156.948 41.1198V56.4287H198.603V38.4298H175.066V2.94628H156.948V18.2948C152.587 8.51444 142.778 1.68042 131.393 1.68042C120.135 1.68038 110.429 8.33566 105.997 17.9388C101.564 8.33569 91.8972 1.68042 80.6406 1.68042C69.5358 1.68038 59.9153 8.14895 55.4025 17.5432C50.8898 8.14897 41.3088 1.68042 30.2041 1.68042ZM80.7197 11.8468C81.4555 11.8561 82.1983 11.9634 82.9349 12.2029C86.1138 13.2346 88.1392 16.2299 88.117 19.4024C88.8607 19.1556 89.625 19.0068 90.451 19.0068C94.584 19.0068 97.9274 22.3519 97.9274 26.4833C97.9274 29.8252 95.7691 32.6449 92.7453 33.6037C93.2105 34.2351 93.5586 34.955 93.8134 35.7399C95.0903 39.6704 92.9558 43.8777 89.0269 45.1547C85.848 46.1879 82.4887 45.0044 80.6406 42.4252C80.1849 43.0628 79.6073 43.642 78.9396 44.1262C75.5977 46.555 70.9251 45.8082 68.4962 42.4647C66.5326 39.7621 66.6528 36.1576 68.5358 33.6037C67.789 33.368 67.069 33.0214 66.3997 32.5357C63.0562 30.1084 62.3094 25.4342 64.7382 22.0924C66.7019 19.3898 70.115 18.4008 73.1245 19.4024C73.1198 18.6192 73.2638 17.8153 73.5201 17.0289C74.5576 13.8367 77.5311 11.8065 80.7197 11.8468ZM80.6406 16.3564C79.8716 16.3564 79.2165 16.972 79.2165 17.741C79.2165 18.3929 79.6785 18.9356 80.2845 19.0859V26.2855C80.0377 26.3077 79.8003 26.3314 79.5725 26.4042L78.2671 23.5164C78.4664 23.3218 78.6231 23.0639 78.6231 22.7648C78.6231 22.1699 78.1088 21.6572 77.5155 21.6572C76.9221 21.6572 76.4474 22.1699 76.4474 22.7648C76.4474 23.3582 76.9221 23.8329 77.5155 23.8329C77.555 23.8329 77.5962 23.8361 77.6341 23.8329L78.9396 26.6811C78.7275 26.8014 78.5282 26.9548 78.3462 27.1162L75.9727 24.9801C76.0756 24.7206 76.0946 24.4231 75.9727 24.1494C75.7306 23.6067 75.0914 23.3946 74.5486 23.6351C74.0059 23.8772 73.7527 24.5165 73.9948 25.0592C74.2353 25.6019 74.8762 25.8156 75.4189 25.5735C75.4553 25.5576 75.4648 25.5545 75.498 25.5339L77.8715 27.6305C77.7244 27.8251 77.5788 28.0403 77.4759 28.2634L70.6719 26.0482C70.702 25.4374 70.2938 24.8614 69.683 24.6636C68.9519 24.4262 68.1814 24.8424 67.9424 25.5735C67.7051 26.3061 68.1212 27.0767 68.8523 27.314C69.4725 27.515 70.1039 27.2491 70.4346 26.7206L77.2386 28.9359C77.1848 29.1717 77.1626 29.4343 77.1595 29.6875L74.0344 30.004C73.9094 29.754 73.6863 29.5435 73.4014 29.4501C72.8366 29.2666 72.24 29.5973 72.0565 30.1622C71.8713 30.7271 72.1641 31.3236 72.729 31.5072C73.2938 31.6907 73.9299 31.36 74.1135 30.7951C74.1262 30.7572 74.1056 30.754 74.1135 30.716L77.2386 30.36C77.286 30.6084 77.3383 30.8458 77.4364 31.072L74.7464 32.6543C74.5312 32.4771 74.2527 32.3869 73.9553 32.417C73.3651 32.4803 72.9046 33.012 72.9663 33.6037C73.028 34.194 73.5628 34.6164 74.153 34.5531C74.7432 34.4914 75.2037 33.9566 75.142 33.3664C75.1373 33.3268 75.1104 33.2841 75.1024 33.2477L77.7924 31.705C77.9364 31.9107 78.1231 32.091 78.3066 32.2588L74.1135 38.0342C73.5423 37.8175 72.8682 37.9899 72.4916 38.5089C72.0391 39.1308 72.1451 39.9947 72.7685 40.4473C73.3904 40.8998 74.2955 40.7938 74.7464 40.1704C75.1309 39.6434 75.0676 38.9077 74.6673 38.4298L78.8605 32.6939C79.0741 32.822 79.2924 32.9313 79.5329 33.0104L78.9 36.0563C78.6247 36.0975 78.3636 36.2494 78.188 36.4915C77.8383 36.9725 77.9443 37.607 78.4253 37.9551C78.9063 38.3048 79.5804 38.1988 79.9285 37.7178C80.2782 37.2383 80.1706 36.6038 79.6912 36.2541C79.6595 36.2304 79.6057 36.194 79.5725 36.175L80.245 33.129C80.3732 33.1433 80.5076 33.1686 80.6406 33.1686C80.764 33.1686 80.8779 33.1797 80.9966 33.1686L81.6295 36.175C81.3953 36.3253 81.2165 36.5943 81.1548 36.8871C81.0314 37.4678 81.4048 38.0295 81.9855 38.1529C82.5678 38.2763 83.128 37.9045 83.2514 37.3222C83.3748 36.7415 83.0014 36.1798 82.4207 36.0563C82.3827 36.0468 82.34 36.0215 82.302 36.0168L81.6691 33.0104C81.9111 32.9328 82.1659 32.8189 82.3811 32.6939L86.5743 38.4694C86.1914 38.9472 86.1581 39.6514 86.5347 40.1704C86.9873 40.7938 87.8512 40.8998 88.473 40.4473C89.0965 39.9948 89.2421 39.1308 88.7895 38.5089C88.4066 37.982 87.7056 37.8001 87.1281 38.0342L82.9349 32.2983C83.1201 32.1322 83.3036 31.9091 83.4492 31.705L86.1391 33.2873C86.0932 33.561 86.1597 33.8348 86.3369 34.0784C86.685 34.5579 87.3591 34.6639 87.8401 34.3158C88.3196 33.9661 88.4272 33.3316 88.0775 32.8521C87.7294 32.3711 87.0553 32.2255 86.5743 32.5752C86.5426 32.599 86.5236 32.6274 86.4951 32.6543L83.7656 31.1116C83.8653 30.8869 83.9524 30.6464 84.003 30.3995L87.1281 30.716C87.1977 30.985 87.3812 31.2382 87.6423 31.3885C88.1566 31.686 88.8085 31.5072 89.106 30.9929C89.4035 30.4771 89.2246 29.8267 88.7104 29.5293C88.1961 29.2318 87.5442 29.4106 87.2467 29.9248C87.2262 29.958 87.223 30.0087 87.2072 30.0435L84.0821 29.6875C84.0821 29.4359 84.0536 29.2128 84.003 28.9755L90.807 26.7602C91.144 27.2713 91.8181 27.5118 92.4288 27.314C93.1599 27.0767 93.5365 26.3061 93.2991 25.5735C93.0618 24.8424 92.2896 24.4247 91.5586 24.6636C90.9383 24.8646 90.5665 25.4659 90.6092 26.0877L83.7656 28.303C83.6659 28.0783 83.5552 27.8662 83.4096 27.67L85.7831 25.5339C86.03 25.6621 86.2879 25.7064 86.5743 25.613C87.1391 25.4294 87.4699 24.8329 87.2863 24.268C87.1028 23.7031 86.5062 23.3725 85.9413 23.556C85.3765 23.7396 85.0457 24.3756 85.2293 24.9405C85.2419 24.9785 85.253 24.9848 85.2688 25.0196L82.9349 27.1558C82.7545 26.9928 82.5536 26.8425 82.3416 26.7206L83.647 23.7934C83.9239 23.8123 84.215 23.7554 84.4381 23.556C84.8796 23.1573 84.9144 22.4547 84.5172 22.0132C84.1201 21.5718 83.4159 21.537 82.9745 21.9341C82.533 22.3329 82.4982 22.9959 82.8954 23.4373C82.9223 23.4674 82.946 23.5307 82.9745 23.556L81.7086 26.4437C81.4808 26.3694 81.2418 26.3124 80.9966 26.2855V19.0859C81.5868 18.9246 82.0251 18.3818 82.0251 17.741C82.0251 16.972 81.4096 16.3564 80.6406 16.3564ZM30.2041 19.442C35.8609 19.442 40.4496 24.0323 40.4496 29.6875C40.4496 35.3443 35.8609 39.933 30.2041 39.933C24.5489 39.933 19.9586 35.3443 19.9586 29.6875C19.9586 24.0322 24.5489 19.442 30.2041 19.442ZM131.393 19.442C134.859 19.442 137.927 21.1588 139.78 23.7934H156.948V35.7003L139.701 35.6608C137.841 38.2352 134.811 39.933 131.393 39.933C125.737 39.933 121.148 35.3443 121.148 29.6875C121.148 24.0322 125.737 19.442 131.393 19.442Z" fill="#E60013"/>
</svg>
