<svg width="219" height="65" viewBox="0 0 219 65" fill="none" xmlns="http://www.w3.org/2000/svg">
<path d="M202.135 33.2225C202.165 33.9937 202.16 34.7591 202.121 35.5095C194.623 35.8068 187.512 36.2585 187.512 36.7668C187.512 37.2661 194.464 37.7134 201.876 38.0091C201.746 38.8651 201.578 39.7047 201.373 40.528C194.065 40.8267 187.285 41.2666 187.285 41.7615C187.285 42.2385 193.615 42.668 200.625 42.9667C200.304 43.8613 199.94 44.7306 199.531 45.5629C193.511 45.8526 188.536 46.239 188.536 46.6611C188.536 47.0549 192.883 47.419 198.362 47.6998C198.054 48.2006 197.733 48.691 197.397 49.1547C197.041 49.66 196.653 50.1608 196.243 50.6527C192.817 50.9127 190.466 51.2085 190.466 51.525C190.466 51.7969 192.15 52.0511 194.745 52.2784C193.328 53.6798 191.655 54.989 189.683 56.1318C189.683 56.1318 187.36 54.1316 185.443 51.7955C183.734 49.712 180.108 44.2194 179.255 42.9905C178.401 41.7615 177.839 41.4018 176.84 41.7585C175.501 42.2326 173.945 42.4703 173.467 42.4703C172.988 42.4703 172.725 42.2846 173.528 41.9665C174.327 41.6441 177.488 40.152 179.044 37.0684C180.792 33.5955 179.255 28.7999 179.255 28.7999C178.668 31.3634 177.334 32.3204 177.334 32.3204C177.765 29.9397 177.295 27.7819 176.12 26.2676L175.464 29.2814C175.464 29.2814 175.054 29.2606 174.039 30.1136C173.026 30.9681 172.746 32.2134 172.746 32.2134C173.544 32.5344 174.504 31.7334 174.504 31.7334C173.278 36.3209 171.52 40.0555 170.238 42.0304C168.957 44.0054 167.9 44.75 166.616 45.2716C165.533 45.7055 165.176 45.1958 165.176 45.1958C164.229 44.3784 163.522 43.6295 162.785 42.7393C162.785 42.7393 162.726 42.6353 162.925 42.6383C163.452 42.6457 164.391 41.7436 164.597 41.3691C164.831 40.9397 164.806 40.6112 164.689 40.589C164.573 40.5696 164.372 40.9099 163.354 41.5519C162.342 42.1924 161.877 41.7481 161.54 41.3914C161.278 41.1076 161.535 40.7569 161.699 40.5369C161.853 40.3408 167.208 30.3558 181.376 19.8656C199.943 6.1179 211.8 2.40568 212.479 2.13818C212.928 1.96134 213.661 1.72803 213.827 1.89893C214.012 2.09212 214.102 2.24667 214.077 2.47107C214.053 2.69398 213.934 2.80841 213.075 3.18736C205.948 6.32744 197.628 11.5614 192.9 14.6079C187.087 17.4403 181.536 21.4854 181.334 21.582C180.887 21.8599 181.217 22.2641 181.487 22.0947C191.304 15.5649 202.814 11.1171 215.533 7.4732C216.141 7.30082 216.474 7.30082 216.575 7.43456C216.69 7.58317 216.739 7.75258 216.756 7.93983C216.773 8.17315 216.58 8.29649 216.058 8.50008C202.393 13.5765 192.322 18.2918 185.844 22.6505C185.844 22.6505 185.174 23.0547 185.165 23.5228C185.162 23.7012 185.525 23.722 185.525 23.722C188.768 23.7799 193.102 23.9701 195.165 24.0905C195.165 24.0905 194.871 25.1352 192.896 25.9764C191.371 26.6273 189.959 26.5232 188.563 26.5351C188.252 26.5292 187.989 26.8427 188.237 27.1771C188.362 27.3435 191.334 32.1287 202.135 33.2225Z" fill="#5C0632"/>
<path d="M41.2357 55.7084C40.7765 55.7396 40.3307 55.7678 39.87 55.7678C39.3499 55.7678 38.8461 55.7233 38.326 55.7084L39.8403 52.0571L41.2357 55.7084ZM42.9135 59.8501C43.181 59.8352 43.5971 59.7624 44.0117 59.7624C44.4278 59.7624 44.948 59.8352 45.1709 59.8501C44.5021 58.4101 43.5213 56.1676 42.9581 54.8762C42.4231 53.6309 41.533 51.5518 40.8211 49.5174C40.6577 49.562 40.5076 49.5932 40.3456 49.5932C40.1672 49.5932 40.0186 49.562 39.8552 49.5174C39.5 50.7345 38.6366 52.6649 37.1386 56.022L35.4163 59.8501C35.6228 59.8204 35.8324 59.7624 36.0835 59.7624C36.3213 59.7624 36.6051 59.8204 36.7968 59.8501C37.0331 59.0045 37.5087 57.7711 37.9827 56.6298C38.5771 56.5986 39.1716 56.5703 39.7645 56.5703C40.4035 56.5703 41.0277 56.5986 41.6682 56.6298L42.2894 58.2035L42.9135 59.8501Z" fill="#505967"/>
<path d="M46.4723 53.0954C46.4723 55.6336 46.4723 58.0841 46.3088 59.8496C46.6373 59.8362 47.0519 59.7619 47.3773 59.7619C47.7191 59.7619 48.0758 59.8362 48.4176 59.8496C48.2987 58.6474 48.269 57.0439 48.269 54.8326C48.269 53.3317 48.269 50.7652 48.4324 49.6655C48.0758 49.7101 47.7058 49.7562 47.3773 49.7562C47.1559 49.7562 46.6046 49.6967 46.3237 49.6655C46.4723 51.104 46.4723 52.1592 46.4723 53.0954Z" fill="#505967"/>
<path d="M55.302 54.8029C56.6544 54.5503 57.8863 53.7032 57.8863 52.0566C57.8863 51.4325 57.6485 50.8232 57.2042 50.3922C56.5667 49.7844 55.837 49.6655 54.8725 49.6655C54.5308 49.6655 52.8084 49.7398 52.4235 49.7398C51.6656 49.7398 51.2792 49.6967 50.9389 49.6655C51.0414 51.5811 51.0414 51.7891 51.0414 53.7344C51.0414 56.5981 51.0266 56.925 50.9092 59.8496C51.2361 59.8065 51.5928 59.7619 51.9316 59.7619C52.3046 59.7619 52.6301 59.8199 52.9273 59.8496C52.9273 59.4647 52.8678 57.5492 52.8678 57.1182V55.0109H53.2245C54.027 56.1389 54.9454 57.4451 55.7033 58.6191C55.9262 58.9594 56.2531 59.5093 56.476 59.8496C56.9219 59.7902 57.1002 59.7619 57.6797 59.7619C58.2133 59.7619 58.5848 59.8065 58.9994 59.8496C58.0646 58.6786 57.6619 58.1585 56.4909 56.5104C56.268 56.1983 55.941 55.7079 55.7181 55.3973L55.302 54.8029ZM52.8678 50.468C53.0907 50.4517 53.6406 50.3922 53.9229 50.3922C54.4119 50.3922 54.9038 50.468 55.302 50.7652C55.8222 51.1501 55.9262 51.6851 55.9262 52.3093C55.9262 53.2722 55.3778 54.3586 53.8932 54.3586C53.5068 54.3586 53.1502 54.3273 52.8678 54.3125V50.468Z" fill="#505967"/>
<path d="M63.0349 56.3771C62.3394 54.313 61.3734 51.4181 60.9128 49.666C60.5412 49.7255 60.2158 49.7552 59.874 49.7552C59.5173 49.7552 59.0121 49.6972 58.7148 49.666C59.3241 51.2695 59.8428 52.6931 60.2455 53.8226C60.9291 55.753 61.3734 57.0905 61.9084 58.7207L62.2785 59.8501C62.4865 59.807 62.7228 59.7624 62.8877 59.7624C63.0512 59.7624 63.1998 59.7907 63.451 59.8501C63.6887 59.0788 63.9711 58.1292 64.1806 57.5199C64.7572 55.8273 64.833 55.5895 65.5909 53.4823L66.0353 52.2503C66.1987 52.7244 66.4811 53.4823 66.6431 53.9563C66.8065 54.417 67.5644 56.6892 67.7428 57.1945C67.9805 57.8617 68.0385 58.0534 68.5883 59.8501C68.7221 59.8352 69.003 59.7624 69.2274 59.7624C69.4354 59.7624 69.5974 59.807 69.8203 59.8501C70.385 58.0846 70.4445 57.9063 71.2752 55.5301C72.0925 53.2133 72.5963 51.8936 73.4865 49.666C73.2635 49.7255 73.0436 49.7552 72.8192 49.7552C72.5368 49.7552 72.3006 49.7106 72.1371 49.666C71.6021 51.5964 71.3361 52.5327 70.9051 53.8077C70.2067 55.8852 70.1175 56.123 69.688 57.2524C69.2125 55.9759 68.7518 54.683 68.3209 53.3782C68.0846 52.6649 67.1766 49.6972 67.1632 49.666C66.9566 49.7106 66.8065 49.7552 66.5093 49.7552C66.2448 49.7552 66.0486 49.6972 65.8569 49.666C65.4111 51.4775 63.8374 55.8421 63.6887 56.2434L63.3172 57.2079L63.0349 56.3771Z" fill="#505967"/>
<path d="M78.016 55.7084C77.5553 55.7396 77.111 55.7678 76.6488 55.7678C76.1302 55.7678 75.6249 55.7233 75.1063 55.7084L76.6191 52.0571L78.016 55.7084ZM79.6923 59.8501C79.9613 59.8352 80.3774 59.7624 80.792 59.7624C81.2081 59.7624 81.7283 59.8352 81.9497 59.8501C81.2824 58.4101 80.3016 56.1676 79.7369 54.8762C79.2019 53.6309 78.3118 51.5518 77.5999 49.5174C77.4365 49.562 77.2879 49.5932 77.1244 49.5932C76.9475 49.5932 76.7975 49.562 76.634 49.5174C76.2788 50.7345 75.4169 52.6649 73.9174 56.022L72.1951 59.8501C72.4046 59.8204 72.6112 59.7624 72.8638 59.7624C73.1016 59.7624 73.3824 59.8204 73.5771 59.8501C73.8134 59.0045 74.2904 57.7711 74.7645 56.6298C75.3574 56.5986 75.9519 56.5703 76.5448 56.5703C77.1838 56.5703 77.8065 56.5986 78.4455 56.6298L79.0697 58.2035L79.6923 59.8501Z" fill="#505967"/>
<path d="M85.9247 55.8714C85.9247 55.7391 86.0138 55.5757 86.1179 55.3958C86.742 54.3273 87.3201 53.2128 87.9888 52.1443C88.2103 51.7876 89.2951 50.0668 89.5195 49.6655C89.3545 49.725 89.1911 49.7562 88.8953 49.7562C88.5669 49.7562 88.2697 49.7101 88.0319 49.6655C86.9634 52.012 86.7257 52.5158 85.4655 54.684C84.2038 52.4727 83.6391 51.3002 82.8663 49.6655C82.4368 49.7398 82.0044 49.7562 81.6492 49.7562C81.3223 49.7562 80.9805 49.725 80.4321 49.6655C81.2034 50.9569 82.4666 53.0062 83.223 54.3125L84.0983 55.8268C84.0983 56.7482 84.0537 58.692 84.0106 59.8496C84.2915 59.8199 84.7076 59.7619 85.0033 59.7619C85.3451 59.7619 85.6884 59.8199 86.0302 59.8496C85.9693 58.469 85.9247 57.668 85.9247 56.4197V55.8714Z" fill="#505967"/>
<path d="M90.3748 57.6244C90.3019 58.3362 90.2856 58.5294 90.033 59.3007C90.5679 59.5682 91.5339 60.0586 92.809 60.0586C95.527 60.0586 96.5806 58.3229 96.5806 56.8071C96.5806 56.391 96.4766 55.5142 95.8539 54.8469C95.423 54.3714 94.9771 54.2094 93.8343 53.7636C92.5296 53.2583 91.7702 52.9611 91.7702 51.8777C91.7702 51.0024 92.3498 50.2743 93.5223 50.2743C94.457 50.2743 95.2461 50.7201 95.4675 51.5657H95.6756C95.8093 51.0024 95.8391 50.8836 96.1363 50.1554C95.4081 49.8299 94.7542 49.5476 93.6709 49.5476C90.9826 49.5476 90.2113 51.2105 90.2113 52.5153C90.2113 53.7487 90.6437 54.5066 92.0823 55.1441C92.4969 55.3225 93.1968 55.5885 93.6114 55.7683C93.8938 55.8857 94.83 56.3003 94.83 57.4743C94.83 58.5443 94.0558 59.3319 92.8847 59.3319C92.008 59.3319 91.2649 59.109 90.5828 57.6244H90.3748Z" fill="#505967"/>
<path d="M201.713 29.5164C201.713 29.8032 197.681 30.0722 191.925 30.2981C190.909 29.7215 190.137 29.1419 189.573 28.6426C196.553 28.8893 201.713 29.1939 201.713 29.5164Z" fill="#747F8A"/>
<path d="M197.578 19.7992C197.578 20.0385 194.199 20.2629 189.367 20.4561C190.06 20.0518 190.773 19.6447 191.522 19.236C195.172 19.4039 197.578 19.5986 197.578 19.7992Z" fill="#747F8A"/>
<path d="M161.58 40.7041C159.344 40.7308 157.382 40.7412 155.85 40.7412C153.644 40.7412 151.858 40.0621 151.858 39.2195C151.858 38.3813 153.644 37.7022 155.85 37.7022C157.802 37.7022 160.448 37.723 163.482 37.7616C162.308 39.4558 161.751 40.4737 161.699 40.5376C161.665 40.5867 161.622 40.6446 161.58 40.7041Z" fill="#747F8A"/>
<path d="M162.785 42.739C163.522 43.6292 164.229 44.3782 165.176 45.197C165.176 45.197 165.533 45.7067 166.616 45.2698C167.719 44.821 168.653 44.2102 169.707 42.797C172.783 42.849 176.045 42.9173 179.257 42.9902C179.521 43.3751 180.058 44.1716 180.719 45.1539C171.767 45.3857 162.051 45.5239 157.074 45.5239C155.001 45.5239 153.319 44.8805 153.319 44.0928C153.319 43.3008 155.001 42.6617 157.074 42.6617C158.59 42.6617 160.542 42.6721 162.777 42.6974C162.776 42.7182 162.785 42.739 162.785 42.739Z" fill="#747F8A"/>
<path d="M159.322 50.2046C157.482 50.2046 155.991 49.6384 155.991 48.9399C155.991 48.24 157.482 47.6723 159.322 47.6723C164.189 47.6723 174.166 47.8209 182.711 48.0632C183.123 48.6531 183.534 49.2401 183.925 49.7796C175.128 50.0381 164.419 50.2046 159.322 50.2046Z" fill="#747F8A"/>
<path d="M187.702 54.2645C180.525 54.5795 168.187 54.7905 163.06 54.7905C161.617 54.7905 160.444 54.3402 160.444 53.7949C160.444 53.245 161.617 52.7977 163.06 52.7977C167.964 52.7977 179.481 52.9909 186.749 53.2807C187.078 53.6329 187.399 53.9643 187.702 54.2645Z" fill="#747F8A"/>
<path d="M168.98 56.9559C173.214 56.9559 186.102 57.2754 186.102 57.6617C186.102 58.0541 173.212 58.3706 168.98 58.3706C168.155 58.3706 167.488 58.0541 167.488 57.6617C167.488 57.2754 168.155 56.9559 168.98 56.9559Z" fill="#747F8A"/>
<path d="M169.027 30.8952C163.697 30.9858 158.923 31.0364 155.85 31.0364C153.646 31.0364 151.858 30.3572 151.858 29.5161C151.858 28.6765 153.646 27.9944 155.85 27.9944C159.419 27.9944 165.285 28.0627 171.644 28.1831C170.698 29.1178 169.825 30.0273 169.027 30.8952Z" fill="#747F8A"/>
<path d="M195.165 24.0984C198.287 24.2678 200.252 24.4535 200.252 24.6467C200.252 24.8592 197.874 25.0628 194.195 25.2441C194.981 24.6527 195.153 24.137 195.165 24.0984Z" fill="#747F8A"/>
<path d="M157.075 26.0754C155 26.0754 153.318 25.4364 153.318 24.6458C153.318 23.8567 155 23.2147 157.075 23.2147C161.329 23.2147 169.047 23.3188 176.787 23.4897C175.838 24.2907 174.937 25.0827 174.087 25.86C167.293 25.9967 160.834 26.0754 157.075 26.0754Z" fill="#747F8A"/>
<path d="M180.21 20.742C172.295 20.9426 163.72 21.0659 159.321 21.0659C157.482 21.0659 155.993 20.4997 155.993 19.7998C155.993 19.0998 157.482 18.5307 159.321 18.5307C164.177 18.5307 174.13 18.6823 182.663 18.923C182.238 19.2321 181.81 19.5412 181.376 19.8652C180.981 20.1594 180.592 20.4492 180.21 20.742Z" fill="#747F8A"/>
<path d="M163.059 15.939C161.616 15.939 160.444 15.4946 160.444 14.9433C160.444 14.3934 161.616 13.9461 163.059 13.9461C168.503 13.9461 182.079 14.1869 188.975 14.5302C188.535 14.8185 188.095 15.1172 187.651 15.4174C180.464 15.7279 168.176 15.939 163.059 15.939Z" fill="#747F8A"/>
<path d="M155.438 35.9158C153.194 35.9158 151.372 35.2247 151.372 34.3673C151.372 33.5158 153.194 32.8218 155.438 32.8218C158.251 32.8218 162.461 32.8634 167.223 32.9362C166.328 33.9883 165.551 34.9632 164.885 35.837C161.094 35.8875 157.78 35.9158 155.438 35.9158Z" fill="#747F8A"/>
<path d="M167.488 11.0749C167.488 10.684 168.156 10.3675 168.98 10.3675C173.213 10.3675 186.103 10.684 186.103 11.0749C186.103 11.4627 173.214 11.7808 168.98 11.7808C168.156 11.7808 167.488 11.4627 167.488 11.0749Z" fill="#747F8A"/>
<path d="M103.116 58.2459H101.285C101.285 58.2459 101.039 57.1194 101.701 56.6885C102.367 56.2516 103.116 55.9157 103.116 55.9157V58.2459ZM111.804 54.0284C111.804 54.0284 110.691 54.6674 109.986 55.2945C109.286 55.9157 110.13 56.152 110.13 56.152V58.2459H104.818V50.918C104.818 50.918 102.881 52.6983 102.7 52.9346C102.513 53.1873 103.161 53.4161 103.161 53.4161L103.051 54.1101C103.051 54.1101 102.279 54.5099 101.343 55.1429C100.413 55.7686 99.7233 56.5666 99.7233 57.1194C99.7233 57.6737 99.4885 59.8493 99.4885 59.8493H111.804V54.0284ZM100.805 51.349C101.412 51.349 101.84 51.1097 101.84 50.6268C101.84 50.1423 101.556 49.805 100.805 49.805C100.138 49.805 99.9596 50.0962 99.9596 50.6268C99.9596 51.1617 100.191 51.349 100.805 51.349ZM103.07 51.349C103.682 51.349 104.097 51.1097 104.097 50.6268C104.097 50.1423 103.816 49.805 103.07 49.805C102.4 49.805 102.224 50.0962 102.224 50.6268C102.224 51.1617 102.455 51.349 103.07 51.349ZM106.501 60.4794C105.839 60.4794 105.656 60.7633 105.656 61.2968C105.656 61.8258 105.891 62.019 106.501 62.019C107.108 62.019 107.537 61.7783 107.537 61.2968C107.537 60.8108 107.258 60.4794 106.501 60.4794ZM108.855 60.4794C108.192 60.4794 108.011 60.7633 108.011 61.2968C108.011 61.8258 108.252 62.019 108.855 62.019C109.471 62.019 109.893 61.7783 109.893 61.2968C109.893 60.8108 109.615 60.4794 108.855 60.4794ZM135.392 51.2048C136.003 51.2048 136.431 50.9715 136.431 50.4885C136.431 50.0085 136.149 49.6653 135.392 49.6653C134.731 49.6653 134.551 49.9565 134.551 50.4885C134.551 51.0206 134.787 51.2048 135.392 51.2048ZM137.745 51.2048C138.351 51.2048 138.776 50.9715 138.776 50.4885C138.776 50.0085 138.494 49.6653 137.745 49.6653C137.079 49.6653 136.902 49.9565 136.902 50.4885C136.902 51.0206 137.129 51.2048 137.745 51.2048ZM144.239 51.404C143.907 51.6908 144.004 52.0341 144.425 51.9865V59.8597H146.169V50.0591C146.169 50.0591 144.564 51.1186 144.239 51.404ZM137.227 55.8191H136.098C136.098 55.1994 137.227 54.8561 137.227 54.8561V55.8191ZM129.793 57.1194C129.793 57.4048 129.779 57.8699 129.766 58.2459H119.909V56.5131C120.166 55.8459 120.6 55.7686 121.271 55.7686H128.477C130.033 55.7686 129.793 56.5874 129.793 57.1194ZM141.32 51.9776V58.2459H138.974V52.5542C138.974 52.5542 138.494 52.7385 137.835 53.0297C137.183 53.3255 134.823 54.284 134.823 55.5798V57.0778H137.227V58.2459H131.524C131.528 57.9709 131.534 57.5667 131.534 56.9738C131.534 55.1058 129.943 54.0893 128.526 54.0893H121.933C120.778 54.0893 120.221 54.3687 119.909 54.6882V49.8629C119.909 49.8629 118.879 50.5866 118.122 51.1617C117.368 51.7369 118.122 52.1232 118.122 52.1232V58.2459H115.962L115.916 52.9911C115.916 52.9911 114.412 54.0893 113.981 54.4237C113.56 54.7566 113.794 55.0538 114.265 55.0538C114.265 55.0538 114.178 58.9339 114.178 59.8493C114.178 60.7707 113.416 61.8229 111.816 61.3443C111.816 61.3443 111.307 61.4424 111.729 61.8258C112.15 62.2078 112.658 62.499 113.227 62.499C113.794 62.499 115.868 62.1082 115.868 59.8493H143.059V50.0531C143.059 50.0531 141.458 51.1097 141.128 51.3965C140.797 51.6834 140.894 52.0281 141.32 51.9776Z" fill="#5C0632"/>
<path d="M7.89505 30.1859C7.89505 18.963 13.9077 15.9329 18.4521 15.9329C25.7562 15.9329 28.9186 21.9917 28.9186 28.4501C28.9186 32.146 28.4728 35.6205 26.6464 38.4277C24.82 41.2319 21.7928 42.926 18.4952 42.926C10.2564 42.926 7.89505 35.0855 7.89505 30.1859ZM30.0762 53.1265C31.4122 52.1902 33.5061 51.0326 35.0204 50.3638L24.9552 44.1268C31.1447 41.9452 35.0204 36.4215 35.0204 28.8945C35.0204 18.2066 26.8693 13.6622 18.5398 13.6622C9.54459 13.6622 1.79321 18.651 1.79321 29.9645C1.79321 32.3674 2.3282 36.9119 6.06866 40.6984C9.94435 44.6187 14.5319 45.1968 18.4076 45.1968C18.8965 45.1968 19.3854 45.1968 19.8773 45.1537L30.0762 53.1265Z" fill="#5C0632"/>
<path d="M55.7991 32.1464C54.417 32.2371 53.0825 32.3262 51.699 32.3262C50.1416 32.3262 48.6273 32.191 47.0698 32.1464L51.6128 21.1896L55.7991 32.1464ZM60.8324 44.573C61.6334 44.5284 62.8817 44.3055 64.127 44.3055C65.3768 44.3055 66.9328 44.5284 67.603 44.573C65.5983 40.253 62.6588 33.527 60.9647 29.6513C59.3612 25.9108 56.6892 19.6738 54.5522 13.5719C54.0618 13.7072 53.616 13.7963 53.1271 13.7963C52.5921 13.7963 52.1463 13.7072 51.6574 13.5719C50.5874 17.2262 48.0046 23.016 43.5062 33.0812L38.3376 44.573C38.9618 44.4853 39.586 44.3055 40.3424 44.3055C41.0542 44.3055 41.9027 44.4853 42.4808 44.573C43.1927 42.0333 44.6208 38.3374 46.0444 34.9075C47.8248 34.8199 49.6066 34.7307 51.3884 34.7307C53.3039 34.7307 55.1749 34.8199 57.0919 34.9075L58.9599 39.6303L60.8324 44.573Z" fill="#5C0632"/>
<path d="M80.597 21.9918C80.597 20.2992 80.6401 18.6065 80.6846 17.0016C83.7579 17.0016 86.9217 17.0476 89.5491 17.3136C89.4154 16.6018 89.3262 16.202 89.3262 15.7116C89.3262 15.355 89.4154 14.7739 89.5491 14.019C85.2737 14.2404 81.3534 14.285 77.656 14.285C74.2262 14.285 69.282 14.2404 65.7629 14.019C65.8982 14.554 65.9859 15.1321 65.9859 15.6671C65.9859 16.202 65.8982 16.7801 65.7629 17.3136C68.0366 17.0922 72.3121 17.0016 72.7118 17.0016H74.9395C74.984 18.7403 75.0286 20.2992 75.0286 21.9472L75.0732 34.3723C75.0732 37.7591 74.8072 41.189 74.6274 44.5728C76.2309 44.3959 76.8996 44.3067 77.656 44.3067C78.191 44.3067 79.6162 44.4405 80.909 44.5728C80.7738 43.3274 80.597 41.8562 80.597 38.4724V21.9918Z" fill="#5C0632"/>
<path d="M105.388 32.1464C104.008 32.2371 102.672 32.3262 101.291 32.3262C99.7307 32.3262 98.2178 32.191 96.6574 32.1464L101.202 21.1896L105.388 32.1464ZM110.421 44.573C111.222 44.5284 112.471 44.3055 113.718 44.3055C114.964 44.3055 116.523 44.5284 117.192 44.573C115.187 40.253 112.248 33.527 110.555 29.6513C108.952 25.9108 106.278 19.6738 104.141 13.5719C103.651 13.7072 103.205 13.7963 102.716 13.7963C102.181 13.7963 101.735 13.7072 101.245 13.5719C100.178 17.2262 97.5937 23.016 93.0938 33.0812L87.9282 44.573C88.5509 44.4853 89.1765 44.3055 89.9329 44.3055C90.6448 44.3055 91.4903 44.4853 92.0714 44.573C92.7847 42.0333 94.2084 38.3374 95.6335 34.9075C97.4138 34.8199 99.1957 34.7307 100.979 34.7307C102.895 34.7307 104.765 34.8199 106.68 34.9075L108.551 39.6303L110.421 44.573Z" fill="#5C0632"/>
<path d="M135.131 29.4314C139.183 28.6735 142.88 26.1352 142.88 21.1896C142.88 19.3186 142.167 17.4922 140.83 16.2023C138.916 14.3759 136.733 14.0192 133.838 14.0192C132.812 14.0192 127.647 14.2407 126.487 14.2407C124.215 14.2407 123.058 14.1069 122.035 14.0192C122.346 19.7644 122.346 20.3871 122.346 26.2214C122.346 34.8199 122.301 35.7977 121.946 44.573C122.925 44.4407 123.994 44.3055 125.018 44.3055C126.131 44.3055 127.112 44.4853 128.002 44.573C128.002 43.4139 127.825 37.6702 127.825 36.3773V30.0525H128.895C131.299 33.4378 134.062 37.3581 136.333 40.8771C137 41.9025 137.979 43.5506 138.647 44.573C139.984 44.3962 140.519 44.3055 142.255 44.3055C143.858 44.3055 144.973 44.4407 146.22 44.573C143.414 41.0555 142.213 39.4966 138.693 34.5524C138.024 33.6161 137.045 32.1464 136.376 31.2117L135.131 29.4314ZM127.825 16.4237C128.492 16.3806 130.14 16.2023 130.987 16.2023C132.457 16.2023 133.925 16.4237 135.131 17.3139C136.688 18.473 137 20.075 137 21.9475C137 24.8423 135.352 28.0939 130.898 28.0939C129.739 28.0939 128.671 28.0032 127.825 27.9616V16.4237Z" fill="#5C0632"/>
</svg>
