<svg width="221" height="45" viewBox="0 0 221 45" fill="none" xmlns="http://www.w3.org/2000/svg">
<g clip-path="url(#clip0_249_1517)">
<path d="M42.6596 0.875H33.8596H25.0596H16.2596C11.3921 0.875 6.68959 4.8075 5.75459 9.675L4.04959 18.475L2.34459 27.275L0.639591 36.075C-0.295409 40.9425 2.86709 44.875 7.73459 44.875H16.5346H25.3346H34.1346C39.0021 44.875 43.7046 40.9425 44.6396 36.075L46.3446 27.275L48.0496 18.475L49.7546 9.675C50.6896 4.8075 47.4996 0.875 42.6596 0.875Z" fill="white"/>
<path d="M8.66966 22.5175C8.66966 13.5525 25.5272 6.0175 48.5447 3.68C47.2797 1.9475 45.1897 0.875 42.6322 0.875H16.2322C11.3647 0.875 6.66216 4.8075 5.72716 9.675L0.584659 36.075C-0.350341 40.9425 2.81216 44.875 7.67966 44.875H34.0797C37.2697 44.875 40.4047 43.17 42.4397 40.6125C22.6122 37.67 8.66966 30.685 8.66966 22.5175ZM19.6697 16.9625C19.6697 14.1025 22.9147 11.4625 28.3872 9.3175C21.2372 11.7925 16.9197 15.065 16.9197 18.6125C16.9197 24.47 28.6897 29.5025 45.4647 31.6475L46.0422 28.6775C30.5047 26.6975 19.6697 22.215 19.6697 16.9625ZM49.8372 6.98C35.7847 8.245 25.8572 11.3525 25.8572 14.9825C25.8572 18.3925 34.5747 21.335 47.1972 22.71L49.7272 9.675C49.9197 8.74 49.9472 7.8325 49.8372 6.98Z" fill="#0069B4"/>
<path d="M216.872 38.1651C215.002 38.1651 213.462 36.6526 213.462 34.7551C213.462 32.8576 214.974 31.3451 216.872 31.3451C218.769 31.3451 220.282 32.8576 220.282 34.7551C220.282 36.6526 218.742 38.1651 216.872 38.1651ZM216.872 32.1151C215.414 32.1151 214.287 33.2426 214.287 34.7551C214.287 36.2676 215.414 37.3951 216.872 37.3951C218.329 37.3951 219.457 36.2676 219.457 34.7551C219.457 33.2426 218.329 32.1151 216.872 32.1151ZM217.477 36.5701L216.817 35.1676H216.432V36.5701H215.607V32.9401H217.092C217.834 32.9401 218.302 33.4626 218.302 34.0676C218.302 34.5626 217.999 34.8926 217.642 35.0301L218.384 36.5426H217.477V36.5701ZM216.982 33.6001H216.432V34.5351H216.982C217.284 34.5351 217.477 34.3426 217.477 34.0676C217.504 33.8201 217.284 33.6001 216.982 33.6001Z" fill="#0069B4"/>
<path d="M76.9795 15.8901H70.517L66.0345 38.2751H59.462L63.9445 15.8901H57.207L58.3895 10.0601H78.162L76.9795 15.8901Z" fill="#0069B4"/>
<path d="M80.9946 38.2751H74.8071L78.8771 17.8701H85.0646L80.9946 38.2751ZM85.6696 14.8726H79.4821L80.4446 10.0876H86.6321L85.6696 14.8726Z" fill="#0069B4"/>
<path d="M116.442 25.0477L113.802 38.2752H107.614L110.199 25.4052C110.282 25.0477 110.309 24.6627 110.309 24.3327C110.309 22.9027 109.319 22.3252 108.522 22.3252C107.092 22.3252 105.717 23.0402 105.222 25.4052L102.637 38.2752H96.4494L99.0344 25.4052C99.1169 25.0477 99.1444 24.6627 99.1444 24.3327C99.1444 22.9027 98.1544 22.3252 97.3569 22.3252C95.9269 22.3252 94.5519 23.0402 94.0569 25.4052L91.4719 38.2752H85.2844L89.5194 16.9627H95.4319L95.0744 18.8327C96.4219 17.4852 98.4294 16.7427 100.299 16.7427C101.372 16.7427 103.297 17.1277 104.507 19.0527C105.827 17.8702 107.477 16.7427 110.777 16.7427C113.389 16.7427 116.689 18.4752 116.689 22.6002C116.717 23.5902 116.552 24.4152 116.442 25.0477Z" fill="#0069B4"/>
<path d="M136.517 27.6327C135.637 31.9777 134.784 34.0402 132.832 35.9927C131.319 37.5052 128.982 38.5227 126.067 38.5227C122.382 38.5227 118.669 36.2677 118.669 31.4827C118.669 30.1627 118.917 28.6227 119.109 27.6327C119.989 23.2877 120.842 21.2252 122.794 19.2727C124.307 17.7602 126.644 16.7427 129.559 16.7427C133.244 16.7427 136.957 18.9977 136.957 23.7827C136.957 25.0752 136.737 26.6427 136.517 27.6327ZM128.927 22.3252C128.129 22.3252 127.497 22.5727 127.029 23.0402C126.149 23.8652 125.682 25.4602 125.242 27.6327C124.857 29.6127 124.802 30.4377 124.802 30.7127C124.802 32.0877 125.434 32.9402 126.699 32.9402C127.497 32.9402 128.129 32.6927 128.597 32.2252C129.477 31.4002 129.944 29.8052 130.384 27.6327C130.769 25.6527 130.824 24.8277 130.824 24.5527C130.824 23.1502 130.192 22.3252 128.927 22.3252Z" fill="#0069B4"/>
<path d="M154.832 18.8327C154.805 17.2102 154.227 15.6152 152.11 15.6152C150.68 15.6152 149.965 16.1377 149.25 16.8527C148.342 17.7602 147.71 19.4377 146.747 24.1677C146.417 25.7627 146.005 28.2377 146.005 29.7227C146.005 31.6752 147.105 32.7202 148.865 32.7202C150.955 32.7202 152.192 31.1252 152.825 29.5027H159.59C157.527 35.6902 153.375 38.4952 148.342 38.4952C142.402 38.4952 139.405 34.5077 139.405 30.2452C139.405 28.9802 139.597 26.9177 140.147 24.1402C141.137 19.1902 141.852 15.7802 144.382 13.0852C146.72 10.5827 149.855 9.78516 152.577 9.78516C158.6 9.78516 161.405 13.8277 161.405 18.7777H154.832V18.8327Z" fill="#0069B4"/>
<path d="M179.252 27.6327C178.372 31.9777 177.52 34.0402 175.567 35.9927C174.055 37.5052 171.717 38.5227 168.802 38.5227C165.117 38.5227 161.405 36.2677 161.405 31.4827C161.405 30.1627 161.652 28.6227 161.845 27.6327C162.725 23.2877 163.577 21.2252 165.53 19.2727C167.042 17.7602 169.38 16.7427 172.295 16.7427C175.98 16.7427 179.692 18.9977 179.692 23.7827C179.692 25.0752 179.472 26.6427 179.252 27.6327ZM171.662 22.3252C170.865 22.3252 170.232 22.5727 169.765 23.0402C168.885 23.8652 168.417 25.4602 167.977 27.6327C167.592 29.6127 167.537 30.4377 167.537 30.7127C167.537 32.0877 168.17 32.9402 169.435 32.9402C170.232 32.9402 170.865 32.6927 171.332 32.2252C172.212 31.4002 172.68 29.8052 173.12 27.6327C173.505 25.6527 173.56 24.8277 173.56 24.5527C173.56 23.1502 172.927 22.3252 171.662 22.3252Z" fill="#0069B4"/>
<path d="M211.757 25.0477L209.117 38.2752H202.93L205.515 25.4052C205.597 25.0477 205.625 24.6627 205.625 24.3327C205.625 22.9027 204.635 22.3252 203.837 22.3252C202.407 22.3252 201.032 23.0402 200.537 25.4052L197.952 38.2752H191.765L194.35 25.4052C194.432 25.0477 194.46 24.6627 194.46 24.3327C194.46 22.9027 193.47 22.3252 192.672 22.3252C191.242 22.3252 189.867 23.0402 189.372 25.4052L186.787 38.2752H180.6L184.835 16.9627H190.747L190.39 18.8327C191.737 17.4852 193.745 16.7427 195.615 16.7427C196.687 16.7427 198.612 17.1277 199.822 19.0527C201.142 17.8702 202.792 16.7427 206.092 16.7427C208.705 16.7427 212.005 18.4752 212.005 22.6002C212.032 23.5902 211.867 24.4152 211.757 25.0477Z" fill="#0069B4"/>
</g>
<defs>
<clipPath id="clip0_249_1517">
<rect width="220" height="44" fill="white" transform="translate(0.419678 0.875)"/>
</clipPath>
</defs>
</svg>
