<svg width="221" height="45" viewBox="0 0 221 45" fill="none" xmlns="http://www.w3.org/2000/svg">
<path d="M28.9097 10.145V14.335H35.6897V29.035H41.0297V14.335H47.7997V10.145H28.9097Z" fill="#00538B"/>
<path d="M60.6897 16.1952C60.6897 19.5252 58.7797 22.5752 55.6097 24.9552V33.2052C62.0997 30.0552 66.2797 25.1552 66.2797 19.6452C66.2797 10.1252 53.7697 2.37517 38.3497 2.37517C35.1728 2.36637 32.0043 2.70166 28.8997 3.37517V3.49517C34.1217 2.36525 39.505 2.18909 44.7897 2.97517C53.9897 4.68517 60.6897 9.95517 60.6897 16.1952Z" fill="#F88D2A"/>
<path d="M16.0097 23.0849C16.0097 19.7649 17.9197 16.7149 21.0897 14.3249V6.06494C14.5897 9.21494 10.4197 14.1149 10.4197 19.6249C10.4197 29.1549 22.9197 36.8849 38.3497 36.8849C41.5235 36.8981 44.6891 36.5628 47.7897 35.8849V35.7749C44.6891 36.4528 41.5235 36.7881 38.3497 36.7749C36.1943 36.7781 34.0417 36.621 31.9097 36.3049C22.7097 34.5949 16.0097 29.3749 16.0097 23.0849Z" fill="#00538B"/>
<path d="M203.86 36.8452H205.8L207.14 39.9952L208.49 36.8452H210.42V42.7352H208.98V38.4252L207.62 41.6052H206.62L205.26 38.4252V42.7352H203.82L203.86 36.8452Z" fill="#00538B"/>
<path d="M78.2397 40.5049V42.7349H76.7197V36.8449H79.0497C79.6431 36.7954 80.2372 36.9317 80.7497 37.2349C80.9375 37.3771 81.0863 37.5644 81.1824 37.7794C81.2786 37.9944 81.3189 38.2302 81.2997 38.4649C81.3241 38.8118 81.2221 39.1558 81.0125 39.4334C80.803 39.711 80.5 39.9033 80.1597 39.9749C80.3749 40.0271 80.5698 40.142 80.7197 40.3049C80.9273 40.5288 81.0962 40.7857 81.2197 41.0649L82.0497 42.7349H80.4197L79.6997 41.2749C79.601 41.0409 79.4506 40.8324 79.2597 40.6649C79.0818 40.5492 78.8716 40.4932 78.6597 40.5049H78.2397ZM78.8797 39.4549C79.1236 39.4764 79.3674 39.4128 79.5697 39.2749C79.7047 39.1117 79.7785 38.9066 79.7785 38.6949C79.7785 38.4832 79.7047 38.2781 79.5697 38.1149C79.3661 37.9805 79.1224 37.9205 78.8797 37.9449H78.2397V39.4549H78.8797Z" fill="#00538B"/>
<path d="M85.6496 36.735C86.0552 36.7127 86.4612 36.773 86.8428 36.9122C87.2244 37.0514 87.5737 37.2667 87.8696 37.545C88.3924 38.1763 88.6785 38.9703 88.6785 39.79C88.6785 40.6097 88.3924 41.4037 87.8696 42.035C87.249 42.564 86.4602 42.8546 85.6446 42.8546C84.8291 42.8546 84.0403 42.564 83.4196 42.035C82.9594 41.6081 82.6415 41.05 82.5092 40.4364C82.3769 39.8227 82.4365 39.1832 82.6799 38.6046C82.9234 38.026 83.3389 37.5363 83.8701 37.2018C84.4014 36.8674 85.0226 36.7044 85.6496 36.735ZM85.6496 37.835C85.4415 37.824 85.2339 37.8649 85.0454 37.9539C84.8569 38.0429 84.6934 38.1773 84.5696 38.345C84.2866 38.7736 84.1498 39.2822 84.1796 39.795C84.1483 40.3048 84.2853 40.8107 84.5696 41.235C84.6934 41.4027 84.8569 41.5371 85.0454 41.6261C85.2339 41.7151 85.4415 41.756 85.6496 41.745C85.8576 41.7542 86.0646 41.7126 86.2528 41.6237C86.441 41.5348 86.6046 41.4014 86.7296 41.235C87.0058 40.8074 87.1389 40.3032 87.1096 39.795C87.1313 39.2939 86.9987 38.7983 86.7296 38.375C86.6079 38.2031 86.4457 38.0638 86.2573 37.9696C86.0689 37.8754 85.8602 37.8292 85.6496 37.835Z" fill="#00538B"/>
<path d="M93.1897 41.6652H90.8097L90.4197 42.7352H88.9097L91.0897 36.8452H92.8997L95.0897 42.7352H93.5597L93.1897 41.6652ZM91.1897 40.5652H92.8097L91.9997 38.2252L91.1897 40.5652Z" fill="#00538B"/>
<path d="M95.8696 36.845H97.4696C98.1418 36.819 98.8144 36.8829 99.4696 37.035C99.8618 37.1458 100.223 37.3449 100.527 37.617C100.83 37.8892 101.067 38.2271 101.22 38.605C101.357 38.983 101.425 39.3828 101.42 39.785C101.424 40.1904 101.356 40.5934 101.22 40.975C101.082 41.323 100.871 41.6369 100.6 41.895C100.279 42.2028 99.8876 42.4262 99.4596 42.545C98.8044 42.697 98.1318 42.7609 97.4596 42.735H95.8596L95.8696 36.845ZM97.4196 37.985V41.585H97.9696C98.4846 41.6207 98.9934 41.4559 99.3896 41.125C99.7055 40.75 99.8788 40.2754 99.8788 39.785C99.8788 39.2947 99.7055 38.8201 99.3896 38.445C98.9934 38.1142 98.4846 37.9494 97.9696 37.985H97.4196Z" fill="#00538B"/>
<path d="M104.7 36.8452H110.13V37.9852H108.18V42.7352H106.66V37.9852H104.66L104.7 36.8452Z" fill="#00538B"/>
<path d="M112.42 40.5049V42.7349H110.92V36.8449H113.24C113.836 36.794 114.434 36.9303 114.95 37.2349C115.135 37.3788 115.281 37.5667 115.376 37.7815C115.47 37.9963 115.509 38.2312 115.49 38.4649C115.515 38.8206 115.416 39.1741 115.21 39.4649C114.994 39.7365 114.696 39.9298 114.36 40.0149C114.573 40.0718 114.767 40.1859 114.92 40.3449C115.124 40.5714 115.293 40.8276 115.42 41.1049L116.24 42.7749H114.62L113.9 41.3149C113.805 41.0789 113.654 40.8696 113.46 40.7049C113.285 40.5913 113.078 40.5354 112.87 40.5449L112.42 40.5049ZM113.06 39.4549C113.301 39.4792 113.542 39.4153 113.74 39.2749C113.875 39.1118 113.948 38.9066 113.948 38.6949C113.948 38.4832 113.875 38.2781 113.74 38.1149C113.541 37.9781 113.299 37.9177 113.06 37.9449H112.42V39.4549H113.06Z" fill="#00538B"/>
<path d="M120.72 41.6652H118.35L117.97 42.7352H116.42L118.61 36.8452H120.42L122.6 42.7352H121.07L120.72 41.6652ZM118.72 40.5652H120.34L119.53 38.2252L118.72 40.5652Z" fill="#00538B"/>
<path d="M123.42 36.8452H125.12L127.27 40.8452V36.8452H128.71V42.7352H127.01L124.87 38.7352V42.7352H123.42V36.8452Z" fill="#00538B"/>
<path d="M134.28 37.025V38.275C133.959 38.1293 133.624 38.0187 133.28 37.945C132.995 37.8766 132.703 37.8397 132.41 37.835C132.131 37.8162 131.853 37.8678 131.6 37.985C131.517 38.0314 131.449 38.1 131.403 38.183C131.357 38.266 131.335 38.3602 131.34 38.455C131.338 38.5266 131.354 38.5974 131.385 38.6618C131.416 38.7261 131.462 38.7821 131.52 38.825C131.714 38.9376 131.928 39.0123 132.15 39.045L132.8 39.175C133.313 39.2403 133.798 39.4481 134.2 39.775C134.344 39.9276 134.455 40.1087 134.526 40.3067C134.597 40.5048 134.625 40.7153 134.61 40.925C134.631 41.1941 134.59 41.4645 134.492 41.7157C134.393 41.9669 134.238 42.1924 134.04 42.375C133.522 42.7328 132.897 42.9023 132.27 42.855C131.89 42.8531 131.512 42.8163 131.14 42.745C130.755 42.6696 130.377 42.5626 130.01 42.425V41.145C130.359 41.334 130.728 41.4848 131.11 41.595C131.434 41.6907 131.771 41.7411 132.11 41.745C132.373 41.7628 132.636 41.7074 132.87 41.585C132.954 41.5374 133.024 41.4675 133.072 41.3828C133.119 41.2982 133.143 41.2021 133.14 41.105C133.144 41.0259 133.129 40.947 133.098 40.8742C133.067 40.8014 133.02 40.7367 132.96 40.685C132.741 40.5456 132.496 40.4536 132.24 40.415L131.65 40.285C131.191 40.1999 130.765 39.9887 130.42 39.675C130.28 39.5275 130.171 39.353 130.101 39.1622C130.03 38.9713 129.999 38.7682 130.01 38.565C129.995 38.3099 130.039 38.0548 130.137 37.8191C130.236 37.5835 130.387 37.3734 130.58 37.205C131.055 36.8624 131.635 36.6962 132.22 36.735C132.554 36.7336 132.888 36.757 133.22 36.805C133.577 36.8567 133.931 36.9301 134.28 37.025Z" fill="#00538B"/>
<path d="M136 36.8452H138.52C139.136 36.8027 139.747 36.976 140.25 37.3352C140.44 37.5214 140.592 37.7439 140.695 37.9894C140.798 38.235 140.852 38.4987 140.852 38.7652C140.852 39.0316 140.798 39.2953 140.695 39.5409C140.592 39.7864 140.44 40.0089 140.25 40.1952C139.749 40.5579 139.137 40.7347 138.52 40.6952H137.52V42.6952H136V36.8452ZM137.52 37.9452V39.5852H138.36C138.605 39.6009 138.847 39.5262 139.04 39.3752C139.122 39.2971 139.187 39.2023 139.231 39.0971C139.274 38.9919 139.294 38.8788 139.29 38.7652C139.296 38.6513 139.277 38.5375 139.233 38.432C139.19 38.3266 139.124 38.232 139.04 38.1552C138.847 38.0041 138.605 37.9294 138.36 37.9452H137.52Z" fill="#00538B"/>
<path d="M144.62 36.735C145.027 36.7114 145.435 36.771 145.818 36.9102C146.202 37.0495 146.553 37.2655 146.85 37.545C147.367 38.1788 147.65 38.9719 147.65 39.79C147.65 40.6082 147.367 41.4013 146.85 42.035C146.491 42.4241 146.041 42.717 145.54 42.8867C145.038 43.0564 144.503 43.0976 143.982 43.0064C143.46 42.9152 142.97 42.6947 142.557 42.3649C142.143 42.0352 141.818 41.6069 141.613 41.1192C141.408 40.6315 141.329 40.1001 141.382 39.5737C141.436 39.0473 141.621 38.5428 141.92 38.1065C142.219 37.6701 142.623 37.3159 143.095 37.0763C143.567 36.8367 144.091 36.7193 144.62 36.735ZM144.62 37.835C144.412 37.8258 144.205 37.8675 144.017 37.9564C143.828 38.0452 143.665 38.1786 143.54 38.345C143.265 38.7768 143.132 39.2839 143.16 39.795C143.131 40.3032 143.264 40.8075 143.54 41.235C143.665 41.4015 143.828 41.5349 144.017 41.6237C144.205 41.7126 144.412 41.7542 144.62 41.745C144.828 41.756 145.036 41.7151 145.224 41.6261C145.413 41.5371 145.576 41.4028 145.7 41.235C145.984 40.8108 146.121 40.3048 146.09 39.795C146.12 39.2823 145.983 38.7736 145.7 38.345C145.576 38.1773 145.413 38.043 145.224 37.9539C145.036 37.8649 144.828 37.8241 144.62 37.835Z" fill="#00538B"/>
<path d="M150.32 40.5049V42.7349H148.8V36.8449H151.13C151.723 36.7954 152.317 36.9317 152.83 37.2349C153.017 37.3771 153.166 37.5644 153.262 37.7794C153.358 37.9944 153.399 38.2302 153.38 38.4649C153.4 38.811 153.296 39.1529 153.087 39.4295C152.878 39.7062 152.578 39.8995 152.24 39.9749C152.455 40.0271 152.65 40.142 152.8 40.3049C153.007 40.5288 153.176 40.7857 153.3 41.0649L154.13 42.7349H152.51L151.79 41.2749C151.691 41.0409 151.54 40.8324 151.35 40.6649C151.172 40.5492 150.961 40.4932 150.75 40.5049H150.32ZM150.96 39.4549C151.203 39.4764 151.447 39.4128 151.65 39.2749C151.785 39.1117 151.858 38.9066 151.858 38.6949C151.858 38.4832 151.785 38.2781 151.65 38.1149C151.446 37.9805 151.202 37.9205 150.96 37.9449H150.32V39.4549H150.96Z" fill="#00538B"/>
<path d="M153.96 36.8452H159.42V37.9852H157.42V42.7352H155.92V37.9852H153.92L153.96 36.8452Z" fill="#00538B"/>
<path d="M163 36.8451H165.52C166.136 36.801 166.748 36.9744 167.25 37.3351C167.44 37.5214 167.592 37.7438 167.695 37.9894C167.798 38.235 167.852 38.4987 167.852 38.7651C167.852 39.0315 167.798 39.2953 167.695 39.5408C167.592 39.7864 167.44 40.0089 167.25 40.1951C166.75 40.5594 166.137 40.7364 165.52 40.6951H164.52V42.6951H163V36.8451ZM164.52 37.9451V39.5851H165.36C165.605 39.6009 165.847 39.5261 166.04 39.3751C166.125 39.2987 166.191 39.2042 166.234 39.0986C166.278 38.993 166.297 38.879 166.29 38.7651C166.298 38.651 166.28 38.5366 166.236 38.4307C166.193 38.3249 166.126 38.2306 166.04 38.1551C165.847 38.0041 165.605 37.9294 165.36 37.9451H164.52Z" fill="#00538B"/>
<path d="M168.93 36.8452H170.42V41.5852H173.09V42.7352H168.9L168.93 36.8452Z" fill="#00538B"/>
<path d="M177.66 41.6652H175.28L174.91 42.7352H173.42L175.6 36.8452H177.42L179.6 42.7352H178.07L177.66 41.6652ZM175.66 40.5652H177.28L176.47 38.2252L175.66 40.5652Z" fill="#00538B"/>
<path d="M179.01 36.8452H184.42V37.9852H182.42V42.7352H180.9V37.9852H178.9L179.01 36.8452Z" fill="#00538B"/>
<path d="M185.23 36.8452H189.34V37.9852H186.75V39.0852H189.18V40.2352H186.75V42.7352H185.23V36.8452Z" fill="#00538B"/>
<path d="M193.42 36.735C193.827 36.7114 194.235 36.771 194.618 36.9102C195.002 37.0495 195.353 37.2655 195.65 37.545C196.167 38.1788 196.45 38.9719 196.45 39.79C196.45 40.6082 196.167 41.4013 195.65 42.035C195.027 42.5648 194.237 42.8558 193.42 42.8558C192.602 42.8558 191.812 42.5648 191.19 42.035C190.672 41.4013 190.39 40.6082 190.39 39.79C190.39 38.9719 190.672 38.1788 191.19 37.545C191.487 37.2655 191.838 37.0495 192.221 36.9102C192.605 36.771 193.012 36.7114 193.42 36.735ZM193.42 37.835C193.223 37.842 193.03 37.8943 192.856 37.988C192.683 38.0816 192.533 38.2141 192.42 38.375C192.145 38.8068 192.012 39.3139 192.04 39.825C192.01 40.3332 192.143 40.8375 192.42 41.265C192.551 41.4243 192.716 41.5525 192.903 41.6405C193.089 41.7286 193.293 41.7742 193.5 41.7742C193.706 41.7742 193.91 41.7286 194.097 41.6405C194.283 41.5525 194.448 41.4243 194.58 41.265C194.864 40.8408 195.001 40.3348 194.97 39.825C195 39.3123 194.863 38.8036 194.58 38.375C194.451 38.1904 194.276 38.0432 194.073 37.9483C193.869 37.8534 193.643 37.8143 193.42 37.835Z" fill="#00538B"/>
<path d="M199.15 40.5049V42.7349H197.63V36.8449H199.95C200.546 36.794 201.144 36.9303 201.66 37.2349C201.846 37.3784 201.994 37.5658 202.09 37.7805C202.186 37.9952 202.227 38.2304 202.21 38.4649C202.23 38.811 202.126 39.1529 201.917 39.4296C201.708 39.7062 201.408 39.8995 201.07 39.9749C201.285 40.0271 201.48 40.142 201.63 40.3049C201.837 40.5288 202.006 40.7857 202.13 41.0649L202.96 42.7349H201.34L200.62 41.2749C200.521 41.0409 200.371 40.8324 200.18 40.6649C200.002 40.5493 199.792 40.4932 199.58 40.5049H199.15ZM199.79 39.4549C200.034 39.4764 200.277 39.4128 200.48 39.2749C200.615 39.1118 200.688 38.9066 200.688 38.6949C200.688 38.4832 200.615 38.2781 200.48 38.1149C200.276 37.9805 200.032 37.9205 199.79 37.9449H199.15V39.4549H199.79Z" fill="#00538B"/>
<path d="M69.8596 10.145V14.335H76.6396V29.035H81.9796V14.335H88.7496V10.145H69.8596Z" fill="#00538B"/>
<path d="M143.92 10.1348V20.8448L136.98 10.1348H132.03V29.0348H137.12V18.3048L144.07 29.0248H149.01V10.1348H143.92Z" fill="#00538B"/>
<path d="M174.07 24.0049H169.04V29.0349H174.07V24.0049Z" fill="#00538B"/>
<path d="M190.79 14.335V10.145H177.68V29.035H190.79V24.825H182.78V21.275H190.29V17.125H182.78V14.335H190.79Z" fill="#00538B"/>
<path d="M204.78 10.145V21.805C204.864 22.7982 204.641 23.7934 204.14 24.655C203.892 24.9351 203.582 25.1526 203.234 25.2899C202.887 25.4272 202.512 25.4804 202.14 25.445C201.767 25.4828 201.391 25.4308 201.043 25.2934C200.695 25.1559 200.386 24.937 200.14 24.655C199.633 23.7953 199.41 22.7986 199.5 21.805V10.145H194.42V21.805C194.343 22.8291 194.473 23.8581 194.803 24.8306C195.133 25.803 195.656 26.6991 196.34 27.465C197.62 28.705 199.57 29.335 202.13 29.335C204.69 29.335 206.66 28.705 207.94 27.465C208.624 26.6991 209.146 25.803 209.476 24.8306C209.806 23.8581 209.936 22.8291 209.86 21.805V10.145H204.78Z" fill="#00538B"/>
<path d="M165.28 19.6051C164.12 18.5442 162.673 17.8486 161.12 17.6051L158.57 17.0551C157.919 16.9695 157.293 16.7517 156.73 16.4151C156.589 16.3156 156.476 16.1813 156.403 16.0254C156.329 15.8694 156.297 15.6971 156.31 15.5251C156.293 15.2882 156.346 15.0516 156.462 14.844C156.577 14.6364 156.75 14.4666 156.96 14.3551C157.69 14.0268 158.49 13.8826 159.29 13.9351C160.176 13.9425 161.059 14.0532 161.92 14.2651C162.907 14.5151 163.87 14.8497 164.8 15.2651L165.24 15.4551V10.9051L165.01 10.8351C163.914 10.5433 162.802 10.3162 161.68 10.1551C160.644 9.99714 159.598 9.91692 158.55 9.91512C156.666 9.80132 154.802 10.3496 153.28 11.4651C152.652 12.0143 152.157 12.6999 151.835 13.4695C151.513 14.2391 151.371 15.0722 151.42 15.9051C151.387 16.5762 151.489 17.247 151.721 17.8776C151.953 18.5081 152.31 19.0855 152.77 19.5751C153.936 20.6179 155.382 21.2958 156.93 21.5251L159.47 22.0851C160.122 22.176 160.751 22.3934 161.32 22.7251C161.456 22.8305 161.565 22.9675 161.636 23.1244C161.707 23.2812 161.74 23.4531 161.73 23.6251C161.745 23.8606 161.692 24.0956 161.577 24.3015C161.461 24.5074 161.289 24.6754 161.08 24.7851C160.351 25.1197 159.55 25.2675 158.75 25.2151C157.863 25.2023 156.981 25.0882 156.12 24.8751C155.135 24.6289 154.174 24.2942 153.25 23.8751L152.8 23.6751V28.2751L153.04 28.3351C154.133 28.6245 155.241 28.8548 156.36 29.0251C157.4 29.1704 158.449 29.2473 159.5 29.2551C161.379 29.372 163.24 28.8271 164.76 27.7151C165.39 27.1664 165.886 26.4814 166.212 25.7121C166.538 24.9428 166.684 24.1094 166.64 23.2751C166.671 22.6034 166.567 21.9321 166.334 21.3015C166.1 20.6709 165.741 20.094 165.28 19.6051Z" fill="#00538B"/>
<path d="M101.57 27.3748C101.57 28.1548 101.57 28.7448 101.57 28.7548V29.0648H107.22V28.7848C107.22 28.5548 107.5 23.0948 105.37 20.8448C105.127 20.5825 104.839 20.3658 104.52 20.2048C105.78 19.6148 106.99 18.2048 106.99 15.5248C106.99 11.9748 104.53 10.1748 99.7097 10.1748H91.1497V29.0348H96.4897V22.1148H98.5497C100.98 22.1148 101.48 25.3748 101.57 27.3748ZM96.4897 18.2548V14.2548H99.1797C101.63 14.2548 101.63 15.4548 101.63 16.2548C101.63 17.6648 100.88 18.2548 99.1797 18.2548H96.4897Z" fill="#00538B"/>
<path d="M115.04 29.035L116.25 25.705H123.16L124.21 29.035H129.63L122.72 10.145H116.66L109.66 29.035H115.04ZM119.7 15.725L121.76 21.725H117.65L119.7 15.725Z" fill="#00538B"/>
</svg>
