<svg width="53" height="63" viewBox="0 0 53 63" fill="none" xmlns="http://www.w3.org/2000/svg">
<g clip-path="url(#clip0_249_1523)">
<path fill-rule="evenodd" clip-rule="evenodd" d="M2.08008 19.6094L2.30181 44.7768L7.95619 51.7617L24.9199 60.7422L45.7637 50.5421L50.0877 40.2311L49.6442 6.8586L33.9005 6.4151L17.4917 9.076L2.52421 17.7238L2.08008 19.6094Z" fill="#301506"/>
<path d="M26.3678 1.42238C16.4868 1.42238 7.86778 3.33538 0.748779 7.10788V37.2679C0.748779 43.6141 3.13328 48.9209 7.64328 52.6179C11.8308 56.0529 24.7813 61.7136 26.3683 62.4011C27.8733 61.7461 40.9773 55.9979 45.0983 52.6179C49.6058 48.9229 51.9909 43.6145 51.9909 37.2679V7.10788C44.8709 3.33488 36.2519 1.42188 26.3669 1.42188L26.3678 1.42238ZM40.9988 7.26218C43.9454 7.3007 46.8387 7.48273 49.6355 7.74265V37.2676C49.6355 42.9414 47.5767 47.5246 43.6043 50.7966C40.0555 53.7191 29.3543 58.5136 26.3683 59.8298C23.3423 58.4958 12.6143 53.6408 9.12928 50.7978C5.18038 47.5818 3.10178 42.8898 3.10178 37.2688V20.0168C14.4498 9.60984 28.2298 7.09585 40.9978 7.26285L40.9988 7.26218ZM27.0358 21.0102C24.6046 21.0102 22.643 21.5536 21.028 22.5961V51.6451H25.487V42.2603C25.932 42.3915 26.5779 42.5142 27.4929 42.5142C32.4391 42.5142 35.282 38.0554 35.282 31.5452C35.282 25.0477 32.3546 21.0102 27.0358 21.0102ZM42.2718 21.0102C39.3393 21.0952 36.2726 23.2195 36.2913 26.8207C36.2988 29.1919 36.9561 30.9652 40.6311 33.1215C42.5923 34.2727 43.3825 35.0313 43.4163 36.4301C43.4538 37.9851 42.3794 38.9227 40.7444 38.9164C39.3219 38.9051 37.6214 38.1157 36.4827 37.1019V41.2054C37.8789 42.0379 39.6211 42.5882 41.3811 42.5882C45.7861 42.5882 47.7531 39.4766 47.8381 36.6253C47.9218 34.0265 47.2037 32.0601 43.4787 29.8714C41.8162 28.8964 40.5033 28.2556 40.5471 26.6331C40.5908 25.0493 41.9057 24.4929 43.1682 24.5042C44.7257 24.5179 46.2323 25.3805 47.1623 26.3343V22.4593C46.3785 21.8555 44.7193 20.9352 42.2718 21.0102ZM5.37878 21.4613V35.4733C5.37878 40.1971 7.61328 42.5885 12.0233 42.5885C14.7521 42.5885 17.0376 41.957 18.7401 40.7994V21.4614H14.2909V38.2624C13.8059 38.5949 13.0865 38.8074 12.1815 38.8074C10.139 38.8074 9.83378 36.9344 9.83378 35.6707V21.4617L5.37878 21.4613ZM27.0658 24.6C29.652 24.6 30.724 26.6648 30.724 31.6586C30.724 36.5311 29.498 38.8852 26.933 38.8852C26.3292 38.8852 25.8045 38.7357 25.4857 38.6157V24.9227C25.8469 24.7427 26.4608 24.6 27.0658 24.6Z" fill="#FAB80A"/>
</g>
<defs>
<clipPath id="clip0_249_1523">
<rect width="52.242" height="61.979" fill="white" transform="translate(0.298828 0.875)"/>
</clipPath>
</defs>
</svg>
