<svg width="16" height="16" viewBox="0 0 16 16" fill="none" xmlns="http://www.w3.org/2000/svg">
<g clip-path="url(#clip0_471_1822)">
<path d="M14.9 3.2C15.6 2.3 15.9 1.4 16 0.8C16 0.6 16 0.4 15.9 0.3C15.9 0.3 15.9 0.2 15.8 0.2L15.7 0.1C15.6 0 15.4 0 15.2 0C14.5 0 13.6 0.4 12.8 1.1C12.1 1.6 11.4 2.4 10.4 3.4C10.2 3.5 10 3.7 9.8 3.9L7.9 3.4C8 3.3 8.1 3.2 8.1 3C8.1 2.9 8.1 2.8 8 2.7L7.6 2.4C7.5 2.3 7.4 2.3 7.3 2.3C7.2 2.3 7.1 2.3 7 2.4L6.5 2.9L6.2 2.8C6.3 2.7 6.3 2.6 6.3 2.5C6.3 2.4 6.3 2.3 6.2 2.2L5.8 1.9C5.7 1.8 5.6 1.8 5.5 1.8C5.4 1.8 5.3 1.8 5.2 1.9L4.7 2.4L2.8 1.8H2.7C2.6 1.8 2.4 1.9 2.3 1.9L1.6 2.6C1.5 2.7 1.5 2.8 1.5 2.9C1.5 3 1.6 3.2 1.7 3.3L5.8 5.6L5.9 5.7L7 6.8C6 7.9 5 9 4.2 10C4.1 10.1 4.1 10.2 4 10.3L0.9 10C0.9 10 0.9 10 0.8 10C0.7 10 0.5 10.1 0.4 10.2L0.1 10.5C0 10.5 0 10.6 0 10.7C0 10.9 0.1 11 0.2 11.1L2.4 12.2C2.4 12.2 2.5 12.2 2.5 12.3L2.7 12.5C2.6 12.7 2.6 12.8 2.6 12.9C2.6 13.1 2.7 13.2 2.8 13.3C2.9 13.4 3 13.5 3.2 13.5C3.3 13.5 3.5 13.5 3.6 13.4L3.8 13.6C3.8 13.6 3.8 13.7 3.9 13.7L5 15.9C5 15.9 5.1 16 5.3 16C5.4 16 5.5 16 5.6 15.9L5.9 15.6C6 15.5 6 15.3 6 15.2L5.7 12C5.8 11.9 5.9 11.9 6 11.8C7 11 8.1 10 9.2 9L10.4 10.2L10.5 10.3L12.8 14.4C12.9 14.5 13 14.6 13.2 14.6C13.3 14.6 13.4 14.6 13.5 14.5L14.2 13.8C14.3 13.7 14.3 13.6 14.3 13.4V13.3L13.7 11.4L14.2 10.9C14.3 10.8 14.3 10.7 14.3 10.6C14.3 10.5 14.3 10.4 14.2 10.3L13.9 10C13.8 9.9 13.7 9.9 13.6 9.9C13.5 9.9 13.4 9.9 13.3 10L13.2 9.7L13.6 9C13.7 8.9 13.7 8.8 13.7 8.7C13.7 8.6 13.7 8.5 13.6 8.4L13.3 8.1C13.2 8 13.1 7.9 13 7.9C12.9 7.9 12.8 7.9 12.7 8L12.1 6.1C12.3 5.9 12.5 5.7 12.7 5.6C13.7 4.6 14.4 3.9 14.9 3.2Z" fill="black"/>
</g>
<defs>
<clipPath id="clip0_471_1822">
<rect width="16" height="16" fill="white"/>
</clipPath>
</defs>
</svg>
