<svg width="32" height="32" viewBox="0 0 32 32" fill="none" xmlns="http://www.w3.org/2000/svg">
<path d="M30 21V9C30 7.9 29.1 7 28 7H17V2C17 0.9 16.1 0 15 0H7C5.9 0 5 0.9 5 2V11H4C2.9 11 2 11.9 2 13V19C0.9 19 0 19.9 0 21V30C0 31.1 0.9 32 2 32H16C16.4 32 16.7 31.9 17 31.7C17.3 31.9 17.6 32 18 32H30C31.1 32 32 31.1 32 30V23C32 21.9 31.1 21 30 21ZM28 21H18C18 19.9 17.1 19 16 19H14V13V9H20V11L21 10.5L22 11V9H28V21ZM7 2H10V4L11 3.5L12 4V2H15V7H14C12.9 7 12 7.9 12 9V11H7V2ZM4 13H8V15L9 14.5L10 15V13H12V19H4V13ZM2 30V21H8V23L9 22.5L10 23V21H16V23V30H2ZM18 30V23H23V25L24 24.5L25 25V23H30V30H18Z" fill="black"/>
</svg>
