<svg width="16" height="16" viewBox="0 0 16 16" fill="none" xmlns="http://www.w3.org/2000/svg">
<path d="M13 0H3C2.5 0 2 0.5 2 1V15C2 15.5 2.5 16 3 16H13C13.5 16 14 15.5 14 15V1C14 0.5 13.5 0 13 0ZM6 13.3C6 13.7 5.7 14 5.3 14H4.7C4.3 14 4 13.7 4 13.3V12.6C4 12.3 4.3 12 4.7 12H5.4C5.7 12 6 12.3 6 12.7V13.3ZM6 10.3C6 10.7 5.7 11 5.3 11H4.7C4.3 11 4 10.7 4 10.3V9.7C4 9.3 4.3 9 4.7 9H5.4C5.7 9 6 9.3 6 9.7V10.3ZM6 7.3C6 7.7 5.7 8 5.3 8H4.7C4.3 8 4 7.7 4 7.3V6.7C4 6.3 4.3 6 4.7 6H5.4C5.7 6 6 6.3 6 6.7V7.3ZM9 13.3C9 13.7 8.7 14 8.3 14H7.7C7.3 14 7 13.7 7 13.3V12.6C7 12.3 7.3 12 7.7 12H8.4C8.7 12 9 12.3 9 12.7V13.3ZM9 10.3C9 10.7 8.7 11 8.3 11H7.7C7.3 11 7 10.7 7 10.3V9.7C7 9.3 7.3 9 7.7 9H8.4C8.7 9 9 9.3 9 9.7V10.3ZM9 7.3C9 7.7 8.7 8 8.3 8H7.7C7.3 8 7 7.7 7 7.3V6.7C7 6.3 7.3 6 7.7 6H8.4C8.7 6 9 6.3 9 6.7V7.3ZM12 13.3C12 13.7 11.7 14 11.3 14H10.6C10.2 14 9.9 13.7 9.9 13.3V9.7C10 9.3 10.3 9 10.7 9H11.4C11.7 9 12 9.3 12 9.7V13.3ZM12 7.3C12 7.7 11.7 8 11.3 8H10.6C10.3 8 10 7.7 10 7.3V6.7C10 6.3 10.3 6 10.7 6H11.4C11.7 6 12 6.3 12 6.7V7.3ZM12 5H4V2H12V5Z" fill="black"/>
</svg>
