<svg width="32" height="32" viewBox="0 0 32 32" fill="none" xmlns="http://www.w3.org/2000/svg">
<path d="M27 32H5C3.9 32 3 31.1 3 30V2C3 0.9 3.9 0 5 0H27C28.1 0 29 0.9 29 2V30C29 31.1 28.1 32 27 32ZM5 2V30H27V2H5ZM23 11H9C7.9 11 7 10.1 7 9V6C7 4.9 7.9 4 9 4H23C24.1 4 25 4.9 25 6V9C25 10.1 24.1 11 23 11ZM9 6V9H23V6H9ZM10 15V14C10 13.4 9.6 13 9 13H8C7.4 13 7 13.4 7 14V15C7 15.6 7.4 16 8 16H9C9.6 16 10 15.6 10 15ZM15 15V14C15 13.4 14.6 13 14 13H13C12.4 13 12 13.4 12 14V15C12 15.6 12.4 16 13 16H14C14.6 16 15 15.6 15 15ZM20 15V14C20 13.4 19.6 13 19 13H18C17.4 13 17 13.4 17 14V15C17 15.6 17.4 16 18 16H19C19.6 16 20 15.6 20 15ZM25 15V14C25 13.4 24.6 13 24 13H23C22.4 13 22 13.4 22 14V15C22 15.6 22.4 16 23 16H24C24.6 16 25 15.6 25 15ZM10 19V18C10 17.4 9.6 17 9 17H8C7.4 17 7 17.4 7 18V19C7 19.6 7.4 20 8 20H9C9.6 20 10 19.6 10 19ZM15 19V18C15 17.4 14.6 17 14 17H13C12.4 17 12 17.4 12 18V19C12 19.6 12.4 20 13 20H14C14.6 20 15 19.6 15 19ZM20 19V18C20 17.4 19.6 17 19 17H18C17.4 17 17 17.4 17 18V19C17 19.6 17.4 20 18 20H19C19.6 20 20 19.6 20 19ZM25 19V18C25 17.4 24.6 17 24 17H23C22.4 17 22 17.4 22 18V19C22 19.6 22.4 20 23 20H24C24.6 20 25 19.6 25 19ZM10 23V22C10 21.4 9.6 21 9 21H8C7.4 21 7 21.4 7 22V23C7 23.6 7.4 24 8 24H9C9.6 24 10 23.6 10 23ZM15 23V22C15 21.4 14.6 21 14 21H13C12.4 21 12 21.4 12 22V23C12 23.6 12.4 24 13 24H14C14.6 24 15 23.6 15 23ZM20 23V22C20 21.4 19.6 21 19 21H18C17.4 21 17 21.4 17 22V23C17 23.6 17.4 24 18 24H19C19.6 24 20 23.6 20 23ZM25 27V22C25 21.4 24.6 21 24 21H23C22.4 21 22 21.4 22 22V27C22 27.6 22.4 28 23 28H24C24.6 28 25 27.6 25 27ZM10 27V26C10 25.4 9.6 25 9 25H8C7.4 25 7 25.4 7 26V27C7 27.6 7.4 28 8 28H9C9.6 28 10 27.6 10 27ZM15 27V26C15 25.4 14.6 25 14 25H13C12.4 25 12 25.4 12 26V27C12 27.6 12.4 28 13 28H14C14.6 28 15 27.6 15 27ZM20 27V26C20 25.4 19.6 25 19 25H18C17.4 25 17 25.4 17 26V27C17 27.6 17.4 28 18 28H19C19.6 28 20 27.6 20 27Z" fill="black"/>
</svg>
