<svg width="16" height="16" viewBox="0 0 16 16" fill="none" xmlns="http://www.w3.org/2000/svg">
<path d="M11.2 1H7L6.9 0.6C6.8 0.2 6.4 0 6 0H2C1.5 0 1 0.4 1 1V15C1 15.6 1.5 16 2 16H11.1C11.5 16 11.7 15.9 11.9 15.6C12 15.5 12 15.2 12 15H13C13.6 15 14 14.6 14 14V3.8L11.2 1ZM12.8 4H11V2.2L12.8 4ZM13 14H11.8L11.4 12.8C11.5 12.7 11.5 12.6 11.5 12.5C11.5 12.3 11.3 12.1 11.1 12L10.3 10H11C11.3 10 11.5 9.8 11.5 9.5C11.5 9.2 11.3 9 11 9H10L9.8 8.5H10C10.3 8.5 10.5 8.3 10.5 8C10.5 7.7 10.3 7.5 10 7.5H9.4L9.2 7H11.4C11.8 7 12 6.8 12 6.5C12 6.2 11.8 6 11.5 6H8.9L8.1 4H9C9.3 4 9.5 3.8 9.5 3.5C9.5 3.2 9.3 3 9 3H7.8L7.5 2H10V4C10 4.6 10.4 5 11 5H13V14Z" fill="black"/>
</svg>
