<svg width="32" height="32" viewBox="0 0 32 32" fill="none" xmlns="http://www.w3.org/2000/svg">
<path d="M23.4 2H15.1L14.8 1.3C14.6 0.5 13.8 0 13 0H5C3.9 0 3 0.9 3 2V30C3 31.1 3.9 32 5 32H23.2C23.9 32 24.5 31.7 24.8 31.1C25 30.8 25.1 30.4 25.1 30H27C28.1 30 29 29.1 29 28V7.6L23.4 2ZM26.6 8H23V4.4L26.6 8ZM5 30V2H13L23.3 30H5ZM27 28H24.6L23.7 25.6C23.8 25.4 23.9 25.2 23.9 25C23.9 24.5 23.5 24.1 23.1 24L21.6 20H23C23.6 20 24 19.6 24 19C24 18.4 23.6 18 23 18H21L20.6 17H21C21.6 17 22 16.6 22 16C22 15.4 21.6 15 21 15H19.9L19.5 14H24C24.6 14 25 13.6 25 13C25 12.4 24.6 12 24 12H18.8L17.3 8H19C19.6 8 20 7.6 20 7C20 6.4 19.6 6 19 6H16.6L15.9 4H21V8C21 9.1 21.9 10 23 10H27V28Z" fill="black"/>
</svg>
