<svg width="16" height="16" viewBox="0 0 16 16" fill="none" xmlns="http://www.w3.org/2000/svg">
<path d="M14 3C13.4 3 13 3.4 13 4H2C2 3.4 1.6 3 1 3C0.4 3 0 3.4 0 4V11C0 11.6 0.4 12 1 12H14C14.6 12 15 11.6 15 11V4C15 3.4 14.6 3 14 3ZM2 10.5C2 10.8 1.8 11 1.5 11C1.2 11 1 10.8 1 10.5V5.5C1 5.2 1.2 5 1.5 5C1.8 5 2 5.2 2 5.5V10.5ZM4 10.5C4 10.8 3.8 11 3.5 11C3.2 11 3 10.8 3 10.5V5.5C3 5.2 3.2 5 3.5 5C3.8 5 4 5.2 4 5.5V10.5ZM6 10.5C6 10.8 5.8 11 5.5 11C5.2 11 5 10.8 5 10.5V5.5C5 5.2 5.2 5 5.5 5C5.8 5 6 5.2 6 5.5V10.5ZM8 10.5C8 10.8 7.8 11 7.5 11C7.2 11 7 10.8 7 10.5V5.5C7 5.2 7.2 5 7.5 5C7.8 5 8 5.2 8 5.5V10.5ZM10 10.5C10 10.8 9.8 11 9.5 11C9.2 11 9 10.8 9 10.5V5.5C9 5.2 9.2 5 9.5 5C9.8 5 10 5.2 10 5.5V10.5ZM12 10.5C12 10.8 11.8 11 11.5 11C11.2 11 11 10.8 11 10.5V5.5C11 5.2 11.2 5 11.5 5C11.8 5 12 5.2 12 5.5V10.5ZM14 10.5C14 10.8 13.8 11 13.5 11C13.2 11 13 10.8 13 10.5V5.5C13 5.2 13.2 5 13.5 5C13.8 5 14 5.2 14 5.5V10.5Z" fill="black"/>
</svg>
