<svg width="32" height="32" viewBox="0 0 32 32" fill="none" xmlns="http://www.w3.org/2000/svg">
<g clip-path="url(#clip0_319_1385)">
<path d="M21 19V28C21 28.6 20.6 29 20 29C19.4 29 19 28.6 19 28V19C19 18.4 19.4 18 20 18C20.6 18 21 18.4 21 19ZM32 14.5V15V17V30C32 31.1 31.1 32 30 32H2C0.9 32 0 31.1 0 30V17V15V14.5C0 13.1 1.1 12 2.5 12C3.3 12 3.9 12.3 4.4 12.9L13.5 10.6C13.2 10.1 13 9.6 13 9C13 7.7 13.8 6.6 15 6.2V4.9C14.5 4.8 14.1 4.5 13.9 4.1L13.8 4L13.3 2H8C7.4 2 7 1.6 7 1C7 0.4 7.4 0 8 0H12.7H19.3H24C24.6 0 25 0.4 25 1C25 1.6 24.6 2 24 2H18.8L18.3 4L18.2 4.1C17.9 4.5 17.5 4.8 17.1 4.9V8H16.1C15.5 8 15.1 8.4 15.1 9C15.1 9.5 15.5 9.9 16 10H16.1H16.2C16.7 10 17.1 9.5 17.1 9C17.1 8.4 17.5 8 18.1 8C18.7 8 19.1 8.4 19.1 9C19.1 9.6 18.9 10.1 18.6 10.6L27.7 12.9C28.2 12.4 28.8 12 29.6 12C30.9 12 32 13.1 32 14.5ZM15.3 2L15.6 3H16.4L16.7 2H15.3ZM29 15H30V14.5C30 14.2 29.8 14 29.5 14C29.2 14 29 14.2 29 14.5V15ZM5 15H27V14.8L16 12L5 14.8V15ZM2 15H3V14.5C3 14.2 2.8 14 2.5 14C2.2 14 2 14.2 2 14.5V15ZM30 30V17H2V30H30ZM28 18C27.4 18 27 18.4 27 19V28C27 28.6 27.4 29 28 29C28.6 29 29 28.6 29 28V19C29 18.4 28.6 18 28 18ZM24 18C23.4 18 23 18.4 23 19V28C23 28.6 23.4 29 24 29C24.6 29 25 28.6 25 28V19C25 18.4 24.6 18 24 18ZM8 18C7.4 18 7 18.4 7 19V28C7 28.6 7.4 29 8 29C8.6 29 9 28.6 9 28V19C9 18.4 8.6 18 8 18ZM4 18C3.4 18 3 18.4 3 19V28C3 28.6 3.4 29 4 29C4.6 29 5 28.6 5 28V19C5 18.4 4.6 18 4 18ZM12 18C11.4 18 11 18.4 11 19V28C11 28.6 11.4 29 12 29C12.6 29 13 28.6 13 28V19C13 18.4 12.6 18 12 18ZM16 18C15.4 18 15 18.4 15 19V28C15 28.6 15.4 29 16 29C16.6 29 17 28.6 17 28V19C17 18.4 16.6 18 16 18Z" fill="black"/>
</g>
<defs>
<clipPath id="clip0_319_1385">
<rect width="32" height="32" fill="white"/>
</clipPath>
</defs>
</svg>
