<svg width="16" height="16" viewBox="0 0 16 16" fill="none" xmlns="http://www.w3.org/2000/svg">
<path d="M0 10C0 10.6 0.4 11 1 11H1.5C1.5 11.8 2.2 12.5 3 12.5C3.8 12.5 4.5 11.8 4.5 11H8C8.6 11 9 10.6 9 10V9H0V10ZM3 11.5C2.7 11.5 2.5 11.3 2.5 11C2.5 10.7 2.7 10.5 3 10.5C3.3 10.5 3.5 10.7 3.5 11C3.5 11.3 3.3 11.5 3 11.5ZM15.7 7.7L13.3 4.3C13.1 4.1 12.9 4 12.6 4H11C10.4 4 10 4.4 10 5V10C10 10.6 10.4 11 11 11H11.5C11.5 11.8 12.2 12.5 13 12.5C13.8 12.5 14.5 11.8 14.5 11H15C15.6 11 16 10.6 16 10V8.4C16 8.1 15.9 7.9 15.7 7.7ZM13 11.5C12.7 11.5 12.5 11.3 12.5 11C12.5 10.7 12.7 10.5 13 10.5C13.3 10.5 13.5 10.7 13.5 11C13.5 11.3 13.3 11.5 13 11.5ZM15 9H14L13.3 8.3C13.1 8.1 12.9 8 12.6 8H11V5H12.6L15 8.4V9ZM8 2H1C0.4 2 0 2.4 0 3V7C0 7.6 0.4 8 1 8H8C8.6 8 9 7.6 9 7V3C9 2.4 8.6 2 8 2Z" fill="black"/>
</svg>
