<svg width="32" height="32" viewBox="0 0 32 32" fill="none" xmlns="http://www.w3.org/2000/svg">
<path d="M22.4 0H6C4.9 0 4 0.9 4 2V30C4 31.1 4.9 32 6 32H26C27.1 32 28 31.1 28 30V5.6L22.4 0ZM25.6 6H22V2.4L25.6 6ZM6 30V2H20V6C20 7.1 20.9 8 22 8H26V30H6ZM24.5 26C24.5 27.4 23.4 28.5 22 28.5C20.6 28.5 19.5 27.4 19.5 26C19.5 24.6 20.6 23.5 22 23.5C23.4 23.5 24.5 24.6 24.5 26ZM8 5C8 4.4 8.4 4 9 4H18C18.6 4 19 4.4 19 5C19 5.6 18.6 6 18 6H9C8.4 6 8 5.6 8 5ZM8 11C8 10.4 8.4 10 9 10H23C23.6 10 24 10.4 24 11C24 11.6 23.6 12 23 12H9C8.4 12 8 11.6 8 11ZM8 14C8 13.4 8.4 13 9 13H20C20.6 13 21 13.4 21 14C21 14.6 20.6 15 20 15H9C8.4 15 8 14.6 8 14ZM8 17C8 16.4 8.4 16 9 16H22C22.6 16 23 16.4 23 17C23 17.6 22.6 18 22 18H9C8.4 18 8 17.6 8 17ZM8 20C8 19.4 8.4 19 9 19H15C15.6 19 16 19.4 16 20C16 20.6 15.6 21 15 21H9C8.4 21 8 20.6 8 20ZM12 26C12 26.6 11.6 27 11 27H9C8.4 27 8 26.6 8 26C8 25.4 8.4 25 9 25H11C11.6 25 12 25.4 12 26ZM19 26C19 26.6 18.6 27 18 27H14C13.4 27 13 26.6 13 26C13 25.4 13.4 25 14 25H18C18.6 25 19 25.4 19 26Z" fill="black"/>
</svg>
