<svg width="16" height="16" viewBox="0 0 16 16" fill="none" xmlns="http://www.w3.org/2000/svg">
<path d="M11.2 0H3C2.5 0 2 0.5 2 1V15C2 15.5 2.5 16 3 16H13C13.5 16 14 15.5 14 15V2.8L11.2 0ZM4.5 2H9C9.3 2 9.5 2.2 9.5 2.5C9.5 2.8 9.3 3 9 3H4.5C4.2 3 4 2.8 4 2.5C4 2.2 4.2 2 4.5 2ZM4.5 8H11C11.3 8 11.5 8.2 11.5 8.5C11.5 8.8 11.3 9 11 9H4.5C4.2 9 4 8.8 4 8.5C4 8.2 4.2 8 4.5 8ZM4 6.5C4 6.2 4.2 6 4.5 6H10C10.3 6 10.5 6.2 10.5 6.5C10.5 6.8 10.3 7 10 7H4.5C4.2 7 4 6.8 4 6.5ZM4.5 10H7C7.3 10 7.5 10.2 7.5 10.5C7.5 10.8 7.3 11 7 11H4.5C4.2 11 4 10.8 4 10.5C4 10.2 4.2 10 4.5 10ZM7.5 14H4.5C4.2 14 4 13.8 4 13.5C4 13.2 4.2 13 4.5 13H7.5C7.8 13 8 13.2 8 13.5C8 13.8 7.8 14 7.5 14ZM10.8 14.5C10.2 14.5 9.8 14.1 9.8 13.5C9.8 12.9 10.2 12.5 10.8 12.5C11.4 12.5 11.8 12.9 11.8 13.5C11.8 14.1 11.3 14.5 10.8 14.5ZM11.5 5H4.5C4.2 5 4 4.8 4 4.5C4 4.2 4.2 4 4.5 4H11.5C11.8 4 12 4.2 12 4.5C12 4.8 11.8 5 11.5 5ZM11 3V1L13 3H11Z" fill="black"/>
</svg>
