<svg width="32" height="32" viewBox="0 0 32 32" fill="none" xmlns="http://www.w3.org/2000/svg">
<g clip-path="url(#clip0_333_1494)">
<path d="M26.2 21.3C26.3 21.3 26.3 21.4 26.3 21.4C26.3 21.5 26.2 21.5 26.2 21.5C26.1 21.5 26.1 21.4 26.1 21.4C26.1 21.3 26.1 21.3 26.2 21.3ZM22.3 30.7C20.4 31.5 18.3 32 16 32C7.2 32 0 24.8 0 16C0 7.2 7.2 0 16 0C24.8 0 32 7.2 32 16C32 16.2 32 16.4 32 16.6C31.4 16 30.7 15.4 30 15C29.9 13.6 29.6 12.3 29.1 11H23.5C23.8 12.1 23.9 13.2 24 14.3C22.5 14.8 21.1 15.7 20.2 17H17V21H18.5C18.5 21.3 18.5 21.5 18.5 21.8C18.5 22.2 18.5 22.6 18.6 23H17V28.5C17.1 28.4 17.2 28.4 17.2 28.3C17.3 28.2 17.3 28.2 17.4 28.1C17.8 27.7 18.1 27.3 18.4 26.9C18.5 26.8 18.5 26.8 18.6 26.7C18.9 26.3 19.2 25.9 19.4 25.5C19.4 25.6 19.5 25.7 19.5 25.7L20.5 27.4C19.9 28.2 19.3 29 18.7 29.6C19.6 29.4 20.5 29.1 21.4 28.8L22.3 30.7ZM18.7 2.3C20.5 4.1 22 6.4 22.9 9H28.2C26.1 5.6 22.7 3 18.7 2.3ZM17 9H20.7C20.6 8.8 20.6 8.6 20.5 8.4C20.5 8.3 20.4 8.2 20.4 8.2C20.2 7.7 19.9 7.2 19.6 6.8C19.6 6.7 19.5 6.7 19.5 6.6C19.2 6.1 18.9 5.7 18.6 5.3C18.5 5.1 18.5 5 18.4 5C18.1 4.6 17.7 4.2 17.4 3.8C17.3 3.7 17.3 3.7 17.2 3.6C17.1 3.5 17 3.5 17 3.4V9ZM17 15H21.9C21.9 14.7 21.9 14.3 21.9 14V13.9C21.8 13.3 21.7 12.7 21.6 12.1C21.6 12 21.6 12 21.6 11.9C21.5 11.6 21.4 11.3 21.4 11H17V15ZM3.9 9H9.2C10.1 6.4 11.5 4.1 13.4 2.3C9.3 3 5.9 5.6 3.9 9ZM2.1 15H8.1C8.2 13.6 8.4 12.3 8.7 11H2.9C2.5 12.3 2.2 13.6 2.1 15ZM2.9 21H8.5C8.2 19.7 8 18.4 7.9 17H1.9C2.2 18.4 2.5 19.7 2.9 21ZM13.3 29.7C11.5 27.9 10 25.6 9.1 23H3.9C5.9 26.4 9.3 29 13.3 29.7ZM15 23H11.3C11.4 23.2 11.4 23.4 11.5 23.6C11.5 23.7 11.6 23.8 11.6 23.8C11.8 24.3 12.1 24.8 12.4 25.2C12.4 25.3 12.5 25.3 12.5 25.4C12.8 25.9 13.1 26.3 13.4 26.7C13.5 26.8 13.5 26.8 13.6 26.9C13.9 27.3 14.3 27.7 14.6 28.1C14.7 28.2 14.7 28.2 14.8 28.3C14.9 28.4 15 28.4 15 28.5V23ZM15 17H10.1C10.1 17.3 10.1 17.7 10.1 18V18.1C10.2 18.7 10.3 19.3 10.4 19.9C10.4 20 10.4 20 10.4 20.1C10.5 20.4 10.6 20.7 10.6 21H15V17ZM15 11H10.7C10.6 11.3 10.5 11.6 10.5 11.9C10.5 12 10.5 12 10.5 12.1C10.4 12.7 10.3 13.3 10.2 13.9V14C10.2 14.3 10.2 14.7 10.2 15H15V11ZM15 3.5C14.9 3.6 14.8 3.6 14.8 3.7C14.7 3.8 14.7 3.8 14.6 3.9C14.2 4.3 13.9 4.7 13.6 5.1C13.5 5.2 13.5 5.2 13.4 5.3C13.1 5.7 12.8 6.2 12.5 6.6C12.5 6.7 12.4 6.7 12.4 6.8C12.1 7.3 11.9 7.7 11.6 8.2C11.6 8.3 11.5 8.4 11.5 8.4C11.4 8.6 11.3 8.8 11.3 9H15V3.5ZM32 21.8C32 22.9 31.6 24 31.1 24.9L27.3 31.4C27 31.8 26.6 32 26.1 32C25.7 32 25.2 31.8 24.9 31.4L21.1 24.9C20.6 24 20.2 23 20.2 21.8C20.2 18.6 22.8 16 26 16C29.4 16 32 18.6 32 21.8ZM28.3 21.4C28.3 20.2 27.3 19.3 26.2 19.3C25.1 19.3 24.1 20.2 24.1 21.4C24.1 22.6 25.1 23.5 26.2 23.5C27.3 23.5 28.3 22.5 28.3 21.4Z" fill="black"/>
</g>
<defs>
<clipPath id="clip0_333_1494">
<rect width="32" height="32" fill="white"/>
</clipPath>
</defs>
</svg>
