<svg width="16" height="16" viewBox="0 0 16 16" fill="none" xmlns="http://www.w3.org/2000/svg">
<path d="M14.8813 3.33214L12.6593 1.1112C12.0666 0.518517 11.031 0.518517 10.4384 1.1112L2.60058 8.94899C2.54403 9.00553 2.50737 9.0715 2.48119 9.1427C2.47909 9.14794 2.47386 9.1521 2.47282 9.15734L0.685324 14.6475C0.62459 14.836 0.673815 15.0412 0.813084 15.1805C0.912562 15.281 1.0466 15.3334 1.18377 15.3334C1.23823 15.3334 1.29271 15.325 1.34611 15.3082L6.83622 13.5207C6.84146 13.5186 6.84457 13.5134 6.85086 13.5113C6.92101 13.4873 6.98803 13.4485 7.04457 13.393L14.8835 5.55519C15.4929 4.94052 15.4929 3.94471 14.8813 3.33214ZM3.20474 10.2935L5.69903 12.7888L1.99948 13.9931L3.20474 10.2935ZM14.141 4.81381L6.67286 12.282L3.71054 9.31968L11.1787 1.85149C11.3766 1.65358 11.7211 1.65358 11.919 1.85149L12.6593 2.59185L8.27603 6.97615C8.07184 7.18034 8.07184 7.51232 8.27603 7.71651C8.37865 7.81913 8.51269 7.86938 8.64672 7.86938C8.78075 7.86938 8.91479 7.81808 9.01741 7.71651L13.4007 3.33214L14.141 4.0725C14.3452 4.27669 14.3452 4.60962 14.141 4.81381Z" fill="#A29F9E"/>
</svg>
