<svg width="351" height="63" viewBox="0 0 351 63" fill="none" xmlns="http://www.w3.org/2000/svg">
<g clip-path="url(#clip0_22_60)">
<path fill-rule="evenodd" clip-rule="evenodd" d="M30.4 62.5H22.7C20.5 62.5 18.4 61.9 16.6 60.1L2.90002 46.3C1.60002 45 0.900024 43.9 0.900024 41.9V33.4C0.900024 32.1 1.50002 31.8 2.70002 32.9L31 61.2C31.5 61.7 31.5 62.5 30.4 62.5ZM51.8 62.5H44.6C41.6 62.5 39.2 61.7 37.4 60L3.20002 25.8C1.60002 24.4 1.00002 22.2 0.900024 19.6V12.6C1.00002 10 1.80002 9.7 4.30002 12.2L52.3 60.2C53.4 61.3 54.1 62.5 51.8 62.5ZM9.40002 62.5H3.30002C1.90002 62.5 0.900024 61.9 0.900024 60.4V53.4C0.900024 52.5 1.30002 52.6 2.00002 53.4L9.90002 61.3C10.7 62 10.8 62.5 9.40002 62.5Z" fill="black"/>
<mask id="mask0_22_60" style="mask-type:luminance" maskUnits="userSpaceOnUse" x="1" y="0" width="62" height="62">
<path d="M3.70003 0.800003H59.5C62.6 0.800003 62.6 1.2 62.6 3.9V58.7C62.6 61.7 62.6 62.8 60.8 61L2.50003 2.6C0.800027 0.900003 1.00003 0.800003 3.70003 0.800003Z" fill="white"/>
</mask>
<g mask="url(#mask0_22_60)">
<path d="M62.6 0.800003H0.800049V62.8H62.6V0.800003Z" fill="url(#paint0_linear_22_60)"/>
</g>
<path fill-rule="evenodd" clip-rule="evenodd" d="M261.9 53.1C260.2 51.8 258.4 51.4 256.4 51.4C253.6 51.4 251.4 52.5 251.4 54.8C251.4 56.9 252.7 57.7 255 58L258.7 58.4C259.4 58.5 259.5 58.6 259.5 59C259.5 59.7 258.3 60 256.9 60C255.3 60 253.8 59.5 252.4 58.5L251.1 60.7C252.9 62 254.5 62.5 256.7 62.5C259.9 62.5 262.3 61.4 262.3 59C262.3 56.9 260.9 56 258.5 55.7L255.4 55.4C254.8 55.3 254.3 55.2 254.3 54.8C254.3 54.3 254.7 53.9 256.5 53.9C258.2 53.9 259.4 54.2 260.7 55.2L261.9 53.1ZM249.4 54.4C248.3 52.4 246.5 51.4 243.9 51.4C240.5 51.4 237.9 53.6 237.9 57C237.9 60.4 240.5 62.6 243.9 62.6C246.4 62.6 248.3 61.6 249.4 59.6L247.2 58.4C246.5 59.5 245.5 60.2 243.9 60.2C242.1 60.2 240.8 59 240.8 57.1C240.8 55.2 242.1 54 243.9 54C245.5 54 246.5 54.6 247.2 55.8L249.4 54.4ZM233.5 51.6V62.2H236.3V51.6H233.5ZM220.9 51.6V54.1H225V62.2H227.8V54.1H231.9V51.6H220.9ZM219.5 53.1C217.8 51.8 216 51.4 214 51.4C211.2 51.4 209 52.5 209 54.8C209 56.9 210.3 57.7 212.6 58L216.3 58.4C217 58.5 217.1 58.6 217.1 59C217.1 59.7 215.9 60 214.5 60C212.9 60 211.4 59.5 210 58.5L208.7 60.7C210.5 62 212.1 62.5 214.3 62.5C217.5 62.5 219.9 61.4 219.9 59C219.9 56.9 218.5 56 216.1 55.7L213 55.4C212.4 55.3 211.9 55.2 211.9 54.8C211.9 54.3 212.3 53.9 214.1 53.9C215.8 53.9 217 54.2 218.3 55.2L219.5 53.1ZM204.1 51.6V62.2H206.9V51.6H204.1ZM196.8 56V58.3L199.4 58.4V59.3C198.6 59.8 197.8 60 196.5 60C194.6 60 193.4 58.9 193.4 57C193.4 55.1 194.6 54 196.5 54C198.2 54 198.9 54.4 199.7 55.5L202 54.2C200.7 52.3 199.1 51.4 196.5 51.4C193.2 51.4 190.5 53.6 190.5 57C190.5 60.4 193.2 62.6 196.5 62.6C197.9 62.6 199 62.3 200 61.7L200.3 62.4H202.1V56H196.8ZM189 57C189 53.7 186.2 51.4 183 51.4C179.8 51.4 177 53.7 177 57C177 60.3 179.8 62.6 183 62.6C186.2 62.6 189 60.3 189 57ZM179.8 57C179.8 55.1 181.2 53.8 183 53.8C184.8 53.8 186.1 55 186.1 57C186.1 59 184.7 60.2 183 60.2C181.2 60.1 179.8 58.9 179.8 57ZM166.2 51.6V62.2H176V59.6H169V51.5H166.2V51.6ZM148.4 51.6V54.1H152.5V62.2H155.3V54.1H159.4V51.6H148.4ZM139.7 54.2H143C144 54.2 144.7 54.8 144.7 55.9C144.7 56.9 144 57.5 143 57.5H139.7V54.2ZM136.9 51.6V62.2H139.7V60H143L144.2 62.3H147.3L145.7 59.4C146.9 58.7 147.6 57.5 147.6 55.9C147.6 53.4 145.7 51.7 143.2 51.7H136.9V51.6ZM126.9 51.6L122.3 62.2H125.3L126 60.6H131.9L132.6 62.2H135.6L131 51.6H126.9ZM128.7 54.2H129.1L130.7 58.3H127L128.7 54.2ZM106.8 51.6V62.2H109.6V55.5L112.6 62.2H114.9L118 55.5V62.2H120.8V51.6H117.4L113.8 58.7H113.7L110.4 51.6H106.8ZM105 53.1C103.3 51.8 101.5 51.4 99.5 51.4C96.7 51.4 94.5 52.5 94.5 54.8C94.5 56.9 95.8 57.7 98.1 58L101.8 58.4C102.5 58.5 102.6 58.6 102.6 59C102.6 59.7 101.4 60 100 60C98.4 60 96.9 59.5 95.5 58.5L94 60.7C95.8 62 97.4 62.5 99.6 62.5C102.8 62.5 105.2 61.4 105.2 59C105.2 56.9 103.8 56 101.4 55.7L98.3 55.4C97.7 55.3 97.2 55.2 97.2 54.8C97.2 54.3 97.6 53.9 99.4 53.9C101.1 53.9 102.3 54.2 103.6 55.2L105 53.1Z" fill="black"/>
<path fill-rule="evenodd" clip-rule="evenodd" d="M94.7 1.6V38.4H129.4V29.4H104.5V24.2H126.1V15.3H104.5V10.5H128.6V1.6H94.7Z" fill="#FE5506"/>
<path fill-rule="evenodd" clip-rule="evenodd" d="M135 1.6V20.4C135 32.6 142.4 39.4 154 39.4C165.6 39.4 173 32.6 173 20.4V1.6H163.1V20.4C163.1 26.9 160.2 30.7 154 30.7C147.7 30.7 144.8 26.9 144.8 20.4V1.6H135Z" fill="#FE5506"/>
<path fill-rule="evenodd" clip-rule="evenodd" d="M188.6 10.5H200.2C203.7 10.5 206.1 12.7 206.1 16.2C206.1 19.8 203.6 21.6 200.2 21.6H188.6V10.5ZM178.8 1.6V38.4H188.6V30.5H200L204.2 38.4H214.9L209.3 28.3C213.4 25.8 216 21.6 216 16.2C216 7.5 209.5 1.6 200.6 1.6H178.8Z" fill="#FE5506"/>
<path fill-rule="evenodd" clip-rule="evenodd" d="M262.1 20.1C262.1 8.6 252.4 0.800003 241.4 0.800003C230.4 0.800003 220.7 8.6 220.7 20.1C220.7 31.6 230.4 39.4 241.4 39.4C252.4 39.4 262.1 31.6 262.1 20.1ZM230.5 20.1C230.5 13.4 235.3 9.1 241.4 9.1C247.5 9.1 252.3 13.4 252.3 20.1C252.3 26.8 247.5 31.1 241.4 31.1C235.3 31.1 230.5 26.8 230.5 20.1Z" fill="#FE5506"/>
<path fill-rule="evenodd" clip-rule="evenodd" d="M268 1.6V38.4H302.8V29.4H277.8V24.2H299.5V15.3H277.8V10.5H301.9V1.6H268Z" fill="black"/>
<path fill-rule="evenodd" clip-rule="evenodd" d="M307.6 1.6L319.9 19.3L307.2 38.4H318.6L327.8 23.9H329.5L338.8 38.4H350.1L337.5 19.1L349.7 1.6H338.5L329.4 15.2H327.9L318.7 1.6H307.6Z" fill="black"/>
</g>
<defs>
<linearGradient id="paint0_linear_22_60" x1="36.7084" y1="26.6381" x2="59.2784" y2="3.38811" gradientUnits="userSpaceOnUse">
<stop stop-color="#FE5506"/>
<stop offset="1" stop-color="#FF9500"/>
</linearGradient>
<clipPath id="clip0_22_60">
<rect width="351" height="63" fill="white"/>
</clipPath>
</defs>
</svg>
