<svg width="32" height="32" viewBox="0 0 32 32" fill="none" xmlns="http://www.w3.org/2000/svg">
<path d="M7 28C7 28.6 6.6 29 6 29C5.4 29 5 28.6 5 28C5 27.4 5.4 27 6 27C6.6 27 7 27.4 7 28ZM15 27C14.4 27 14 27.4 14 28C14 28.6 14.4 29 15 29C15.6 29 16 28.6 16 28C16 27.4 15.6 27 15 27ZM32 21C32 21.4 31.9 21.7 31.7 22C31.9 22.3 32 22.6 32 23V25C32 26.1 31.1 27 30 27H28V30C28.6 30 29 30.4 29 31C29 31.6 28.6 32 28 32H26C25.4 32 25 31.6 25 31C25 30.4 25.4 30 26 30V27H18.9C19 27.3 19 27.7 19 28C19 30.2 17.2 32 15 32C12.8 32 11 30.2 11 28C11 27.7 11.1 27.3 11.1 27H9.9C10 27.3 10 27.7 10 28C10 30.2 8.2 32 6 32C3.8 32 2 30.2 2 28C2 27.7 2.1 27.3 2.1 27H2C0.9 27 0 26.1 0 25V23C0 22.6 0.1 22.3 0.3 22C0.1 21.7 0 21.4 0 21V2C0 0.9 0.9 0 2 0H30C31.1 0 32 0.9 32 2V21ZM2 21H30V2H2V21ZM8 28C8 26.9 7.1 26 6 26C4.9 26 4 26.9 4 28C4 29.1 4.9 30 6 30C7.1 30 8 29.1 8 28ZM17 28C17 26.9 16.1 26 15 26C13.9 26 13 26.9 13 28C13 29.1 13.9 30 15 30C16.1 30 17 29.1 17 28ZM30 23H2V25H3.4C4.1 24.4 5 24 6 24C7 24 7.9 24.4 8.6 25H12.4C13.1 24.4 14 24 15 24C16 24 16.9 24.4 17.6 25H30V23ZM29 9V18C29 19.1 28.1 20 27 20H17C16.6 20 16.3 19.9 16 19.7C15.7 19.9 15.4 20 15 20H5C3.9 20 3 19.1 3 18V9C3 7.9 3.9 7 5 7H15C15.4 7 15.7 7.1 16 7.3C16.3 7.1 16.6 7 17 7H27C28.1 7 29 7.9 29 9ZM15 18V9H12V11H8V9H5V18H15ZM27 18V9H24V11H20V9H17V18H27ZM25 13C24.4 13 24 13.4 24 14V15H20V14C20 13.4 19.6 13 19 13C18.4 13 18 13.4 18 14V16C18 16.6 18.4 17 19 17H25C25.6 17 26 16.6 26 16V14C26 13.4 25.6 13 25 13ZM13 13C12.4 13 12 13.4 12 14V15H8V14C8 13.4 7.6 13 7 13C6.4 13 6 13.4 6 14V16C6 16.6 6.4 17 7 17H13C13.6 17 14 16.6 14 16V14C14 13.4 13.6 13 13 13Z" fill="black"/>
</svg>
