<svg width="17" height="16" viewBox="0 0 17 16" fill="none" xmlns="http://www.w3.org/2000/svg">
<path d="M6.03764 7.55556C6.03764 6.16467 7.16492 5.03684 8.55586 5.03684C9.9468 5.03684 11.0747 6.16467 11.0747 7.55556C11.0747 8.94644 9.9468 10.0743 8.55586 10.0743C7.16492 10.0743 6.03764 8.94644 6.03764 7.55556ZM4.67602 7.55556C4.67602 9.69831 6.41302 11.4352 8.55586 11.4352C10.6987 11.4352 12.4357 9.69831 12.4357 7.55556C12.4357 5.4128 10.6987 3.67587 8.55586 3.67587C6.41302 3.67587 4.67602 5.4128 4.67602 7.55556ZM11.6826 3.52204C11.6825 3.70136 11.7356 3.87667 11.8352 4.02582C11.9348 4.17496 12.0763 4.29122 12.242 4.35991C12.4076 4.4286 12.5899 4.44663 12.7658 4.41172C12.9417 4.3768 13.1033 4.29051 13.2302 4.16377C13.357 4.03702 13.4434 3.8755 13.4785 3.69964C13.5136 3.52378 13.4957 3.34147 13.4271 3.17577C13.3586 3.01007 13.2424 2.86842 13.0933 2.76874C12.9443 2.66905 12.769 2.6158 12.5897 2.61573H12.5893C12.3489 2.61585 12.1184 2.71135 11.9484 2.88129C11.7784 3.05122 11.6828 3.28167 11.6826 3.52204ZM5.50329 13.7056C4.76663 13.672 4.36623 13.5493 4.10014 13.4457C3.74737 13.3084 3.49567 13.1448 3.23103 12.8805C2.9664 12.6163 2.80259 12.3648 2.66586 12.0121C2.56213 11.7461 2.43942 11.3456 2.40593 10.609C2.3693 9.81255 2.36199 9.57331 2.36199 7.55562C2.36199 5.53792 2.36991 5.29935 2.40593 4.50226C2.43948 3.76563 2.5631 3.36591 2.66586 3.09917C2.80319 2.74641 2.96676 2.49472 3.23103 2.2301C3.49531 1.96547 3.74677 1.80167 4.10014 1.66494C4.3661 1.56122 4.76663 1.43852 5.50329 1.40503C6.29974 1.3684 6.53899 1.36109 8.55586 1.36109C10.5727 1.36109 10.8122 1.36901 11.6093 1.40503C12.346 1.43858 12.7457 1.56219 13.0125 1.66494C13.3653 1.80167 13.617 1.96583 13.8816 2.2301C14.1462 2.49436 14.3094 2.74641 14.4468 3.09917C14.5505 3.36512 14.6732 3.76563 14.7067 4.50226C14.7433 5.29935 14.7506 5.53792 14.7506 7.55562C14.7506 9.57331 14.7433 9.81189 14.7067 10.609C14.6731 11.3456 14.5498 11.746 14.4468 12.0121C14.3094 12.3648 14.1459 12.6165 13.8816 12.8805C13.6173 13.1446 13.3653 13.3084 13.0125 13.4457C12.7465 13.5494 12.346 13.6721 11.6093 13.7056C10.8129 13.7422 10.5736 13.7495 8.55586 13.7495C6.53808 13.7495 6.2995 13.7422 5.50329 13.7056ZM5.44073 0.0457564C4.63636 0.0823858 4.08672 0.209924 3.60671 0.396697C3.1096 0.589575 2.68876 0.848338 2.26824 1.26818C1.84771 1.68803 1.5896 2.10951 1.39671 2.60661C1.20993 3.0869 1.08239 3.63622 1.04576 4.44055C1.00852 5.24615 1 5.50371 1 7.55556C1 9.6074 1.00852 9.86496 1.04576 10.6706C1.08239 11.475 1.20993 12.0242 1.39671 12.5045C1.5896 13.0013 1.84777 13.4233 2.26824 13.8429C2.6887 14.2626 3.1096 14.521 3.60671 14.7144C4.08763 14.9012 4.63636 15.0287 5.44073 15.0654C6.24679 15.102 6.50393 15.1111 8.55586 15.1111C10.6078 15.1111 10.8654 15.1026 11.671 15.0654C12.4754 15.0287 13.0247 14.9012 13.505 14.7144C14.0018 14.521 14.423 14.2628 14.8435 13.8429C15.264 13.4231 15.5216 13.0013 15.715 12.5045C15.9018 12.0242 16.0299 11.4749 16.066 10.6706C16.1026 9.86435 16.1111 9.6074 16.1111 7.55556C16.1111 5.50371 16.1026 5.24615 16.066 4.44055C16.0293 3.63616 15.9018 3.0866 15.715 2.60661C15.5216 2.10981 15.2633 1.6887 14.8435 1.26818C14.4236 0.847673 14.0018 0.589575 13.5056 0.396697C13.0247 0.209924 12.4754 0.0817813 11.6716 0.0457564C10.866 0.00912711 10.6084 0 8.55646 0C6.50453 0 6.24679 0.00852267 5.44073 0.0457564Z" fill="#1F0B01"/>
</svg>
