<svg width="32" height="32" viewBox="0 0 32 32" fill="none" xmlns="http://www.w3.org/2000/svg">
<g clip-path="url(#clip0_338_1560)">
<path d="M30 24V14C30 12.9 29.1 12 28 12H25V2C25 0.9 24.1 0 23 0H9C7.9 0 7 0.9 7 2V12H4C2.9 12 2 12.9 2 14V24C0.9 24 0 24.9 0 26V28C0 29.1 0.9 30 2 30C2 31.1 2.9 32 4 32H7C8.1 32 9 31.1 9 30H23C23 31.1 23.9 32 25 32H28C29.1 32 30 31.1 30 30C31.1 30 32 29.1 32 28V26C32 24.9 31.1 24 30 24ZM28 14V24H14V14H25H28ZM18 26V28H14V26H18ZM9 2H13V5L16 4L19 5V2H23V12H9V2ZM4 14H7H12V24H4V14ZM2 26H6V28H2V26ZM8 28V26H12V28H9H8ZM20 28V26H24V28H23H20ZM30 28H26V26H30V28ZM16 18.1V16H20V18C20 18.7 19.6 19.4 19 19.7V21C19.6 21 20 21.4 20 22C20 22.6 19.6 23 19 23H17C16.4 23 16 22.6 16 22C16 21.4 16.4 21 17 21V19.8C16.4 19.4 16 18.8 16 18.1ZM23 21V19.8C22.4 19.5 22 18.9 22 18.1V16H26V18C26 18.7 25.6 19.4 25 19.7V21C25.6 21 26 21.4 26 22C26 22.6 25.6 23 25 23H23C22.4 23 22 22.6 22 22C22 21.4 22.4 21 23 21ZM11 22C11 22.6 10.6 23 10 23H6C5.4 23 5 22.6 5 22C5 21.4 5.4 21 6 21H7V19.4L6.7 19.7C6.5 19.9 6.3 20 6 20C5.7 20 5.5 19.9 5.3 19.7C4.9 19.3 4.9 18.7 5.3 18.3L7.3 16.3C7.4 16.2 7.5 16.1 7.6 16.1C7.8 16 8.1 16 8.4 16.1C8.5 16.2 8.6 16.2 8.7 16.3L10.7 18.3C11.1 18.7 11.1 19.3 10.7 19.7C10.5 19.9 10.3 20 10 20C9.7 20 9.5 19.9 9.3 19.7L9 19.4V21H10C10.6 21 11 21.4 11 22ZM15 10C15 10.6 14.6 11 14 11H11C10.4 11 10 10.6 10 10V7C10 6.4 10.4 6 11 6C11.6 6 12 6.4 12 7V9H14C14.6 9 15 9.4 15 10ZM22 7V10C22 10.6 21.6 11 21 11H18C17.4 11 17 10.6 17 10C17 9.4 17.4 9 18 9H20V7C20 6.4 20.4 6 21 6C21.6 6 22 6.4 22 7Z" fill="black"/>
</g>
<defs>
<clipPath id="clip0_338_1560">
<rect width="32" height="32" fill="white"/>
</clipPath>
</defs>
</svg>
