<svg width="16" height="16" viewBox="0 0 16 16" fill="none" xmlns="http://www.w3.org/2000/svg">
<g clip-path="url(#clip0_471_1827)">
<path d="M16 8.5C16 8.6 16 8.6 16 8.7C16.1 8.8 16.1 9 16 9.2L13.8 13C14.2 13 14.5 13.2 14.8 13.3C15 13.4 15.1 13.5 15.4 13.5C15.7 13.5 15.9 13.7 15.9 13.9C15.9 14.1 15.7 14.4 15.4 14.4C14.8 14.4 14.5 14.2 14.2 14.1C14 14 13.9 13.9 13.6 13.9C13.3 13.9 13.2 14 13 14.1C12.8 14.2 12.4 14.4 11.8 14.4C11.2 14.4 10.9 14.2 10.6 14.1C10.4 14 10.3 13.9 10 13.9C9.70001 13.9 9.60001 14 9.40001 14.1C9.10001 14.2 8.70001 14.4 8.10001 14.4C7.50001 14.4 7.00001 14.3 6.80001 14.1C6.60001 14 6.50001 13.9 6.20001 13.9C5.90001 13.9 5.80001 14 5.60001 14.1C5.30001 14.2 5.00001 14.4 4.40001 14.4C3.80001 14.4 3.50001 14.2 3.20001 14.1C3.00001 14 2.90001 13.9 2.60001 13.9H2.50001C2.40001 13.9 2.30001 13.9 2.30001 13.9C2.20001 13.9 2.10001 14 2.00001 14C1.80001 14.1 1.40001 14.3 0.800011 14.3C0.200011 14.5 1.08518e-05 14.3 1.08518e-05 14C1.08518e-05 13.8 0.200011 13.6 0.500011 13.6C0.800011 13.6 0.900011 13.5 1.10001 13.4C1.10001 13.4 1.20001 13.4 1.20001 13.3L1.08518e-05 10.8C-0.0999891 10.7 1.08518e-05 10.5 1.08518e-05 10.3C1.08518e-05 10.1 0.400011 10 0.500011 10H1.00001V5.5C1.00001 5.2 1.20001 5 1.50001 5H2.00001L2.30001 3H3.00001L3.50001 5H4.50001C4.80001 5 5.00001 5.2 5.00001 5.5C5.00001 6 4.50001 6.2 4.00001 6.4V8.5H5.00001C5.20001 8.5 5.40001 8.6 5.40001 8.8L5.80001 10H6.00001V8.5V6.5C6.00001 6.2 6.20001 6 6.50001 6H11H15.5C15.8 6 16 6.2 16 6.5V8.5ZM11 10H12.2L12.8 9H11V10ZM15 7H11V8H15V7ZM7.00001 8H10V7H7.00001V8ZM7.00001 10H10V9H7.00001V10ZM14.6 9.5H13.7L12.9 10.8C12.8 10.9 12.7 11 12.5 11H11H1.30001L1.80001 12H13.1L14.6 9.5Z" fill="black"/>
</g>
<defs>
<clipPath id="clip0_471_1827">
<rect width="16" height="16" fill="white"/>
</clipPath>
</defs>
</svg>
