<svg width="34" height="32" viewBox="0 0 34 32" fill="none" xmlns="http://www.w3.org/2000/svg">
<path d="M33 29.1C33 29.6 32.6 30 32 30C30.8 30 30.1 29.6 29.6 29.3C29.2 29.1 28.9 28.9 28.3 28.9C27.7 28.9 27.4 29.1 27 29.3C26.5 29.6 25.8 30 24.6 30C23.4 30 22.7 29.6 22.2 29.3C21.8 29.1 21.5 28.9 20.9 28.9C20.3 28.9 20 29.1 19.6 29.3C18.9 29.6 18.2 30 17 30C15.8 30 15.1 29.6 14.6 29.3C14.2 29.1 13.9 28.9 13.3 28.9C12.7 28.9 12.4 29.1 12 29.3C11.4 29.6 10.7 30 9.49997 30C8.29997 30 7.59997 29.6 7.09997 29.3C6.69997 29.1 6.39997 28.9 5.79997 28.9C5.19997 28.9 4.79997 29 4.39997 29.3C3.89997 29.6 3.19997 30 1.99997 30C1.39997 30 0.999967 29.6 0.999967 29.1C0.999967 28.6 1.39997 28.2 1.99997 28.2C2.59997 28.2 2.89997 28 3.29997 27.8C3.89997 27.4 4.49997 27 5.69997 27C6.89997 27 7.59997 27.4 8.09997 27.7C8.49997 27.9 8.79997 28.1 9.39997 28.1C9.99997 28.1 10.3 27.9 10.7 27.7C11.2 27.4 11.9 27 13.1 27C14.3 27 15 27.4 15.5 27.7C15.9 27.9 16.2 28.1 16.8 28.1C17.4 28.1 17.7 27.9 18.1 27.7C18.6 27.4 19.3 27 20.5 27C21.7 27 22.4 27.4 22.9 27.7C23.3 27.9 23.6 28.1 24.2 28.1C24.8 28.1 25.1 27.9 25.5 27.7C26 27.4 26.7 27 27.9 27C29.1 27 29.8 27.4 30.3 27.7C30.7 27.9 31 28.1 31.6 28.1C32.6 28.1 33 28.5 33 29.1ZM33 15C33 15.2 32.9 15.3 32.9 15.5C33.1 15.8 33.1 16.2 32.9 16.5L28.7 24C29.6 24.1 30.2 24.4 30.7 24.7C31.1 24.9 31.4 25.1 32 25.1C32.6 25.1 33 25.5 33 26C33 26.5 32.6 27 32 27C30.8 27 30.1 26.6 29.6 26.3C29.2 26.1 28.9 25.9 28.3 25.9C27.7 25.9 27.4 26.1 27 26.3C26.5 26.6 25.8 27 24.6 27C23.4 27 22.7 26.6 22.2 26.3C21.8 26.1 21.5 25.9 20.9 25.9C20.3 25.9 20 26.1 19.6 26.3C18.9 26.6 18.2 27 17 27C15.8 27 15.1 26.6 14.6 26.3C14.2 26.1 13.9 25.9 13.3 25.9C12.7 25.9 12.4 26.1 12 26.3C11.4 26.6 10.7 27 9.49997 27C8.29997 27 7.59997 26.6 7.09997 26.3C6.69997 26.1 6.39997 25.9 5.79997 25.9C5.69997 25.9 5.59997 25.9 5.49997 25.9C5.29997 26 5.09997 26 4.99997 26C4.79997 26.1 4.59997 26.2 4.39997 26.3C3.89997 26.6 3.19997 27 1.99997 27C1.39997 27 0.999967 26.6 0.999967 26.1C0.999967 25.6 1.39997 25.2 1.99997 25.2C2.59997 25.2 2.89997 25 3.29997 24.8C3.39997 24.7 3.49997 24.7 3.59997 24.6L1.09997 19.5C0.899967 19.2 0.999967 18.8 1.09997 18.5C1.19997 18.2 1.69997 18 1.99997 18V16V10V9C1.99997 8.4 2.39997 8 2.99997 8H3.99997L4.49997 2H6.49997L6.99997 8H9.99997C10.6 8 11 8.4 11 9C11 9.9 9.99997 10.4 8.99997 10.7V15H11C11.4 15 11.8 15.3 11.9 15.7L12.7 18H13V15V11C13 10.4 13.4 10 14 10H23H32C32.6 10 33 10.4 33 11V15ZM24 18H25.5L26.8 16H24V18ZM31 12H24V14H31V12ZM15 14H22V12H15V14ZM15 18H22V16H15V18ZM6.99997 11H3.99997V15H6.99997V11ZM3.99997 18H10.6L10.3 17H7.99997H3.99997V18ZM25.8 24.7C25.9 24.6 26 24.6 26.1 24.5L27 23H5.09997L5.59997 24H5.69997C6.89997 24 7.59997 24.4 8.09997 24.7C8.49997 24.9 8.79997 25.1 9.39997 25.1C9.99997 25.1 10.3 24.9 10.7 24.7C11.2 24.4 11.9 24 13.1 24C14.3 24 15 24.4 15.5 24.7C15.9 24.9 16.2 25.1 16.8 25.1C17.4 25.1 17.7 24.9 18.1 24.7C18.6 24.4 19.3 24 20.5 24C21.7 24 22.4 24.4 22.9 24.7C23.3 24.9 23.6 25.1 24.2 25.1C25.1 25.1 25.4 25 25.8 24.7ZM30.3 17H28.5L26.8 19.6C26.6 19.8 26.3 20 26 20H23H14H12H3.59997L4.09997 21H28.1L30.3 17Z" fill="black"/>
</svg>
