<svg width="32" height="32" viewBox="0 0 32 32" fill="none" xmlns="http://www.w3.org/2000/svg">
<path d="M5.67586 25.1179C6.64637 25.1179 7.52723 25.5031 8.16528 26.1257L8.16701 26.1275C8.33904 26.2954 8.49332 26.481 8.62691 26.681H10.8411C10.8865 26.681 10.9305 26.6879 10.9715 26.7008C11.1084 26.4934 11.2671 26.3012 11.445 26.1275L11.4467 26.1257C12.0848 25.5031 12.965 25.1179 13.9358 25.1179C14.9066 25.1179 15.7872 25.5031 16.4252 26.1257L16.427 26.1275C16.599 26.2954 16.7535 26.481 16.8869 26.681H29.9728V23.7455H0.856054V26.7521H2.67819C2.82245 26.5251 2.99265 26.3153 3.18469 26.1275L3.18646 26.1257C3.82452 25.5031 4.70506 25.1179 5.67586 25.1179ZM13.9358 27.3491C14.2777 27.3491 14.5878 27.4848 14.8117 27.7035C15.0355 27.9222 15.1745 28.2253 15.1745 28.5589C15.1745 28.8929 15.0355 29.1954 14.8117 29.4141C14.5878 29.6328 14.2777 29.7688 13.9358 29.7688C13.594 29.7688 13.2842 29.6328 13.0603 29.4141C12.8364 29.1954 12.6975 28.8929 12.6975 28.5589C12.6975 28.2253 12.8364 27.9222 13.0603 27.7035C13.2842 27.4848 13.594 27.3491 13.9358 27.3491ZM14.2063 28.2947C14.1373 28.2273 14.0414 28.1855 13.9358 28.1855C13.8305 28.1855 13.7346 28.2273 13.6656 28.2947C13.5966 28.3622 13.5535 28.4558 13.5535 28.5589C13.5535 28.6618 13.5966 28.7557 13.6656 28.8229C13.7346 28.8903 13.8305 28.9323 13.9358 28.9323C14.0414 28.9323 14.1373 28.8903 14.2063 28.8229C14.2753 28.7557 14.3181 28.6618 14.3181 28.5589C14.3181 28.4558 14.2753 28.3622 14.2063 28.2947ZM5.67586 27.3491C6.01746 27.3491 6.32778 27.4848 6.55168 27.7035C6.77558 27.9222 6.91452 28.2253 6.91452 28.5589C6.91452 28.8929 6.77558 29.1954 6.55168 29.4141C6.32778 29.6328 6.01746 29.7688 5.67586 29.7688C5.33368 29.7688 5.02394 29.6328 4.80005 29.4141C4.57615 29.1954 4.43721 28.8929 4.43721 28.5589C4.43721 28.2253 4.57615 27.9222 4.80005 27.7035C5.02394 27.4848 5.33368 27.3491 5.67586 27.3491ZM5.94607 28.2947C5.87734 28.2273 5.78147 28.1855 5.67586 28.1855C5.57026 28.1855 5.47439 28.2273 5.40536 28.2947C5.33662 28.3622 5.29356 28.4558 5.29356 28.5589C5.29356 28.6618 5.33662 28.7557 5.40536 28.8229C5.47439 28.8903 5.57026 28.9323 5.67586 28.9323C5.78147 28.9323 5.87734 28.8903 5.94607 28.8229C6.0151 28.7557 6.05816 28.6618 6.05816 28.5589C6.05816 28.4558 6.0151 28.3622 5.94607 28.2947ZM27.4273 27.5171V31.5819C27.4273 31.8127 27.2356 32 26.999 32C26.7627 32 26.5709 31.8127 26.5709 31.5819V27.5171H17.2943C17.4014 27.8461 17.4588 28.1962 17.4588 28.5589C17.4588 29.5072 17.0645 30.3669 16.427 30.9904L16.4252 30.9919C15.7872 31.6145 14.9066 32 13.9358 32C12.965 32 12.0848 31.6145 11.4467 30.9919L11.445 30.9904C10.8075 30.3669 10.4128 29.5072 10.4128 28.5589C10.4128 28.1959 10.4706 27.8461 10.5777 27.5171H9.03402C9.14141 27.8461 9.19888 28.1962 9.19888 28.5589C9.19888 29.5072 8.80453 30.3669 8.16701 30.9904L8.16528 30.9919C7.52723 31.6145 6.64637 32 5.67586 32C4.70506 32 3.82452 31.6145 3.18646 30.9919L3.18469 30.9904C2.54722 30.3669 2.15282 29.5072 2.15282 28.5589C2.15282 28.2221 2.20267 27.8963 2.2953 27.5885H0.428027C0.191742 27.5885 0 27.4013 0 27.1705V23.3275C0 23.0967 0.191742 22.9094 0.428027 22.9094H30.4011H31.5717C31.808 22.9094 31.9997 23.0967 31.9997 23.3275C31.9997 23.5582 31.808 23.7455 31.5717 23.7455H30.8291V26.681H31.5717C31.808 26.681 31.9997 26.8682 31.9997 27.099C31.9997 27.3298 31.808 27.5171 31.5717 27.5171H30.4011H27.4273ZM3.31507 27.3442C3.30888 27.3578 3.3018 27.3707 3.29443 27.3831C3.11183 27.7361 3.00917 28.1357 3.00917 28.5589C3.00917 29.2792 3.30711 29.9307 3.78853 30.4006L3.79001 30.4024C4.27143 30.8726 4.9381 31.1636 5.67586 31.1636C6.41334 31.1636 7.0803 30.8726 7.56144 30.4024L7.56318 30.4006C8.0446 29.9307 8.34259 29.2792 8.34259 28.5589C8.34259 27.8386 8.0446 27.1872 7.56318 26.717L7.56144 26.7155C7.0803 26.245 6.41334 25.954 5.67586 25.954C4.9381 25.954 4.27143 26.245 3.79001 26.7155L3.78853 26.717C3.60092 26.8999 3.44133 27.1108 3.31655 27.3419L3.31625 27.3425L3.31507 27.3442ZM15.8217 26.7155C15.3403 26.245 14.6733 25.954 13.9358 25.954C13.1983 25.954 12.5314 26.245 12.0502 26.7155L12.0485 26.717C11.5671 27.1872 11.2691 27.8386 11.2691 28.5589C11.2691 29.2792 11.5671 29.9307 12.0485 30.4006L12.0502 30.4024C12.5314 30.8726 13.1983 31.1636 13.9358 31.1636C14.6733 31.1636 15.3403 30.8726 15.8217 30.4024L15.8234 30.4006C16.3049 29.9307 16.6028 29.2792 16.6028 28.5589C16.6028 27.8386 16.3049 27.1872 15.8234 26.717L15.8217 26.7155Z" fill="#1F0B01"/>
<path d="M18.3738 16.3809V13.6916C18.3734 13.6428 18.3636 13.5945 18.3452 13.5494L16.8046 9.69701C16.7216 9.48971 16.6272 9.26373 16.457 9.05988C16.3121 8.88631 16.0987 8.72371 15.8214 8.69799L16.0403 8.03677C16.1761 7.62917 16.3328 7.29381 16.934 6.94374L20.4357 4.73285C20.642 4.60271 20.6577 4.36049 20.5517 4.19922C20.4464 4.03912 20.2209 3.959 20.0258 4.08216L16.5405 6.28181C15.7868 6.72046 15.4719 7.30464 15.3091 7.7931L15.0119 8.68453H11.9833L12.4858 7.2748C12.7324 6.58261 13.2257 5.86849 13.902 5.57279L20.857 2.72734C20.8652 2.75442 20.8713 2.78152 20.8811 2.80859L24.1 11.7033L20.7592 16.1567C20.5682 16.4103 20.7489 16.7731 21.0661 16.7735H23.3778C24.8648 16.7735 26.0724 15.5652 26.0724 14.0782V13.3079C26.0724 12.7942 25.3021 12.7942 25.3021 13.3079V14.0782C25.3021 15.1518 24.4513 16.0032 23.3778 16.0032H21.8394L24.7251 12.1524L25.6895 12.1517C25.9309 12.1513 26.1124 11.9314 26.0671 11.6943L24.2279 1.90815C24.0681 1.05845 23.2297 0.470522 22.2923 0.614231C21.4867 0.737675 21.0012 1.31289 20.8479 1.89913L13.5984 4.86453C12.6397 5.28297 12.0575 6.18267 11.7607 7.01598L11.1664 8.68448H11.055C10.3566 8.68448 10.0428 9.23552 9.90784 9.77227L9.21274 12.5368H4.12069C3.48722 12.5368 2.96372 13.0581 2.96372 13.6916V16.3899C2.96372 17.0234 3.48722 17.5439 4.12069 17.5439H5.27466V18.3458C3.9706 18.5342 2.96296 19.655 2.96296 21.0103C2.96296 22.4972 4.17435 23.7049 5.66132 23.7049H17.6004C19.0874 23.7049 20.295 22.4972 20.295 21.0103C20.295 19.5233 19.0874 18.3142 17.6004 18.3142H17.216L17.2164 17.5439C17.8503 17.5439 18.388 17.0244 18.3738 16.3809L18.3738 16.3809ZM23.4688 2.05035L25.2238 11.3814L24.8033 11.3821L21.6055 2.54613C21.4349 2.0747 21.7808 1.48843 22.3942 1.38274C22.9189 1.29234 23.3871 1.61563 23.4688 2.05035ZM22.6075 2.13756C22.3948 2.13756 22.2223 2.31001 22.2223 2.52272C22.2223 2.73543 22.3948 2.90784 22.6075 2.90784C22.8202 2.90784 22.9926 2.73544 22.9926 2.52272C22.9926 2.31 22.8202 2.13756 22.6075 2.13756ZM17.216 16.7735H4.12068C3.90064 16.7735 3.73402 16.6099 3.73402 16.3899V13.6915C3.73402 13.4715 3.90064 13.3079 4.12068 13.3079H9.51439C9.69174 13.3082 9.84639 13.1873 9.88902 13.0152L10.6627 9.90914C10.7353 9.61786 10.8367 9.45552 11.055 9.45552H15.6784C15.7793 9.45552 15.797 9.47256 15.8657 9.55481C15.9344 9.63706 16.0151 9.79543 16.0906 9.98435L17.6027 13.7652V16.394C17.6071 16.6079 17.436 16.7735 17.216 16.7735V16.7735ZM11.8253 10.2258C11.6506 10.2258 11.4977 10.3434 11.453 10.5124L10.8361 12.8211C10.7691 13.0665 10.9541 13.3084 11.2085 13.3079H12.9801V14.4618C12.9803 14.538 13.0031 14.6123 13.0455 14.6754L13.8158 15.8324C13.8876 15.9396 14.0081 16.0036 14.137 16.0032H16.4487C16.6603 16.0024 16.8315 15.8311 16.8324 15.6196V14.0782C16.8321 14.0264 16.8213 13.9753 16.8008 13.9277L15.3422 10.4613C15.2819 10.3185 15.142 10.2258 14.9871 10.2258H11.8253ZM12.121 10.9962H12.9801V12.5368H11.7087L12.121 10.9962ZM13.7504 10.9962H14.7313L16.0621 14.1549V15.2329H14.3416L13.7504 14.3453V12.9212V10.9962ZM4.88498 14.0721C4.67227 14.0751 4.50185 14.2491 4.50434 14.4618V15.6196C4.49255 16.1447 5.28644 16.1447 5.27465 15.6196V14.4618C5.27742 14.2456 5.10123 14.0696 4.88498 14.0721ZM6.42636 14.0721C6.21365 14.0751 6.04323 14.2491 6.04572 14.4618V15.6196C6.03436 16.1443 6.82736 16.1443 6.81603 15.6196V14.4618C6.81881 14.2456 6.64261 14.0696 6.42636 14.0721ZM7.96473 14.0721C7.7529 14.0765 7.58385 14.25 7.58635 14.4618V15.6196C7.5977 16.1217 8.34539 16.1217 8.35666 15.6196V14.4618C8.35943 14.2447 8.18186 14.0683 7.96473 14.0721ZM6.04572 17.5438H16.4457V18.3141H14.5177C14.0036 18.3141 14.0036 19.0852 14.5177 19.0852H17.6004C18.674 19.0852 19.5247 19.9367 19.5247 21.0102C19.5247 22.0838 18.674 22.9345 17.6004 22.9345H5.66131C4.58778 22.9345 3.73402 22.0838 3.73402 21.0102C3.73402 19.9367 4.58778 19.0852 5.66131 19.0852H12.9801C13.4941 19.0852 13.4941 18.3141 12.9801 18.3141H6.04572V17.5438ZM6.43238 19.8555C5.79881 19.8555 5.27465 20.3767 5.27465 21.0102C5.27465 21.6438 5.79879 22.1672 6.43238 22.1672C7.06598 22.1672 7.58635 21.6438 7.58635 21.0102C7.58633 20.3767 7.06596 19.8555 6.43238 19.8555ZM9.89804 19.8555C9.26446 19.8555 8.74031 20.3767 8.74031 21.0102C8.74031 21.6438 9.26444 22.1672 9.89804 22.1672C10.5316 22.1672 11.052 21.6438 11.052 21.0102C11.052 20.3767 10.5316 19.8555 9.89804 19.8555ZM13.3637 19.8555C12.7301 19.8555 12.2097 20.3767 12.2097 21.0102C12.2097 21.6438 12.7301 22.1672 13.3637 22.1672C13.9973 22.1672 14.5177 21.6438 14.5177 21.0102C14.5177 20.3767 13.9973 19.8555 13.3637 19.8555ZM16.8294 19.8555C16.1958 19.8555 15.6754 20.3767 15.6754 21.0102C15.6754 21.6438 16.1958 22.1672 16.8294 22.1672C17.463 22.1672 17.9871 21.6438 17.9871 21.0102C17.9871 20.3767 17.463 19.8555 16.8294 19.8555ZM6.43238 20.6258C6.64966 20.6258 6.81603 20.793 6.81603 21.0102C6.81603 21.2275 6.64966 21.3969 6.43238 21.3969C6.2151 21.3969 6.04572 21.2275 6.04572 21.0102C6.04572 20.793 6.2151 20.6258 6.43238 20.6258ZM9.89804 20.6258C10.1153 20.6258 10.2817 20.793 10.2817 21.0102C10.2817 21.2275 10.1153 21.3969 9.89804 21.3969C9.68076 21.3969 9.51137 21.2275 9.51138 21.0102C9.51138 20.793 9.68076 20.6258 9.89804 20.6258ZM13.3637 20.6258C13.581 20.6258 13.7474 20.793 13.7474 21.0102C13.7474 21.2275 13.581 21.3969 13.3637 21.3969C13.1464 21.3969 12.9801 21.2275 12.9801 21.0102C12.9801 20.793 13.1464 20.6258 13.3637 20.6258ZM16.8294 20.6258C17.0466 20.6258 17.216 20.793 17.216 21.0102C17.216 21.2275 17.0466 21.3969 16.8294 21.3969C16.6121 21.3969 16.4457 21.2275 16.4457 21.0102C16.4457 20.793 16.6121 20.6258 16.8294 20.6258Z" fill="#1F0B01"/>
</svg>
