<svg width="32" height="32" viewBox="0 0 32 32" fill="none" xmlns="http://www.w3.org/2000/svg">
<g clip-path="url(#clip0_159_859)">
<path d="M3.2 5.80001C2.5 5.80001 1.9 6.40001 1.9 7.00001C1.9 7.70001 2.5 8.20001 3.1 8.20001C3.8 8.20001 4.3 7.60001 4.3 7.00001C4.4 6.40001 3.9 5.80001 3.2 5.80001ZM3.2 7.60001C2.9 7.60001 2.6 7.30001 2.6 7.00001C2.6 6.70001 2.8 6.50001 3.1 6.50001C3.4 6.50001 3.6 6.70001 3.6 7.00001C3.7 7.30001 3.5 7.60001 3.2 7.60001ZM6.1 5.80001C5.4 5.80001 4.8 6.40001 4.8 7.00001C4.8 7.70001 5.4 8.20001 6 8.20001C6.6 8.20001 7.3 7.70001 7.3 7.00001C7.3 6.40001 6.7 5.80001 6.1 5.80001ZM6.1 7.60001C5.8 7.60001 5.5 7.30001 5.5 7.00001C5.5 6.70001 5.7 6.50001 6 6.50001C6.3 6.50001 6.5 6.70001 6.5 7.00001C6.6 7.30001 6.4 7.60001 6.1 7.60001ZM9 5.80001C8.3 5.80001 7.7 6.40001 7.7 7.00001C7.7 7.70001 8.3 8.20001 8.9 8.20001C9.6 8.20001 10.1 7.60001 10.1 7.00001C10.2 6.40001 9.6 5.80001 9 5.80001ZM9 7.60001C8.7 7.60001 8.4 7.30001 8.4 7.00001C8.4 6.70001 8.6 6.50001 8.9 6.50001C9.2 6.50001 9.4 6.70001 9.4 7.00001C9.5 7.30001 9.3 7.60001 9 7.60001ZM21.4 1.50001H19.3V0.200006C20.7 0.800006 21.4 1.50001 21.4 1.50001ZM19.2 0.100006H0V5.20001H0.4V6.70001H1.7C1.9 6.00001 2.5 5.50001 3.2 5.50001C3.9 5.50001 4.4 5.90001 4.6 6.50001C4.8 5.90001 5.4 5.50001 6 5.50001C6.7 5.50001 7.2 5.90001 7.5 6.50001C7.7 5.90001 8.3 5.50001 9 5.50001C9.7 5.50001 10.4 6.00001 10.5 6.70001H19.4V6.40001V1.70001H19.3V0.100006H19.2ZM0.9 6.00001H0.7V5.20001H0.9V6.00001ZM23.3 6.60001H24V7.10001H23.3C23.3 7.00001 23.3 7.00001 23.3 6.90001C23.4 6.80001 23.3 6.70001 23.3 6.60001ZM19.5 6.60001H20C20 6.70001 20 6.80001 20 6.90001C20 7.00001 20 7.10001 20 7.10001H19.5V6.60001ZM10.5 6.90001H19.4V7.30001H10.5V7.20001C10.5 7.00001 10.5 6.90001 10.5 6.90001ZM0.3 6.90001H1.7C1.7 7.00001 1.7 7.00001 1.7 7.10001V7.20001H0.3V6.90001ZM24 6.50001V4.50001V4.00001L23 1.80001H19.5V6.50001H20C20.2 5.80001 20.8 5.30001 21.6 5.30001C22.4 5.30001 23 5.80001 23.2 6.50001H24ZM22.2 4.10001L21.2 3.30001H19.9V2.10001H22.8L23.5 4.10001H22.2ZM21.6 5.70001C20.9 5.70001 20.3 6.30001 20.3 7.00001C20.3 7.70001 20.9 8.30001 21.6 8.30001C22.3 8.30001 22.9 7.70001 22.9 7.00001C22.9 6.30001 22.3 5.70001 21.6 5.70001ZM21.6 7.60001C21.3 7.60001 21 7.40001 21 7.00001C21 6.70001 21.3 6.40001 21.6 6.40001C21.9 6.40001 22.2 6.70001 22.2 7.00001C22.2 7.40001 21.9 7.60001 21.6 7.60001ZM15.7 12H21.4L20.9 16.2H11.8L14.8 12.5C15 12.2 15.3 12 15.7 12ZM28 12H22.3L22.8 16.2H32L29 12.5C28.8 12.2 28.4 12 28 12ZM32 16.9V30.4C32 31.3 31.3 32 30.4 32H13.3C12.4 32 11.7 31.3 11.7 30.4V16.9H20.8V22.2H22.9V16.9H32ZM28.1 26.1H28.5V29.2C28.5 29.3 28.6 29.5 28.8 29.5H29.4C29.5 29.5 29.7 29.4 29.7 29.2V26.1H30.1C30.3 26.1 30.4 25.9 30.3 25.7L29.3 24C29.2 23.8 29 23.8 28.9 24L27.9 25.7C27.8 25.9 27.9 26.1 28.1 26.1ZM24.4 26.1H24.8V29.2C24.8 29.3 24.9 29.5 25.1 29.5H25.7C25.8 29.5 26 29.4 26 29.2V26.1H26.4C26.6 26.1 26.7 25.9 26.6 25.7L25.6 24C25.5 23.8 25.3 23.8 25.2 24L24.2 25.7C24.1 25.9 24.2 26.1 24.4 26.1ZM30.8 30.2C30.8 30.1 30.7 30.1 30.7 30.1H23.8C23.7 30.1 23.7 30.2 23.7 30.2V30.6C23.7 30.7 23.8 30.7 23.8 30.7H30.7C30.8 30.7 30.8 30.6 30.8 30.6V30.2Z" fill="black"/>
</g>
<defs>
<clipPath id="clip0_159_859">
<rect width="32" height="32" fill="white"/>
</clipPath>
</defs>
</svg>
