<svg width="32" height="32" viewBox="0 0 32 32" fill="none" xmlns="http://www.w3.org/2000/svg">
<path d="M30 24V15V6C30 4.9 29.1 4 28 4H20V2C20 0.9 19.1 0 18 0H5C3.9 0 3 0.9 3 2V13.3C2.4 13.6 2 14.3 2 15V24C0.9 24 0 24.9 0 26V28C0 29.1 0.9 30 2 30C2 31.1 2.9 32 4 32H7C8.1 32 9 31.1 9 30H23C23 31.1 23.9 32 25 32H28C29.1 32 30 31.1 30 30C31.1 30 32 29.1 32 28V26C32 24.9 31.1 24 30 24ZM28 24H17V15H21V17L22.5 16.5L24 17V15H28V24ZM22.5 7.5L24 8V6H28V13H17V6H21V8L22.5 7.5ZM10 2V4L11.5 3.5L13 4V2H18V4H17C15.9 4 15 4.9 15 6V13H5V2H10ZM4 15H8V17L9.5 16.5L11 17V15H15V24H4V15ZM6 28H2V26H4H6V28ZM12 28H9H8V26H12V28ZM18 28H14V26H15H17H18V28ZM24 28H23H20V26H24V28ZM30 28H26V26H28H30V28Z" fill="black"/>
</svg>
