<svg width="16" height="16" viewBox="0 0 16 16" fill="none" xmlns="http://www.w3.org/2000/svg">
<g clip-path="url(#clip0_26_564)">
<path d="M6.55494 6.148L6.19872 5.79714L6.1987 5.79716L6.19862 5.79723L6.19831 5.79755L6.19705 5.79883L6.19212 5.80383L6.17323 5.82301L6.10465 5.89254L5.88715 6.11269C5.72054 6.28108 5.54261 6.46017 5.47759 6.52332L5.2035 6.78952L5.38836 7.12391C5.56263 7.43915 5.7809 7.75443 6.05792 8.10435L6.05788 8.10438L6.06215 8.10962C6.86447 9.09542 7.71345 9.87269 8.65144 10.4698L8.65137 10.4699L8.66151 10.476C8.7197 10.5112 8.78602 10.5462 8.83973 10.5745C8.84914 10.5794 8.85817 10.5842 8.86669 10.5887L9.19295 10.7617L9.45425 10.5008L10.1841 9.77198C10.1841 9.77192 10.1842 9.77186 10.1843 9.7718C10.5211 9.43586 10.8972 9.28 11.2759 9.28C11.6601 9.28 12.0319 9.43837 12.3552 9.77525L12.3552 9.77531L12.3618 9.78194L14.0888 11.5149L14.0888 11.5149L14.0915 11.5177C14.4223 11.8445 14.5799 12.2219 14.5799 12.61C14.5799 12.9927 14.426 13.3738 14.0981 13.7139L14.098 13.7139L14.0933 13.7189C13.9657 13.8549 13.8275 13.9904 13.6876 14.1225L13.6876 14.1225L13.6845 14.1254C13.4869 14.3154 13.3065 14.4893 13.1451 14.681C12.6361 15.2335 12.0251 15.498 11.2879 15.498V15.4978L11.2741 15.4982C11.2262 15.4995 11.168 15.4969 11.0912 15.4928C10.0389 15.4256 9.11411 15.053 8.30657 14.6719C6.4049 13.7516 4.73979 12.4477 3.35075 10.7915C2.20737 9.41603 1.44359 8.13665 0.931797 6.75529L0.931641 6.75487C0.711679 6.16281 0.451866 5.31503 0.526097 4.40597C0.579023 3.82421 0.808639 3.33224 1.21685 2.92319L1.21781 2.92224L2.2858 1.84627C2.62974 1.51596 3.00475 1.366 3.38194 1.366C3.76346 1.366 4.13231 1.51742 4.45259 1.83374L4.45246 1.83388L4.46252 1.84328C4.65249 2.02084 4.85176 2.2219 5.0461 2.42219L5.04703 2.42315L5.28603 2.66814L5.28601 2.66817L5.2902 2.67236L6.20119 3.58436L6.20139 3.58455C6.55632 3.93948 6.70894 4.32755 6.70894 4.68912C6.70894 5.05074 6.55628 5.43914 6.20119 5.79465L6.20118 5.79464L6.19872 5.79713L6.55494 6.148Z" stroke="#FE5506"/>
</g>
<defs>
<clipPath id="clip0_26_564">
<rect width="16" height="16" fill="white"/>
</clipPath>
</defs>
</svg>
