<svg width="32" height="32" viewBox="0 0 32 32" fill="none" xmlns="http://www.w3.org/2000/svg">
<g clip-path="url(#clip0_156_708)">
<path d="M29.6 10.5C28 8.9 26 8 23.8 8C21.6 8 19.5 8.9 18 10.5C15.1 13.4 14.8 19 17.2 22.3L22.8 30.5C22.7 30.5 22.6 30.5 22.5 30.5L22.4 32.5C22.9 32.5 23.4 32.6 23.9 32.6V32L30.5 22.3C32.8 18.9 32.5 13.4 29.6 10.5ZM23.8 19.3C22.1 19.3 20.8 18 20.8 16.3C20.8 14.6 22.1 13.3 23.8 13.3C25.5 13.3 26.8 14.6 26.8 16.3C26.8 18 25.5 19.3 23.8 19.3ZM8.70003 8.3C10.1 6.3 9.90003 3.1 8.30003 1.4C7.30003 0.5 6.10003 0 4.80003 0C3.50003 0 2.30003 0.5 1.40003 1.4C-0.299972 3.1 -0.499972 6.4 1.00003 8.3L4.80003 14L4.70003 14.5C4.70003 14.5 5.20003 14.6 5.90003 14.9L6.70003 13C6.30003 12.8 6.00003 12.7 5.70003 12.7L8.70003 8.3ZM3.10003 4.9C3.10003 3.9 3.90003 3.1 4.90003 3.1C5.90003 3.1 6.70003 3.9 6.70003 4.9C6.70003 5.9 5.90003 6.7 4.90003 6.7C3.90003 6.6 3.10003 5.8 3.10003 4.9ZM11 16.5L9.30003 17.6C8.80003 16.9 8.20003 16.2 7.50003 15.7L8.70003 14.1C9.60003 14.7 10.3 15.5 11 16.5ZM13.1 26.4L11.2 27C10.9 26.1 10.8 25.1 10.8 23.9V23.7H12.8V23.8C12.8 24.8 12.9 25.7 13.1 26.4ZM17.6 29.8C18.4 30 19.3 30.2 20.4 30.3L20.2 32.3C19 32.1 18 32 17.1 31.7L17.6 29.8ZM12.7 21.6L10.7 21.8C10.6 20.8 10.4 19.9 10.1 19.1L12 18.4C12.3 19.4 12.6 20.5 12.7 21.6ZM15.8 29.2L15 31.1C13.8 30.6 12.9 29.9 12.2 29.1L13.8 27.9C14.3 28.4 15 28.8 15.8 29.2Z" fill="black"/>
</g>
<defs>
<clipPath id="clip0_156_708">
<rect width="32" height="32" fill="white"/>
</clipPath>
</defs>
</svg>
