<svg width="21" height="21" viewBox="0 0 21 21" fill="none" xmlns="http://www.w3.org/2000/svg">
<path d="M20.696 19.242L14.33 12.877C15.373 11.526 16 9.837 16 8C16 3.583 12.417 0 8 0C3.583 0 0 3.583 0 8C0 12.417 3.583 16 8 16C9.858 16 11.563 15.36 12.922 14.297L19.282 20.656C19.477 20.851 19.733 20.949 19.989 20.949C20.245 20.949 20.501 20.851 20.696 20.656C21.087 20.266 21.087 19.633 20.696 19.242ZM2 8C2 4.691 4.691 2 8 2C11.309 2 14 4.691 14 8C14 11.309 11.309 14 8 14C4.691 14 2 11.309 2 8Z" fill="#5A5857"/>
</svg>
