<svg width="32" height="32" viewBox="0 0 32 32" fill="none" xmlns="http://www.w3.org/2000/svg">
<g clip-path="url(#clip0_390_9498)">
<path d="M31.3 5.09999L16.3 0.0999939C16.1 -6.10203e-06 15.9 -6.10203e-06 15.7 0.0999939L0.7 5.09999C0.3 5.19999 0 5.59999 0 5.99999V8.99999C0 9.59999 0.4 9.99999 1 9.99999H2V31C2 31.6 2.4 32 3 32C3.6 32 4 31.6 4 31V14H28V31C28 31.6 28.4 32 29 32C29.6 32 30 31.6 30 31V9.99999H31C31.6 9.99999 32 9.59999 32 8.99999V5.99999C32 5.59999 31.7 5.19999 31.3 5.09999ZM30 7.99999H29C28.4 7.99999 28 8.39999 28 8.99999V12H4V8.99999C4 8.39999 3.6 7.99999 3 7.99999H2V6.69999L16 1.99999L30 6.69999V7.99999ZM23 9.99999V8.99999C23 8.39999 23.4 7.99999 24 7.99999H26C26.6 7.99999 27 8.39999 27 8.99999V9.99999C27 10.6 26.6 11 26 11H24C23.4 11 23 10.6 23 9.99999ZM17 9.99999V8.99999C17 8.39999 17.4 7.99999 18 7.99999H20C20.6 7.99999 21 8.39999 21 8.99999V9.99999C21 10.6 20.6 11 20 11H18C17.4 11 17 10.6 17 9.99999ZM15 8.99999V9.99999C15 10.6 14.6 11 14 11H12C11.4 11 11 10.6 11 9.99999V8.99999C11 8.39999 11.4 7.99999 12 7.99999H14C14.6 7.99999 15 8.39999 15 8.99999ZM9 8.99999V9.99999C9 10.6 8.6 11 8 11H6C5.4 11 5 10.6 5 9.99999V8.99999C5 8.39999 5.4 7.99999 6 7.99999H8C8.6 7.99999 9 8.39999 9 8.99999ZM25 17H19C19 15.9 18.1 15 17 15H7C5.9 15 5 15.9 5 17V23H5.3C5.1 23.3 5 23.6 5 24V30C5 31.1 5.9 32 7 32H15C15.4 32 15.7 31.9 16 31.7C16.3 31.9 16.6 32 17 32H25C26.1 32 27 31.1 27 30V25V19C27 17.9 26.1 17 25 17ZM21 19V21L22 20.5L23 21V19H25V23H22H20H19V19H21ZM7 17H11V19L12 18.5L13 19V17H17V19V23C16.9 23 16.8 23 16.7 23C16.4 22.4 15.7 22 15 22H7V17ZM7 30V24H10V27L11 26.5L12 27V24H15V25V30H7ZM25 30H17V25H20V27L21 26.5L22 27V25H25V30Z" fill="black"/>
</g>
<defs>
<clipPath id="clip0_390_9498">
<rect width="32" height="32" fill="white"/>
</clipPath>
</defs>
</svg>
