<svg width="32" height="32" viewBox="0 0 32 32" fill="none" xmlns="http://www.w3.org/2000/svg">
<path d="M27.9 25.1C27.5 24.9 27 24.8 26.6 24.6C25.5 24.2 24.4 23.8 23.4 23.3L22.3 22.6C21.7 22.1 21.2 21.5 21 20.7C21 20.6 20.9 20.6 20.9 20.5C21.8 19.6 22.5 18.6 23.2 17.4C24.7 17 26.3 16.2 26.9 14.8C27.4 13.7 27.2 12.4 26.3 11L26.5 9.5C26.7 8 26.7 5.2 24.8 3C23.1 1 20.2 0 16.2 0C12.8 0 10 1.2 8.1 3.5C3.6 8.8 5.3 18.5 5.4 18.9L6.2 23.1L7.3 19C7.6 18.1 7.8 17.3 8.1 16.6C8.9 18.2 9.9 19.5 11 20.6C11 20.6 11 20.7 10.9 20.7C10.3 22.9 7.8 23.8 5.3 24.6C5 24.8 4.6 25 4.1 25.1C2.2 25.8 1 27.6 1 29.7V31C1 31.6 1.4 32 2 32C2.6 32 3 31.6 3 31V29.7C3 28.5 3.7 27.4 4.8 27C5.2 26.8 5.6 26.7 6.1 26.6C7.3 26.2 8.6 25.7 9.8 25.1L14 28.1L16 26.5L18 28.1L22.2 25.1C23.4 25.8 24.7 26.2 25.9 26.6C26.3 26.7 26.8 26.9 27.2 27C28.3 27.4 29 28.5 29 29.7V31C29 31.6 29.4 32 30 32C30.6 32 31 31.6 31 31V29.7C31 27.6 29.8 25.8 27.9 25.1ZM25 14C24.9 14.3 24.6 14.5 24.3 14.7C24.5 14.1 24.7 13.5 24.9 12.8C25.1 13.3 25.2 13.7 25 14ZM7 14.1C7 11.1 7.5 7.2 9.6 4.7C11.2 2.9 13.4 2 16.2 2C19.6 2 22 2.8 23.3 4.3C24.1 5.2 24.4 6.3 24.5 7.3C22.6 6.1 19.5 5.1 16.2 5.8C13.4 6.3 9.8 8.3 7.1 13.9C7.1 14 7 14.1 7 14.1ZM9.3 14.1C11.2 10.5 13.7 8.4 16.6 7.8C19.4 7.3 22 8.2 23.5 9.1C23.5 11.3 22.8 13.7 21.9 15.7C21 15.9 20.1 16 19.5 16C19.1 15.7 18.6 15.5 18 15.5C16.9 15.5 16 16.2 16 17C16 17.8 16.9 18.5 18 18.5C18.6 18.5 19.1 18.3 19.5 18C19.7 18 20.1 18 20.5 17.9C19.2 19.7 17.5 21 16 21C13.6 21 10.5 17.8 9.3 14.1ZM16 25.6L12.2 23C12.4 22.7 12.6 22.4 12.7 22C13.8 22.7 14.9 23.1 16 23.1C17.1 23.1 18.2 22.7 19.3 22C19.5 22.4 19.7 22.7 19.9 23.1L16 25.6ZM17 29V31C17 31.6 16.6 32 16 32C15.4 32 15 31.6 15 31V29C15 28.4 15.4 28 16 28C16.6 28 17 28.4 17 29Z" fill="black"/>
</svg>
