<svg width="32" height="32" viewBox="0 0 32 32" fill="none" xmlns="http://www.w3.org/2000/svg">
<rect x="0.5" y="0.5" width="31" height="31" rx="15.5" stroke="#4C98F7"/>
<path fill-rule="evenodd" clip-rule="evenodd" d="M19.6297 22.1136C20.5476 22.5152 20.8918 21.6738 20.8918 21.6738L23.3203 9.47403C23.3011 8.65179 22.1921 9.14896 22.1921 9.14896L8.59636 14.484C8.59636 14.484 7.94622 14.7134 8.00358 15.115C8.06095 15.5166 8.57724 15.7078 8.57724 15.7078L12.0001 16.8551C12.0001 16.8551 13.0327 20.2397 13.243 20.8898C13.4342 21.5209 13.6063 21.54 13.6063 21.54C13.7975 21.6165 13.9696 21.4826 13.9696 21.4826L16.1878 19.4748L19.6297 22.1136ZM20.2225 11.635C20.2225 11.635 20.7006 11.3482 20.6815 11.635C20.6815 11.635 20.758 11.6732 20.5094 11.9409C20.2799 12.1704 14.8684 17.0274 14.1418 17.6775C14.0844 17.7158 14.0462 17.7731 14.0462 17.8496L13.8358 19.6471C13.7976 19.8383 13.549 19.8574 13.4916 19.6853L12.5929 16.7405C12.5546 16.6258 12.5929 16.492 12.7076 16.4155L20.2225 11.635Z" fill="#4C98F7"/>
</svg>
