<svg width="16" height="16" viewBox="0 0 16 16" fill="none" xmlns="http://www.w3.org/2000/svg">
<g clip-path="url(#clip0_484_1881)">
<path d="M14.6999 5.2C13.8999 4.4 12.8999 4 11.8999 4C10.8999 4 9.69995 4.4 8.99995 5.2C7.59995 6.6 7.39995 9.4 8.59995 11L11.2999 15H11.1999V16C11.3999 16 11.6999 16 11.8999 16V15.7L15.0999 10.9C16.1999 9.3 16.0999 6.6 14.6999 5.2ZM11.7999 9.5C10.9999 9.5 10.2999 8.9 10.2999 8C10.2999 7.2 10.8999 6.5 11.7999 6.5C12.5999 6.5 13.2999 7.1 13.2999 8C13.2999 8.8 12.6999 9.5 11.7999 9.5ZM4.39995 4.1C5.09995 3.1 4.99995 1.5 4.19995 0.7C3.69995 0.2 3.09995 0 2.49995 0C1.89995 0 1.29995 0.2 0.799949 0.7C-5.14984e-05 1.5 -0.100051 3.1 0.599948 4.1L2.49995 6.9V7.1C2.49995 7.1 2.69995 7.1 3.09995 7.3L3.49995 6.4C3.19995 6.3 3.09995 6.2 2.89995 6.2L4.39995 4.1ZM1.69995 2.4C1.69995 1.9 2.09995 1.5 2.59995 1.5C3.09995 1.5 3.49995 1.9 3.49995 2.4C3.49995 2.9 2.99995 3.3 2.49995 3.3C2.09995 3.2 1.69995 2.8 1.69995 2.4ZM5.49995 8.1L4.69995 8.6C4.49995 8.3 4.19995 8 3.79995 7.7L4.39995 6.9C4.89995 7.2 5.19995 7.6 5.49995 8.1ZM6.59995 13L5.69995 13.3C5.59995 12.9 5.49995 12.4 5.49995 11.8V11.7H6.49995C6.39995 12.2 6.49995 12.6 6.59995 13ZM8.79995 14.6C9.19995 14.7 9.59995 14.8 10.1999 14.8L10.0999 15.8C9.49995 15.7 8.99995 15.7 8.59995 15.5L8.79995 14.6ZM6.39995 10.6L5.39995 10.7C5.39995 10.2 5.29995 9.8 5.09995 9.4L5.99995 9C6.19995 9.5 6.29995 10.1 6.39995 10.6ZM7.89995 14.3L7.49995 15.2C6.89995 15 6.49995 14.6 6.09995 14.2L6.89995 13.6C7.19995 13.9 7.49995 14.1 7.89995 14.3Z" fill="black"/>
</g>
<defs>
<clipPath id="clip0_484_1881">
<rect width="16" height="16" fill="white"/>
</clipPath>
</defs>
</svg>
