<svg width="32" height="32" viewBox="0 0 32 32" fill="none" xmlns="http://www.w3.org/2000/svg">
<g clip-path="url(#clip0_327_1412)">
<path d="M27 11.7L26.1 4.8C26 3.8 25.1 3 24.1 3H19.9L20.6 2H22C22.6 2 23 1.6 23 1C23 0.4 22.6 0 22 0H9C8.4 0 8 0.4 8 1C8 1.6 8.4 2 9 2H10.5L11.2 3H7.9C6.9 3 6 3.8 5.9 4.8L5 12.7C5 12.9 5 13 5 13.2V19.2C5 19.8 5.1 20.5 5.3 21L6.8 25.7C7.1 26.5 7.8 26.9 8.7 26.9H9V25.9C9 25.3 9.4 24.9 10 24.9C10.2 24.9 10.3 25 10.5 25.1C10.4 25.2 10.2 25.3 10.1 25.4L7.1 30.4C6.9 31 7 31.6 7.5 31.9C7.6 32 7.8 32 8 32C8.3 32 8.7 31.8 8.9 31.5L9.8 30C9.9 30 9.9 30 10 30H22C22.1 30 22.1 30 22.2 30L23.1 31.6C23.3 31.9 23.6 32.1 24 32.1C24.2 32.1 24.4 32.1 24.5 32C25 31.7 25.1 31.1 24.8 30.6L21.8 25.6C21.7 25.5 21.6 25.3 21.4 25.3C21.5 25.2 21.7 25.1 21.9 25.1C22.5 25.1 22.9 25.5 22.9 26.1V27.1H23.2C24 27.1 24.7 26.6 25.1 25.8L26.6 21.2C26.8 20.6 27 20 27 19.4V12.4C27 12 27 11.9 27 11.7ZM12.9 2H18.2L17.5 3H13.6L12.9 2ZM7 12.9L7.9 5H24.1L25 11.9C25 12 25 12.1 25 12.2V14.9L16 14L7 14.9V13.2C7 13.1 7 13 7 12.9ZM8 22C8 20.9 8.9 20 10 20C11.1 20 12 20.9 12 22C12 23.1 11.1 24 10 24C8.9 24 8 23.1 8 22ZM11 28L11.6 27H12V26C12 25.4 12.4 25 13 25C13.6 25 14 25.4 14 26V27H15V26C15 25.4 15.4 25 16 25C16.6 25 17 25.4 17 26V27H18V26C18 25.4 18.4 25 19 25C19.6 25 20 25.4 20 26V27H20.4L21 28H11ZM13 22C13 21.4 13.4 21 14 21H18C18.6 21 19 21.4 19 22C19 22.6 18.6 23 18 23H14C13.4 23 13 22.6 13 22ZM22 24C20.9 24 20 23.1 20 22C20 20.9 20.9 20 22 20C23.1 20 24 20.9 24 22C24 23.1 23.1 24 22 24ZM7 19V16.9L16 16L25 16.9V19H7ZM10.2 13H21.8C22.4 13 23 12.7 23.3 12.3C23.6 11.9 23.8 11.2 23.7 10.6L23.1 7.6C22.9 6.7 22.1 6 21.1 6H10.8C9.8 6 9 6.7 8.8 7.6L8.2 10.6C8.1 11.2 8.2 11.8 8.6 12.3C9 12.8 9.6 13 10.2 13ZM10.8 8H21.2L21.8 11H10.2L10.8 8Z" fill="black"/>
</g>
<defs>
<clipPath id="clip0_327_1412">
<rect width="32" height="32" fill="white"/>
</clipPath>
</defs>
</svg>
