<svg width="32" height="32" viewBox="0 0 32 32" fill="none" xmlns="http://www.w3.org/2000/svg">
<path d="M25 21.5C20.9 20.1 19.5 18.8 19.5 16.3C19.5 16 19.5 15.8 19.6 15.6C19.9 14.8 20.8 14.7 21.3 12.4C21.5 11.2 22.6 12.4 22.9 9.7C22.9 8.6 22.3 8.4 22.3 8.4C22.3 8.4 22.6 6.8 22.7 5.6C22.9 3.9 21.8 0 16.1 0C16.1 0 16.1 0 16 0C16 0 16 0 15.9 0C10.2 0 9.1 3.9 9.2 5.5C9.3 6.7 9.6 8.3 9.6 8.3C9.6 8.3 9.1 8.6 9.1 9.6C9.3 12.3 10.4 11.1 10.7 12.3C11.2 14.6 12.1 14.7 12.4 15.5C12.5 15.7 12.5 15.9 12.5 16.2C12.5 18.8 11.2 20 7 21.4C2.9 22.8 1 24.3 1 25.3C1 26.3 1 31.9 1 31.9H16H31C31 31.9 31 26.3 31 25.3C31 24.4 29.1 23 25 21.5Z" fill="black"/>
</svg>
