<svg width="32" height="32" viewBox="0 0 32 32" fill="none" xmlns="http://www.w3.org/2000/svg">
<rect x="0.5" y="0.5" width="31" height="31" rx="15.5" stroke="#8861B2"/>
<path d="M21.4668 10.561C21.0699 10.1961 19.4629 9.02766 15.8808 9.01166C15.8808 9.01166 11.6585 8.75556 9.6001 10.6443C8.45408 11.7903 8.05073 13.4645 8.00912 15.5452C7.9675 17.6228 7.91308 21.5186 11.6681 22.575H11.6713L11.6681 24.1852C11.6681 24.1852 11.6456 24.8382 12.0746 24.9695C12.5932 25.1295 12.9005 24.6334 13.3967 24.0988C13.6688 23.8043 14.0433 23.3753 14.3282 23.0456C16.8956 23.2601 18.8707 22.7671 19.0948 22.6935C19.6134 22.5238 22.5488 22.1493 23.0258 18.2534C23.5188 14.2456 22.7857 11.707 21.4668 10.561ZM21.9022 17.9717C21.4989 21.2241 19.1204 21.429 18.6818 21.5698C18.4962 21.6307 16.7611 22.0628 14.5779 21.9188C14.5779 21.9188 12.9517 23.8811 12.4459 24.3901C12.3659 24.4701 12.2731 24.5021 12.2123 24.4861C12.1258 24.4637 12.1002 24.3613 12.1034 24.2108C12.1034 23.9931 12.1162 21.5314 12.1162 21.5314C12.113 21.5314 12.113 21.5314 12.1162 21.5314C8.93746 20.6511 9.12312 17.3347 9.15834 15.5997C9.19355 13.8646 9.52007 12.4401 10.49 11.483C12.2283 9.90798 15.8168 10.1417 15.8168 10.1417C18.8451 10.1545 20.2952 11.0668 20.6313 11.3709C21.7485 12.3313 22.3184 14.6201 21.9022 17.9717Z" fill="#8861B2"/>
<path d="M17.3568 15.6602C17.2511 15.6602 17.1615 15.577 17.1551 15.4682C17.1199 14.7799 16.7965 14.4438 16.1371 14.4086C16.0251 14.4022 15.9386 14.3062 15.945 14.1941C15.9514 14.0821 16.0475 13.9956 16.1595 14.002C17.0302 14.0501 17.5168 14.5494 17.5616 15.4458C17.568 15.5578 17.4816 15.6538 17.3696 15.657C17.3632 15.6602 17.36 15.6602 17.3568 15.6602Z" fill="#8861B2"/>
<path d="M18.3937 16.0066H18.3905C18.2784 16.0034 18.1888 15.9105 18.192 15.7985C18.208 15.107 18.0095 14.5468 17.587 14.0859C17.1676 13.6249 16.5882 13.3752 15.8231 13.3208C15.7111 13.3112 15.6279 13.2152 15.6375 13.1031C15.6471 12.9911 15.7431 12.9078 15.8552 12.9174C16.7195 12.9815 17.4013 13.2824 17.8879 13.8138C18.3777 14.3484 18.6146 15.0174 18.5986 15.8081C18.5954 15.9201 18.5025 16.0066 18.3937 16.0066Z" fill="#8861B2"/>
<path d="M19.4566 16.4223C19.3446 16.4223 19.255 16.3327 19.255 16.2207C19.2454 14.9818 18.89 14.0375 18.1666 13.33C17.4527 12.6321 16.5468 12.2768 15.4808 12.2672C15.3687 12.2672 15.2791 12.1744 15.2791 12.0623C15.2791 11.9503 15.3719 11.8607 15.4808 11.8607C16.6556 11.8703 17.6544 12.264 18.4451 13.0387C19.239 13.8134 19.6455 14.8826 19.6583 16.2142C19.6615 16.3295 19.5719 16.4223 19.4566 16.4223C19.4598 16.4223 19.4598 16.4223 19.4566 16.4223Z" fill="#8861B2"/>
<path d="M16.185 18.1669C16.185 18.1669 16.4699 18.1925 16.6235 18.0036L16.9213 17.6291C17.0653 17.4434 17.4142 17.3249 17.7536 17.5138C17.9424 17.6195 18.285 17.8307 18.4962 17.9876C18.7235 18.154 19.1845 18.5382 19.1877 18.5414C19.4086 18.7271 19.4598 18.9992 19.3093 19.2905C19.3093 19.2905 19.3093 19.2937 19.3093 19.2969C19.1557 19.569 18.9476 19.8251 18.6883 20.0619C18.6851 20.0619 18.6851 20.0651 18.6819 20.0651C18.4674 20.2444 18.2561 20.3468 18.0513 20.3693C18.0257 20.3757 17.9968 20.3757 17.9584 20.3757C17.8688 20.3757 17.7792 20.3629 17.6895 20.334L17.6831 20.3244C17.363 20.2348 16.8316 20.0107 15.9481 19.5209C15.3719 19.204 14.8949 18.8807 14.4884 18.5574C14.2739 18.3877 14.0562 18.1989 13.8321 17.9748C13.8257 17.9684 13.8161 17.9588 13.8097 17.9524C13.8033 17.946 13.7937 17.9364 13.7873 17.93C13.7809 17.9236 13.7713 17.914 13.7649 17.9076C13.7585 17.9012 13.7489 17.8916 13.7425 17.8851C13.5216 17.6611 13.3295 17.4434 13.1599 17.2289C12.8366 16.8256 12.5132 16.3454 12.1963 15.7692C11.7065 14.8824 11.4825 14.3511 11.3928 14.0341L11.3832 14.0277C11.3544 13.9381 11.3416 13.8485 11.3416 13.7588C11.3416 13.7204 11.3416 13.6916 11.348 13.666C11.3736 13.4579 11.4761 13.2499 11.6521 13.0354C11.6521 13.0322 11.6553 13.0322 11.6553 13.029C11.8922 12.7665 12.1483 12.5616 12.4204 12.4079C12.4204 12.4079 12.4236 12.4079 12.4268 12.4079C12.7149 12.2575 12.987 12.3087 13.1759 12.5296C13.1759 12.5296 13.5632 12.9938 13.7297 13.221C13.8865 13.4355 14.0978 13.7748 14.2035 13.9637C14.3923 14.303 14.2739 14.652 14.0882 14.796L13.7137 15.0937C13.5248 15.2474 13.5504 15.5323 13.5504 15.5323C13.5504 15.5323 14.1042 17.6387 16.185 18.1669Z" fill="#8861B2"/>
</svg>
