<svg width="32" height="32" viewBox="0 0 32 32" fill="none" xmlns="http://www.w3.org/2000/svg">
<rect x="0.5" y="0.5" width="31" height="31" rx="15.5" stroke="#47BE52"/>
<g clip-path="url(#clip0_26_742)">
<path d="M21.6 10.3C20.1 8.8 18.2 8 16 8C11.7 8 8.1 11.6 8.1 15.9C8.1 17.3 8.5 18.7 9.2 19.9L8 24L12.2 22.9C13.4 23.5 14.7 23.9 16 23.9C20.4 23.9 23.9 20.3 23.9 16C24 13.8 23.1 11.8 21.6 10.3ZM16 22.5C14.8 22.5 13.7 22.2 12.6 21.6L12.4 21.5L9.9 22.2L10.6 19.8L10.4 19.6C9.7 18.5 9.4 17.3 9.4 16.1C9.4 12.5 12.4 9.5 16 9.5C17.7 9.5 19.4 10.2 20.7 11.4C21.9 12.6 22.6 14.3 22.6 16.1C22.6 19.6 19.7 22.5 16 22.5ZM14.1 12.6C13.9 12.3 13.7 12.3 13.6 12.3H13.2C13.1 12.3 12.9 12.3 12.7 12.5C12.5 12.7 12 13.2 12 14.2C12 15.2 12.7 16.1 12.8 16.2C12.9 16.3 14.2 18.4 16.2 19.2C17.9 19.9 18.2 19.7 18.6 19.7C19 19.7 19.8 19.2 19.9 18.8C20.1 18.3 20.1 17.9 20 17.9C19.9 17.9 19.8 17.8 19.6 17.7C19.4 17.6 18.4 17.1 18.2 17.1C18.1 16.9 18 16.8 17.8 17C17.7 17.2 17.3 17.7 17.2 17.8C17.1 18 17 18 16.8 17.9C16.6 17.8 16 17.6 15.2 16.9C14.6 16.4 14.2 15.7 14.1 15.5C14 15.3 14.1 15.2 14.2 15.1C14.3 15 14.4 14.9 14.5 14.8C14.6 14.7 14.6 14.6 14.7 14.5C14.8 14.4 14.7 14.3 14.7 14.2C14.6 14 14.2 13 14.1 12.6Z" fill="#47BE52"/>
</g>
<defs>
<clipPath id="clip0_26_742">
<rect width="16" height="16" fill="white" transform="translate(8 8)"/>
</clipPath>
</defs>
</svg>
