<svg width="184" height="32" viewBox="0 0 184 32" fill="none" xmlns="http://www.w3.org/2000/svg">
<g clip-path="url(#clip0_675_530)">
<path fill-rule="evenodd" clip-rule="evenodd" d="M15.9362 31.746H11.8997C10.7464 31.746 9.64559 31.4413 8.702 30.527L1.52023 23.5175C0.838753 22.8571 0.471802 22.2984 0.471802 21.2825V16.9651C0.471802 16.3048 0.786332 16.1524 1.41539 16.7111L16.2507 31.0857C16.5128 31.3397 16.5128 31.746 15.9362 31.746ZM27.1544 31.746H23.3801C21.8074 31.746 20.5493 31.3397 19.6057 30.4762L1.6775 13.1048C0.838753 12.3937 0.524223 11.2762 0.471802 9.95556V6.4C0.524223 5.07937 0.943597 4.92699 2.25414 6.19683L27.4165 30.5778C27.9932 31.1365 28.3601 31.746 27.1544 31.746ZM4.92764 31.746H1.72992C0.996018 31.746 0.471802 31.4413 0.471802 30.6794V27.1238C0.471802 26.6667 0.681488 26.7175 1.04844 27.1238L5.18975 31.1365C5.60912 31.4921 5.66155 31.746 4.92764 31.746Z" fill="black"/>
<mask id="mask0_675_530" style="mask-type:luminance" maskUnits="userSpaceOnUse" x="0" y="0" width="33" height="32">
<path d="M1.93961 0.406351H31.1909C32.816 0.406351 32.816 0.609525 32.816 1.98095V29.8159C32.816 31.3397 32.816 31.8984 31.8724 30.9841L1.31055 1.32064C0.41938 0.457145 0.524223 0.406351 1.93961 0.406351Z" fill="white"/>
</mask>
<g mask="url(#mask0_675_530)">
<path d="M32.816 0.406351H0.419373V31.8984H32.816V0.406351Z" fill="url(#paint0_linear_675_530)"/>
</g>
<path fill-rule="evenodd" clip-rule="evenodd" d="M137.292 26.9714C136.401 26.3111 135.458 26.1079 134.409 26.1079C132.941 26.1079 131.788 26.6667 131.788 27.8349C131.788 28.9016 132.47 29.3079 133.675 29.4603L135.615 29.6635C135.982 29.7143 136.034 29.7651 136.034 29.9683C136.034 30.3238 135.405 30.4762 134.671 30.4762C133.832 30.4762 133.046 30.2222 132.312 29.7143L131.631 30.8317C132.574 31.4921 133.413 31.746 134.566 31.746C136.244 31.746 137.502 31.1873 137.502 29.9683C137.502 28.9016 136.768 28.4444 135.51 28.2921L133.885 28.1397C133.57 28.0889 133.308 28.0381 133.308 27.8349C133.308 27.581 133.518 27.3778 134.462 27.3778C135.353 27.3778 135.982 27.5302 136.663 28.0381L137.292 26.9714ZM130.74 27.6317C130.163 26.6159 129.219 26.1079 127.856 26.1079C126.074 26.1079 124.711 27.2254 124.711 28.9524C124.711 30.6794 126.074 31.7968 127.856 31.7968C129.167 31.7968 130.163 31.2889 130.74 30.273L129.586 29.6635C129.219 30.2222 128.695 30.5778 127.856 30.5778C126.913 30.5778 126.231 29.9683 126.231 29.0032C126.231 28.0381 126.913 27.4286 127.856 27.4286C128.695 27.4286 129.219 27.7333 129.586 28.3429L130.74 27.6317ZM122.405 26.2095V31.5936H123.872V26.2095H122.405ZM115.799 26.2095V27.4794H117.949V31.5936H119.417V27.4794H121.566V26.2095H115.799ZM115.066 26.9714C114.174 26.3111 113.231 26.1079 112.182 26.1079C110.715 26.1079 109.561 26.6667 109.561 27.8349C109.561 28.9016 110.243 29.3079 111.448 29.4603L113.388 29.6635C113.755 29.7143 113.807 29.7651 113.807 29.9683C113.807 30.3238 113.178 30.4762 112.444 30.4762C111.606 30.4762 110.819 30.2222 110.085 29.7143L109.404 30.8317C110.348 31.4921 111.186 31.746 112.34 31.746C114.017 31.746 115.275 31.1873 115.275 29.9683C115.275 28.9016 114.541 28.4444 113.283 28.2921L111.658 28.1397C111.344 28.0889 111.081 28.0381 111.081 27.8349C111.081 27.581 111.291 27.3778 112.235 27.3778C113.126 27.3778 113.755 27.5302 114.436 28.0381L115.066 26.9714ZM106.993 26.2095V31.5936H108.46V26.2095H106.993ZM103.166 28.4444V29.6127L104.529 29.6635V30.1206C104.109 30.3746 103.69 30.4762 103.009 30.4762C102.013 30.4762 101.383 29.9175 101.383 28.9524C101.383 27.9873 102.013 27.4286 103.009 27.4286C103.9 27.4286 104.267 27.6317 104.686 28.1905L105.892 27.5302C105.21 26.5651 104.372 26.1079 103.009 26.1079C101.279 26.1079 99.8633 27.2254 99.8633 28.9524C99.8633 30.6794 101.279 31.7968 103.009 31.7968C103.742 31.7968 104.319 31.6444 104.843 31.3397L105.001 31.6952H105.944V28.4444H103.166ZM99.0769 28.9524C99.0769 27.2762 97.6091 26.1079 95.9316 26.1079C94.2541 26.1079 92.7863 27.2762 92.7863 28.9524C92.7863 30.6286 94.2541 31.7968 95.9316 31.7968C97.6091 31.7968 99.0769 30.6286 99.0769 28.9524ZM94.2541 28.9524C94.2541 27.9873 94.988 27.327 95.9316 27.327C96.8752 27.327 97.5567 27.9365 97.5567 28.9524C97.5567 29.9683 96.8228 30.5778 95.9316 30.5778C94.988 30.527 94.2541 29.9175 94.2541 28.9524ZM87.1248 26.2095V31.5936H92.2621V30.273H88.5926V26.1587H87.1248V26.2095ZM77.7937 26.2095V27.4794H79.943V31.5936H81.4108V27.4794H83.5601V26.2095H77.7937ZM73.2331 27.5302H74.963C75.4872 27.5302 75.8541 27.8349 75.8541 28.3937C75.8541 28.9016 75.4872 29.2063 74.963 29.2063H73.2331V27.5302ZM71.7653 26.2095V31.5936H73.2331V30.4762H74.963L75.592 31.6444H77.2171L76.3784 30.1714C77.0074 29.8159 77.3744 29.2064 77.3744 28.3937C77.3744 27.1238 76.3784 26.2603 75.0678 26.2603H71.7653V26.2095ZM66.5231 26.2095L64.1117 31.5936H65.6843L66.0513 30.781H69.1442L69.5111 31.5936H71.0838L68.6724 26.2095H66.5231ZM67.4667 27.5302H67.6764L68.5151 29.6127H66.5755L67.4667 27.5302ZM55.9863 26.2095V31.5936H57.4541V28.1905L59.0268 31.5936H60.2325L61.8576 28.1905V31.5936H63.3254V26.2095H61.543L59.6559 29.8159H59.6034L57.8735 26.2095H55.9863ZM55.0427 26.9714C54.1516 26.3111 53.208 26.1079 52.1596 26.1079C50.6918 26.1079 49.5385 26.6667 49.5385 27.8349C49.5385 28.9016 50.22 29.3079 51.4257 29.4603L53.3653 29.6635C53.7322 29.7143 53.7846 29.7651 53.7846 29.9683C53.7846 30.3238 53.1556 30.4762 52.4217 30.4762C51.5829 30.4762 50.7966 30.2222 50.0627 29.7143L49.2764 30.8317C50.22 31.4921 51.0587 31.746 52.212 31.746C53.8895 31.746 55.1476 31.1873 55.1476 29.9683C55.1476 28.9016 54.4137 28.4444 53.1556 28.2921L51.5305 28.1397C51.216 28.0889 50.9539 28.0381 50.9539 27.8349C50.9539 27.581 51.1635 27.3778 52.1071 27.3778C52.9983 27.3778 53.6274 27.5302 54.3088 28.0381L55.0427 26.9714Z" fill="black"/>
<path fill-rule="evenodd" clip-rule="evenodd" d="M49.6433 0.812697V19.5048H67.8336V14.9333H54.7806V12.2921H66.1037V7.77143H54.7806V5.33333H67.4143V0.812697H49.6433Z" fill="#FE5506"/>
<path fill-rule="evenodd" clip-rule="evenodd" d="M70.7692 0.812697V10.3619C70.7692 16.5587 74.6484 20.0127 80.7293 20.0127C86.8103 20.0127 90.6895 16.5587 90.6895 10.3619V0.812697H85.4997V10.3619C85.4997 13.6635 83.9795 15.5936 80.7293 15.5936C77.4268 15.5936 75.9065 13.6635 75.9065 10.3619V0.812697H70.7692Z" fill="#FE5506"/>
<path fill-rule="evenodd" clip-rule="evenodd" d="M98.8672 5.33333H104.948C106.783 5.33333 108.041 6.45079 108.041 8.22857C108.041 10.0571 106.73 10.9714 104.948 10.9714H98.8672V5.33333ZM93.7299 0.812697V19.5048H98.8672V15.4921H104.843L107.045 19.5048H112.654L109.719 14.3746C111.868 13.1048 113.231 10.9714 113.231 8.22857C113.231 3.80952 109.823 0.812697 105.158 0.812697H93.7299Z" fill="#FE5506"/>
<path fill-rule="evenodd" clip-rule="evenodd" d="M137.397 10.2095C137.397 4.36826 132.312 0.406351 126.546 0.406351C120.779 0.406351 115.695 4.36826 115.695 10.2095C115.695 16.0508 120.779 20.0127 126.546 20.0127C132.312 20.0127 137.397 16.0508 137.397 10.2095ZM120.832 10.2095C120.832 6.80635 123.348 4.62222 126.546 4.62222C129.744 4.62222 132.26 6.80635 132.26 10.2095C132.26 13.6127 129.744 15.7968 126.546 15.7968C123.348 15.7968 120.832 13.6127 120.832 10.2095Z" fill="#FE5506"/>
<path fill-rule="evenodd" clip-rule="evenodd" d="M140.49 0.812697V19.5048H158.733V14.9333H145.627V12.2921H157.003V7.77143H145.627V5.33333H158.261V0.812697H140.49Z" fill="black"/>
<path fill-rule="evenodd" clip-rule="evenodd" d="M161.249 0.812697L167.697 9.80317L161.039 19.5048H167.015L171.838 12.1397H172.729L177.605 19.5048H183.528L176.923 9.70159L183.319 0.812697H177.447L172.677 7.72063H171.891L167.068 0.812697H161.249Z" fill="black"/>
</g>
<defs>
<linearGradient id="paint0_linear_675_530" x1="19.2431" y1="13.5305" x2="30.6909" y2="1.35989" gradientUnits="userSpaceOnUse">
<stop stop-color="#FE5506"/>
<stop offset="1" stop-color="#FF9500"/>
</linearGradient>
<clipPath id="clip0_675_530">
<rect width="184" height="32" fill="white"/>
</clipPath>
</defs>
</svg>
