<svg width="200" height="41" viewBox="0 0 200 41" fill="none" xmlns="http://www.w3.org/2000/svg">
<g clip-path="url(#clip0_416_2483)">
<path d="M187.259 15.7157C187.137 15.7083 187.016 15.7349 186.908 15.7924C186.8 15.85 186.71 15.9363 186.648 16.0419C186.511 16.3261 186.449 16.6402 186.466 16.9551C186.449 17.2742 186.511 17.5925 186.648 17.8814C186.713 17.9835 186.803 18.0665 186.911 18.1215C187.019 18.1766 187.139 18.2018 187.259 18.1945C187.382 18.2042 187.505 18.1801 187.615 18.125C187.725 18.0698 187.818 17.9856 187.884 17.8814C188.027 17.5946 188.089 17.2747 188.066 16.9551C188.09 16.6397 188.027 16.3239 187.884 16.0419C187.821 15.9342 187.729 15.8465 187.618 15.7889C187.508 15.7312 187.384 15.7058 187.259 15.7157Z" fill="#DC112E"/>
<path d="M199.024 12.4672C198.41 11.8619 197.582 11.5243 196.721 11.5279H180.896C180.464 11.5261 180.036 11.6099 179.637 11.7744C179.237 11.9388 178.874 12.1807 178.568 12.4862C178.262 12.7916 178.02 13.1546 177.854 13.5544C177.688 13.9541 177.603 14.3827 177.603 14.8155V19.0817C177.603 19.5145 177.688 19.9431 177.854 20.3428C178.02 20.7426 178.262 21.1056 178.568 21.411C178.874 21.7165 179.237 21.9584 179.637 22.1228C180.036 22.2873 180.464 22.3711 180.896 22.3693H196.708C197.138 22.3693 197.565 22.2843 197.963 22.1191C198.361 21.9539 198.722 21.7117 199.027 21.4064C199.331 21.1011 199.573 20.7387 199.738 20.3398C199.902 19.9409 199.987 19.5134 199.987 19.0817V14.8155C199.989 14.3798 199.905 13.9479 199.74 13.5448C199.575 13.1418 199.331 12.7755 199.024 12.4672ZM184.266 18.9904H183.707C183.408 18.9973 183.112 18.944 182.835 18.8338C182.602 18.7367 182.393 18.5897 182.223 18.4033C182.056 18.2095 181.932 17.9828 181.859 17.7379C181.702 17.2011 181.702 16.6308 181.859 16.0941C181.933 15.8493 182.057 15.6227 182.223 15.4287C182.384 15.2346 182.589 15.0825 182.822 14.9851C183.083 14.8667 183.368 14.8087 183.655 14.8155H183.967H184.24L184.5 14.8808L184.8 14.9851C184.817 15.115 184.817 15.2466 184.8 15.3765C184.772 15.5217 184.724 15.6623 184.657 15.794L184.253 15.6896H183.863C183.725 15.6804 183.588 15.7039 183.461 15.7583C183.334 15.8128 183.222 15.8965 183.134 16.0027C182.961 16.2696 182.879 16.5854 182.9 16.9029C182.872 17.225 182.965 17.5458 183.16 17.8031C183.248 17.901 183.357 17.9776 183.479 18.0273C183.6 18.077 183.732 18.0985 183.863 18.0902H184.266H184.461L184.683 18.0119C184.75 18.1218 184.803 18.2403 184.839 18.3641C184.861 18.5286 184.861 18.6954 184.839 18.8599C184.654 18.9301 184.462 18.9783 184.266 19.0034V18.9904ZM189.068 17.764C188.996 18.0029 188.877 18.2248 188.717 18.4163C188.551 18.6106 188.341 18.7626 188.105 18.8599C187.837 18.9705 187.549 19.0239 187.259 19.0164C186.97 19.0224 186.682 18.9691 186.414 18.8599C186.185 18.7621 185.984 18.6098 185.828 18.4163C185.668 18.2248 185.549 18.0029 185.477 17.764C185.396 17.4977 185.356 17.2205 185.359 16.9421C185.358 16.6638 185.398 16.3869 185.477 16.1202C185.546 15.876 185.665 15.6493 185.828 15.4548C185.984 15.2613 186.185 15.109 186.414 15.0112C186.679 14.8913 186.968 14.8333 187.259 14.8416C187.551 14.8319 187.84 14.89 188.105 15.0112C188.341 15.1085 188.551 15.2605 188.717 15.4548C188.88 15.6493 188.999 15.876 189.068 16.1202C189.147 16.3869 189.187 16.6638 189.186 16.9421C189.19 17.2248 189.151 17.5065 189.068 17.777V17.764ZM195.888 18.9251C195.527 18.9945 195.156 18.9945 194.795 18.9251V16.6812C194.808 16.4629 194.773 16.2444 194.69 16.0419C194.652 15.9671 194.591 15.9058 194.517 15.8662C194.442 15.8266 194.358 15.8105 194.274 15.8201C194.188 15.8074 194.1 15.8074 194.014 15.8201C193.928 15.8532 193.848 15.9018 193.779 15.9636C193.705 16.052 193.647 16.1538 193.61 16.2637C193.564 16.4203 193.542 16.5831 193.545 16.7464V18.899C193.363 18.9118 193.181 18.9118 192.999 18.899C192.817 18.9107 192.634 18.9107 192.452 18.899V16.6812C192.466 16.4629 192.43 16.2444 192.348 16.0419C192.309 15.9671 192.248 15.9058 192.174 15.8662C192.1 15.8266 192.015 15.8105 191.931 15.8201C191.845 15.8074 191.758 15.8074 191.671 15.8201C191.579 15.847 191.497 15.9016 191.437 15.9767C191.355 16.0648 191.297 16.1726 191.268 16.2898C191.244 16.4629 191.244 16.6385 191.268 16.8116V18.899C191.086 18.9107 190.903 18.9107 190.721 18.899C190.539 18.9118 190.357 18.9118 190.175 18.899V14.946H190.383H190.851H191.06C191.069 14.9846 191.069 15.0248 191.06 15.0634V15.22C191.066 15.272 191.066 15.3245 191.06 15.3765C191.06 15.3765 191.06 15.4678 191.06 15.507C191.149 15.3278 191.284 15.175 191.45 15.0634C191.549 15.0049 191.654 14.9568 191.762 14.9199C191.892 14.8989 192.023 14.8989 192.153 14.9199C192.404 14.886 192.659 14.9385 192.877 15.0688C193.094 15.1992 193.261 15.3996 193.35 15.6374C193.453 15.4411 193.6 15.2715 193.779 15.1417C193.987 14.9912 194.239 14.9133 194.495 14.9199C194.68 14.9081 194.864 14.9357 195.037 15.001C195.21 15.0662 195.367 15.1675 195.497 15.2982C195.734 15.6415 195.844 16.0566 195.81 16.4724L195.888 18.9251Z" fill="#DC112E"/>
<path d="M129.178 19.5906C128.533 19.2105 127.791 19.029 127.043 19.0687C126.039 19.0895 125.056 19.3584 124.18 19.8515C123.929 19.4951 123.589 19.2111 123.194 19.028C122.799 18.8448 122.363 18.7689 121.929 18.8078C121.384 18.7884 120.853 18.9799 120.445 19.3427V30.9408C120.436 31.3272 120.497 31.712 120.628 32.0759C120.737 32.3451 120.916 32.5796 121.148 32.7543C121.389 32.9343 121.671 33.0509 121.968 33.0935C122.334 33.1488 122.704 33.175 123.074 33.1718C123.509 33.1754 123.944 33.1493 124.376 33.0935C124.652 33.0627 124.925 33.0147 125.195 32.95V23.4914C125.43 23.374 126.328 22.1868 129.568 22.7347C129.679 22.5127 129.771 22.2813 129.841 22.0433C129.919 21.794 129.958 21.5345 129.959 21.2735C129.985 20.9492 129.927 20.6236 129.79 20.3286C129.653 20.0336 129.442 19.7793 129.178 19.5906Z" fill="#1D1B1E"/>
<path d="M51.705 18.9251C52.6296 18.9164 53.5519 19.0215 54.451 19.2382C55.2125 19.4094 55.9332 19.7285 56.5723 20.1775C57.131 20.5917 57.5782 21.1386 57.8737 21.7692C58.2117 22.4814 58.3767 23.2638 58.3552 24.0523V30.3406C58.3702 30.7765 58.2268 31.2029 57.9517 31.5408C57.67 31.8505 57.3457 32.1185 56.9887 32.3367C55.4117 33.1524 53.646 33.5307 51.8742 33.4326C50.9987 33.4332 50.1258 33.3369 49.2714 33.1455C48.5478 32.9858 47.8568 32.7035 47.2282 32.3106C46.6811 31.9492 46.2336 31.4557 45.9268 30.8755C45.615 30.2526 45.4586 29.5631 45.4713 28.8664C45.4347 28.3169 45.5182 27.766 45.716 27.2522C45.9139 26.7385 46.2212 26.2742 46.6165 25.8918C47.6326 25.0898 48.8769 24.6329 50.1693 24.5872L53.8263 24.1958V23.987C53.8369 23.7438 53.7744 23.5031 53.6467 23.296C53.5191 23.0889 53.3322 22.9251 53.1105 22.8259C52.4466 22.5741 51.7367 22.4673 51.0283 22.5128C50.3323 22.5072 49.6381 22.5817 48.959 22.7346C48.3405 22.867 47.7351 23.0548 47.1501 23.2956C46.8841 23.0954 46.6736 22.8305 46.5384 22.5258C46.37 22.1897 46.2809 21.8192 46.2781 21.443C46.2566 21.0267 46.3809 20.616 46.6295 20.2819C46.9261 19.9522 47.2962 19.6974 47.7097 19.5382C48.3267 19.312 48.9693 19.163 49.6227 19.0947C50.3127 18.9952 51.0081 18.9385 51.705 18.9251ZM51.9262 29.9361C52.2756 29.9305 52.6238 29.8956 52.9674 29.8318C53.2658 29.7915 53.5558 29.7034 53.8263 29.5709V27.3269L51.8091 27.4965C51.3548 27.5059 50.909 27.622 50.5077 27.8357C50.3508 27.9097 50.2191 28.0283 50.1288 28.1767C50.0386 28.3252 49.9938 28.4969 50.0001 28.6707C49.9956 28.8459 50.032 29.0198 50.1066 29.1784C50.1812 29.337 50.2918 29.4759 50.4296 29.5839C50.8781 29.8586 51.4026 29.982 51.9262 29.9361Z" fill="#1D1B1E"/>
<path d="M70.2761 32.5846C69.9336 32.8319 69.5436 33.0052 69.1308 33.0934C68.5731 33.2303 68.0002 33.2961 67.426 33.2891C66.7995 33.282 66.1788 33.1673 65.591 32.9499C65.3583 32.8841 65.1414 32.7715 64.9535 32.619C64.7656 32.4664 64.6105 32.2772 64.4978 32.0627C64.2719 31.6386 64.0677 31.2032 63.8862 30.7581C63.6649 30.1841 60.4895 20.582 60.3594 20.021C61.0272 19.3796 61.9203 19.028 62.8451 19.0425C63.4067 19.0169 63.9634 19.1575 64.4458 19.447C64.9352 19.8225 65.2689 20.3661 65.3828 20.9734L66.476 25.2526C66.6842 26.1006 66.8794 26.8573 67.0616 27.5357C67.2438 28.2141 67.387 28.749 67.4781 29.1143H67.6733C68.0247 27.7314 68.4021 26.205 68.7925 24.522C69.1829 22.839 69.5343 21.1952 69.8466 19.5774C70.1872 19.3983 70.5507 19.2667 70.9268 19.186C71.3051 19.0886 71.6944 19.0404 72.085 19.0425C72.6638 19.0268 73.2356 19.1712 73.7378 19.46C73.9677 19.6227 74.1503 19.8438 74.2669 20.1006C74.3836 20.3573 74.43 20.6405 74.4015 20.9212C74.384 21.3628 74.3141 21.8008 74.1933 22.2258C74.0502 22.7999 71.4343 30.2754 71.148 30.9408C70.8617 31.6061 70.5494 32.1541 70.2761 32.5846Z" fill="#1D1B1E"/>
<path d="M81.4941 28.2793C81.4767 28.477 81.5107 28.6759 81.5928 28.8565C81.6749 29.0372 81.8023 29.1934 81.9627 29.3099C82.3554 29.5426 82.8088 29.6517 83.2641 29.623C83.5558 29.6203 83.8471 29.5985 84.136 29.5578C84.3995 29.5119 84.6602 29.4509 84.9168 29.3752C85.0897 29.581 85.2341 29.8091 85.3463 30.0536C85.5278 30.4982 85.5664 30.9886 85.4568 31.4563C85.3471 31.924 85.0947 32.3457 84.7346 32.6628C83.8963 33.1889 82.9081 33.4228 81.9236 33.3282C80.5744 33.4168 79.2375 33.024 78.1495 32.2193C77.6787 31.746 77.3179 31.1743 77.093 30.5451C76.868 29.9159 76.7844 29.2447 76.8481 28.5793V16.6289C77.0433 16.6289 77.3427 16.5115 77.7201 16.4463C78.1246 16.382 78.5338 16.3514 78.9434 16.3549C79.6086 16.3178 80.2709 16.4669 80.8565 16.7855C81.3119 17.0725 81.5332 17.6857 81.5332 18.625V20.4123H85.1901C85.3227 20.658 85.4317 20.9157 85.5155 21.1821C85.623 21.5104 85.6757 21.8542 85.6717 22.1997C85.7164 22.7114 85.5626 23.2208 85.2422 23.6217C85.0856 23.7684 84.9013 23.8821 84.7001 23.9561C84.4989 24.03 84.285 24.0627 84.0709 24.0523H81.4941V28.2793Z" fill="#1D1B1E"/>
<path d="M102.082 26.1528C102.085 27.2102 101.891 28.2589 101.51 29.2448C101.183 30.106 100.672 30.8852 100.013 31.5279C99.3695 32.1601 98.597 32.6452 97.7487 32.95C96.7853 33.279 95.7733 33.4422 94.7555 33.4327C93.7411 33.4539 92.7313 33.2904 91.7753 32.95C90.9138 32.638 90.129 32.1448 89.4735 31.5035C88.818 30.8621 88.3071 30.0875 87.9752 29.2318C87.6093 28.2654 87.4283 27.2386 87.4416 26.205C87.4294 25.18 87.6105 24.162 87.9752 23.2044C88.3077 22.346 88.8178 21.5679 89.4718 20.9213C90.1273 20.2819 90.9131 19.7923 91.7753 19.4862C92.7297 19.1369 93.7395 18.9645 94.7555 18.9774C95.7771 18.961 96.7926 19.138 97.7487 19.4992C98.6 19.8101 99.3755 20.2989 100.024 20.9332C100.672 21.5675 101.179 22.3328 101.51 23.1783C101.886 24.1249 102.08 25.134 102.082 26.1528ZM92.3089 26.1528C92.2459 27.0696 92.4736 27.9829 92.9596 28.7621C93.1645 29.0564 93.4399 29.2943 93.7606 29.4539C94.0813 29.6134 94.4368 29.6896 94.7945 29.6753C95.1487 29.6928 95.5012 29.6164 95.8165 29.4537C96.1318 29.2911 96.3987 29.0481 96.5905 28.749C97.0547 27.9616 97.2723 27.0526 97.2151 26.1398C97.275 25.225 97.0524 24.314 96.5775 23.5305C96.3635 23.2517 96.0886 23.0259 95.7738 22.8706C95.459 22.7152 95.1129 22.6344 94.762 22.6344C94.4111 22.6344 94.065 22.7152 93.7502 22.8706C93.4354 23.0259 93.1605 23.2517 92.9465 23.5305C92.469 24.3177 92.2463 25.2337 92.3089 26.1528Z" fill="#1D1B1E"/>
<path d="M117.933 30.4841C117.886 31.2271 117.603 31.9356 117.126 32.5063C116.892 32.748 116.607 32.9352 116.292 33.0546C115.977 33.1741 115.64 33.223 115.305 33.1978C114.741 33.2075 114.187 33.0583 113.704 32.7673C113.129 32.3654 112.623 31.8718 112.207 31.3061L109.435 27.8357V32.9499L108.524 33.1065C108.124 33.1703 107.719 33.2008 107.314 33.1978C106.944 33.2005 106.574 33.1743 106.208 33.1195C105.91 33.0769 105.629 32.9603 105.388 32.7803C105.16 32.6017 104.981 32.3683 104.867 32.1019C104.737 31.7381 104.675 31.3532 104.685 30.9669V14.6851C104.893 14.6851 105.193 14.5676 105.596 14.5024C106.001 14.4391 106.41 14.4085 106.819 14.4111C107.185 14.4083 107.551 14.4345 107.913 14.4894C108.212 14.5403 108.496 14.656 108.745 14.8286C108.976 15.0066 109.152 15.2463 109.253 15.52C109.385 15.8833 109.447 16.2685 109.435 16.6551V24.0784L114.237 19.1469C115.063 19.1117 115.879 19.3401 116.567 19.7992C116.837 19.9743 117.059 20.2138 117.213 20.4961C117.367 20.7785 117.45 21.0949 117.452 21.417C117.453 21.6803 117.405 21.9415 117.309 22.1867C117.202 22.4459 117.057 22.6877 116.879 22.9042C116.652 23.1833 116.399 23.441 116.124 23.674L115.044 24.6133L113.431 26.0093L117.933 30.4841Z" fill="#1D1B1E"/>
<path d="M132.093 15.5723C132.085 15.2393 132.144 14.908 132.267 14.5986C132.39 14.2892 132.574 14.0079 132.809 13.7719C133.33 13.3105 134.001 13.0559 134.696 13.0559C135.391 13.0559 136.062 13.3105 136.583 13.7719C136.813 14.0103 136.994 14.2923 137.114 14.6014C137.235 14.9104 137.293 15.2405 137.285 15.5723C137.294 15.9022 137.236 16.2303 137.115 16.5374C136.994 16.8444 136.813 17.124 136.583 17.3596C136.066 17.829 135.393 18.0889 134.696 18.0889C133.998 18.0889 133.326 17.829 132.809 17.3596C132.574 17.1264 132.389 16.8476 132.266 16.5402C132.143 16.2328 132.084 15.9034 132.093 15.5723ZM137.064 32.9499L136.153 33.1065C135.753 33.1703 135.348 33.2009 134.943 33.1978C134.573 33.2006 134.203 33.1744 133.837 33.1195C133.539 33.077 133.258 32.9604 133.017 32.7803C132.789 32.6017 132.61 32.3684 132.496 32.1019C132.366 31.7381 132.304 31.3533 132.314 30.9669V19.5383L133.225 19.3948C133.629 19.3271 134.039 19.2922 134.448 19.2905C134.815 19.2851 135.181 19.3157 135.542 19.3818C135.841 19.4225 136.127 19.5343 136.375 19.7079C136.602 19.8888 136.778 20.1276 136.882 20.3994C137.021 20.761 137.083 21.1475 137.064 21.5344V32.9499Z" fill="#1D1B1E"/>
<path d="M151.809 28.8923C151.837 29.535 151.707 30.1747 151.43 30.755C151.154 31.3352 150.738 31.8381 150.221 32.2192C148.826 33.1202 147.179 33.5458 145.523 33.4325C144.795 33.4325 144.069 33.3758 143.35 33.2629C142.755 33.1729 142.176 32.9971 141.632 32.741C141.195 32.5371 140.812 32.2332 140.513 31.8539C140.227 31.4811 140.084 31.0184 140.109 30.5492C140.096 30.1513 140.195 29.7577 140.396 29.4142C140.567 29.1181 140.792 28.857 141.059 28.6445C141.653 28.9675 142.277 29.234 142.92 29.4403C143.698 29.6881 144.512 29.8071 145.328 29.7925C145.775 29.8166 146.222 29.7315 146.629 29.5447C146.765 29.4892 146.881 29.3955 146.964 29.2751C147.047 29.1547 147.094 29.0127 147.098 28.8663C147.1 28.7433 147.069 28.6221 147.01 28.5145C146.951 28.4069 146.864 28.3168 146.759 28.2531C146.412 28.0625 146.033 27.9386 145.64 27.8878L144.807 27.7182C143.492 27.5399 142.246 27.023 141.189 26.2179C140.785 25.8516 140.469 25.3985 140.264 24.8925C140.059 24.3865 139.97 23.8405 140.005 23.2955C139.994 22.642 140.146 21.9962 140.448 21.4168C140.764 20.8537 141.21 20.3749 141.749 20.0209C142.341 19.6238 142.997 19.3324 143.688 19.1598C144.503 18.9434 145.344 18.838 146.187 18.8467C146.837 18.8438 147.485 18.8961 148.126 19.0032C148.669 19.0856 149.198 19.2391 149.701 19.4599C150.112 19.64 150.477 19.9122 150.768 20.2557C151.028 20.5856 151.166 20.9961 151.158 21.4168C151.166 21.801 151.081 22.1813 150.911 22.5257C150.771 22.8235 150.566 23.0863 150.312 23.2955C150.105 23.171 149.881 23.0745 149.649 23.0085C149.349 22.9041 149.024 22.8128 148.673 22.7214C148.321 22.6301 147.957 22.5649 147.592 22.5127C147.265 22.4632 146.934 22.437 146.603 22.4344C146.117 22.4121 145.631 22.483 145.172 22.6432C145.03 22.683 144.904 22.7683 144.815 22.886C144.726 23.0038 144.677 23.1476 144.677 23.2955C144.676 23.3965 144.701 23.4961 144.749 23.585C144.797 23.674 144.866 23.7494 144.951 23.8043C145.284 23.9833 145.645 24.1067 146.018 24.1696L146.877 24.3653C148.275 24.584 149.59 25.1691 150.69 26.0613C151.068 26.4247 151.365 26.8658 151.558 27.3543C151.751 27.8429 151.837 28.3675 151.809 28.8923Z" fill="#1D1B1E"/>
<path d="M159.214 32.9499L158.303 33.1065C157.903 33.1693 157.498 33.1999 157.093 33.1978C156.722 33.201 156.353 33.1748 155.987 33.1195C155.689 33.077 155.407 32.9603 155.167 32.7803C154.932 32.6091 154.751 32.3736 154.646 32.1019C154.516 31.7381 154.454 31.3533 154.464 30.9669V14.6851L155.375 14.5285C155.775 14.4652 156.18 14.4347 156.585 14.4372C156.955 14.4345 157.325 14.4606 157.691 14.5155C157.987 14.564 158.268 14.6801 158.511 14.8547C158.742 15.0357 158.921 15.2741 159.032 15.5461C159.164 15.9094 159.226 16.2947 159.214 16.6812V32.9499Z" fill="#1D1B1E"/>
<path d="M168.064 18.9251C168.988 18.9157 169.911 19.0208 170.81 19.2383C171.571 19.4094 172.292 19.7286 172.931 20.1776C173.49 20.5918 173.937 21.1387 174.232 21.7692C174.57 22.4815 174.735 23.2639 174.714 24.0524V30.3407C174.735 30.7774 174.591 31.2061 174.31 31.5409C174.029 31.8506 173.704 32.1186 173.347 32.3368C171.77 33.1525 170.005 33.5308 168.233 33.4327C167.357 33.4333 166.484 33.337 165.63 33.1456C164.91 32.9891 164.222 32.7064 163.6 32.3107C163.048 31.9547 162.6 31.4599 162.298 30.8756C161.976 30.2561 161.815 29.565 161.83 28.8664C161.797 28.3173 161.882 27.7675 162.08 27.2542C162.277 26.741 162.583 26.2764 162.975 25.8919C163.993 25.0923 165.236 24.6357 166.528 24.5873L170.185 24.1959V23.9871C170.197 23.7436 170.136 23.5021 170.008 23.2946C169.88 23.0872 169.692 22.9237 169.469 22.826C168.815 22.569 168.115 22.4534 167.413 22.4868C166.721 22.481 166.031 22.5554 165.357 22.7086C164.734 22.8411 164.124 23.0288 163.535 23.2696C163.272 23.0659 163.062 22.8019 162.923 22.4998C162.759 22.1628 162.674 21.7922 162.676 21.417C162.657 21.003 162.776 20.5945 163.014 20.2559C163.311 19.9262 163.681 19.6714 164.094 19.5122C164.712 19.2889 165.354 19.14 166.007 19.0687C166.689 18.9795 167.376 18.9316 168.064 18.9251ZM168.285 29.9362C168.639 29.9302 168.991 29.8953 169.339 29.8319C169.633 29.7918 169.919 29.7036 170.185 29.5709V27.327L168.168 27.4966C167.714 27.5097 167.269 27.6257 166.866 27.8358C166.709 27.9098 166.578 28.0284 166.488 28.1768C166.397 28.3253 166.353 28.497 166.359 28.6707C166.354 28.8475 166.391 29.0228 166.468 29.1818C166.545 29.3409 166.66 29.4788 166.801 29.584C167.245 29.8594 167.765 29.983 168.285 29.9362Z" fill="#1D1B1E"/>
<path d="M15.2785 6.72678C14.836 6.72678 13.9771 6.81811 13.5346 6.85724C13.0921 6.89638 12.077 7.03989 11.5825 7.13122C9.10983 7.56175 6.8584 5.95705 6.8584 4.07838V3.4652C6.8584 1.63872 8.96668 0.00792947 11.3092 0.334087C11.7907 0.412365 12.6106 0.581967 13.1572 0.621106C13.8147 0.682837 14.475 0.708968 15.1353 0.699384C17.2827 0.595014 18.8053 1.87355 18.8053 3.4913V3.71308C18.7226 4.57605 18.3084 5.37296 17.6502 5.93535C16.9921 6.49775 16.1416 6.78155 15.2785 6.72678Z" fill="#DD102E"/>
<path d="M24.7268 16.3549C24.2843 12.0366 20.25 8.25315 14.4978 10.6145C13.793 10.1915 13.0361 9.86258 12.2463 9.63606C10.5836 9.15467 8.82281 9.12699 7.14583 9.55587C5.46886 9.98476 3.9365 10.8547 2.70702 12.0757C-3.52672 18.3249 2.81113 33.7978 3.86527 36.2375C5.63518 36.9942 14.1984 40.4515 21.1479 40.0079L22.4493 39.8774C42.4259 37.2812 39.8621 17.6987 24.7268 16.3549ZM31.9106 30.8102C31.1427 30.8102 30.7653 30.1971 30.6872 29.5056C30.4243 26.976 29.1737 24.6534 27.2084 23.045C25.2431 21.4366 22.7228 20.6731 20.1979 20.9211L19.0657 21.0255L19.1698 19.8905C19.305 18.5097 19.1425 17.116 18.6935 15.8037C18.2444 14.4914 17.5192 13.2912 16.567 12.2845C20.1589 10.7059 23.074 14.8937 22.5795 18.1292C35.6196 18.5989 36.6867 30.3406 31.9366 30.8102H31.9106Z" fill="#DD102E"/>
</g>
<defs>
<clipPath id="clip0_416_2483">
<rect width="200" height="39.726" fill="white" transform="translate(0 0.333984)"/>
</clipPath>
</defs>
</svg>
