<svg width="200" height="31" viewBox="0 0 200 31" fill="none" xmlns="http://www.w3.org/2000/svg">
<g clip-path="url(#clip0_416_2486)">
<path d="M200 3.90596C200 2.17263 198.633 1.07263 197.1 1.07263C195.567 1.07263 194.2 2.17263 194.2 3.90596C194.2 5.63929 195.567 6.73929 197.1 6.73929C198.633 6.73929 200 5.63929 200 3.90596ZM199.233 3.90596C199.233 5.20596 198.267 6.13929 197.1 6.13929C195.9 6.13929 194.967 5.20596 194.967 3.90596C194.967 2.60596 195.9 1.67263 197.1 1.67263C198.267 1.70596 199.233 2.63929 199.233 3.90596ZM198.4 5.50596L197.567 4.10596C198.033 4.07262 198.4 3.83929 198.4 3.27262C198.4 2.57262 197.967 2.33929 197.167 2.33929H195.967V5.50596H196.6V4.13929H197L197.767 5.50596H198.4ZM197.133 3.63929H196.567V2.80596H197.1C197.4 2.80596 197.767 2.87262 197.767 3.20596C197.767 3.60596 197.5 3.63929 197.133 3.63929ZM188.4 9.90596L180.867 16.7393L183.2 0.672628H175.533L171.167 29.8726H178.967L180.067 22.7726L185.6 29.7393H195.767L187.7 19.206L198.633 9.90596H188.4ZM170.7 17.3393L171.733 10.4393C169.267 9.40596 166.133 8.87263 164.5 8.87263C154.933 8.87263 150.1 15.8393 150.1 21.2393C150.1 27.8726 156.467 30.4726 161.767 30.4726C162.367 30.4726 167.033 30.1393 168.933 28.906L169.967 22.3393C167.633 23.6393 166.4 24.2393 163.733 24.2393C159.767 24.2393 158 22.0393 158 20.1393C158 18.7726 159.167 15.206 164.133 15.206C164.833 15.2393 167.967 15.306 170.7 17.3393ZM151.367 4.63929C151.633 2.37263 150.133 0.605957 147.967 0.605957C145.7 0.605957 143.667 2.37263 143.333 4.63929C143 6.83929 144.567 8.60596 146.733 8.60596C148.933 8.60596 151.033 6.83929 151.367 4.63929ZM150.2 9.90596H142.267L139.267 29.7393H147.2L150.2 9.90596ZM132.4 29.8726L141.567 9.90596H133.567L129.2 19.406L127.833 9.90596H120.733L116.6 19.606L114.9 9.97263H107.1L107.333 11.1393C105.6 10.0393 103.233 9.63929 99.8 9.63929C93.8 9.63929 89.1333 12.7726 89.1333 17.6393C89.1333 22.1393 96.0333 22.6393 97.4 22.6393C98.5667 22.6393 98.9 22.7726 98.9 23.406C98.9 24.5726 97.2667 24.6393 96.1667 24.6393C93.7 24.6393 91.4 23.806 89.8667 22.6726L86.1667 28.1393C87.4 28.806 90.7333 30.7393 95.2 30.7393C106.667 30.7393 106.933 23.0726 106.933 22.206C106.933 17.4726 99.2 17.4726 98.0667 17.4726C97.1 17.4726 96.9 16.8726 96.9 16.6393C96.9 15.4726 98.6 15.2726 99.9667 15.2726C100.8 15.2726 104 15.6726 104.667 16.3726L107.5 12.1726L111.033 29.9726H118.7L122.933 19.706L124.433 29.906H132.4V29.8726ZM86.9 18.3726C86.9667 17.4726 89.1 9.60596 80.7667 9.60596C78.3667 9.60596 75.2333 10.706 74.1333 11.9393L74.2667 9.97263H66.4L63.4 29.9393H71.2667L72.9 19.606C73.0333 19.006 72.9667 15.5726 76.7333 15.5726C79.6 15.5726 79 18.8393 78.9333 19.3393L77.3 29.9393H85.1C85.0333 29.9393 86.9 18.3726 86.9 18.3726ZM62.1 22.006C62.3667 20.506 63.8667 10.0393 63.8667 10.0393H56.2L54.6333 20.5726C54.4333 21.5393 54.2333 24.3393 51.3667 24.3393C48.2333 24.3393 48.8333 20.906 48.9 20.7726C49.0333 19.6726 50.5333 10.0393 50.5333 10.0393H42.8333L41.3333 20.506C40.8 24.0726 39.9667 30.406 50.1333 30.406C60.2333 30.406 61.8333 23.5726 62.1 22.006ZM40.7667 17.206L41.7333 9.67263C37.1 8.70596 33.9333 11.6726 33.7333 11.9393L33.9333 10.0393H26.9667L23.9667 29.8726H31.7L33.1333 20.4393C33.4667 17.8393 36.1333 15.6393 40.7667 17.206ZM19.4667 14.606C24.8 10.8393 26.3 0.872625 15.0333 0.872625H4.36667L0 30.006H12.3667C25 30.006 26.8333 16.0393 19.4667 14.606ZM9.5 18.2393H13.4667C16.9333 18.2393 16.4 23.8393 13.1333 23.8393H8.76667L9.5 18.2393ZM13.4667 12.306H10.4667L11.2333 6.70596H13.8333C17.3333 6.67263 16.8 12.306 13.4667 12.306Z" fill="#061B2B"/>
</g>
<defs>
<clipPath id="clip0_416_2486">
<rect width="200" height="30" fill="white" transform="translate(0 0.605957)"/>
</clipPath>
</defs>
</svg>
