<svg width="64" height="65" viewBox="0 0 64 65" fill="none" xmlns="http://www.w3.org/2000/svg">
<g clip-path="url(#clip0_416_2481)">
<path d="M36.6072 60.3203H34.1463V57.3497H36.2286V54.7578H34.1463V52.195H36.3742V49.4721H30.8409V63.0432H36.6072V60.3203ZM10.7754 52.1659H11.8092V63.0432H15.1292V49.4429H7.46997V63.0432H10.7754V52.1659ZM6.33418 60.0727H3.64033V56.7818H5.92647V53.9424H3.64033V51.1029H6.1012V48.1324H0V63.0432H6.33418V60.0727ZM41.0484 57.3497H42.0823V63.0432H45.4023V49.4866H42.0823V54.3501H41.0484V49.4866H37.7284V63.0432H41.0484V57.3497ZM48.2854 63.0432H51.6054V52.2096H53.6003V49.4866H46.3342V52.2096H48.2854V63.0432ZM19.5704 49.4866H16.2505V63.0432H19.5704V49.4866ZM29.8944 60.0727H29.1227V48.1324H25.4823V60.0727H24.3611V48.1324H20.7208V63.0432H27.3753V64.5139H29.8944V60.0727ZM58.1725 55.0054C57.2115 55.0054 56.4106 54.219 56.4106 53.2434C56.4106 52.2824 57.1969 51.4815 58.1725 51.4815C59.1482 51.4815 59.9345 52.2678 59.9345 53.2434C59.9345 54.2045 59.1482 55.0054 58.1725 55.0054ZM61.5653 51.3941C61.478 50.9864 61.3178 50.6515 61.0703 50.3603C60.8227 50.0691 60.4587 49.8652 59.9636 49.705C59.4685 49.5594 58.7841 49.4721 57.8813 49.4721H54.5322V63.0432H57.8522V57.5682H58.755C59.4831 57.5682 60.0655 57.4662 60.5169 57.2478C60.9683 57.0294 61.2741 56.7382 61.4488 56.3304C61.609 55.9373 61.6964 55.3112 61.6964 54.4375V53.258C61.6964 52.428 61.6527 51.8019 61.5653 51.3941ZM58.4201 54.1171L58.0415 53.3891V54.1171H57.4882V52.3698H58.0415V53.1269L58.391 52.3698H59.0317L58.5511 53.2289L59.0899 54.1171H58.4201ZM58.1725 51.9038C57.4299 51.9038 56.8329 52.5008 56.8329 53.2434C56.8329 53.9861 57.4299 54.5831 58.1725 54.5831C58.9152 54.5831 59.5122 53.9861 59.5122 53.2434C59.5122 52.5008 58.9152 51.9038 58.1725 51.9038ZM62.9778 50.2729C62.9632 50.2875 62.9487 50.302 62.9341 50.3166C62.905 50.3312 62.8613 50.3312 62.8031 50.3312H62.5701V50.1128H62.8322C62.8904 50.1128 62.9341 50.1273 62.9632 50.1419C62.9924 50.1564 62.9924 50.1856 62.9924 50.2147C63.0069 50.2438 62.9924 50.2584 62.9778 50.2729ZM63.3418 50.9282L63.1671 50.6515C63.138 50.5933 63.0943 50.5642 63.0652 50.5205C63.1088 50.5059 63.1525 50.4768 63.1816 50.4477C63.2399 50.3894 63.269 50.3166 63.269 50.2292C63.269 50.1564 63.2545 50.0982 63.2253 50.0399C63.1962 49.9817 63.138 49.938 63.0797 49.9235C63.0215 49.9089 62.9487 49.8943 62.8467 49.8943H62.3225V51.0447H62.5846V50.5933H62.6866C62.7302 50.5933 62.7448 50.5933 62.7448 50.5933C62.7594 50.5933 62.7739 50.6078 62.7885 50.6078C62.8031 50.6078 62.8176 50.6224 62.8467 50.6661C62.8759 50.6952 62.905 50.7389 62.9487 50.7971L63.0797 51.0156L63.0943 51.0447H63.4001L63.3418 50.9282ZM62.7885 49.3992C62.206 49.3992 61.7255 49.8798 61.7255 50.4622C61.7255 51.0447 62.206 51.5252 62.7885 51.5252C63.3709 51.5252 63.8515 51.0447 63.8515 50.4622C63.8515 49.8652 63.3709 49.3992 62.7885 49.3992ZM63.633 50.4477C63.633 50.9136 63.2545 51.2922 62.7885 51.2922C62.3225 51.2922 61.9439 50.9136 61.9439 50.4477C61.9439 49.9817 62.3225 49.6031 62.7885 49.6031C63.2545 49.6177 63.633 49.9817 63.633 50.4477ZM30.2876 42.8175C21.2887 42.8175 13.9789 35.4932 13.9789 26.5088C13.9789 18.5001 19.7889 11.8164 27.419 10.4622V14.0298C27.419 14.9908 27.8704 15.8645 28.6276 16.4324V19.432H21.9003C21.1285 19.432 20.415 19.8252 20.0073 20.495C19.6141 21.1648 19.585 21.9948 19.949 22.6501L28.4383 38.8568C28.8169 39.5849 29.5741 40.0363 30.3895 40.0363C31.2195 40.0363 31.9621 39.5849 32.3407 38.8568L40.8446 22.6501C41.2086 21.9657 41.1795 21.1357 40.7717 20.4804C40.3786 19.8397 39.6505 19.432 38.8933 19.432H32.166V16.4324C32.9232 15.879 33.3746 14.9908 33.3746 14.0298V10.4913C40.9028 11.9329 46.5963 18.5729 46.5963 26.5088C46.5963 35.4932 39.2865 42.8175 30.2876 42.8175ZM33.3746 6.79277V3.50191C33.3746 1.85648 32.0349 0.51683 30.3895 0.51683C28.7441 0.51683 27.4044 1.85648 27.4044 3.50191V6.76365C17.7648 8.16153 10.3386 16.4761 10.3386 26.5088C10.3386 37.5172 19.2938 46.4579 30.2876 46.4579C41.296 46.4579 50.2366 37.5026 50.2366 26.5088C50.2366 16.5489 42.9123 8.27803 33.3746 6.79277Z" fill="#1B4A96"/>
</g>
<defs>
<clipPath id="clip0_416_2481">
<rect width="63.8486" height="64" fill="white" transform="translate(0 0.516846)"/>
</clipPath>
</defs>
</svg>
