<svg width="71" height="65" viewBox="0 0 71 65" fill="none" xmlns="http://www.w3.org/2000/svg">
<g clip-path="url(#clip0_416_2482)">
<path fill-rule="evenodd" clip-rule="evenodd" d="M70.7182 64.5166V0.516602H0V64.5166H70.7182Z" fill="#FAB617"/>
<path d="M59.2032 9.31592H43.9185C42.5468 9.31592 41.616 9.95547 40.4892 10.9394L15.0637 32.5859C14.9167 32.7335 14.9167 32.8319 14.9167 33.0287C14.9167 33.1763 14.9657 33.3239 15.0637 33.4715L41.1751 55.4132C41.9099 56.0035 42.8897 56.3971 43.9185 56.3971H59.1542C61.0648 56.3971 62.5835 54.872 62.5835 52.9533V12.8089C62.5835 10.9394 61.0648 9.31592 59.2032 9.31592Z" fill="#E30613"/>
<path d="M13.9859 34.7506C13.692 34.3078 13.2021 33.6683 13.2021 33.0287C13.2021 32.5367 13.3491 32.0448 13.594 31.6512L28.3888 11.087C28.5358 10.9394 28.5358 10.6934 28.5358 10.4474C28.5358 9.80788 28.0459 9.31592 27.409 9.31592H12.0753C10.2137 9.31592 8.69507 10.9394 8.69507 12.8089V52.9533C8.69507 54.872 10.2137 56.3971 12.0753 56.3971H27.409C28.0459 56.3971 28.5358 55.9051 28.5358 55.2656C28.5358 55.0196 28.4378 54.7736 28.3398 54.5276L13.9859 34.7506Z" fill="#E30613"/>
<path d="M54.7447 21.5157C52.6382 21.5157 51.463 22.5501 51.463 24.4195C51.463 26.3382 52.6382 27.4693 54.7447 27.4693C56.8513 27.4693 58.0265 26.3874 58.0265 24.4195C58.0265 22.5501 56.8513 21.5157 54.7447 21.5157ZM54.7447 22.8947C55.8715 22.8947 56.411 23.3864 56.411 24.4195C56.411 25.6003 55.8715 26.0925 54.7447 26.0925C53.618 26.0925 53.1274 25.5511 53.0784 24.4195C53.0784 23.3372 53.618 22.8947 54.7447 22.8947ZM51.8055 29.9289V35.7345H55.0387C56.9002 35.7345 57.8806 34.7498 57.8806 32.782C57.8806 30.8633 56.9982 29.9289 55.0387 29.9289H51.8055ZM53.4232 31.3566H55.0387C55.8715 31.3566 56.263 31.7488 56.263 32.782C56.263 33.8151 55.8715 34.3577 55.0387 34.3577H53.4232V31.3566ZM51.8057 13.3501H53.4223V15.7115L55.7738 13.3501H58.0273L55.137 16.2035L58.1743 19.0569H55.8718L53.4713 16.6955V19.0569H51.8057V13.3501ZM55.7738 52.363L53.3734 50.0016V52.363H51.8057V46.6562H53.4223V49.0177L55.7738 46.6562H57.9294L55.137 49.5096L58.1743 52.363H55.7738ZM53.8143 38.2428L51.3657 44.0483H53.0784L53.4718 43.0649H56.0685L56.4596 44.0483H58.2232L55.7746 38.2428H53.8143ZM54.7447 39.7676L55.5779 41.7853H53.9602L54.7447 39.7676Z" fill="#FAB617"/>
</g>
<defs>
<clipPath id="clip0_416_2482">
<rect width="70.7182" height="64" fill="white" transform="translate(0 0.516602)"/>
</clipPath>
</defs>
</svg>
