<svg width="200" height="42" viewBox="0 0 200 42" fill="none" xmlns="http://www.w3.org/2000/svg">
<path d="M37.1532 10.292C40.0729 10.365 39.9999 10.511 41.8977 9.27011C43.2846 8.3942 44.4524 7.59128 45.6933 6.64238C47.6641 5.25551 47.8101 4.59858 44.3795 3.86865C41.6057 3.21172 40.7298 2.99274 37.8101 4.67157C33.7225 7.00734 21.6787 15.4745 9.48895 27.1533C6.35026 27.7373 3.72252 28.9051 2.70063 29.6351C1.67873 30.365 1.60573 30.584 2.62763 32.0438C4.01449 34.0876 4.01449 34.0876 6.35026 32.9927C7.59114 32.4088 9.34296 31.3869 10.9488 30.146C17.8831 28.8322 33.4306 28.7592 52.5546 34.1606C54.2335 34.6716 54.7444 34.8906 53.5036 32.1898C52.3357 29.6351 52.4817 29.7811 49.124 28.9781C36.7882 25.9854 23.5765 25.5475 15.9853 26.2774C23.5765 19.927 29.5619 14.8176 37.1532 10.292ZM55.0364 6.05843C53.6495 6.4234 49.6349 7.66427 47.8831 8.17522C46.1313 8.75916 45.9123 8.75916 45.9853 10.438C46.0583 12.4818 46.2773 12.4818 47.4452 12.0438C48.686 11.6059 54.5254 9.78106 56.2043 9.27011C57.5181 8.90515 57.5181 8.54019 57.2992 7.29931C57.0802 5.47449 56.7882 5.62048 55.0364 6.05843ZM41.3138 13.2117C39.9999 14.2336 34.8174 18.7592 31.8247 22.1898C31.0218 23.1387 31.0218 22.8468 31.7517 25.1825C32.1167 26.2774 32.4816 27.9562 34.0145 26.1314C35.6203 24.3066 42.7736 18.3212 44.1605 17.2263C45.5473 16.1314 45.5473 15.9124 44.3795 13.7957C43.1386 11.5329 42.6276 12.1168 41.3138 13.2117ZM71.5327 14.3066C74.1605 13.2117 75.6203 15.4015 72.7736 16.0584C71.3138 16.4234 69.7809 16.7884 68.2481 16.9343C69.489 15.7665 70.8758 14.5256 71.5327 14.3066ZM69.27 3.21172C65.5473 3.4307 62.6276 5.47449 58.54 9.05113C56.6422 10.73 54.5984 12.6278 52.3357 14.8176C49.9269 14.1606 47.8101 13.5037 47.3722 13.2847C46.7152 12.9927 46.4233 13.0657 46.5692 14.0146C46.7882 15.3285 47.1532 16.6424 49.5619 17.7373C47.7371 19.6351 45.9123 21.6789 43.9415 24.0146C43.1386 24.9635 43.2116 25.0365 44.2335 26.6424C45.1824 28.1022 45.6933 27.8103 46.3503 27.2263C48.4671 25.0365 51.1678 22.0438 54.2335 19.0511C56.2043 19.4891 58.4671 19.7081 59.7809 19.927C59.27 20.584 58.759 21.2409 58.3211 21.8979C57.4452 23.1387 57.5911 24.0146 58.54 25.4745C59.416 26.9343 60.5838 28.1752 63.8685 26.8614C67.2262 25.5475 70.1459 23.5037 70.8028 22.4088C71.5327 21.3139 71.5327 21.0949 69.8539 21.6059C68.1021 22.1168 65.9123 23.1387 62.4087 23.6497C62.9196 22.7008 63.7955 21.5329 64.8904 20.365C67.8101 20.511 72.1167 20.438 75.6203 18.6862C77.8831 17.5913 77.4452 15.5475 76.1313 13.5767C74.8174 11.6059 73.5035 10.219 69.416 11.8978C67.0802 12.8468 64.7444 14.6716 62.5546 16.7884C60.9488 16.5694 58.686 16.3504 57.3722 16.0584C60.1459 13.5037 63.1386 11.0949 65.9853 9.4161C68.832 7.73727 70.3649 8.02924 70.9488 9.3431C71.3138 10.219 72.0437 10.511 72.7736 10C73.5035 9.4161 74.0875 8.32121 74.0145 7.22632C73.7955 4.59858 72.1897 3.06573 69.27 3.21172ZM160.292 14.8176C162.628 15.2555 159.489 17.1533 153.066 19.7811C154.89 17.0803 158.248 14.3796 160.292 14.8176ZM163.139 25.8395C164.817 24.7446 168.248 23.1387 170.292 21.9708C171.825 23.6497 169.343 25.1825 163.139 25.8395ZM129.854 4.81756C129.489 5.10953 127.737 6.86135 125.474 9.27011C122.482 9.70807 119.343 10.219 116.277 10.73C114.087 11.0949 114.525 11.5329 114.963 13.0657C115.328 14.3066 115.62 14.7446 116.934 14.4526C118.102 14.1606 119.27 13.9416 120.438 13.6497C116.496 15.9854 109.927 19.4161 104.16 22.7738C107.007 19.7811 109.416 17.5913 110.365 16.7154C111.314 15.9124 111.022 15.6205 110.073 14.0146C109.051 12.2628 108.978 11.7519 107.664 12.7738C106.35 13.7957 99.8539 20.657 96.3503 24.5256C95.4743 25.4745 95.7663 26.2774 97.0072 27.5183C98.2481 28.7592 98.467 29.1241 100.657 27.8833C102.774 26.7154 112.336 21.0219 117.956 17.1533C114.525 20.803 111.314 24.2336 109.927 25.7665C109.051 26.7154 109.27 27.0803 110.511 28.1752C111.752 29.3431 111.971 29.7811 114.16 28.5402C115.985 27.5183 126.204 20.438 132.409 15.9854C129.854 18.3942 126.642 21.6059 124.452 24.5256C123.65 25.5475 123.723 25.8395 124.89 27.2263C126.131 28.6132 126.35 28.6862 127.518 27.5913C128.613 26.4964 135.036 20.803 140.803 18.3942C138.102 22.1898 136.569 24.0876 135.693 25.1095C134.89 26.1314 135.255 26.6424 136.788 27.8833C138.102 28.9052 138.175 28.7592 139.781 27.7373C142.117 26.2774 144.817 25.1825 147.518 24.0876C147.664 25.9124 148.54 27.9562 150.219 27.9562C152.19 27.9562 159.781 23.6497 167.08 18.6132C167.664 19.3431 168.321 19.8541 168.905 20.365C166.131 21.6059 163.577 22.9197 161.825 23.8687C160.438 24.6716 160.219 24.5986 160.876 25.9854C161.533 27.3723 161.241 27.5183 162.336 27.6643C171.752 28.8322 175.474 25.8395 175.474 22.8468C175.474 21.5329 174.744 20.657 173.942 20C175.62 19.1971 178.029 18.3942 180.146 17.5913C180.876 20.365 184.306 20.584 184.598 22.4818C184.817 24.0876 179.635 24.7446 177.591 24.3796C175.547 24.0146 176.277 25.1825 177.518 26.2044C178.905 27.3723 179.197 28.1022 182.044 27.8833C186.131 27.5913 190.146 26.0584 190.146 23.4307C190.146 19.7811 185.912 18.3212 185.255 16.8614C184.671 15.6935 186.496 15.1095 188.686 15.4745C189.562 16.5694 189.343 16.5694 191.314 16.2044C192.19 16.0584 192.92 15.9124 193.358 15.8395C193.869 15.6935 193.796 15.6935 193.723 15.1095C193.65 14.8176 193.577 14.4526 193.431 13.8687C193.139 12.9197 193.139 12.7738 187.372 12.2628C183.723 11.9708 180.584 13.6497 180.219 16.2774C178.029 16.9343 175.036 17.8833 172.628 18.9051C170.073 16.7884 170.219 15.4745 173.066 15.4745C175.328 15.4745 176.642 15.6935 177.153 15.7665C178.321 15.9854 178.759 15.5475 178.54 14.1606C178.394 12.9927 178.394 12.9927 177.445 12.6278C176.569 12.2628 174.598 11.8978 173.577 11.8978C167.591 11.8978 165.328 14.7446 166.496 17.5183C163.431 19.3431 156.277 22.8468 154.598 23.5767C152.993 24.2336 152.117 24.8176 152.482 22.4818C157.007 20.9489 164.379 18.4672 164.379 16.2044C164.379 13.3577 161.971 12.5548 159.343 12.5548C153.285 12.5548 149.051 18.0292 147.956 21.8979C146.788 22.2628 145.036 22.7008 143.65 23.1387C144.598 21.8249 145.766 19.3431 146.423 17.7373C147.08 16.1314 147.08 16.1314 146.131 15.1825C145.182 14.2336 145.109 14.2336 144.16 14.4526C142.701 14.7446 139.708 16.1314 137.737 17.4453C139.051 16.1314 139.197 15.8395 139.781 15.1825C140.365 14.5256 140 14.0876 139.051 13.1387C137.956 12.0438 137.956 11.7519 137.153 12.2628C134.014 14.0146 125.766 18.9781 117.883 23.5037C119.781 21.5329 125.474 15.9854 129.27 12.2628C139.489 10.803 151.022 10.365 163.212 11.2409C165.255 11.3869 164.525 10.584 163.504 9.27011C162.482 7.95624 162.19 7.51829 160.438 7.44529C152.628 6.93435 143.358 7.22632 133.212 8.32121C133.65 7.73727 133.358 7.29931 132.555 6.05843C131.314 4.30661 131.168 3.79566 129.854 4.81756ZM117.956 6.3504C117.299 4.59858 117.226 4.59858 116.35 4.59858C104.963 4.59858 94.7444 5.76646 84.3795 7.66427C82.5546 8.02924 82.8466 8.32121 83.5035 9.78106C84.2335 11.2409 84.8174 11.3139 85.5473 11.1679C86.7882 10.9489 88.1751 10.73 89.6349 10.438C88.1751 11.7519 86.6422 13.2117 85.0364 14.7446C83.3576 14.9635 81.6787 15.2555 80.1459 15.5475C78.54 15.8395 78.759 15.9854 79.27 17.5913C79.7079 18.7592 79.9269 19.1971 80.5838 19.1241C80.6568 19.1241 80.7298 19.1241 80.8758 19.0511C77.5182 22.6278 74.3795 26.3504 72.1167 29.4161C71.3138 30.511 71.1678 31.0949 71.8977 33.0657C72.7736 35.4745 73.0656 35.5475 74.0875 34.2336C77.0072 30.365 82.6276 23.8687 88.1021 18.1022C91.6057 17.8103 95.4014 17.6643 100.146 17.8103C101.606 17.8833 101.606 17.2993 100.876 15.4015C100.219 13.7227 100.073 13.5767 99.124 13.5767C97.2992 13.5767 94.8904 13.7227 92.2627 13.9416C94.2335 11.9708 96.1313 10.292 97.7371 9.05113C100.657 8.68617 104.89 8.3942 108.029 8.3942C108.759 9.70807 109.197 9.70807 110.438 9.56208C111.679 9.4161 114.817 9.05113 116.642 8.68617C118.613 8.3942 118.686 8.17522 117.956 6.3504ZM92.0437 30.584C92.1897 30.584 92.4087 30.657 92.4087 31.0949C92.4087 31.4599 92.2627 31.6789 91.9707 31.6789C91.8247 31.6789 91.5327 31.6059 91.5327 31.1679C91.6057 30.657 91.8247 30.584 92.0437 30.584ZM92.4087 37.3723C92.1897 37.7373 91.6787 38.2482 91.3868 38.2482C91.0948 38.2482 90.9488 38.0292 90.9488 37.5913C90.9488 36.9343 91.3868 33.6497 91.4598 33.2847C91.2408 33.3577 91.0948 33.3577 90.8758 33.4307V33.2847L92.1897 32.7008C91.9707 33.7957 91.6057 36.8614 91.6057 37.4453C91.6057 37.6643 91.6787 37.7373 91.7517 37.7373C91.8247 37.7373 91.9707 37.5913 92.2627 37.2993L92.4087 37.3723ZM98.0291 37.5183C97.7371 37.8833 97.2992 38.2482 96.9342 38.2482C96.5692 38.2482 96.4962 37.8833 96.4962 37.4453C96.4962 36.7154 97.0072 34.0876 97.0072 33.7227C97.0072 33.5767 96.9342 33.5767 96.8612 33.5767C96.1313 33.5767 94.5254 36.5694 94.3065 38.1022L93.6495 38.1752C93.8685 36.4964 94.0875 34.8176 94.3065 33.3577C94.0875 33.4307 93.9415 33.4307 93.7225 33.5037V33.3577L95.1094 32.7738C94.8904 33.7227 94.7444 35.1095 94.5984 36.2774C95.0364 35.0365 96.3503 32.8468 97.2992 32.8468C97.5911 32.8468 97.7371 32.9927 97.7371 33.4307C97.7371 33.9416 97.1532 36.7884 97.1532 37.4453C97.1532 37.6643 97.2262 37.8103 97.3722 37.8103C97.5181 37.8103 97.7371 37.6643 97.8831 37.5183H98.0291ZM99.343 32.9197H99.8539L100.073 31.3869L100.803 31.0949L100.584 32.8468H101.533V33.2117H100.511C100.219 35.5475 100.073 36.4234 100.073 37.0803C100.073 37.5183 100.146 37.5913 100.365 37.5913C100.584 37.5913 100.803 37.3723 101.241 36.9343L101.387 37.0803C101.022 37.6643 100.657 38.1752 100.073 38.1752C99.7079 38.1752 99.416 37.8833 99.416 37.3723C99.416 36.7154 99.7809 34.1606 99.8539 33.2117H99.416L99.343 32.9197ZM104.306 33.2117C104.014 33.2117 103.869 33.2847 103.577 33.5037C103.139 33.9416 102.847 35.0365 102.774 35.7665C103.869 35.4745 104.744 34.5986 104.744 33.7227C104.744 33.3577 104.525 33.2117 104.306 33.2117ZM105.109 36.7884C104.671 37.4453 103.942 38.2482 103.139 38.2482C102.19 38.2482 101.971 37.3723 101.971 36.6424C101.971 34.4526 103.577 32.7008 104.671 32.7008C105.182 32.7008 105.401 33.0657 105.401 33.6497C105.401 34.8906 103.942 35.9124 102.701 36.2044C102.701 36.3504 102.701 36.5694 102.701 36.8614C102.701 37.5183 102.92 37.8833 103.358 37.8833C103.942 37.8833 104.598 37.2263 104.963 36.7884H105.109ZM106.35 33.2847L107.737 32.7008C107.591 33.5037 107.372 34.8176 107.299 35.1095C107.664 34.2336 108.321 32.7008 109.197 32.7008C109.343 32.7008 109.489 32.7008 109.635 32.7738L109.489 33.4307H109.27C108.467 33.4307 107.956 34.2336 107.518 35.3285C107.226 36.0584 107.007 37.4453 106.861 38.1022L106.204 38.1752C106.423 36.4964 106.642 34.8176 106.861 33.3577C106.642 33.4307 106.496 33.4307 106.277 33.5037L106.35 33.2847ZM110.73 37.5913C111.533 37.5913 112.92 33.9416 112.92 33.3577C112.92 33.2117 112.555 33.2117 112.336 33.2117C111.971 33.2117 111.606 33.2847 111.314 33.5767C110.73 34.2336 110.219 35.9125 110.219 36.7884C110.292 37.2993 110.438 37.5913 110.73 37.5913ZM113.942 37.5913C113.723 37.8103 113.285 38.2482 112.92 38.2482C112.482 38.2482 112.482 37.8833 112.482 37.4453C112.482 36.9343 112.628 35.9124 112.701 35.1095C112.336 36.2774 111.533 38.2482 110.511 38.2482C109.854 38.2482 109.635 37.5183 109.635 36.7884C109.635 34.6716 111.095 32.6278 112.628 32.6278C112.92 32.6278 113.139 32.7008 113.285 32.7738L113.723 32.5548C113.504 33.8687 113.212 36.3504 113.212 37.3723C113.212 37.5913 113.212 37.7373 113.358 37.7373C113.504 37.7373 113.723 37.5183 113.796 37.4453L113.942 37.5913ZM117.737 36.4234C117.518 37.0073 116.715 38.2482 115.839 38.2482C114.963 38.2482 114.671 37.2263 114.671 36.2044C114.671 34.4526 115.839 32.6278 117.299 32.6278C117.518 32.6278 117.664 32.6278 117.81 32.7008L117.664 33.2847C117.518 33.2847 117.299 33.2117 116.934 33.2117C116.423 33.2117 116.277 33.2847 115.985 33.6497C115.693 34.1606 115.328 35.2555 115.328 35.9854C115.328 36.7154 115.474 37.5183 115.985 37.5183C116.715 37.5183 117.299 36.7154 117.518 36.2774L117.737 36.4234ZM118.978 32.9197H119.489L119.708 31.3869L120.438 31.0949L120.219 32.8468H121.168V33.2117H120.146C119.854 35.5475 119.708 36.4234 119.708 37.0803C119.708 37.5183 119.781 37.5913 120 37.5913C120.219 37.5913 120.438 37.3723 120.876 36.9343L121.022 37.0803C120.657 37.6643 120.292 38.1752 119.708 38.1752C119.343 38.1752 119.051 37.8833 119.051 37.3723C119.051 36.7154 119.416 34.1606 119.489 33.2117H118.978V32.9197ZM123.139 30.584C123.285 30.584 123.504 30.657 123.504 31.0949C123.504 31.4599 123.358 31.6789 123.066 31.6789C122.92 31.6789 122.628 31.6059 122.628 31.1679C122.628 30.657 122.847 30.584 123.139 30.584ZM123.431 37.3723C123.212 37.7373 122.701 38.2482 122.409 38.2482C122.117 38.2482 121.971 38.0292 121.971 37.5913C121.971 36.9343 122.409 33.6497 122.482 33.2847C122.263 33.3577 122.117 33.3577 121.898 33.4307V33.2847L123.212 32.7008C122.993 33.7957 122.628 36.8614 122.628 37.4453C122.628 37.6643 122.701 37.7373 122.774 37.7373C122.847 37.7373 122.993 37.5913 123.285 37.2993L123.431 37.3723ZM124.16 33.2847L125.401 32.7008C125.401 34.3066 125.547 36.2774 125.766 37.4453C126.423 36.7154 127.445 34.8176 127.445 34.0146C127.445 33.6497 127.299 33.5767 126.861 33.2847L127.299 32.7008C127.664 32.7738 128.102 33.1387 128.102 33.5767C128.102 34.6716 126.423 37.1533 125.766 38.1752L125.255 38.3212C124.89 36.7884 124.671 34.0146 124.671 33.3577C124.525 33.4307 124.306 33.4307 124.16 33.5037V33.2847ZM130.876 33.2117C130.584 33.2117 130.438 33.2847 130.146 33.5037C129.708 33.9416 129.416 35.0365 129.343 35.7665C130.438 35.4745 131.314 34.5986 131.314 33.7227C131.314 33.3577 131.168 33.2117 130.876 33.2117ZM131.752 36.7884C131.314 37.4453 130.584 38.2482 129.781 38.2482C128.832 38.2482 128.613 37.3723 128.613 36.6424C128.613 34.4526 130.219 32.7008 131.314 32.7008C131.825 32.7008 132.044 33.0657 132.044 33.6497C132.044 34.8906 130.584 35.9124 129.343 36.2044C129.343 36.3504 129.343 36.5694 129.343 36.8614C129.343 37.5183 129.562 37.8833 130 37.8833C130.584 37.8833 131.241 37.2263 131.606 36.7884H131.752ZM135.474 32.9197C135.912 32.9197 136.131 32.7738 136.204 32.0438C136.35 30.365 137.226 29.8541 138.029 29.8541H138.248C138.248 30.073 138.175 30.292 138.175 30.511C138.029 30.511 137.81 30.438 137.664 30.438C137.226 30.438 137.08 30.657 137.007 31.5329L136.861 32.9197H137.956V33.3577H136.788L136.277 37.2993C135.985 39.4891 135.693 39.8541 134.598 40.219L134.525 40C135.182 39.7081 135.401 39.0511 135.547 37.7373C135.693 36.2774 135.912 34.7446 136.131 33.3577H135.547L135.474 32.9197ZM139.27 30.584C139.416 30.584 139.635 30.657 139.635 31.0949C139.635 31.4599 139.489 31.6789 139.197 31.6789C139.051 31.6789 138.759 31.6059 138.759 31.1679C138.759 30.657 139.051 30.584 139.27 30.584ZM139.562 37.3723C139.343 37.7373 138.832 38.2482 138.54 38.2482C138.248 38.2482 138.102 38.0292 138.102 37.5913C138.102 36.9343 138.54 33.6497 138.613 33.2847C138.394 33.3577 138.248 33.3577 138.029 33.4307V33.2847L139.343 32.7008C139.124 33.7957 138.759 36.8614 138.759 37.4453C138.759 37.6643 138.832 37.7373 138.905 37.7373C138.978 37.7373 139.124 37.5913 139.416 37.2993L139.562 37.3723ZM140.803 32.9197H141.314L141.533 31.3869L142.263 31.0949L142.044 32.8468H142.993V33.2117H141.971C141.679 35.5475 141.533 36.4234 141.533 37.0803C141.533 37.5183 141.606 37.5913 141.825 37.5913C142.044 37.5913 142.263 37.3723 142.701 36.9343L142.847 37.0803C142.482 37.6643 142.117 38.1752 141.533 38.1752C141.168 38.1752 140.876 37.8833 140.876 37.3723C140.876 36.7154 141.241 34.1606 141.314 33.2117H140.876L140.803 32.9197ZM148.321 37.5183C148.029 37.8833 147.591 38.2482 147.226 38.2482C146.861 38.2482 146.788 37.8833 146.788 37.4453C146.788 36.7154 147.299 34.0876 147.299 33.7227C147.299 33.5767 147.226 33.5767 147.153 33.5767C146.423 33.5767 144.817 36.5694 144.598 38.1022L143.942 38.1752C144.16 36.4964 144.379 34.8176 144.598 33.3577C144.379 33.4307 144.233 33.4307 144.015 33.5037V33.3577L145.401 32.7738C145.182 33.7227 145.036 35.1095 144.89 36.2774C145.328 35.0365 146.642 32.8468 147.591 32.8468C147.883 32.8468 148.029 32.9927 148.029 33.4307C148.029 33.9416 147.445 36.7884 147.445 37.4453C147.445 37.6643 147.518 37.8103 147.664 37.8103C147.81 37.8103 148.029 37.6643 148.175 37.5183H148.321ZM151.46 33.2117C151.168 33.2117 151.022 33.2847 150.73 33.5037C150.292 33.9416 150 35.0365 149.927 35.7665C151.022 35.4745 151.898 34.5986 151.898 33.7227C151.898 33.3577 151.752 33.2117 151.46 33.2117ZM152.336 36.7884C151.898 37.4453 151.168 38.2482 150.365 38.2482C149.416 38.2482 149.197 37.3723 149.197 36.6424C149.197 34.4526 150.803 32.7008 151.898 32.7008C152.409 32.7008 152.628 33.0657 152.628 33.6497C152.628 34.8906 151.168 35.9124 149.927 36.2044C149.927 36.3504 149.927 36.5694 149.927 36.8614C149.927 37.5183 150.146 37.8833 150.584 37.8833C151.168 37.8833 151.825 37.2263 152.19 36.7884H152.336ZM156.058 33.4307C155.766 33.3577 155.401 33.2117 154.963 33.2117C154.379 33.2117 153.796 33.3577 153.796 33.9416C153.796 34.7446 155.912 35.4745 155.912 36.4964C155.912 37.5183 154.89 38.2482 154.015 38.2482C153.65 38.2482 153.212 38.1752 152.92 37.9562L153.066 37.2993C153.358 37.4453 153.723 37.6643 154.233 37.6643C154.963 37.6643 155.401 37.3723 155.401 36.8614C155.401 35.9854 153.285 35.2555 153.285 34.3066C153.285 33.2847 154.306 32.7008 155.182 32.7008C155.474 32.7008 155.912 32.7738 156.058 32.8468V33.4307ZM159.781 33.4307C159.489 33.3577 159.124 33.2117 158.686 33.2117C158.102 33.2117 157.518 33.3577 157.518 33.9416C157.518 34.7446 159.635 35.4745 159.635 36.4964C159.635 37.5183 158.613 38.2482 157.737 38.2482C157.372 38.2482 156.934 38.1752 156.642 37.9562L156.788 37.2993C157.08 37.4453 157.445 37.6643 157.956 37.6643C158.686 37.6643 159.124 37.3723 159.124 36.8614C159.124 35.9854 157.007 35.2555 157.007 34.3066C157.007 33.2847 158.029 32.7008 158.905 32.7008C159.197 32.7008 159.635 32.7738 159.781 32.8468V33.4307ZM166.423 33.4307C166.131 33.3577 165.766 33.2117 165.328 33.2117C164.744 33.2117 164.16 33.3577 164.16 33.9416C164.16 34.7446 166.277 35.4745 166.277 36.4964C166.277 37.5183 165.255 38.2482 164.379 38.2482C164.014 38.2482 163.577 38.1752 163.285 37.9562L163.431 37.2993C163.723 37.4453 164.087 37.6643 164.598 37.6643C165.328 37.6643 165.766 37.3723 165.766 36.8614C165.766 35.9854 163.65 35.2555 163.65 34.3066C163.65 33.2847 164.671 32.7008 165.547 32.7008C165.839 32.7008 166.277 32.7738 166.423 32.8468V33.4307ZM168.759 37.8103C169.051 37.8103 169.27 37.7373 169.416 37.5183C170 36.9343 170.292 34.8906 170.292 34.3796C170.292 33.5037 169.927 33.1387 169.416 33.1387C168.905 33.1387 168.832 33.2847 168.467 34.0146C168.175 34.5986 167.883 35.6935 167.883 36.4234C167.883 37.1533 168.102 37.8103 168.759 37.8103ZM169.708 32.6278C170.657 32.6278 170.949 33.6497 170.949 34.4526C170.949 36.0584 170 38.2482 168.394 38.2482C167.518 38.2482 167.153 37.2993 167.153 36.5694C167.226 35.3285 168.029 32.6278 169.708 32.6278ZM173.577 37.3723C173.139 37.8833 172.701 38.2482 172.482 38.2482C172.263 38.2482 172.044 38.1022 172.044 37.5183C172.044 37.2263 172.044 36.7884 172.117 36.2774L172.847 30.365C172.628 30.438 172.482 30.511 172.263 30.511V30.365C172.628 30.219 173.212 30 173.577 29.7811L172.774 35.9124C172.701 36.2774 172.628 37.0803 172.628 37.3723C172.628 37.6643 172.701 37.7373 172.774 37.7373C172.847 37.7373 172.92 37.6643 173.358 37.2993L173.577 37.3723ZM179.124 37.4453C178.759 37.8103 178.467 38.2482 178.029 38.2482C177.737 38.2482 177.518 37.9562 177.518 37.3723C177.518 36.9343 177.591 36.0584 177.737 35.4015C176.934 37.3723 176.277 38.2482 175.474 38.2482C175.109 38.2482 174.817 37.9562 174.817 37.4453C174.817 36.3504 175.328 33.6497 175.328 33.2847C175.109 33.3577 174.963 33.3577 174.744 33.4307V33.2847L176.131 32.7008C175.839 33.7957 175.474 36.7884 175.474 37.2263C175.474 37.5183 175.547 37.5913 175.693 37.5913C176.642 37.5913 177.737 34.6716 178.029 32.9927L178.686 32.7738C178.467 34.0876 178.175 36.3504 178.175 37.3723C178.175 37.6643 178.175 37.7373 178.321 37.7373C178.467 37.7373 178.759 37.4453 178.905 37.2993L179.124 37.4453ZM180.365 32.9197H180.876L181.095 31.3869L181.825 31.0949L181.606 32.8468H182.555V33.2117H181.533C181.241 35.5475 181.095 36.4234 181.095 37.0803C181.095 37.5183 181.168 37.5913 181.387 37.5913C181.606 37.5913 181.825 37.3723 182.263 36.9343L182.409 37.0803C182.044 37.6643 181.679 38.1752 181.095 38.1752C180.73 38.1752 180.438 37.8833 180.438 37.3723C180.438 36.7154 180.803 34.1606 180.876 33.2117H180.438L180.365 32.9197ZM184.525 30.584C184.671 30.584 184.89 30.657 184.89 31.0949C184.89 31.4599 184.744 31.6789 184.452 31.6789C184.306 31.6789 184.015 31.6059 184.015 31.1679C184.015 30.657 184.306 30.584 184.525 30.584ZM184.817 37.3723C184.598 37.7373 184.087 38.2482 183.796 38.2482C183.504 38.2482 183.358 38.0292 183.358 37.5913C183.358 36.9343 183.796 33.6497 183.869 33.2847C183.65 33.3577 183.504 33.3577 183.285 33.4307V33.2847L184.598 32.7008C184.379 33.7957 184.015 36.8614 184.015 37.4453C184.015 37.6643 184.087 37.7373 184.16 37.7373C184.233 37.7373 184.379 37.5913 184.671 37.2993L184.817 37.3723ZM187.08 37.8103C187.372 37.8103 187.591 37.7373 187.737 37.5183C188.321 36.9343 188.613 34.8906 188.613 34.3796C188.613 33.5037 188.248 33.1387 187.737 33.1387C187.226 33.1387 187.153 33.2847 186.788 34.0146C186.496 34.5986 186.204 35.6935 186.204 36.4234C186.204 37.1533 186.496 37.8103 187.08 37.8103ZM188.029 32.6278C188.978 32.6278 189.27 33.6497 189.27 34.4526C189.27 36.0584 188.321 38.2482 186.715 38.2482C185.839 38.2482 185.474 37.2993 185.474 36.5694C185.547 35.3285 186.423 32.6278 188.029 32.6278ZM194.89 37.5183C194.598 37.8833 194.16 38.2482 193.796 38.2482C193.431 38.2482 193.358 37.8833 193.358 37.4453C193.358 36.7154 193.869 34.0876 193.869 33.7227C193.869 33.5767 193.796 33.5767 193.723 33.5767C192.993 33.5767 191.387 36.5694 191.168 38.1022L190.511 38.1752C190.73 36.4964 190.949 34.8176 191.168 33.3577C190.949 33.4307 190.803 33.4307 190.584 33.5037V33.3577L191.971 32.7738C191.752 33.7227 191.606 35.1095 191.46 36.2774C191.898 35.0365 193.212 32.8468 194.16 32.8468C194.452 32.8468 194.598 32.9927 194.598 33.4307C194.598 33.9416 194.014 36.7884 194.014 37.4453C194.014 37.6643 194.088 37.8103 194.233 37.8103C194.379 37.8103 194.598 37.6643 194.744 37.5183H194.89ZM198.759 33.4307C198.467 33.3577 198.102 33.2117 197.664 33.2117C197.08 33.2117 196.496 33.3577 196.496 33.9416C196.496 34.7446 198.613 35.4745 198.613 36.4964C198.613 37.5183 197.591 38.2482 196.715 38.2482C196.35 38.2482 195.912 38.1752 195.62 37.9562L195.766 37.2993C196.058 37.4453 196.423 37.6643 196.934 37.6643C197.664 37.6643 198.102 37.3723 198.102 36.8614C198.102 35.9854 195.985 35.2555 195.985 34.3066C195.985 33.2847 197.007 32.7008 197.883 32.7008C198.175 32.7008 198.613 32.7738 198.759 32.8468V33.4307Z" fill="#231F20"/>
<path d="M36.7884 8.61318C39.7081 8.68617 39.6351 8.83216 41.533 7.59128C42.9198 6.71537 44.0877 5.91245 45.3286 4.96354C47.2264 3.57668 47.4454 2.99274 44.0147 2.18982C41.241 1.53289 40.3651 1.31391 37.4454 2.99274C33.3578 5.32851 21.314 13.7227 9.0512 25.4745C5.91252 26.0584 3.28478 27.2263 2.26288 27.9562C1.24098 28.6862 1.16799 28.9051 2.18989 30.365C3.57675 32.4088 3.57675 32.4818 5.83952 31.3869C7.0804 30.803 8.83222 29.7811 10.4381 28.5402C17.3724 27.2263 32.9198 27.1533 52.0439 32.5548C53.7227 33.0657 54.2337 33.2847 52.9928 30.584C51.8249 28.0292 51.9709 28.1752 48.6132 27.3723C36.2775 24.3796 23.0658 23.9416 15.4746 24.6716C23.1388 18.2482 29.1242 13.1387 36.7884 8.61318ZM54.5986 4.45259C53.2118 4.81756 49.1972 5.98544 47.4454 6.56938C45.6935 7.15332 45.5476 7.15332 45.6205 8.83216C45.6935 10.876 45.9125 10.876 47.0804 10.438C48.3213 10 54.1607 8.17522 55.8395 7.66427C57.1534 7.29931 57.1534 6.93435 56.9344 5.69347C56.6424 3.86865 56.3505 3.94165 54.5986 4.45259ZM40.876 11.5329C39.5622 12.5548 34.3797 17.0803 31.387 20.511C30.584 21.4599 30.5841 21.1679 31.314 23.5037C31.6789 24.5986 32.0439 26.2774 33.5768 24.4526C35.1826 22.6278 42.3359 16.6424 43.7227 15.5475C45.1096 14.4526 45.1096 14.2336 43.9417 12.1168C42.7008 9.85405 42.1899 10.511 40.876 11.5329ZM71.095 12.6278C73.7227 11.5329 75.1826 13.7227 72.3359 14.3796C70.876 14.7446 69.3432 15.1095 67.8103 15.2555C69.1242 14.0876 70.5111 12.9197 71.095 12.6278ZM68.8322 1.60588C65.1096 1.82486 62.1899 3.86865 58.1023 7.44529C56.2045 9.12413 54.1607 11.0219 51.8979 13.2117C49.4892 12.5548 47.3724 11.8978 46.9344 11.6789C46.2775 11.3869 45.9855 11.4599 46.1315 12.4088C46.3505 13.7227 46.7154 15.0365 49.1242 16.1314C47.2994 18.0292 45.4746 20.073 43.5038 22.4088C42.7008 23.3577 42.7738 23.4307 43.7957 25.0365C44.7446 26.4964 45.2556 26.2044 45.9125 25.6205C48.0293 23.4307 50.73 20.438 53.7957 17.4453C55.7665 17.8832 58.0293 18.1022 59.3432 18.3212C58.8322 18.9781 58.3213 19.6351 57.8833 20.292C57.0074 21.5329 57.1534 22.4088 58.1023 23.8687C58.9782 25.3285 60.1461 26.5694 63.4308 25.2555C66.7884 23.9416 69.7081 21.8978 70.3651 20.803C71.095 19.7081 71.095 19.4891 69.4162 20C67.6643 20.511 65.4746 21.5329 61.9709 22.0438C62.4819 21.0949 63.3578 19.927 64.4527 18.7592C67.3724 18.9051 71.6789 18.8322 75.1826 17.0803C77.4454 15.9854 77.0074 13.9416 75.6935 11.9708C74.3797 10 73.0658 8.61318 68.9782 10.292C66.6424 11.2409 64.3067 13.0657 62.1169 15.1825C60.5111 14.9635 58.2483 14.7446 56.9344 14.4526C59.7081 11.8978 62.7008 9.48909 65.5476 7.81026C68.3943 6.13143 69.9271 6.4234 70.5111 7.73727C70.876 8.61318 71.6059 8.90515 72.3359 8.3942C73.0658 7.81026 73.6497 6.71537 73.5768 5.62048C73.3578 2.91975 71.7519 1.3869 68.8322 1.60588ZM159.854 13.1387C162.19 13.5767 159.051 15.4745 152.628 18.1022C154.453 15.4015 157.81 12.7738 159.854 13.1387ZM162.701 24.1606C164.38 23.0657 167.81 21.4599 169.854 20.292C171.387 21.9708 168.905 23.5767 162.701 24.1606ZM129.489 3.13873C129.124 3.4307 127.372 5.18252 125.11 7.59128C122.117 8.02924 118.978 8.54018 115.913 9.05113C113.723 9.4161 114.161 9.85405 114.599 11.3869C114.964 12.6278 115.256 13.0657 116.569 12.7738C117.737 12.4818 118.905 12.2628 120.073 11.9708C116.059 14.3066 109.489 17.8103 103.723 21.1679C106.569 18.1752 108.978 15.9854 109.927 15.1095C110.876 14.3066 110.584 14.0146 109.635 12.4088C108.613 10.657 108.54 10.146 107.226 11.1679C105.913 12.1898 99.4162 19.0511 95.9125 22.9197C95.0366 23.8687 95.3286 24.6716 96.5695 25.9124C97.8103 27.1533 98.0293 27.5183 100.219 26.2774C102.336 25.1095 111.898 19.4161 117.518 15.5475C114.088 19.1971 110.876 22.6278 109.489 24.1606C108.613 25.1095 108.832 25.4745 110.073 26.5694C111.314 27.7373 111.533 28.1752 113.723 26.9343C115.548 25.9124 125.767 18.8322 131.971 14.3796C129.416 16.7884 126.204 20 124.015 22.9197C123.212 23.9416 123.285 24.2336 124.453 25.6205C125.694 27.0073 125.913 27.0803 127.08 25.9854C128.175 24.8905 134.599 19.1971 140.365 16.7884C137.664 20.584 136.132 22.4818 135.256 23.5037C134.453 24.5256 134.818 25.0365 136.35 26.2774C137.664 27.2993 137.737 27.1533 139.343 26.1314C141.679 24.6716 144.38 23.5767 147.08 22.4818C147.226 24.3066 148.102 26.3504 149.781 26.3504C151.752 26.3504 159.343 22.0438 166.642 17.0073C167.226 17.7373 167.883 18.2482 168.467 18.7592C165.694 20 163.139 21.3139 161.387 22.2628C160 23.0657 159.781 22.9927 160.438 24.3796C161.095 25.7665 160.803 25.9124 161.898 26.0584C171.314 27.2263 175.037 24.2336 175.037 21.2409C175.037 19.927 174.307 19.0511 173.504 18.3942C175.183 17.5913 177.591 16.7884 179.708 15.9854C180.438 18.7592 183.869 18.9781 184.161 20.8759C184.38 22.4818 179.197 23.1387 177.153 22.7738C175.11 22.4088 175.84 23.5767 177.08 24.5986C178.467 25.7665 178.759 26.4964 181.606 26.2774C185.694 25.9854 189.708 24.4526 189.708 21.8249C189.708 18.1752 185.475 16.7154 184.818 15.2555C184.234 14.0876 186.059 13.5037 188.248 13.8687C189.124 14.9635 188.905 14.9635 190.876 14.5986C191.752 14.4526 192.482 14.3066 192.92 14.2336C193.431 14.0876 193.358 14.0876 193.285 13.5037C193.212 13.2117 193.139 12.8468 192.993 12.2628C192.701 11.3139 192.701 11.1679 186.934 10.657C183.285 10.365 180.146 12.0438 179.781 14.6716C177.591 15.3285 174.599 16.2774 172.19 17.2993C169.635 15.1825 169.781 13.8687 172.628 13.8687C174.891 13.8687 176.204 14.0876 176.715 14.1606C177.883 14.3796 178.321 13.9416 178.102 12.5548C177.956 11.3869 177.956 11.3869 177.007 11.0219C176.132 10.657 174.161 10.292 173.139 10.292C167.153 10.292 164.891 13.1387 166.059 15.9124C162.993 17.7373 155.84 21.2409 154.161 21.9708C152.555 22.6278 151.679 23.2117 152.044 20.8759C156.569 19.3431 163.942 16.8614 163.942 14.5986C163.942 11.7519 161.533 10.9489 158.905 10.9489C152.847 10.9489 148.613 16.4234 147.518 20.292C146.35 20.657 144.599 21.0949 143.212 21.5329C144.161 20.219 145.329 17.7373 145.986 16.1314C146.642 14.5256 146.642 14.5256 145.694 13.5767C144.745 12.6278 144.672 12.6278 143.723 12.8468C142.263 13.1387 139.27 14.5256 137.299 15.8395C138.613 14.5256 138.759 14.2336 139.343 13.5767C139.927 12.9197 139.562 12.4818 138.613 11.5329C137.518 10.438 137.518 10.146 136.715 10.657C133.577 12.4088 125.329 17.3723 117.445 21.8978C119.343 19.927 125.037 14.3796 128.832 10.657C139.051 9.19712 150.584 8.75916 162.774 9.63508C164.818 9.78106 164.088 8.97814 163.066 7.66427C162.044 6.3504 161.752 5.91245 160 5.83946C152.19 5.32851 142.92 5.62048 132.774 6.71537C133.212 6.13143 132.92 5.69347 132.117 4.45259C130.876 2.62778 130.73 2.11683 129.489 3.13873ZM117.518 4.67157C116.861 2.91975 116.788 2.91975 115.913 2.91975C104.526 2.91975 94.3067 4.08763 83.9417 5.98544C82.1169 6.3504 82.4089 6.64238 83.0658 8.10223C83.7957 9.56208 84.3797 9.63508 85.1096 9.48909C86.3505 9.27011 87.7373 9.05113 89.1972 8.75916C87.7373 10.073 86.2045 11.5329 84.5986 13.0657C82.9198 13.2847 81.241 13.5767 79.7081 13.8687C78.1023 14.1606 78.3213 14.3066 78.8322 15.9124C79.2702 17.0803 79.4892 17.5183 80.1461 17.4453C80.2191 17.4453 80.2921 17.4453 80.4381 17.3723C77.0804 20.9489 73.9417 24.6716 71.6789 27.7373C70.876 28.8322 70.73 29.4161 71.46 31.3869C72.3359 33.7957 72.6278 33.8686 73.6497 32.5548C76.5695 28.6862 82.1899 22.1898 87.6643 16.4234C91.168 16.1314 94.9636 15.9854 99.7081 16.1314C101.168 16.2044 101.168 15.6205 100.438 13.7227C99.7811 12.0438 99.6351 11.8978 98.6862 11.8978C96.8614 11.8978 94.4527 12.0438 91.8249 12.2628C93.7957 10.292 95.6935 8.61318 97.2994 7.3723C100.219 7.00734 104.453 6.71537 107.591 6.71537C108.321 8.02924 108.759 8.02924 110 7.88325C111.241 7.73727 114.38 7.3723 116.204 7.00734C118.175 6.71537 118.248 6.56938 117.518 4.67157Z" fill="#EE293D"/>
</svg>
