<svg width="200" height="36" viewBox="0 0 200 36" fill="none" xmlns="http://www.w3.org/2000/svg">
<g clip-path="url(#clip0_416_2485)">
<path d="M71.4004 8.66784V27.3003H86.3342V24.0587L75.5143 24.0869V19.4922H86.3342V16.2505L75.5143 16.2223V11.9095H86.3342V8.66784H71.4004ZM104.959 27.3003V8.63965H108.904V27.3003H104.959ZM53.5081 8.63965L58.1573 23.213L63.0601 8.63965H68.8363V27.3003H65.0606V13.3189L60.186 27.3003H56.1003L51.5075 13.3189V27.3003H47.7036V8.63965H53.5081ZM93.5475 11.9659H87.6022V8.63965H103.691V11.9659H97.4923V27.3003H93.5475V11.9659ZM149.761 8.66784V27.3003H164.694V24.0587H153.874V19.4922H164.694V16.2505L153.874 16.2223V11.9095H164.694V8.66784H149.761ZM189.856 11.9659H183.911V8.63965H200V11.9659H193.801V27.3003H189.856V11.9659ZM124.148 22.0291L116.484 8.63965H111.524V27.3003H115.554L115.385 13.178L123.415 27.3003H127.952V8.63965H123.95L124.148 22.0291ZM138.912 22.5365L133.333 8.63965H128.853L136.996 27.3003H141.082L148.831 8.63965H144.661L138.912 22.5365ZM177.458 16.4478H172.274C170.64 16.4478 169.823 15.7713 169.823 14.4183C169.823 12.727 170.752 11.9659 172.837 11.9659H182.53V8.63965H172.274C169.992 8.63965 168.329 9.09066 167.315 10.0209C166.244 10.9229 165.737 12.3887 165.737 14.3619C165.737 18.0827 167.653 19.7177 171.964 19.7177H176.613C178.642 19.7177 179.375 20.3096 179.375 21.86C179.375 23.3822 178.557 23.9741 176.331 23.9741H166.498V27.3003H176.951C181.46 27.3003 183.488 25.5527 183.488 21.6909C183.488 19.8022 183.038 18.4492 182.108 17.6599C181.15 16.8425 179.6 16.4478 177.458 16.4478Z" fill="black"/>
<path d="M29.1351 1.90266C29.1351 1.90266 26.6837 0.887882 26.3456 0.746941C26.0075 0.605999 25.6693 0.57781 25.303 0.662376C24.9367 0.746941 24.6831 0.944259 24.5422 1.0852C24.4014 1.22614 19.1323 6.49736 19.1323 6.49736C19.1323 6.49736 13.9195 1.28252 13.7505 1.11339C13.5814 0.944259 13.3842 0.775129 12.9615 0.662376C12.5389 0.549622 12.1726 0.634187 11.9472 0.746941C11.7217 0.831506 9.46758 1.78991 9.15763 1.90266C8.84769 2.01542 8.56592 2.26911 8.36868 2.57918C8.2278 2.83288 8.11509 3.11476 8.11509 3.45302C8.11509 3.14295 8.11509 10.782 8.11509 10.782L12.9615 13.5726V7.20207L15.2157 9.45714C15.3847 9.62627 15.582 9.73902 15.8074 9.82359C15.9765 9.87996 16.1173 9.93634 16.3709 9.93634C16.6245 9.93634 21.8654 9.93634 21.8654 9.93634C22.0627 9.93634 22.2599 9.90815 22.429 9.82359C22.6262 9.73902 22.8235 9.62627 23.0489 9.40076C23.2743 9.17525 25.2748 7.17388 25.2748 7.17388V13.5444L30.1213 10.7538C30.1213 10.7538 30.1213 4.21411 30.1213 3.48121C30.1495 2.72012 29.7268 2.15636 29.1351 1.90266ZM0.0283022 17.6881C0.0283022 17.6881 0.366426 20.3096 0.42278 20.6761C0.479133 21.0425 0.620018 21.3526 0.873611 21.6345C1.1272 21.9164 1.43715 22.0291 1.63439 22.0855C1.83163 22.1419 9.01675 24.0587 9.01675 24.0587C9.01675 24.0587 7.10072 31.1903 7.04436 31.3877C6.98801 31.6132 6.93166 31.8669 7.04436 32.2897C7.15707 32.7125 7.43884 32.9944 7.63608 33.1353C7.83332 33.2763 9.77753 34.7703 10.0311 34.9676C10.2847 35.1649 10.651 35.3058 11.0173 35.3058C11.2991 35.3058 11.609 35.2495 11.8908 35.0803C11.609 35.2495 18.2306 31.4159 18.2306 31.4159V25.8064L12.7079 28.9917L13.5251 25.8909C13.5814 25.6654 13.5814 25.4399 13.5532 25.1862C13.5251 24.9889 13.4969 24.8762 13.356 24.6225C13.2151 24.397 10.5947 19.8586 10.5947 19.8586C10.482 19.6895 10.3692 19.5486 10.2284 19.4358C10.0593 19.2949 9.86206 19.1821 9.55211 19.0975C9.27034 19.013 6.509 18.2801 6.509 18.2801L12.0317 15.0948L7.18525 12.3042C7.18525 12.3042 1.52168 15.574 0.873611 15.9405C0.225541 16.3633 -0.0562286 17.0398 0.0283022 17.6881ZM28.2334 34.9958C28.2334 34.9958 30.3467 33.389 30.6285 33.1635C30.9102 32.938 31.1075 32.6561 31.2202 32.3179C31.3329 31.9514 31.2765 31.6414 31.2484 31.444C31.192 31.2467 29.276 24.0587 29.276 24.0587C29.276 24.0587 36.4047 22.1419 36.6302 22.0855C36.8556 22.0291 37.1092 21.9446 37.4191 21.6345C37.7291 21.3244 37.8418 20.958 37.8699 20.7043C37.8981 20.4506 38.2081 18.0264 38.2644 17.7163C38.3208 17.3781 38.2644 17.0116 38.0672 16.7015C37.9263 16.4478 37.7291 16.2223 37.4473 16.0532C37.7291 16.2223 31.1075 12.3887 31.1075 12.3887L26.261 15.1794L31.7837 18.3647L28.6843 19.1821C28.4588 19.2385 28.2616 19.3512 28.0644 19.4922C27.9235 19.6049 27.8108 19.7177 27.6981 19.9432C27.5572 20.1687 24.9367 24.707 24.9367 24.707C24.8522 24.8762 24.7677 25.0453 24.7395 25.2426C24.7113 25.4681 24.7113 25.6936 24.7958 25.9755C24.8804 26.2574 25.613 29.0198 25.613 29.0198L20.0903 25.8346V31.444C20.0903 31.444 25.7539 34.7139 26.4019 35.0803C27.0218 35.475 27.7262 35.3904 28.2334 34.9958Z" fill="#ED1C24"/>
</g>
<defs>
<clipPath id="clip0_416_2485">
<rect width="200" height="34.728" fill="white" transform="translate(0 0.605957)"/>
</clipPath>
</defs>
</svg>
