<svg width="64" height="82" viewBox="0 0 64 82" fill="none" xmlns="http://www.w3.org/2000/svg">
<g clip-path="url(#clip0_416_2490)">
<path d="M50.372 51.5786L47.9569 49.1635L53.3046 43.8158L55.7197 46.2309L50.372 51.5786ZM21.0458 55.0287V50.5436H43.2992V55.0287H21.0458ZM11.0404 12.0746L8.45283 9.65946L13.8005 4.31175L16.2156 6.72684L11.0404 12.0746ZM18.1132 8.79693L20.5283 11.212L15.3531 16.5597L12.938 14.1446L18.1132 8.79693ZM19.6658 20.8724L17.2507 18.4573L22.5984 13.1096L25.0135 15.5247L19.6658 20.8724ZM38.9865 19.1473L35.7089 22.425L32.0863 18.8023L28.4636 22.425L25.186 19.1473L32.0863 12.2471L38.9865 19.1473ZM41.7466 13.1096L47.0943 18.4573L44.6792 20.8724L39.3315 15.5247L41.7466 13.1096ZM47.9569 6.89935L50.372 4.48426L55.7197 9.83197L53.3046 12.0746L47.9569 6.89935ZM51.407 13.9721L48.9919 16.3872L43.6442 11.0395L46.0593 8.62442L51.407 13.9721ZM43.6442 44.8508L48.9919 39.5031L51.407 41.9182L46.0593 47.2659L43.6442 44.8508ZM28.8086 40.3657L25.186 36.743L28.4636 33.4654L32.0863 37.088L35.7089 33.4654L38.9865 36.743L35.3639 40.3657L42.7817 47.7835H21.3908L28.8086 40.3657ZM25.0135 40.3657L22.5984 42.7808L17.2507 37.433L19.6658 35.018L25.0135 40.3657ZM30.1887 27.9452L28.4636 29.6702L26.7385 27.9452L28.4636 26.2201L30.1887 27.9452ZM32.0863 33.2929L30.3612 31.5678L32.0863 29.8427L33.8113 31.5678L32.0863 33.2929ZM37.434 27.9452L35.7089 29.6702L33.9838 27.9452L35.7089 26.2201L37.434 27.9452ZM39.3315 40.3657L44.6792 35.018L47.0943 37.433L41.7466 42.7808L39.3315 40.3657ZM43.2992 23.2875V32.6029L41.0566 34.8454L37.6065 31.5678L41.2291 27.9452L37.6065 24.3225L40.8841 21.0449L43.2992 23.2875ZM32.0863 22.5975L33.8113 24.3225L32.0863 26.0476L30.3612 24.3225L32.0863 22.5975ZM23.2884 21.0449L26.566 24.3225L22.9434 27.9452L26.566 31.5678L23.2884 34.8454L21.0458 32.6029V23.2875L23.2884 21.0449ZM16.3881 49.1635L13.973 51.5786L8.45283 46.2309L10.8679 43.8158L16.3881 49.1635ZM12.938 41.9182L15.3531 39.5031L20.7008 44.8508L18.2857 47.2659L12.938 41.9182ZM59.5148 46.2309L45.8868 32.6029V23.2875L59.5148 9.65946L50.372 0.516602L37.2615 13.6271L32.0863 8.45191L26.9111 13.6271L13.8005 0.516602L6.21024 8.27941L4.65768 9.65946L18.2857 23.2875V32.6029L4.65768 46.2309L13.8005 55.3737L18.2857 50.8886V57.7888H45.8868V50.8886L50.372 55.3737L59.5148 46.2309ZM5.34771 81.7673C3.45013 81.7673 1.72507 81.7673 0 81.7673C0 75.902 0 69.8643 0 63.9991C1.55256 63.9991 3.10512 63.9991 4.65768 63.9991C5.1752 63.9991 5.52022 64.1716 5.86523 64.6891C7.24528 66.7592 8.62534 68.6568 10.0054 70.5543C10.1779 70.7268 10.1779 70.8994 10.3504 71.0719C10.5229 70.8994 10.5229 70.7268 10.6954 70.5543C12.0755 68.4843 13.628 66.4142 15.0081 64.3441C15.1806 63.9991 15.3531 63.9991 15.6981 63.9991C17.2507 63.9991 18.6307 63.9991 20.1833 63.9991C20.3558 63.9991 20.5283 63.9991 20.7008 63.9991C20.7008 69.8643 20.7008 75.7295 20.7008 81.7673C18.9757 81.7673 17.2507 81.7673 15.3531 81.7673C15.3531 78.4896 15.3531 75.3845 15.3531 72.1069C15.3531 72.1069 15.3531 72.1069 15.1806 72.1069C15.0081 72.2794 15.0081 72.4519 14.8356 72.4519C13.4555 74.3495 12.0755 76.4196 10.6954 78.3171C10.3504 78.8347 10.0054 78.8347 9.66038 78.3171C8.28032 76.4196 6.90027 74.522 5.52022 72.4519C5.34771 72.2794 5.34771 72.1069 5.1752 71.9344C5.34771 75.212 5.34771 78.4896 5.34771 81.7673ZM45.0243 81.7673C46.9218 81.7673 48.6469 81.7673 50.5445 81.7673C50.5445 77.4546 50.5445 73.1419 50.5445 68.6568C53.1321 68.6568 55.7197 68.6568 58.4798 68.6568C58.4798 72.9694 58.4798 77.2821 58.4798 81.7673C60.3774 81.7673 62.2749 81.7673 64 81.7673C64 75.902 64 70.0368 64 63.9991C57.6173 63.9991 51.407 63.9991 45.0243 63.9991C45.0243 69.8643 45.0243 75.902 45.0243 81.7673ZM42.7817 63.9991C42.6092 63.9991 42.6092 63.9991 42.4367 63.9991C40.5391 63.9991 38.6415 63.9991 36.7439 63.9991C36.5714 63.9991 36.2264 64.1716 36.2264 64.3441C35.1914 65.5516 34.1563 66.9317 33.2938 68.1393C33.1213 68.3118 33.1213 68.3118 32.9488 68.4843C31.7412 66.9317 30.7062 65.5517 29.6712 64.1716C29.4987 63.9991 29.3261 63.8266 28.9811 63.8266C27.0836 63.8266 25.3585 63.8266 23.4609 63.8266C23.2884 63.8266 23.2884 63.8266 23.1159 63.8266C23.2884 63.9991 23.2884 64.1716 23.4609 64.3441C25.531 66.9317 27.4286 69.5193 29.4987 72.1069C29.8437 72.4519 29.6712 72.6244 29.4987 72.9694C27.4286 75.7295 25.3585 78.3171 23.2884 81.0773C23.1159 81.2498 23.1159 81.4223 22.9434 81.5948C25.0135 81.5948 27.0836 81.5948 28.9811 81.5948C29.1536 81.5948 29.3261 81.4223 29.4987 81.2498C30.5337 79.8697 31.5687 78.4897 32.7763 77.1096C32.9488 76.9371 32.9488 76.7646 33.1213 76.5921C33.2938 76.7646 33.4663 76.9371 33.4663 77.1096C34.5014 78.4897 35.5364 79.8697 36.5714 81.2498C36.7439 81.4223 36.9164 81.5948 37.2615 81.5948C38.9865 81.5948 40.8841 81.5948 42.6092 81.5948C42.7817 81.5948 42.9542 81.5948 43.1267 81.5948C40.7116 78.4897 38.469 75.557 36.2264 72.6244C38.2965 69.6918 40.5391 66.9317 42.7817 63.9991Z" fill="#033C5A"/>
</g>
<defs>
<clipPath id="clip0_416_2490">
<rect width="64" height="81.2507" fill="white" transform="translate(0 0.516602)"/>
</clipPath>
</defs>
</svg>
