<svg width="162" height="65" viewBox="0 0 162 65" fill="none" xmlns="http://www.w3.org/2000/svg">
<g clip-path="url(#clip0_416_2484)">
<path d="M66.7072 1.84721C59.4082 2.03645 54.299 7.0376 51.893 9.98423C51.893 9.98423 51.7849 10.1194 51.7038 10.2275C51.5416 10.1735 51.4064 10.1194 51.4064 10.1194C46.4053 8.30816 40.7553 7.98377 35.0513 9.11916C29.5906 10.2546 21.6969 13.066 16.0199 17.6887C5.99055 25.7987 0.692033 35.5306 1.1516 45.1545C1.42193 50.7233 3.96306 55.5353 8.55871 59.0766C16.074 64.8888 28.5092 63.5641 33.5104 62.7261C39.1063 61.7799 126.64 46.1006 138.102 43.9109C148.564 41.9105 158.512 38.3691 160.513 26.0149C160.621 25.285 160.702 24.5281 160.702 23.7982V23.6901C160.702 20.6624 159.756 17.8509 158.107 15.9315C155.052 12.3902 149.889 11.9577 146.266 11.9577C141.292 11.9306 87.5769 12.9849 81.4674 13.093C81.4674 13.093 81.2781 13.093 81.0619 13.093C81.0348 12.9038 81.0078 12.6875 81.0078 12.6875C80.6834 10.2275 79.6832 8.0108 78.1423 6.25364C76.3311 4.14504 72.8438 1.68502 66.7072 1.84721Z" fill="#F47B20"/>
<path d="M66.6532 0.522585C59.1109 0.711818 53.7583 5.71297 51.2442 8.68662C46.1349 6.9565 40.458 6.68616 34.781 7.82156C29.1581 8.95696 21.0481 11.8765 15.1548 16.6614C4.8011 25.0147 -0.63258 35.1792 -0.173015 45.2356C0.124351 51.1829 2.85471 56.3462 7.74773 60.1309C15.6955 66.2674 28.5633 64.8887 33.7267 64.0237C39.1874 63.1045 126.64 47.4253 138.345 45.2085C149.267 43.127 159.675 39.3694 161.81 26.2312C161.945 25.4202 161.999 24.6092 161.999 23.8252C162.026 20.4461 160.972 17.2562 159.107 15.0935C155.674 11.1196 150.159 10.6601 146.293 10.6601C143.211 10.6601 121.044 11.0385 82.1973 11.7954C81.7377 9.36246 80.6834 7.17276 79.1696 5.44263C77.1151 3.06371 73.3034 0.360385 66.6532 0.522585ZM52.2445 10.2546C54.5964 7.33496 59.5975 2.44194 66.7072 2.25271C72.6546 2.09051 76.0337 4.49647 77.8179 6.52396C79.3318 8.22706 80.2779 10.3627 80.5753 12.7146L80.6564 13.4985L81.4404 13.4715C87.5499 13.3634 141.211 12.3361 146.239 12.3361C149.753 12.3361 154.782 12.7686 157.701 16.1748C159.269 18.0131 160.161 20.7164 160.161 23.636V23.7441C160.161 24.474 160.107 25.1769 159.972 25.8798C158.026 37.9636 148.24 41.4239 137.94 43.3973C126.478 45.587 38.9171 61.2663 33.3482 62.2124C28.4011 63.0505 16.128 64.3481 8.74796 58.6711C4.26044 55.2379 1.77338 50.5341 1.50305 45.0734C1.07051 35.5847 6.2609 25.9609 16.2091 17.959C21.8591 13.4174 29.6447 10.606 35.0513 9.49762C40.6742 8.36223 46.2431 8.68663 51.1631 10.4708L51.7579 10.6871L52.2445 10.2546Z" fill="#232E83"/>
<path d="M155.025 25.3661L154.565 24.3118L154.403 23.9603C154.376 23.9333 154.349 23.9063 154.322 23.9063C154.295 23.9063 154.187 23.8792 154.079 23.9603L152.376 25.2309L152.43 24.528C152.538 23.0953 152.267 20.5001 151.051 19.3106C149.916 18.2022 148.348 17.6886 146.428 17.8238C144.428 17.986 142.292 18.7159 140.886 19.8783C138.805 21.5814 137.507 24.5821 137.507 24.5821C137.507 24.5821 137.615 23.6359 137.615 22.7709C137.615 21.3651 137.237 20.2297 136.48 19.4728C135.588 18.4996 134.155 18.0941 132.344 18.2293C131.695 18.2833 130.1 18.824 129.1 19.8242C129.181 19.5269 129.505 18.5266 129.505 18.5266L122.612 18.8781L120.639 20.3919L119.368 26.0419C119.368 26.0419 119.287 25.8256 119.233 25.7445C118.557 24.2307 117.205 22.9331 115.07 23.1223C113.853 23.2304 112.718 23.5819 111.718 24.1496L111.069 24.528L112.393 19.1484L103.959 19.4458L101.364 21.6895L101.959 19.4728L92.6592 19.5539L92.2266 21.0948L92.1996 21.0678L91.8482 20.5812C91.4967 20.0946 90.8479 19.6891 90.4154 19.4998C88.442 18.7159 84.7114 19.3917 82.9542 20.8785C78.8722 24.3118 78.683 30.0969 78.4397 33.5301C78.2505 36.1253 78.0072 37.1525 77.7909 37.3688C77.845 35.5035 76.8718 33.9356 75.8445 33.2598C74.4928 32.3677 72.5735 32.3406 70.9244 32.8813C67.3831 34.0708 66.7073 36.0712 66.7073 36.0712L71.9787 20.5271C71.9787 20.5271 69.8701 20.5812 69.0051 20.6352C71.8976 19.8513 73.6278 17.9319 73.7629 15.1745V15.0394C73.7629 14.9853 73.7629 14.9583 73.7629 14.9312C73.7629 13.5525 73.1412 12.1738 72.0598 11.2006C71.2488 10.4707 69.3836 9.68677 67.5453 9.68677C66.5451 9.68677 65.2475 9.876 64.031 10.2274C62.409 10.687 59.2731 12.4442 58.8947 15.8774C58.7054 17.5534 58.9487 18.6888 59.7867 19.7431C60.1382 20.1757 60.9221 20.6893 61.8683 20.8785C60.6788 20.9326 59.7327 20.9326 59.6516 20.9326C59.4894 21.0678 58.1377 22.3383 58.0296 22.4465C57.8404 23.0682 56.5428 27.2584 55.6507 29.5832C54.8667 31.6648 53.9205 33.6382 52.9203 35.4224C49.9466 40.6398 46.135 44.019 41.9178 45.1274C38.8901 45.9384 36.7004 45.8843 34.8891 44.9381C33.0238 44.019 31.6992 41.1805 31.7262 38.2339C31.7533 35.1251 33.1049 31.016 34.0511 29.2048C37.241 22.906 39.8092 21.3111 42.107 20.473C43.9993 19.7972 45.324 19.9594 45.6213 20.1486C45.1618 20.419 44.7833 20.6352 44.7833 20.6352C41.5123 22.5276 39.3226 25.6094 39.0793 28.6911C38.9171 30.6375 39.5118 32.3677 40.7013 33.6112C41.8637 34.8277 43.6209 35.3954 45.5943 35.2062C50.1088 34.7736 54.299 30.4213 54.5964 25.8527C54.7856 23.2575 54.1098 21.1759 52.65 19.5809C50.217 16.9317 47.3515 16.0126 42.107 16.1477C37.2951 16.2829 31.8884 18.1211 27.2658 21.257C23.3189 23.9063 18.0744 28.7722 15.5333 36.7741C14.0195 41.5319 15.236 47.5603 18.3177 50.534C22.4268 54.5079 27.6172 55.5352 35.6731 53.9672C41.1338 52.8859 46.4323 49.8311 51.4605 44.7759L51.893 44.3434L51.9741 44.9652C52.1634 46.0465 52.5148 46.9386 53.1095 47.6685C54.0557 48.8309 56.0021 50.1015 59.8949 49.5608C62.4901 49.2094 65.4908 47.8577 68.9781 45.4247L69.1673 45.3166L69.3565 45.4247C70.8704 46.4249 72.9519 47.3171 76.7366 46.5331L76.7907 46.5061C78.1964 46.2087 81.954 45.4247 84.9277 41.1805C85.3332 40.6128 85.7116 39.9099 86.1442 38.9638L86.6578 37.8284L86.7389 39.0719C86.8741 40.802 87.1174 42.0185 87.9824 42.8566C89.0367 43.8838 90.6317 44.3164 92.4699 44.019C96.0113 43.4783 98.4443 40.5047 99.9852 38.342L100.283 37.9095L100.526 38.369C101.796 40.775 105.149 41.9374 109.095 41.3427C112.853 40.775 114.718 39.0178 116.34 37.0714L116.638 36.666L115.908 39.6396L125.613 38.1257L127.37 30.8538C127.37 30.8538 127.316 32.8272 127.559 33.8815C127.775 34.9358 128.208 35.8279 128.64 36.2334C129.587 37.1525 131.182 37.3418 132.182 37.1796C133.75 36.9363 136.075 36.2334 138.21 33.0165L138.535 32.5028L138.751 33.0435C139.427 34.6655 141.941 35.7468 144.266 35.3954C147.402 34.8818 149.753 33.0976 151.105 30.232L151.159 30.0969L151.294 30.0428C152.916 29.5292 154.484 27.8531 154.917 26.123C155.052 26.096 155.133 25.6364 155.025 25.3661ZM101.31 21.8788C101.337 21.8247 101.364 21.7436 101.364 21.6895C101.391 21.6895 101.364 21.7706 101.31 21.8788Z" fill="white"/>
<path d="M66.6532 19.7433C69.708 19.6081 72.6816 18.2294 72.9249 15.0935C73.0871 12.9849 71.4651 10.7953 68.113 10.579C66.2477 10.4709 64.5717 10.9034 63.3552 11.8496C62.436 12.5524 61.7872 13.4986 61.4899 14.7151C61.1655 16.0938 61.3006 17.2292 61.9765 18.1213C62.8415 19.2567 64.5176 19.8514 66.6532 19.7433Z" fill="#232E83"/>
<path d="M153.998 24.9067C153.565 25.8799 152.646 26.8801 151.862 27.0153L151.511 27.0964C151.511 27.0964 151.835 24.9608 151.835 24.312C151.889 21.3654 151.213 18.3106 146.618 18.5539C143.806 18.7161 139.697 21.1491 139.075 26.4206V26.4476V26.4746C139.075 26.5017 139.048 26.5287 139.048 26.5828C138.345 28.421 137.075 30.9892 136.156 31.0973C135.967 31.1244 135.777 31.0433 135.642 30.9081C135.453 30.7459 135.372 30.4756 135.399 30.1512C135.426 29.5835 135.642 28.7184 135.912 27.583C136.291 26.0962 136.588 24.7175 136.75 23.1766C137.075 19.5812 134.885 18.8783 132.614 19.0405C130.938 19.1757 129.37 20.1759 128.938 20.6625L128.127 21.5816C128.127 21.5816 128.505 19.8245 128.613 19.3379C127.965 19.3649 123.91 19.5001 123.504 19.5271L121.693 26.8261C121.071 27.6641 120.179 28.3399 119.476 28.5562L119.125 28.6373L119.071 28.2588C119.017 27.8804 118.99 27.5289 118.882 27.1505C118.773 26.3395 118.071 23.528 115.34 23.7443C108.312 24.339 108.501 33.0437 112.718 31.8272L113.205 31.665L113.123 32.2057C112.583 35.6659 111.069 37.5042 109.068 37.7745C108.771 37.8286 108.474 37.7205 108.257 37.5042C107.906 37.1798 107.717 36.531 107.717 35.7741C107.771 34.071 111.15 19.9056 111.15 19.9056C111.15 19.9056 105.068 20.1218 104.608 20.1489C104.311 21.4465 102.959 27.0694 102.932 27.0964L102.743 27.8533C102.472 28.7995 102.31 29.4483 102.202 30.0971V30.1241V30.1512C102.175 30.2052 102.175 30.2323 102.148 30.2593C101.121 32.9356 99.3365 35.8281 97.9578 35.9633C97.6874 35.9903 97.4441 35.9092 97.2819 35.747C97.0927 35.5578 96.9846 35.2875 96.9846 34.9631V34.936L97.0927 33.7736C97.0927 33.7736 100.58 21.095 100.796 20.257C100.012 20.284 93.3351 20.4192 93.3351 20.4192L92.6863 22.7441C92.4971 20.8788 88.5502 18.3376 85.5495 21.0139C82.3866 23.8524 81.5216 28.1237 81.035 32.3138C81.035 32.3138 80.9809 32.476 80.9809 32.5031C80.3321 37.5583 79.1426 41.0185 75.6283 41.4781C74.8443 41.5862 74.1144 41.5322 73.6008 41.2348C74.8173 40.3157 75.5742 39.5587 76.1419 38.5855C77.4395 36.4229 76.8448 34.5306 75.4931 33.6114C72.7628 31.8272 69.7891 34.0169 69.2485 36.8013C68.9241 38.5044 69.5188 39.9372 70.0324 40.7752C69.0863 41.3159 68.3293 41.9106 67.0317 42.0728C66.2478 42.181 65.4908 41.7755 65.2475 41.424C64.4636 40.3697 65.5179 36.9906 65.6801 36.558C65.6801 36.558 70.519 22.2034 70.7894 21.3113C69.9513 21.3654 61.0574 21.6357 60.6249 21.6627C60.3275 22.5548 59.1921 26.0691 58.0297 29.3131C55.7589 35.6389 49.1357 44.3166 42.3504 46.0737C38.7279 47.0199 35.9165 46.8577 34.1052 45.7493C31.6452 44.2355 30.2665 40.6401 31.2127 35.5848C31.8615 32.0165 32.4832 30.6918 33.4294 28.6643C39.1334 16.5534 48.2707 19.2838 47.703 20.2029C46.7838 20.5003 45.9728 20.9869 45.9728 20.9869C44.513 21.7709 42.1611 24.0416 42.08 26.9072C42.026 28.7454 42.5126 30.2052 43.5128 31.1784C44.486 32.1246 45.9188 32.5571 47.5408 32.4219C51.1632 32.0976 54.0828 29.3672 54.218 25.3392C54.272 23.1496 53.6773 21.3654 52.4067 20.0407C50.3793 17.9321 48.0003 16.8508 42.7018 17.013C34.5378 17.2293 22.0754 23.0955 18.5071 36.0714C17.2906 40.4508 18.8855 45.7493 21.5077 48.1553C25.1572 51.4804 29.6718 52.7239 37.5925 51.2101C44.6482 49.8854 50.4333 45.0735 54.7046 40.0183C54.7046 40.0994 54.7046 40.1805 54.6775 40.2616C53.6773 43.9651 55.056 47.912 61.2196 47.128C63.8148 46.8036 68.3564 45.3168 71.5192 42.8568C72.979 44.1273 75.4931 44.8572 78.3587 44.4517C79.5211 44.2625 82.5488 43.4786 85.171 39.6939C87.2796 36.6932 88.3069 30.854 88.8746 27.7182C89.1449 26.2584 89.3071 25.2852 89.5234 24.8797C89.7126 24.5012 89.9019 24.0416 90.4425 23.7983C91.5509 23.3388 92.1186 24.4201 91.9023 25.2041C91.6861 25.988 90.5236 30.043 90.5236 30.043L90.3074 30.6918C89.6315 32.6653 88.8746 34.882 88.7935 37.2339C88.7394 38.964 89.199 40.3157 90.0911 41.1537C90.9291 41.9377 92.1186 42.235 93.5243 42.0458C97.4171 41.4781 100.202 37.5312 101.499 35.2334L101.688 34.909L101.959 34.4494L102.121 35.3145C102.743 38.7477 105.446 40.1264 109.501 39.5317C114.772 38.7477 117.962 36.0174 118.936 31.2595L118.99 31.0703L119.179 31.0162C119.665 30.827 120.152 30.5837 120.639 30.2593L121.044 29.989L119.179 37.6123C119.936 37.5042 124.883 36.6662 125.261 36.6121C125.369 36.1525 127.532 26.9072 127.532 26.9072C127.911 25.2852 128.938 22.2575 130.127 22.1764C130.344 22.1493 130.56 22.2304 130.749 22.4467C131.019 22.717 131.155 23.1495 131.155 23.6632C131.128 24.6904 130.83 25.7988 130.452 27.0964C130.019 28.6643 129.56 30.6107 129.37 32.5031C129.073 35.72 131.776 35.693 132.587 35.5578C134.507 35.2604 137.048 34.2872 139.211 29.5024L139.319 30.016C139.859 32.6653 142.238 34.2332 144.698 33.8277C147.753 33.3681 149.808 31.7191 150.97 28.9617L151.051 28.7725L151.24 28.7454C152.43 28.6103 154.079 27.2316 154.511 25.6096C154.241 25.5285 154.214 25.2041 153.998 24.9067ZM73.2494 35.0712C74.3307 35.1253 74.7632 35.8011 74.1685 37.1257C73.8711 37.7745 73.0331 38.7748 71.8977 39.6128C70.519 37.4231 71.8437 34.9901 73.2494 35.0712ZM113.718 29.2861C113.529 29.5835 113.069 29.7727 112.366 29.8808C111.637 30.016 111.474 29.6105 111.447 29.4483C111.285 28.7995 111.988 27.7993 112.583 27.5019C112.934 27.3397 113.34 27.4208 113.448 27.556C113.961 28.1237 113.718 29.2861 113.718 29.2861ZM147.266 28.9887C146.834 30.3134 146.239 31.7191 145.05 31.8813C144.644 31.9354 144.32 31.8272 144.049 31.611C143.644 31.2595 143.482 30.9351 143.509 29.7186C143.563 26.9072 145.05 19.8515 147.05 19.7704C147.32 19.7434 147.591 19.8515 147.78 20.0678C148.213 20.5273 148.375 21.4194 148.24 22.4737L148.213 22.6089C148.213 22.6089 146.104 22.69 145.888 25.7988C145.753 27.6641 147.32 28.5562 147.32 28.5562L147.266 28.9887ZM147.834 26.9072C147.158 26.4746 147.185 25.2581 147.537 24.7986C147.726 24.5553 147.996 24.5282 148.159 24.6093C148.131 25.3663 148.104 26.0421 147.834 26.9072Z" fill="#232E83"/>
</g>
<defs>
<clipPath id="clip0_416_2484">
<rect width="162" height="64" fill="white" transform="translate(0 0.605957)"/>
</clipPath>
</defs>
</svg>
