<svg width="200" height="62" viewBox="0 0 200 62" fill="none" xmlns="http://www.w3.org/2000/svg">
<g clip-path="url(#clip0_416_2801)">
<path d="M38.4105 1.7627H60.1324V39.0002L54.4938 29.3124V7.4013H41.7407L38.4105 1.7627ZM82.3084 15.424C82.3084 10.2774 86.2819 6.49306 91.542 6.49306C93.1314 6.49306 95.3642 7.02287 96.7644 7.81757V4.86582C95.2507 4.22249 93.0179 3.95759 91.3907 3.95759C84.6168 3.95759 79.2431 8.53658 79.2431 15.3483C79.2431 22.3114 84.3897 26.8526 91.3907 26.9283C92.6395 26.9283 95.175 26.7012 96.7644 26.02V23.1061C95.5912 23.7873 92.9422 24.3549 91.3907 24.3549C86.5468 24.3549 82.3084 20.722 82.3084 15.424ZM96.6887 43.2386C96.6887 47.7419 93.4342 50.4666 87.9848 50.4666H85.7521V58.1109H79.6972V35.9349H87.8334C93.5856 35.9349 96.6887 38.2055 96.6887 43.2386ZM90.7095 43.125C90.7095 40.8545 89.0444 40.1355 87.0766 40.1355H85.7521V46.1903H87.0766C89.0823 46.1903 90.7095 45.4335 90.7095 43.125ZM7.34148 54.932V19.4354L1.66504 9.7854V60.5706H31.3339L28.0416 54.932H7.34148ZM148.117 15.3862C148.117 8.95286 152.621 3.91974 159.508 3.91974C166.585 3.91974 170.937 8.95286 170.937 15.3862C170.937 22.1222 166.547 26.8526 159.508 26.8526C152.696 26.8526 148.117 22.1222 148.117 15.3862ZM151.183 15.3862C151.183 19.8895 154.248 24.3171 159.508 24.3171C164.995 24.3171 167.871 19.9273 167.871 15.3862C167.871 10.8072 164.957 6.45522 159.508 6.45522C154.172 6.49306 151.183 10.8072 151.183 15.3862ZM130.899 13.4562V6.87149H139.451V26.4741H142.365V4.29817H127.947V12.3209C127.947 17.3161 127.758 24.2793 124.465 24.2793C123.86 24.2793 123.141 24.2036 122.498 23.9765L122.46 26.4741C123.141 26.739 124.011 26.8526 124.995 26.8526C130.558 26.8526 130.899 19.284 130.899 13.4562ZM108.723 14.7428L119.394 4.29817H115.61L105.241 14.7807H105.128V4.29817H102.214V26.4741H105.128V15.0834H105.241L116.632 26.4741H120.492L108.723 14.7428ZM178.77 43.2386C178.77 47.7419 175.516 50.4666 170.066 50.4666H167.833V58.1109H161.779V35.9349H169.915C175.667 35.9349 178.77 38.2055 178.77 43.2386ZM172.753 43.125C172.753 40.8545 171.088 40.1355 169.12 40.1355H167.796V46.1903H169.12C171.126 46.1903 172.753 45.4335 172.753 43.125ZM194.324 54.0617C190.047 54.0617 187.02 51.4505 187.02 47.0986C187.02 42.9737 189.782 39.9841 193.945 39.9841C195.875 39.9841 198.108 40.5896 199.962 41.5735V36.6539C197.805 36.0106 195.686 35.5565 193.491 35.5565C186.225 35.5565 180.738 39.4164 180.738 47.0986C180.738 55.3862 187.436 58.4893 193.529 58.4893C194.967 58.4893 196.178 58.3379 197.237 58.2622C198.297 58.1109 199.167 57.8838 200 57.6567V52.8507C198.373 53.4562 196.216 54.0617 194.324 54.0617ZM148.609 46.3038H148.534L143.955 35.897H137.218L145.582 51.9046L141.911 58.073H148.306L159.697 35.897H153.037L148.609 46.3038ZM123.33 47.0986C123.33 42.9737 126.093 39.9841 130.255 39.9841C132.185 39.9841 134.418 40.5896 136.272 41.5735V36.6539C134.115 36.0106 131.996 35.5565 129.801 35.5565C122.535 35.5565 117.048 39.4164 117.048 47.0986C117.048 55.3862 123.746 58.4893 129.839 58.4893C131.277 58.4893 132.488 58.3379 133.548 58.2622C134.607 58.1109 135.478 57.8838 136.31 57.6567V52.8507C134.683 53.4562 132.526 54.0617 130.634 54.0617C126.358 54.0617 123.33 51.4505 123.33 47.0986ZM105.506 48.9529H113.718V44.6766H105.506V40.1733H114.588V35.897H99.4891V58.1109H114.929V53.8346H105.506V48.9529Z" fill="#483C8C"/>
<path d="M1.77862 0.0598145L37.0104 60.4572L35.2318 61.4789L0 1.11942L1.77862 0.0598145ZM10.7096 1.11942L45.9413 61.5168L47.72 60.495L12.4882 0.0598145L10.7096 1.11942ZM5.3737 1.08157L40.6055 61.4789L42.3841 60.4572L7.15232 0.0598145L5.3737 1.08157ZM16.0833 1.08157L51.315 61.4789L53.0937 60.4572L17.8619 0.0598145L16.0833 1.08157ZM21.4191 1.08157L56.6887 61.4789L58.4295 60.4572L23.1977 0.0598145L21.4191 1.08157ZM32.1287 1.11942L67.3605 61.5168L69.1391 60.495L33.9073 0.0598145L32.1287 1.11942ZM26.7928 1.08157L62.0246 61.4789L63.8032 60.4572L28.5714 0.0598145L26.7928 1.08157Z" fill="#007888"/>
</g>
<defs>
<clipPath id="clip0_416_2801">
<rect width="200" height="61.457" fill="white" transform="translate(0 0.0598145)"/>
</clipPath>
</defs>
</svg>
