<svg width="32" height="33" viewBox="0 0 32 33" fill="none" xmlns="http://www.w3.org/2000/svg">
<g clip-path="url(#clip0_40_433)">
<path d="M30 31.3L27.7 20.4V20.3C27.2 18.7 25.6 17.6 23.9 17.6H19C20.9 16.3 22.1 13.8 22.1 11.6V8.70002L22.9 7.10002L24.8 5.20002C24.9 5.00002 25 4.60002 25 4.30002C24.9 4.00002 24.7 3.70002 24.4 3.60002L16.4 0.600024C16.2 0.500024 15.9 0.500024 15.7 0.600024L7.70003 3.60002C7.30003 3.70002 7.10003 4.00002 7.00003 4.30002C7.00003 4.60002 7.10003 5.00002 7.30003 5.20002L9.20003 7.10002L10 8.70002V11.5C10 13.7 11.2 16.2 13.1 17.5H8.20003C6.50003 17.5 5.00003 18.6 4.40003 20.2L2.00003 31.3C1.90003 31.8 2.20003 32.4 2.80003 32.5C3.30003 32.6 3.90003 32.3 4.00003 31.7L6.30003 20.8C6.60003 20 7.30003 19.5 8.20003 19.5H9.40003L13.6 28.5C13.6 28.8 13.7 29.1 13.9 29.2L15.1 31.9C15.3 32.3 15.6 32.5 16 32.5C16.4 32.5 16.7 32.3 16.9 31.9L18.1 29.2C18.3 29 18.4 28.8 18.4 28.5L22.6 19.5H23.8C24.6 19.5 25.4 20 25.7 20.8L28 31.7C28.1 32.2 28.5 32.5 29 32.5C29.1 32.5 29.1 32.5 29.2 32.5C29.7 32.4 30.1 31.8 30 31.3ZM11.7 7.70002L11.6 7.50002H20.4L20.3 7.70002L16 9.00002L11.7 7.70002ZM16 2.60002L22.2 4.90002L21.6 5.50002H16H10.4L9.80003 4.90002L16 2.60002ZM12 11.5V9.80002L15.7 10.9C15.9 11 16.1 11 16.3 10.9L20 9.80002V11.5C20 13.8 18.2 16.5 16 16.5C13.8 16.5 12 13.8 12 11.5ZM14 19.5L15.1 21C15.1 21.1 15 21.2 15 21.3L14.2 25.2L11.6 19.5H14ZM15.6 28.2L16 26.3L16.4 28.2L16 29.1L15.6 28.2ZM17.8 25.2L17 21.3C17 21.2 16.9 21.1 16.9 21L18 19.5H20.4L17.8 25.2ZM10 24.6L9.00003 31.6C8.90003 32.1 8.50003 32.5 8.00003 32.5H7.90003C7.40003 32.4 7.00003 31.9 7.10003 31.4L8.10003 24.4C8.20003 23.9 8.70003 23.5 9.20003 23.6C9.70003 23.6 10.1 24.1 10 24.6ZM24 24.4L25 31.4C25.1 31.9 24.7 32.5 24.2 32.5H24.1C23.6 32.5 23.2 32.1 23.1 31.6L22.1 24.6C22 24.1 22.4 23.5 22.9 23.5C23.4 23.4 23.9 23.8 24 24.4ZM16 5.50002C15.4 5.50002 15 5.10002 15 4.50002C15 3.90002 15.4 3.50002 16 3.50002C16.6 3.50002 17 3.90002 17 4.50002C17 5.10002 16.6 5.50002 16 5.50002Z" fill="#EAE6E4"/>
</g>
<defs>
<clipPath id="clip0_40_433">
<rect width="32" height="32" fill="white" transform="translate(0 0.5)"/>
</clipPath>
</defs>
</svg>
