<svg width="32" height="33" viewBox="0 0 32 33" fill="none" xmlns="http://www.w3.org/2000/svg">
<g clip-path="url(#clip0_40_398)">
<path d="M26.2 21.8C26.3 21.8 26.3 21.9 26.3 21.9C26.3 22 26.2 22 26.2 22C26.1 22 26.1 21.9 26.1 21.9C26.1 21.8 26.1 21.8 26.2 21.8ZM22.3 31.2C20.4 32 18.3 32.5 16 32.5C7.2 32.5 0 25.3 0 16.5C0 7.7 7.2 0.5 16 0.5C24.8 0.5 32 7.7 32 16.5C32 16.7 32 16.9 32 17.1C31.4 16.5 30.7 15.9 30 15.5C29.9 14.1 29.6 12.8 29.1 11.5H23.5C23.8 12.6 23.9 13.7 24 14.8C22.5 15.3 21.1 16.2 20.2 17.5H17V21.5H18.5C18.5 21.8 18.5 22 18.5 22.3C18.5 22.7 18.5 23.1 18.6 23.5H17V29C17.1 28.9 17.2 28.9 17.2 28.8C17.3 28.7 17.3 28.7 17.4 28.6C17.8 28.2 18.1 27.8 18.4 27.4C18.5 27.3 18.5 27.3 18.6 27.2C18.9 26.8 19.2 26.4 19.4 26C19.4 26.1 19.5 26.2 19.5 26.2L20.5 27.9C19.9 28.7 19.3 29.5 18.7 30.1C19.6 29.9 20.5 29.6 21.4 29.3L22.3 31.2ZM18.7 2.8C20.5 4.6 22 6.9 22.9 9.5H28.2C26.1 6.1 22.7 3.5 18.7 2.8ZM17 9.5H20.7C20.6 9.3 20.6 9.1 20.5 8.9C20.5 8.8 20.4 8.7 20.4 8.7C20.2 8.2 19.9 7.7 19.6 7.3C19.6 7.2 19.5 7.2 19.5 7.1C19.2 6.6 18.9 6.2 18.6 5.8C18.5 5.6 18.5 5.5 18.4 5.5C18.1 5.1 17.7 4.7 17.4 4.3C17.3 4.2 17.3 4.2 17.2 4.1C17.1 4 17 4 17 3.9V9.5ZM17 15.5H21.9C21.9 15.2 21.9 14.8 21.9 14.5V14.4C21.8 13.8 21.7 13.2 21.6 12.6C21.6 12.5 21.6 12.5 21.6 12.4C21.5 12.1 21.4 11.8 21.4 11.5H17V15.5ZM3.9 9.5H9.2C10.1 6.9 11.5 4.6 13.4 2.8C9.3 3.5 5.9 6.1 3.9 9.5ZM2.1 15.5H8.1C8.2 14.1 8.4 12.8 8.7 11.5H2.9C2.5 12.8 2.2 14.1 2.1 15.5ZM2.9 21.5H8.5C8.2 20.2 8 18.9 7.9 17.5H1.9C2.2 18.9 2.5 20.2 2.9 21.5ZM13.3 30.2C11.5 28.4 10 26.1 9.1 23.5H3.9C5.9 26.9 9.3 29.5 13.3 30.2ZM15 23.5H11.3C11.4 23.7 11.4 23.9 11.5 24.1C11.5 24.2 11.6 24.3 11.6 24.3C11.8 24.8 12.1 25.3 12.4 25.7C12.4 25.8 12.5 25.8 12.5 25.9C12.8 26.4 13.1 26.8 13.4 27.2C13.5 27.3 13.5 27.3 13.6 27.4C13.9 27.8 14.3 28.2 14.6 28.6C14.7 28.7 14.7 28.7 14.8 28.8C14.9 28.9 15 28.9 15 29V23.5ZM15 17.5H10.1C10.1 17.8 10.1 18.2 10.1 18.5V18.6C10.2 19.2 10.3 19.8 10.4 20.4C10.4 20.5 10.4 20.5 10.4 20.6C10.5 20.9 10.6 21.2 10.6 21.5H15V17.5ZM15 11.5H10.7C10.6 11.8 10.5 12.1 10.5 12.4C10.5 12.5 10.5 12.5 10.5 12.6C10.4 13.2 10.3 13.8 10.2 14.4V14.5C10.2 14.8 10.2 15.2 10.2 15.5H15V11.5ZM15 4C14.9 4.1 14.8 4.1 14.8 4.2C14.7 4.3 14.7 4.3 14.6 4.4C14.2 4.8 13.9 5.2 13.6 5.6C13.5 5.7 13.5 5.7 13.4 5.8C13.1 6.2 12.8 6.7 12.5 7.1C12.5 7.2 12.4 7.2 12.4 7.3C12.1 7.8 11.9 8.2 11.6 8.7C11.6 8.8 11.5 8.9 11.5 8.9C11.4 9.1 11.3 9.3 11.3 9.5H15V4ZM32 22.3C32 23.4 31.6 24.5 31.1 25.4L27.3 31.9C27 32.3 26.6 32.5 26.1 32.5C25.7 32.5 25.2 32.3 24.9 31.9L21.1 25.4C20.6 24.5 20.2 23.5 20.2 22.3C20.2 19.1 22.8 16.5 26 16.5C29.4 16.5 32 19.1 32 22.3ZM28.3 21.9C28.3 20.7 27.3 19.8 26.2 19.8C25.1 19.8 24.1 20.7 24.1 21.9C24.1 23.1 25.1 24 26.2 24C27.3 24 28.3 23 28.3 21.9Z" fill="#EAE6E4"/>
</g>
<defs>
<clipPath id="clip0_40_398">
<rect width="32" height="32" fill="white" transform="translate(0 0.5)"/>
</clipPath>
</defs>
</svg>
