<svg width="32" height="33" viewBox="0 0 32 33" fill="none" xmlns="http://www.w3.org/2000/svg">
<g clip-path="url(#clip0_40_174)">
<path d="M30 24.5V14.5C30 13.4 29.1 12.5 28 12.5H25V2.5C25 1.4 24.1 0.5 23 0.5H9C7.9 0.5 7 1.4 7 2.5V12.5H4C2.9 12.5 2 13.4 2 14.5V24.5C0.9 24.5 0 25.4 0 26.5V28.5C0 29.6 0.9 30.5 2 30.5C2 31.6 2.9 32.5 4 32.5H7C8.1 32.5 9 31.6 9 30.5H23C23 31.6 23.9 32.5 25 32.5H28C29.1 32.5 30 31.6 30 30.5C31.1 30.5 32 29.6 32 28.5V26.5C32 25.4 31.1 24.5 30 24.5ZM28 14.5V24.5H14V14.5H25H28ZM18 26.5V28.5H14V26.5H18ZM9 2.5H13V5.5L16 4.5L19 5.5V2.5H23V12.5H9V2.5ZM4 14.5H7H12V24.5H4V14.5ZM2 26.5H6V28.5H2V26.5ZM8 28.5V26.5H12V28.5H9H8ZM20 28.5V26.5H24V28.5H23H20ZM30 28.5H26V26.5H30V28.5ZM16 18.6V16.5H20V18.5C20 19.2 19.6 19.9 19 20.2V21.5C19.6 21.5 20 21.9 20 22.5C20 23.1 19.6 23.5 19 23.5H17C16.4 23.5 16 23.1 16 22.5C16 21.9 16.4 21.5 17 21.5V20.3C16.4 19.9 16 19.3 16 18.6ZM23 21.5V20.3C22.4 20 22 19.4 22 18.6V16.5H26V18.5C26 19.2 25.6 19.9 25 20.2V21.5C25.6 21.5 26 21.9 26 22.5C26 23.1 25.6 23.5 25 23.5H23C22.4 23.5 22 23.1 22 22.5C22 21.9 22.4 21.5 23 21.5ZM11 22.5C11 23.1 10.6 23.5 10 23.5H6C5.4 23.5 5 23.1 5 22.5C5 21.9 5.4 21.5 6 21.5H7V19.9L6.7 20.2C6.5 20.4 6.3 20.5 6 20.5C5.7 20.5 5.5 20.4 5.3 20.2C4.9 19.8 4.9 19.2 5.3 18.8L7.3 16.8C7.4 16.7 7.5 16.6 7.6 16.6C7.8 16.5 8.1 16.5 8.4 16.6C8.5 16.7 8.6 16.7 8.7 16.8L10.7 18.8C11.1 19.2 11.1 19.8 10.7 20.2C10.5 20.4 10.3 20.5 10 20.5C9.7 20.5 9.5 20.4 9.3 20.2L9 19.9V21.5H10C10.6 21.5 11 21.9 11 22.5ZM15 10.5C15 11.1 14.6 11.5 14 11.5H11C10.4 11.5 10 11.1 10 10.5V7.5C10 6.9 10.4 6.5 11 6.5C11.6 6.5 12 6.9 12 7.5V9.5H14C14.6 9.5 15 9.9 15 10.5ZM22 7.5V10.5C22 11.1 21.6 11.5 21 11.5H18C17.4 11.5 17 11.1 17 10.5C17 9.9 17.4 9.5 18 9.5H20V7.5C20 6.9 20.4 6.5 21 6.5C21.6 6.5 22 6.9 22 7.5Z" fill="#EAE6E4"/>
</g>
<defs>
<clipPath id="clip0_40_174">
<rect width="32" height="32" fill="white" transform="translate(0 0.5)"/>
</clipPath>
</defs>
</svg>
