<svg width="32" height="33" viewBox="0 0 32 33" fill="none" xmlns="http://www.w3.org/2000/svg">
<g clip-path="url(#clip0_40_442)">
<path d="M27.9 25.6C27.5 25.4 27 25.3 26.6 25.1C25.5 24.7 24.4 24.3 23.4 23.8L22.3 23.1C21.7 22.6 21.2 22 21 21.2C21 21.1 20.9 21.1 20.9 21C21.8 20.1 22.5 19.1 23.2 17.9C24.7 17.5 26.3 16.7 26.9 15.3C27.4 14.2 27.2 12.9 26.3 11.5L26.5 10C26.7 8.5 26.7 5.7 24.8 3.5C23.1 1.5 20.2 0.5 16.2 0.5C12.8 0.5 10 1.7 8.1 4C3.6 9.3 5.3 19 5.4 19.4L6.2 23.6L7.3 19.5C7.6 18.6 7.8 17.8 8.1 17.1C8.9 18.7 9.9 20 11 21.1C11 21.1 11 21.2 10.9 21.2C10.3 23.4 7.8 24.3 5.3 25.1C5 25.3 4.6 25.5 4.1 25.6C2.2 26.3 1 28.1 1 30.2V31.5C1 32.1 1.4 32.5 2 32.5C2.6 32.5 3 32.1 3 31.5V30.2C3 29 3.7 27.9 4.8 27.5C5.2 27.3 5.6 27.2 6.1 27.1C7.3 26.7 8.6 26.2 9.8 25.6L14 28.6L16 27L18 28.6L22.2 25.6C23.4 26.3 24.7 26.7 25.9 27.1C26.3 27.2 26.8 27.4 27.2 27.5C28.3 27.9 29 29 29 30.2V31.5C29 32.1 29.4 32.5 30 32.5C30.6 32.5 31 32.1 31 31.5V30.2C31 28.1 29.8 26.3 27.9 25.6ZM25 14.5C24.9 14.8 24.6 15 24.3 15.2C24.5 14.6 24.7 14 24.9 13.3C25.1 13.8 25.2 14.2 25 14.5ZM7 14.6C7 11.6 7.5 7.7 9.6 5.2C11.2 3.4 13.4 2.5 16.2 2.5C19.6 2.5 22 3.3 23.3 4.8C24.1 5.7 24.4 6.8 24.5 7.8C22.6 6.6 19.5 5.6 16.2 6.3C13.4 6.8 9.8 8.8 7.1 14.4C7.1 14.5 7 14.6 7 14.6ZM9.3 14.6C11.2 11 13.7 8.9 16.6 8.3C19.4 7.8 22 8.7 23.5 9.6C23.5 11.8 22.8 14.2 21.9 16.2C21 16.4 20.1 16.5 19.5 16.5C19.1 16.2 18.6 16 18 16C16.9 16 16 16.7 16 17.5C16 18.3 16.9 19 18 19C18.6 19 19.1 18.8 19.5 18.5C19.7 18.5 20.1 18.5 20.5 18.4C19.2 20.2 17.5 21.5 16 21.5C13.6 21.5 10.5 18.3 9.3 14.6ZM16 26.1L12.2 23.5C12.4 23.2 12.6 22.9 12.7 22.5C13.8 23.2 14.9 23.6 16 23.6C17.1 23.6 18.2 23.2 19.3 22.5C19.5 22.9 19.7 23.2 19.9 23.6L16 26.1ZM17 29.5V31.5C17 32.1 16.6 32.5 16 32.5C15.4 32.5 15 32.1 15 31.5V29.5C15 28.9 15.4 28.5 16 28.5C16.6 28.5 17 28.9 17 29.5Z" fill="#EAE6E4"/>
</g>
<defs>
<clipPath id="clip0_40_442">
<rect width="32" height="32" fill="white" transform="translate(0 0.5)"/>
</clipPath>
</defs>
</svg>
