<svg width="32" height="32" viewBox="0 0 32 32" fill="none" xmlns="http://www.w3.org/2000/svg">
<g clip-path="url(#clip0_397_10244)">
<path d="M30.5 19H25.5H22.5H17.5C16.7 19 16 19.7 16 20.5V22H10.5H7.5H1.5C0.7 22 0 22.7 0 23.5V30.5C0 31.3 0.7 32 1.5 32H14.5H16.5H21.3H21.5H30.5C31.3 32 32 31.3 32 30.5V20.5C32 19.7 31.3 19 30.5 19ZM23 20H25V21.6L24.3 21.1C24.2 21 24.1 21 24 21C23.9 21 23.8 21 23.7 21.1L23 21.6V20ZM17 26H19V27.6L18.3 27.1C18.2 27 18.1 27 18 27C17.9 27 17.8 27 17.7 27.1L17 27.6V26ZM8 23H10V24.6L9.3 24.1C9.2 24 9.1 24 9 24C8.9 24 8.8 24 8.7 24.1L8 24.6V23ZM13.1 31H1.5C1.2 31 1 30.8 1 30.5V23.5C1 23.2 1.2 23 1.5 23H7V25.5C7 25.7 7.1 25.9 7.3 25.9C7.5 26 7.7 26 7.8 25.9L9 25.1L10.2 25.9C10.3 26 10.4 26 10.5 26C10.6 26 10.7 26 10.7 25.9C10.9 25.8 11 25.6 11 25.5V23H16V25H14.5C13.7 25 13 25.7 13 26.5V30.5C13 30.7 13 30.8 13.1 31ZM22 30.5C22 30.8 21.8 31 21.5 31H21.3H16.5H14.5C14.2 31 14 30.8 14 30.5V26.5C14 26.2 14.2 26 14.5 26H16V28.5C16 28.7 16.1 28.9 16.3 28.9C16.5 29 16.7 29 16.8 28.9L18 28.1L19.2 28.9C19.3 29 19.4 29 19.5 29C19.6 29 19.7 29 19.7 28.9C19.9 28.8 20 28.6 20 28.5V26H21.5C21.8 26 22 26.2 22 26.5V30.5ZM31 30.5C31 30.8 30.8 31 30.5 31H22.9C23 30.8 23 30.7 23 30.5V26.5C23 25.7 22.3 25 21.5 25H19.5H17V20.5C17 20.2 17.2 20 17.5 20H22V22.5C22 22.7 22.1 22.9 22.3 22.9C22.5 23 22.7 23 22.8 22.9L24 22.1L25.2 22.9C25.3 23 25.4 23 25.5 23C25.6 23 25.7 23 25.7 22.9C25.9 22.8 26 22.6 26 22.5V20H30.5C30.8 20 31 20.2 31 20.5V30.5ZM0.5 13L4.4 12.8C4.2 13.1 4 13.6 4 14C4 15.1 4.9 16 6 16C7.1 16 8 15.1 8 14C8 13.5 7.8 13 7.5 12.7L10.8 12.5V12.3C11.5 15.5 14 18 16.1 18C18.2 18 20.7 15.5 21.4 12.3V12.5L24.7 12.7C24.2 13 24 13.5 24 14C24 15.1 24.9 16 26 16C27.1 16 28 15.1 28 14C28 13.6 27.8 13.1 27.6 12.8L31.5 13C31.7 13 31.9 12.8 32 12.6C32 12.4 31.9 12.1 31.7 12L21.3 8.4C21.2 7.9 21 7.4 20.8 6.9L24.6 6C24.8 5.9 25 5.7 25 5.5C25 5.3 24.8 5.1 24.6 5L17.6 3.3C17.4 3.2 17.1 3.1 16.9 3.1L16.4 0.4C16.5 0.2 16.2 0 16 0C15.8 0 15.5 0.2 15.5 0.4L15 3.1C14.8 3.2 14.5 3.2 14.3 3.3L7.4 5C7.2 5.1 7 5.3 7 5.5C7 5.7 7.2 5.9 7.4 6L11.2 6.8C11 7.3 10.8 7.8 10.7 8.3L0.3 12C0.1 12.1 0 12.4 0 12.6C0.1 12.8 0.3 13 0.5 13ZM26 15C25.4 15 25 14.6 25 14C25 13.4 25.4 13 26 13C26.6 13 27 13.4 27 14C27 14.6 26.6 15 26 15ZM21.4 9.5L28.1 11.8L21.4 11.5C21.4 11.2 21.5 10.8 21.5 10.5C21.5 10.2 21.5 9.8 21.4 9.5ZM16 17C14.2 17 11.5 14.2 11.5 10.5C11.5 9.7 11.6 8.9 11.8 8.2L15.8 10C15.9 10 15.9 10 16 10C16.1 10 16.1 10 16.2 10L20.2 8.2C20.4 8.9 20.5 9.7 20.5 10.5C20.5 14.2 17.8 17 16 17ZM22.3 5.5L20.4 5.9C20.2 5.5 19.9 5.2 19.7 4.8L22.3 5.5ZM14.6 4.3C15.1 4.1 15.6 4 16 4C16.4 4 16.9 4.1 17.3 4.3H17.4C18.5 4.8 19.4 5.8 19.9 7.2L16 9L12.1 7.3C12.7 5.9 13.6 4.8 14.6 4.3ZM9.7 5.5L12.4 4.9C12.1 5.2 11.9 5.6 11.7 6L9.7 5.5ZM6 15C5.4 15 5 14.6 5 14C5 13.4 5.4 13 6 13C6.6 13 7 13.4 7 14C7 14.6 6.6 15 6 15ZM10.6 9.5C10.6 9.8 10.5 10.2 10.5 10.5C10.5 10.8 10.5 11.2 10.6 11.5L3.9 11.8L10.6 9.5Z" fill="#FE5506"/>
</g>
<defs>
<clipPath id="clip0_397_10244">
<rect width="32" height="32" fill="white"/>
</clipPath>
</defs>
</svg>
