<svg width="32" height="32" viewBox="0 0 32 32" fill="none" xmlns="http://www.w3.org/2000/svg">
<path d="M29.5 13C28.9 13 28.4 13.4 28.1 13.9L17.7 10.7C17.9 10.4 18 10 18 9.5C18 9.2 17.8 9 17.5 9C17.2 9 17 9.2 17 9.5C17 9.8 16.9 10.1 16.7 10.4L15.6 10H15.5L14.3 10.4C14.1 10.1 14 9.8 14 9.5C14 8.7 14.7 8 15.5 8C15.8 8 16 7.8 16 7.5V4.9C16.3 4.8 16.6 4.6 16.8 4.3L18.8 1H23.5C23.8 1 24 0.8 24 0.5C24 0.2 23.8 0 23.5 0H6.5C6.2 0 6 0.2 6 0.5C6 0.8 6.2 1 6.5 1H12.2L14.2 4.3C14.4 4.6 14.7 4.8 15 4.9V7C13.9 7.2 13 8.2 13 9.4C13 9.8 13.1 10.2 13.3 10.6L2.9 13.9C2.6 13.4 2.1 13 1.5 13C0.7 13 0 13.7 0 14.5V15V15.6V30.5C0 31.3 0.7 32 1.5 32H29.5C30.3 32 31 31.3 31 30.5V15.6V15V14.5C31 13.7 30.3 13 29.5 13ZM13.4 1H17.6L15.9 3.8C15.8 4 15.6 4 15.5 4C15.4 4 15.2 4 15.1 3.8L13.4 1ZM3 14.9L14 11.5C14.4 11.8 14.9 12 15.5 12C16.1 12 16.6 11.8 17 11.5L28 14.9V15H3V14.9ZM1 14.5C1 14.2 1.2 14 1.5 14C1.8 14 2 14.2 2 14.5V15H1V14.5ZM30 30.5C30 30.8 29.8 31 29.5 31H1.5C1.2 31 1 30.8 1 30.5V16H30V30.5ZM29 15V14.5C29 14.2 29.2 14 29.5 14C29.8 14 30 14.2 30 14.5V15H29ZM3 28.5V18.5C3 18.2 3.2 18 3.5 18C3.8 18 4 18.2 4 18.5V28.5C4 28.8 3.8 29 3.5 29C3.2 29 3 28.8 3 28.5ZM6 28.5V18.5C6 18.2 6.2 18 6.5 18C6.8 18 7 18.2 7 18.5V28.5C7 28.8 6.8 29 6.5 29C6.2 29 6 28.8 6 28.5ZM9 28.5V18.5C9 18.2 9.2 18 9.5 18C9.8 18 10 18.2 10 18.5V28.5C10 28.8 9.8 29 9.5 29C9.2 29 9 28.8 9 28.5ZM12 28.5V18.5C12 18.2 12.2 18 12.5 18C12.8 18 13 18.2 13 18.5V28.5C13 28.8 12.8 29 12.5 29C12.2 29 12 28.8 12 28.5ZM15 28.5V18.5C15 18.2 15.2 18 15.5 18C15.8 18 16 18.2 16 18.5V28.5C16 28.8 15.8 29 15.5 29C15.2 29 15 28.8 15 28.5ZM18 28.5V18.5C18 18.2 18.2 18 18.5 18C18.8 18 19 18.2 19 18.5V28.5C19 28.8 18.8 29 18.5 29C18.2 29 18 28.8 18 28.5ZM21 28.5V18.5C21 18.2 21.2 18 21.5 18C21.8 18 22 18.2 22 18.5V28.5C22 28.8 21.8 29 21.5 29C21.2 29 21 28.8 21 28.5ZM24 28.5V18.5C24 18.2 24.2 18 24.5 18C24.8 18 25 18.2 25 18.5V28.5C25 28.8 24.8 29 24.5 29C24.2 29 24 28.8 24 28.5ZM27 28.5V18.5C27 18.2 27.2 18 27.5 18C27.8 18 28 18.2 28 18.5V28.5C28 28.8 27.8 29 27.5 29C27.2 29 27 28.8 27 28.5Z" fill="#FE5506"/>
</svg>
