<svg width="32" height="32" viewBox="0 0 32 32" fill="none" xmlns="http://www.w3.org/2000/svg">
<path d="M28.9 20.3C28.3 17.8 26.1 16 23.5 16H16H9.8C7.3 16 5.1 17.7 4.5 20.1L2 31.4C2 31.7 2.1 31.9 2.4 32H2.5C2.7 32 2.9 31.8 3 31.6L5.5 20.3C6 18.4 7.7 17.1 9.6 17L15.5 31.7C15.6 31.9 15.8 32 16 32C16.2 32 16.4 31.9 16.5 31.7L22.5 17H23.6C25.7 17 27.5 18.4 28 20.5L30 31.6C30.1 31.9 30.3 32 30.6 32C30.9 31.9 31 31.7 31 31.4L28.9 20.3ZM16.5 17L16 17.7L15.5 17H16.5ZM14.3 17L15.5 18.6L14.1 25.5L10.7 17H14.3ZM16 30.2L14.8 27.2L16 21.2L17.2 27.2L16 30.2ZM17.9 25.5L16.5 18.6L17.7 17H21.3L17.9 25.5ZM10 23.6L8 31.6C7.9 31.8 7.7 32 7.5 32H7.4C7.1 31.9 7 31.7 7 31.4L9 23.4C9.1 23.1 9.3 23 9.6 23C9.9 23.1 10.1 23.4 10 23.6ZM25 31.4C25.1 31.7 24.9 31.9 24.6 32H24.5C24.3 32 24.1 31.8 24 31.6L22 23.6C21.9 23.3 22.1 23.1 22.4 23C22.7 22.9 22.9 23.1 23 23.4L25 31.4ZM16 5C15.4 5 15 4.6 15 4C15 3.4 15.4 3 16 3C16.6 3 17 3.4 17 4C17 4.6 16.6 5 16 5ZM21 9.5V7.6L21.4 6.3L24.3 4.4C24.5 4.3 24.5 4.1 24.5 3.9C24.5 3.7 24.4 3.6 24.2 3.5L16.2 0C16.1 0 15.9 0 15.8 0L7.8 3.5C7.6 3.6 7.5 3.8 7.5 4C7.5 4.2 7.6 4.4 7.7 4.5L10.6 6.4L11 7.6V9.5C11 13.1 13.7 16 16 16C18.3 16 21 13.1 21 9.5ZM11.9 7.1L11.5 6H20.4L20 7.1L16 9L11.9 7.1ZM16 1L23 4L21.6 5C21.5 5 21.4 5 21.3 5H16H10.8C10.7 5 10.6 5 10.5 5.1L9 4.1L16 1ZM16 15C14.2 15 12 12.5 12 9.5V8.3L15.8 10C15.9 10 15.9 10 16 10C16.1 10 16.1 10 16.2 10L20 8.3V9.5C20 12.5 17.8 15 16 15Z" fill="#FE5506"/>
</svg>
