<svg width="16" height="16" viewBox="0 0 16 16" fill="none" xmlns="http://www.w3.org/2000/svg">
<path d="M5.90874 7.55556C5.90874 6.16467 7.03601 5.03684 8.42695 5.03684C9.81789 5.03684 10.9458 6.16467 10.9458 7.55556C10.9458 8.94644 9.81789 10.0743 8.42695 10.0743C7.03601 10.0743 5.90874 8.94644 5.90874 7.55556ZM4.54711 7.55556C4.54711 9.69831 6.28411 11.4352 8.42695 11.4352C10.5698 11.4352 12.3068 9.69831 12.3068 7.55556C12.3068 5.4128 10.5698 3.67587 8.42695 3.67587C6.28411 3.67587 4.54711 5.4128 4.54711 7.55556ZM11.5537 3.52204C11.5536 3.70136 11.6067 3.87667 11.7063 4.02582C11.8059 4.17496 11.9474 4.29122 12.1131 4.35991C12.2787 4.4286 12.461 4.44663 12.6369 4.41172C12.8128 4.3768 12.9744 4.29051 13.1013 4.16377C13.2281 4.03702 13.3145 3.8755 13.3496 3.69964C13.3847 3.52378 13.3668 3.34147 13.2982 3.17577C13.2297 3.01007 13.1135 2.86842 12.9644 2.76874C12.8154 2.66905 12.6401 2.6158 12.4608 2.61573H12.4604C12.22 2.61585 11.9895 2.71135 11.8195 2.88129C11.6495 3.05122 11.5539 3.28167 11.5537 3.52204ZM5.37438 13.7056C4.63772 13.672 4.23732 13.5493 3.97123 13.4457C3.61846 13.3084 3.36676 13.1448 3.10213 12.8805C2.83749 12.6163 2.67368 12.3648 2.53695 12.0121C2.43322 11.7461 2.31051 11.3456 2.27703 10.609C2.2404 9.81255 2.23308 9.57331 2.23308 7.55562C2.23308 5.53792 2.241 5.29935 2.27703 4.50226C2.31058 3.76563 2.43419 3.36591 2.53695 3.09917C2.67428 2.74641 2.83785 2.49472 3.10213 2.2301C3.3664 1.96547 3.61786 1.80167 3.97123 1.66494C4.2372 1.56122 4.63772 1.43852 5.37438 1.40503C6.17083 1.3684 6.41008 1.36109 8.42695 1.36109C10.4438 1.36109 10.6833 1.36901 11.4804 1.40503C12.2171 1.43858 12.6168 1.56219 12.8836 1.66494C13.2363 1.80167 13.488 1.96583 13.7527 2.2301C14.0173 2.49436 14.1805 2.74641 14.3179 3.09917C14.4216 3.36512 14.5443 3.76563 14.5778 4.50226C14.6144 5.29935 14.6217 5.53792 14.6217 7.55562C14.6217 9.57331 14.6144 9.81189 14.5778 10.609C14.5442 11.3456 14.4209 11.746 14.3179 12.0121C14.1805 12.3648 14.017 12.6165 13.7527 12.8805C13.4884 13.1446 13.2363 13.3084 12.8836 13.4457C12.6176 13.5494 12.2171 13.6721 11.4804 13.7056C10.684 13.7422 10.4447 13.7495 8.42695 13.7495C6.40917 13.7495 6.17059 13.7422 5.37438 13.7056ZM5.31182 0.0457564C4.50746 0.0823858 3.95781 0.209924 3.4778 0.396697C2.98069 0.589575 2.55986 0.848338 2.13933 1.26818C1.7188 1.68803 1.46069 2.10951 1.26781 2.60661C1.08103 3.0869 0.953483 3.63622 0.916852 4.44055C0.879617 5.24615 0.871094 5.50371 0.871094 7.55556C0.871094 9.6074 0.879617 9.86496 0.916852 10.6706C0.953483 11.475 1.08103 12.0242 1.26781 12.5045C1.46069 13.0013 1.71886 13.4233 2.13933 13.8429C2.5598 14.2626 2.98069 14.521 3.4778 14.7144C3.95872 14.9012 4.50746 15.0287 5.31182 15.0654C6.11788 15.102 6.37502 15.1111 8.42695 15.1111C10.4789 15.1111 10.7364 15.1026 11.5421 15.0654C12.3465 15.0287 12.8958 14.9012 13.3761 14.7144C13.8729 14.521 14.294 14.2628 14.7146 13.8429C15.1351 13.4231 15.3927 13.0013 15.5861 12.5045C15.7729 12.0242 15.901 11.4749 15.9371 10.6706C15.9737 9.86435 15.9822 9.6074 15.9822 7.55556C15.9822 5.50371 15.9737 5.24615 15.9371 4.44055C15.9004 3.63616 15.7729 3.0866 15.5861 2.60661C15.3927 2.10981 15.1344 1.6887 14.7146 1.26818C14.2947 0.847673 13.8729 0.589575 13.3767 0.396697C12.8958 0.209924 12.3464 0.0817813 11.5427 0.0457564C10.737 0.00912711 10.4795 0 8.42756 0C6.37563 0 6.11788 0.00852267 5.31182 0.0457564Z" fill="#FE5506"/>
</svg>
