<svg width="16" height="16" viewBox="0 0 16 16" fill="none" xmlns="http://www.w3.org/2000/svg">
<path fill-rule="evenodd" clip-rule="evenodd" d="M11.6297 14.1136C12.5476 14.5152 12.8918 13.6738 12.8918 13.6738L15.3203 1.47403C15.3011 0.651788 14.1921 1.14896 14.1921 1.14896L0.596364 6.48398C0.596364 6.48398 -0.0537811 6.71344 0.00358465 7.115C0.0609504 7.51656 0.577243 7.70778 0.577243 7.70778L4.00007 8.8551C4.00007 8.8551 5.03265 12.2397 5.24299 12.8898C5.43421 13.5209 5.60631 13.54 5.60631 13.54C5.79753 13.6165 5.96963 13.4826 5.96963 13.4826L8.18777 11.4748L11.6297 14.1136ZM12.2225 3.63499C12.2225 3.63499 12.7006 3.34816 12.6815 3.63499C12.6815 3.63499 12.758 3.67323 12.5094 3.94094C12.2799 4.1704 6.8684 9.02737 6.14177 9.67752C6.0844 9.71576 6.04616 9.77313 6.04616 9.84962L5.83582 11.6471C5.79758 11.8383 5.54899 11.8574 5.49162 11.6853L4.59289 8.74054C4.55465 8.62581 4.59289 8.49196 4.70763 8.41547L12.2225 3.63499Z" fill="#FE5506"/>
</svg>
