<svg width="32" height="32" viewBox="0 0 32 32" fill="none" xmlns="http://www.w3.org/2000/svg">
<path d="M27 11.3L26.1 4.3C26 3.6 25.4 3 24.6 3H19.4L20.7 1H22.4C22.8 1 23 0.8 23 0.5C23 0.2 22.8 0 22.5 0H8.5C8.2 0 8 0.2 8 0.5C8 0.8 8.2 1 8.5 1H10.2L11.5 3H7.4C6.6 3 6 3.6 5.9 4.3L5 11.4C5 11.5 5 11.5 5 11.6V22.2C5 22.4 5.1 22.7 5.2 22.9L6.8 26.1C7 26.7 7.5 27 8.1 27H9.6L7.1 31.2C7 31.4 7 31.7 7.3 31.9C7.3 32 7.4 32 7.5 32C7.7 32 7.8 31.9 7.9 31.8L8.4 31C8.4 31 8.4 31 8.5 31H23.5C23.6 31 23.6 31 23.6 31L24.1 31.8C24.2 32 24.4 32 24.5 32C24.6 32 24.7 32 24.8 31.9C25 31.8 25.1 31.5 25 31.2L22.4 27H23.9C24.5 27 25 26.7 25.2 26.2L26.8 23C26.9 22.8 27 22.6 27 22.3V11.5C27 11.4 27 11.3 27 11.3ZM6 17L15.5 16L26 17V19H6V17ZM11.4 1H19.5L18.2 3H12.7L11.4 1ZM6.9 4.4C6.9 4.2 7.1 4 7.4 4H24.6C24.9 4 25.1 4.2 25.1 4.4L26 11.4V16L15.5 15L6 15.9V11.5L6.9 4.4ZM9 30L9.6 29H22.4L23 30H9ZM21.8 28H10.2L10.8 27H21.2L21.8 28ZM25.9 22.5L24.3 25.7C24.2 25.9 24 26 23.9 26H8.1C7.9 26 7.7 25.9 7.7 25.7L6.1 22.5C6 22.4 6 22.3 6 22.3V20H26V22.3C26 22.3 26 22.4 25.9 22.5ZM9.7 13H22.3C22.7 13 23.2 12.8 23.4 12.5C23.6 12.2 23.8 11.7 23.7 11.3L23 7.3C23 6.5 22.4 6 21.7 6H10.3C9.6 6 9 6.5 8.9 7.3L8.2 11.3C8.1 11.7 8.2 12.2 8.5 12.5C8.8 12.8 9.2 13 9.7 13ZM9.9 7.4C9.9 7.2 10.1 7 10.4 7H21.7C21.9 7 22.2 7.2 22.2 7.4L22.9 11.4C22.9 11.5 22.9 11.7 22.8 11.8C22.7 11.9 22.6 12 22.4 12H9.7C9.6 12 9.4 11.9 9.3 11.8C9.2 11.7 9.2 11.5 9.2 11.4L9.9 7.4ZM10 21C8.9 21 8 21.9 8 23C8 24.1 8.9 25 10 25C11.1 25 12 24.1 12 23C12 21.9 11.1 21 10 21ZM10 24C9.4 24 9 23.6 9 23C9 22.4 9.4 22 10 22C10.6 22 11 22.4 11 23C11 23.6 10.6 24 10 24ZM22 21C20.9 21 20 21.9 20 23C20 24.1 20.9 25 22 25C23.1 25 24 24.1 24 23C24 21.9 23.1 21 22 21ZM22 24C21.4 24 21 23.6 21 23C21 22.4 21.4 22 22 22C22.6 22 23 22.4 23 23C23 23.6 22.6 24 22 24ZM13 21.5C13 21.2 13.2 21 13.5 21H18.5C18.8 21 19 21.2 19 21.5C19 21.8 18.8 22 18.5 22H13.5C13.2 22 13 21.8 13 21.5ZM19.5 23.5C19.5 23.8 19.3 24 19 24H13C12.7 24 12.5 23.8 12.5 23.5C12.5 23.2 12.7 23 13 23H19C19.3 23 19.5 23.2 19.5 23.5Z" fill="#FE5506"/>
</svg>
