<svg width="32" height="32" viewBox="0 0 32 32" fill="none" xmlns="http://www.w3.org/2000/svg">
<g clip-path="url(#clip0_397_10234)">
<path d="M32 14.5V9.5C32 8.7 31.3 8 30.5 8H30V1.5C30 0.7 29.3 0 28.5 0H3.5C2.7 0 2 0.7 2 1.5V8H1.5C0.7 8 0 8.7 0 9.5V14.5C0 15.3 0.7 16 1.5 16C0.7 16 0 16.7 0 17.5V28H1V30.5C1 31.3 1.7 32 2.5 32H6.5C7.3 32 8 31.3 8 30.5V28H24V30.5C24 31.3 24.7 32 25.5 32H29.5C30.3 32 31 31.3 31 30.5V28H32V17.5C32 16.7 31.3 16 30.5 16C31.3 16 32 15.3 32 14.5ZM3 1.5C3 1.2 3.2 1 3.5 1H28.5C28.8 1 29 1.2 29 1.5V8H27.6L27.1 5.2C27 4.5 26.4 4 25.7 4H6.3C5.6 4 5 4.5 4.9 5.3L4.4 8H3V1.5ZM5.9 5.4C5.9 5.2 6.1 5 6.3 5H25.6C25.8 5 26.1 5.2 26.1 5.4L27.4 12.6C25.9 13 20.9 14 16 14C11.2 14 6.2 13 4.7 12.6L5.9 5.4ZM1 14.5V9.5C1 9.2 1.2 9 1.5 9H4.2L3.2 15H1.5C1.2 15 1 14.8 1 14.5ZM1 19H2.3C3.4 19 4.3 19.7 4.7 20.7L5.8 24H1V19ZM7 30.5C7 30.8 6.8 31 6.5 31H2.5C2.2 31 2 30.8 2 30.5V28H7V30.5ZM30 30.5C30 30.8 29.8 31 29.5 31H25.5C25.2 31 25 30.8 25 30.5V28H30V30.5ZM1 27V25H31V27H1ZM10 18.5C10 18.4 10.1 18.2 10.1 18.1C10.2 18 10.3 18 10.5 18H21.5C21.8 18 22 18.2 22 18.5V24H10V18.5ZM26.2 24L27.3 20.7C27.6 19.7 28.6 19 29.7 19H31V24H26.2ZM31 17.5V18H29.7C28.2 18 26.9 19 26.4 20.4L25.1 24H23V18.5C23 17.7 22.3 17 21.5 17H10.5C10.1 17 9.7 17.2 9.4 17.4C9.2 17.7 9 18.1 9 18.5V24H6.9L5.7 20.4C5.2 19 3.8 18 2.3 18H1V17.5C1 17.2 1.2 17 1.5 17H2.7C3.4 17 4.1 16.5 4.2 15.7L4.6 13.6C6.2 14 11.2 15 16 15C20.9 15 26 14 27.6 13.6L28 15.8C28.1 16.5 28.7 17 29.5 17H30.6C30.8 17 31 17.2 31 17.5ZM31 14.5C31 14.8 30.8 15 30.5 15H28.8L27.8 9H30.5C30.8 9 31 9.2 31 9.5V14.5Z" fill="#FE5506"/>
</g>
<defs>
<clipPath id="clip0_397_10234">
<rect width="32" height="32" fill="white"/>
</clipPath>
</defs>
</svg>
