<svg width="17" height="17" viewBox="0 0 17 17" fill="none" xmlns="http://www.w3.org/2000/svg">
<path d="M13.4668 2.56102C13.0699 2.19609 11.4629 1.02766 7.8808 1.01166C7.8808 1.01166 3.65845 0.755561 1.6001 2.64425C0.454079 3.79027 0.0507318 5.46448 0.00911661 7.54524C-0.0324986 9.6228 -0.0869186 13.5186 3.66806 14.575H3.67126L3.66806 16.1852C3.66806 16.1852 3.64565 16.8382 4.0746 16.9695C4.59319 17.1295 4.90051 16.6334 5.39669 16.0988C5.66879 15.8043 6.04332 15.3753 6.32823 15.0456C8.89557 15.2601 10.8707 14.7671 11.0948 14.6935C11.6134 14.5238 14.5488 14.1493 15.0258 10.2534C15.5188 6.24557 14.7857 3.70704 13.4668 2.56102ZM13.9022 9.97173C13.4989 13.2241 11.1204 13.429 10.6818 13.5698C10.4962 13.6307 8.76112 14.0628 6.57792 13.9188C6.57792 13.9188 4.95172 15.8811 4.44594 16.3901C4.36591 16.4701 4.27308 16.5021 4.21225 16.4861C4.12582 16.4637 4.10021 16.3613 4.10341 16.2108C4.10341 15.9931 4.11622 13.5314 4.11622 13.5314C4.11302 13.5314 4.11302 13.5314 4.11622 13.5314C0.937456 12.6511 1.12312 9.3347 1.15834 7.59966C1.19355 5.86463 1.52007 4.44011 2.49002 3.48296C4.22826 1.90798 7.81677 2.14167 7.81677 2.14167C10.8451 2.15447 12.2952 3.06681 12.6313 3.37092C13.7485 4.33127 14.3184 6.62011 13.9022 9.97173Z" fill="#FE5506"/>
<path d="M9.35675 7.66025C9.25111 7.66025 9.16148 7.57702 9.15508 7.46818C9.11987 6.77993 8.79655 6.4438 8.13711 6.40859C8.02507 6.40219 7.93863 6.30615 7.94504 6.19411C7.95144 6.08207 8.04747 5.99564 8.15952 6.00204C9.03023 6.05006 9.51681 6.54944 9.56163 7.44577C9.56803 7.55781 9.4816 7.65385 9.36956 7.65705C9.36315 7.66025 9.35995 7.66025 9.35675 7.66025Z" fill="#FE5506"/>
<path d="M10.3937 8.00657H10.3905C10.2784 8.00337 10.1888 7.91054 10.192 7.79849C10.208 7.10704 10.0095 6.54684 9.58699 6.08587C9.16763 5.6249 8.58822 5.37521 7.82314 5.32079C7.7111 5.31119 7.62787 5.21515 7.63747 5.10311C7.64708 4.99107 7.74311 4.90784 7.85515 4.91744C8.71947 4.98146 9.40132 5.28237 9.8879 5.81377C10.3777 6.34836 10.6146 7.01741 10.5986 7.8081C10.5954 7.92014 10.5025 8.00657 10.3937 8.00657Z" fill="#FE5506"/>
<path d="M11.4566 8.42233C11.3446 8.42233 11.255 8.33269 11.255 8.22065C11.2454 6.9818 10.89 6.03745 10.1666 5.32999C9.45271 4.63214 8.54678 4.27681 7.48079 4.26721C7.36875 4.26721 7.27911 4.17437 7.27911 4.06233C7.27911 3.95029 7.37195 3.86066 7.48079 3.86066C8.65562 3.87026 9.65438 4.264 10.4451 5.03869C11.239 5.81337 11.6455 6.88256 11.6583 8.21425C11.6615 8.32949 11.5719 8.42233 11.4566 8.42233C11.4598 8.42233 11.4598 8.42233 11.4566 8.42233Z" fill="#FE5506"/>
<path d="M8.18499 10.1669C8.18499 10.1669 8.46989 10.1925 8.62355 10.0036L8.92126 9.62905C9.06531 9.44339 9.41424 9.32494 9.75356 9.51381C9.94243 9.61945 10.285 9.83073 10.4962 9.98759C10.7235 10.154 11.1845 10.5382 11.1877 10.5414C11.4086 10.7271 11.4598 10.9992 11.3093 11.2905C11.3093 11.2905 11.3093 11.2937 11.3093 11.2969C11.1557 11.569 10.9476 11.8251 10.6883 12.0619C10.6851 12.0619 10.6851 12.0651 10.6819 12.0651C10.4674 12.2444 10.2561 12.3468 10.0513 12.3693C10.0257 12.3757 9.99685 12.3757 9.95843 12.3757C9.8688 12.3757 9.77917 12.3629 9.68954 12.334L9.68313 12.3244C9.36302 12.2348 8.83162 12.0107 7.9481 11.5209C7.37189 11.204 6.89491 10.8807 6.48837 10.5574C6.27389 10.3877 6.05621 10.1989 5.83212 9.97478C5.82572 9.96838 5.81612 9.95877 5.80972 9.95237C5.80331 9.94597 5.79371 9.93637 5.78731 9.92996C5.78091 9.92356 5.7713 9.91396 5.7649 9.90756C5.7585 9.90115 5.74889 9.89155 5.74249 9.88515C5.52161 9.66107 5.32954 9.44339 5.15988 9.22891C4.83656 8.82556 4.51324 8.34539 4.19633 7.76917C3.70655 6.88245 3.48247 6.35106 3.39283 6.03414L3.38323 6.02774C3.35442 5.9381 3.34161 5.84847 3.34161 5.75884C3.34161 5.72042 3.34161 5.69161 3.34802 5.66601C3.37363 5.45793 3.47606 5.24985 3.65213 5.03537C3.65213 5.03217 3.65533 5.03217 3.65533 5.02897C3.89222 4.76648 4.14831 4.5616 4.42041 4.40794C4.42041 4.40794 4.42361 4.40794 4.42681 4.40794C4.71492 4.25749 4.98702 4.30871 5.17588 4.52959C5.17588 4.52959 5.56323 4.99376 5.72969 5.22104C5.88654 5.43552 6.09782 5.77484 6.20346 5.96371C6.39233 6.30304 6.27389 6.65197 6.08822 6.79602L5.71368 7.09373C5.52481 7.24738 5.55042 7.53229 5.55042 7.53229C5.55042 7.53229 6.10422 9.63866 8.18499 10.1669Z" fill="#FE5506"/>
</svg>
