<svg width="16" height="16" viewBox="0 0 16 16" fill="none" xmlns="http://www.w3.org/2000/svg">
<g clip-path="url(#clip0_371_5211)">
<path d="M13.6 2.3C12.1 0.8 10.2 0 8 0C3.7 0 0.1 3.6 0.1 7.9C0.1 9.3 0.5 10.7 1.2 11.9L0 16L4.2 14.9C5.4 15.5 6.7 15.9 8 15.9C12.4 15.9 15.9 12.3 15.9 8C16 5.8 15.1 3.8 13.6 2.3ZM8 14.5C6.8 14.5 5.7 14.2 4.6 13.6L4.4 13.5L1.9 14.2L2.6 11.8L2.4 11.6C1.7 10.5 1.4 9.3 1.4 8.1C1.4 4.5 4.4 1.5 8 1.5C9.7 1.5 11.4 2.2 12.7 3.4C13.9 4.6 14.6 6.3 14.6 8.1C14.6 11.6 11.7 14.5 8 14.5ZM6.1 4.6C5.9 4.3 5.7 4.3 5.6 4.3H5.2C5.1 4.3 4.9 4.3 4.7 4.5C4.5 4.7 4 5.2 4 6.2C4 7.2 4.7 8.1 4.8 8.2C4.9 8.3 6.2 10.4 8.2 11.2C9.9 11.9 10.2 11.7 10.6 11.7C11 11.7 11.8 11.2 11.9 10.8C12.1 10.3 12.1 9.9 12 9.9C11.9 9.9 11.8 9.8 11.6 9.7C11.4 9.6 10.4 9.1 10.2 9.1C10.1 8.9 10 8.8 9.8 9C9.7 9.2 9.3 9.7 9.2 9.8C9.1 10 9 10 8.8 9.9C8.6 9.8 8 9.6 7.2 8.9C6.6 8.4 6.2 7.7 6.1 7.5C6 7.3 6.1 7.2 6.2 7.1C6.3 7 6.4 6.9 6.5 6.8C6.6 6.7 6.6 6.6 6.7 6.5C6.8 6.4 6.7 6.3 6.7 6.2C6.6 6 6.2 5 6.1 4.6Z" fill="#FE5506"/>
</g>
<defs>
<clipPath id="clip0_371_5211">
<rect width="16" height="16" fill="white"/>
</clipPath>
</defs>
</svg>
