<svg width="26" height="26" viewBox="0 0 26 26" fill="none" xmlns="http://www.w3.org/2000/svg">
<path d="M9.39453 12.6751C10.2306 14.4017 11.6268 15.7942 13.3555 16.6259C13.483 16.6863 13.624 16.7124 13.7647 16.7017C13.9054 16.691 14.0409 16.6439 14.1578 16.5649L16.6969 14.8688C16.8091 14.7928 16.9387 14.7463 17.0737 14.7339C17.2086 14.7215 17.3446 14.7434 17.4688 14.7978L22.2219 16.8392C22.3843 16.9068 22.52 17.0259 22.6081 17.1782C22.6962 17.3305 22.7318 17.5076 22.7094 17.6821C22.5587 18.858 21.9848 19.9386 21.095 20.7219C20.2052 21.5051 19.0604 21.9373 17.875 21.9376C14.2117 21.9376 10.6984 20.4824 8.10809 17.892C5.51774 15.3017 4.0625 11.7884 4.0625 8.12509C4.06277 6.93965 4.49497 5.79493 5.27823 4.90511C6.06149 4.0153 7.14214 3.44137 8.31797 3.29072C8.49249 3.2683 8.66955 3.30388 8.82187 3.39196C8.97419 3.48005 9.09332 3.61577 9.16094 3.77822L11.2023 8.5415C11.2554 8.66373 11.2776 8.79714 11.267 8.92997C11.2564 9.06281 11.2132 9.19099 11.1414 9.30322L9.44531 11.8829C9.3698 11.9996 9.32548 12.1337 9.31659 12.2724C9.3077 12.4111 9.33454 12.5497 9.39453 12.6751V12.6751Z" stroke="#FE5506" stroke-width="2" stroke-linecap="round" stroke-linejoin="round"/>
</svg>
